<?xml version="1.0" encoding="utf-8"?>
<!-- Generator: Adobe Illustrator 21.1.0, SVG Export Plug-In . SVG Version: 6.00 Build 0)  -->
<svg version="1.1" id="Livello_1" xmlns="http://www.w3.org/2000/svg" xmlns:xlink="http://www.w3.org/1999/xlink" x="0px" y="0px"
	 viewBox="0 0 1089 764.9" style="enable-background:new 0 0 1089 764.9;" xml:space="preserve">
<style type="text/css">
	.st0{enable-background:new    ;}
	.st1{fill:#FFB6B6;}
	.st2{fill:#E75151;}
	.st3{fill:#EE0000;}
	.st4{fill:#98CCCC;}
	.st5{fill:#3A3A3A;}
	.st6{fill:none;stroke:#3A3A3A;stroke-width:1.0181;}
	.st7{fill:none;stroke:#3A3A3A;stroke-width:0.9304;}
	.st8{font-family:'SuisseIntl-Regular';}
	.st9{font-size:9.5518px;}
	.st10{fill:none;stroke:#3A3A3A;stroke-width:0.7634;}
	.st11{fill:none;stroke:#3A3A3A;stroke-width:0.7601;}
	.st12{font-size:7.8031px;}
</style>
<title>lazio</title>
<g>
	<g class="st0">
		<path d="M647.2,330.7v0.8c-1.8,1.5-3.1,4-3.3,6.8h-1.2c0.2-2.8,1.3-5.1,3.3-6.8h-4.1v-0.8H647.2z"/>
		<path d="M647.7,334.5c0-2.5,1-4,3-4s3,1.5,3,4s-1,4-3,4S647.7,337,647.7,334.5z M648.9,334.5c0,2.2,0.8,3.1,2,3.1s2-1,2-3.1
			s-0.8-3.1-2-3.1S648.9,332.3,648.9,334.5z"/>
	</g>
	<g class="st0">
		<path d="M647.2,343.4v0.8c-1.8,1.5-3.1,4-3.3,6.8h-1.2c0.2-2.8,1.3-5.1,3.3-6.8h-4.1v-0.8H647.2z"/>
		<path d="M650.2,348.5c-1.5,0-2.5-1-2.5-2.6c0-1.5,1-2.6,2.6-2.6c2,0,2.8,1.3,2.8,3.6c0,2.2-0.8,4.3-3,4.3c-1.5,0-2.2-1-2.3-2h1
			c0.2,0.7,0.7,1.2,1.5,1.2c1.2,0,1.8-1.2,1.8-3C651.9,348.1,651.2,348.5,650.2,348.5z M648.7,345.9c0,1,0.7,1.8,1.7,1.8
			s1.7-0.8,1.7-1.8s-0.7-1.8-1.7-1.8S648.7,344.7,648.7,345.9z"/>
	</g>
</g>
<g>
	<g class="st0">
		<path d="M676.2,334.3c1,0.3,1.3,1.2,1.3,2c0,1.5-1.2,2.3-2.8,2.3s-2.8-0.8-2.8-2.3c0-0.7,0.3-1.5,1.3-2c-0.8-0.5-1-1.2-1-1.8
			c0-1.2,1-2,2.6-2c1.5,0,2.6,0.8,2.6,2C677.2,333.2,677,333.8,676.2,334.3z M674.7,337.6c1.2,0,1.8-0.7,1.8-1.5s-0.7-1.5-1.8-1.5
			c-1.2,0-1.8,0.7-1.8,1.5C672.9,337.1,673.5,337.6,674.7,337.6z M673,332.7c0,0.8,0.7,1.3,1.7,1.3s1.7-0.5,1.7-1.3
			s-0.7-1.3-1.7-1.3C673.7,331.3,673,331.8,673,332.7z"/>
		<path d="M678.5,334.5c0-2.5,1-4,3-4s3,1.5,3,4s-1,4-3,4S678.5,337,678.5,334.5z M679.5,334.5c0,2.2,0.8,3.1,2,3.1s2-1,2-3.1
			s-0.8-3.1-2-3.1S679.5,332.3,679.5,334.5z"/>
	</g>
	<g class="st0">
		<path d="M676.2,347.1c1,0.3,1.3,1.2,1.3,2c0,1.5-1.2,2.3-2.8,2.3s-2.8-0.8-2.8-2.3c0-0.7,0.3-1.5,1.3-2c-0.8-0.5-1-1.2-1-1.8
			c0-1.2,1-2,2.6-2c1.5,0,2.6,0.8,2.6,2C677.2,345.9,677,346.6,676.2,347.1z M674.7,350.4c1.2,0,1.8-0.7,1.8-1.5s-0.7-1.5-1.8-1.5
			c-1.2,0-1.8,0.7-1.8,1.5S673.5,350.4,674.7,350.4z M673,345.4c0,0.8,0.7,1.3,1.7,1.3s1.7-0.5,1.7-1.3s-0.7-1.3-1.7-1.3
			S673,344.6,673,345.4z"/>
		<path d="M681,348.5c-1.5,0-2.5-1-2.5-2.6c0-1.5,1-2.6,2.6-2.6c2,0,2.8,1.3,2.8,3.6c0,2.2-0.8,4.3-3,4.3c-1.5,0-2.2-1-2.3-2h1
			c0.2,0.7,0.7,1.2,1.5,1.2c1.2,0,1.8-1.2,1.8-3C682.6,348.1,682,348.5,681,348.5z M679.5,345.9c0,1,0.7,1.8,1.7,1.8
			s1.7-0.8,1.7-1.8s-0.7-1.8-1.7-1.8S679.5,344.7,679.5,345.9z"/>
	</g>
</g>
<g>
	<g class="st0">
		<path d="M582.1,334c-0.8,0-1.3,0.5-1.5,0.8h-1l0.5-4.1h4.5v0.8H581l-0.3,2.2c0.3-0.3,1-0.7,1.7-0.7c1.3,0,2.5,1,2.5,2.6
			c0,1.8-1.3,2.6-2.8,2.6c-1.8,0-2.6-1.2-2.8-2.3h1c0.2,1,0.7,1.5,1.8,1.5c1,0,1.7-0.7,1.7-1.8C584,334.5,583.1,334,582.1,334z"/>
		<path d="M585.9,334.5c0-2.5,1-4,3-4s3,1.5,3,4s-1,4-3,4S585.9,337,585.9,334.5z M586.9,334.5c0,2.2,0.8,3.1,2,3.1s2-1,2-3.1
			s-0.8-3.1-2-3.1S586.9,332.3,586.9,334.5z"/>
	</g>
	<g class="st0">
		<path d="M582.1,346.7c-0.8,0-1.3,0.5-1.5,0.8h-1l0.5-4.1h4.5v0.8H581l-0.3,2.2c0.3-0.3,1-0.7,1.7-0.7c1.3,0,2.5,1,2.5,2.6
			c0,1.8-1.3,2.6-2.8,2.6c-1.8,0-2.6-1.2-2.8-2.3h1c0.2,1,0.7,1.5,1.8,1.5c1,0,1.7-0.7,1.7-1.8C584,347.2,583.1,346.7,582.1,346.7z"
			/>
		<path d="M588.4,348.5c-1.5,0-2.5-1-2.5-2.6c0-1.5,1-2.6,2.6-2.6c2,0,2.8,1.3,2.8,3.6c0,2.2-0.8,4.3-3,4.3c-1.5,0-2.2-1-2.3-2h1
			c0.2,0.7,0.7,1.2,1.5,1.2c1.2,0,1.8-1.2,1.8-3C590.1,348.1,589.4,348.5,588.4,348.5z M586.9,345.9c0,1,0.7,1.8,1.7,1.8
			s1.7-0.8,1.7-1.8s-0.7-1.8-1.7-1.8S586.9,344.7,586.9,345.9z"/>
	</g>
</g>
<g>
	<g class="st0">
		<path d="M613.4,333.2c1.5,0,2.5,1,2.5,2.6c0,1.5-1,2.6-2.6,2.6c-2,0-2.8-1.3-2.8-3.6c0-2.2,0.8-4.3,3-4.3c1.5,0,2.2,1,2.3,2h-1
			c-0.2-0.7-0.7-1.2-1.5-1.2c-1.2,0-1.8,1.2-1.8,3C611.8,333.7,612.4,333.2,613.4,333.2z M614.9,336c0-1-0.7-1.8-1.7-1.8
			s-1.7,0.8-1.7,1.8s0.7,1.8,1.7,1.8C614.1,337.6,614.9,337,614.9,336z"/>
		<path d="M616.9,334.5c0-2.5,1-4,3-4s3,1.5,3,4s-1,4-3,4S616.9,337,616.9,334.5z M617.9,334.5c0,2.2,0.8,3.1,2,3.1s2-1,2-3.1
			s-0.8-3.1-2-3.1S617.9,332.3,617.9,334.5z"/>
	</g>
	<g class="st0">
		<path d="M613.4,345.9c1.5,0,2.5,1,2.5,2.6c0,1.5-1,2.6-2.6,2.6c-2,0-2.8-1.3-2.8-3.6c0-2.2,0.8-4.3,3-4.3c1.5,0,2.2,1,2.3,2h-1
			c-0.2-0.7-0.7-1.2-1.5-1.2c-1.2,0-1.8,1.2-1.8,3C611.8,346.4,612.4,345.9,613.4,345.9z M614.9,348.5c0-1-0.7-1.8-1.7-1.8
			s-1.7,0.8-1.7,1.8s0.7,1.8,1.7,1.8C614.1,350.4,614.9,349.7,614.9,348.5z"/>
		<path d="M619.4,348.5c-1.5,0-2.5-1-2.5-2.6c0-1.5,1-2.6,2.6-2.6c2,0,2.8,1.3,2.8,3.6c0,2.2-0.8,4.3-3,4.3c-1.5,0-2.2-1-2.3-2h1
			c0.2,0.7,0.7,1.2,1.5,1.2c1.2,0,1.8-1.2,1.8-3C621,348.1,620.4,348.5,619.4,348.5z M617.9,345.9c0,1,0.7,1.8,1.7,1.8
			s1.7-0.8,1.7-1.8s-0.7-1.8-1.7-1.8C618.6,344.1,617.9,344.7,617.9,345.9z"/>
	</g>
</g>
<g>
	<g class="st0">
		<path d="M520.6,334.8L520.6,334.8l-0.2-0.8h0.2c1.3,0,2-0.3,2-1.3c0-0.8-0.7-1.3-1.5-1.3c-1,0-1.7,0.7-1.7,1.5h-1
			c0.2-1.3,1.2-2.3,2.6-2.3c1.3,0,2.5,0.5,2.5,2c0,0.8-0.5,1.5-1.3,1.8c1.2,0.3,1.5,1.2,1.5,2c0,1.5-1.3,2.3-2.8,2.3
			c-1.8,0-2.6-1.2-2.8-2.5h1c0.2,1,0.7,1.7,1.8,1.7c1,0,1.8-0.5,1.8-1.5C522.9,335.2,521.9,334.8,520.6,334.8z"/>
		<path d="M524.9,334.5c0-2.5,1-4,3-4s3,1.5,3,4s-1,4-3,4C525.7,338.5,524.9,337,524.9,334.5z M525.9,334.5c0,2.2,0.8,3.1,2,3.1
			s2-1,2-3.1s-0.8-3.1-2-3.1S525.9,332.3,525.9,334.5z"/>
	</g>
	<g class="st0">
		<path d="M520.6,347.4L520.6,347.4l-0.2-0.8h0.2c1.3,0,2-0.3,2-1.3c0-0.8-0.7-1.3-1.5-1.3c-1,0-1.7,0.7-1.7,1.5h-1
			c0.2-1.3,1.2-2.3,2.6-2.3c1.3,0,2.5,0.5,2.5,2c0,0.8-0.5,1.5-1.3,1.8c1.2,0.3,1.5,1.2,1.5,2c0,1.5-1.3,2.3-2.8,2.3
			c-1.8,0-2.6-1.2-2.8-2.5h1c0.2,1,0.7,1.7,1.8,1.7c1,0,1.8-0.5,1.8-1.5C522.9,347.9,521.9,347.4,520.6,347.4z"/>
		<path d="M527.2,348.5c-1.5,0-2.5-1-2.5-2.6c0-1.5,1-2.6,2.6-2.6c2,0,2.8,1.3,2.8,3.6c0,2.2-0.8,4.3-3,4.3c-1.5,0-2.2-1-2.3-2h1
			c0.2,0.7,0.7,1.2,1.5,1.2c1.2,0,1.8-1.2,1.8-3C528.9,348.1,528.2,348.5,527.2,348.5z M525.9,345.9c0,1,0.7,1.8,1.7,1.8
			s1.7-0.8,1.7-1.8s-0.7-1.8-1.7-1.8S525.9,344.7,525.9,345.9z"/>
	</g>
</g>
<g>
	<g class="st0">
		<path d="M553.4,337.5v1.8h-1v-1.8h-3.8v-1l3.8-5h1v5h1.5v1H553.4z M552.4,336.5V333l-2.8,3.5H552.4z"/>
		<path d="M555.6,335.5c0-2.5,1-4,3-4s3,1.5,3,4s-1,4-3,4S555.6,338,555.6,335.5z M556.7,335.5c0,2.2,0.8,3.1,2,3.1s2-1,2-3.1
			s-0.8-3.1-2-3.1C557.4,332.3,556.7,333.3,556.7,335.5z"/>
	</g>
	<g class="st0">
		<path d="M553.4,350.2v1.8h-1v-1.8h-3.8v-1l3.8-5h1v5h1.5v1H553.4z M552.4,349.2v-3.5l-2.8,3.5H552.4z"/>
		<path d="M558.1,349.5c-1.5,0-2.5-1-2.5-2.6c0-1.5,1-2.6,2.6-2.6c2,0,2.8,1.3,2.8,3.6c0,2.2-0.8,4.3-3,4.3c-1.5,0-2.2-1-2.3-2h1
			c0.2,0.7,0.7,1.2,1.5,1.2c1.2,0,1.8-1.2,1.8-3C559.7,349,559,349.5,558.1,349.5z M556.6,346.9c0,1,0.7,1.8,1.7,1.8
			s1.7-0.8,1.7-1.8s-0.7-1.8-1.7-1.8S556.6,345.7,556.6,346.9z"/>
	</g>
</g>
<g>
	<g class="st0">
		<path d="M459.8,332.3H458v-0.7c1.2,0,1.7-0.2,2.2-1h0.7v7.8h-1L459.8,332.3L459.8,332.3z"/>
		<path d="M462.3,334.5c0-2.5,1-4,3-4s3,1.5,3,4s-1,4-3,4S462.3,337,462.3,334.5z M463.5,334.5c0,2.2,0.8,3.1,2,3.1s2-1,2-3.1
			s-0.8-3.1-2-3.1C464.1,331.3,463.5,332.3,463.5,334.5z"/>
	</g>
	<g class="st0">
		<path d="M459.8,345.1H458v-0.7c1.2,0,1.7-0.2,2.2-1h0.7v7.8h-1L459.8,345.1L459.8,345.1z"/>
		<path d="M464.8,348.5c-1.5,0-2.5-1-2.5-2.6c0-1.5,1-2.6,2.6-2.6c2,0,2.8,1.3,2.8,3.6c0,2.2-0.8,4.3-3,4.3c-1.5,0-2.2-1-2.3-2h1
			c0.2,0.7,0.7,1.2,1.5,1.2c1.2,0,1.8-1.2,1.8-3C466.4,348.1,465.8,348.5,464.8,348.5z M463.3,345.9c0,1,0.7,1.8,1.7,1.8
			s1.7-0.8,1.7-1.8s-0.7-1.8-1.7-1.8S463.3,344.7,463.3,345.9z"/>
	</g>
</g>
<g>
	<g class="st0">
		<path d="M489,337.5h4.3v0.8h-5.6v-0.8c2.6-2,4.3-3.5,4.3-4.8c0-0.8-0.5-1.3-1.5-1.3c-0.8,0-1.7,0.5-1.7,1.7h-1
			c0-1.5,1-2.5,2.6-2.5c1.5,0,2.5,0.7,2.5,2C493,334.3,491.1,336,489,337.5z"/>
		<path d="M494.1,334.5c0-2.5,1-4,3-4s3,1.5,3,4s-1,4-3,4S494.1,337,494.1,334.5z M495.1,334.5c0,2.2,0.8,3.1,2,3.1s2-1,2-3.1
			s-0.8-3.1-2-3.1S495.1,332.3,495.1,334.5z"/>
	</g>
	<g class="st0">
		<path d="M489,350.2h4.3v0.8h-5.6v-0.8c2.6-2,4.3-3.5,4.3-4.8c0-0.8-0.5-1.3-1.5-1.3c-0.8,0-1.7,0.5-1.7,1.7h-1
			c0-1.5,1-2.5,2.6-2.5c1.5,0,2.5,0.7,2.5,2C493,347.1,491.1,348.7,489,350.2z"/>
		<path d="M496.6,348.5c-1.5,0-2.5-1-2.5-2.6c0-1.5,1-2.6,2.6-2.6c2,0,2.8,1.3,2.8,3.6c0,2.2-0.8,4.3-3,4.3c-1.5,0-2.2-1-2.3-2h1
			c0.2,0.7,0.7,1.2,1.5,1.2c1.2,0,1.8-1.2,1.8-3C498.3,348.1,497.6,348.5,496.6,348.5z M495.1,345.9c0,1,0.7,1.8,1.7,1.8
			s1.7-0.8,1.7-1.8s-0.7-1.8-1.7-1.8C495.8,344.1,495.1,344.7,495.1,345.9z"/>
	</g>
</g>
<g class="st0">
	<path d="M699.2,338.3v-1l4.3-1.8l-4.3-1.8v-1l5.5,2.5v0.8L699.2,338.3z"/>
	<path d="M708.5,335.8c-1.5,0-2.5-1-2.5-2.6c0-1.5,1-2.6,2.6-2.6c2,0,2.8,1.3,2.8,3.6c0,2.2-0.8,4.3-3,4.3c-1.5,0-2.2-1-2.3-2h1
		c0.2,0.7,0.7,1.2,1.5,1.2c1.2,0,1.8-1.2,1.8-3C710.2,335.3,709.5,335.8,708.5,335.8z M707,333.2c0,1,0.7,1.8,1.7,1.8
		s1.7-0.8,1.7-1.8s-0.7-1.8-1.7-1.8C707.7,331.3,707,332,707,333.2z"/>
	<path d="M712.5,334.5c0-2.5,1-4,3-4s3,1.5,3,4s-1,4-3,4S712.5,337,712.5,334.5z M713.5,334.5c0,2.2,0.8,3.1,2,3.1s2-1,2-3.1
		s-0.8-3.1-2-3.1S713.5,332.3,713.5,334.5z"/>
</g>
<g class="st0">
	<path d="M430,333.7l-4.3,1.8l4.3,1.8v1l-5.5-2.3v-0.8l5.5-2.5V333.7z"/>
	<path d="M436.3,335.8c-1.5,0-2.5-1-2.5-2.6c0-1.5,1-2.6,2.6-2.6c2,0,2.8,1.3,2.8,3.6c0,2.2-0.8,4.3-3,4.3c-1.5,0-2.2-1-2.3-2h1
		c0.2,0.7,0.7,1.2,1.5,1.2c1.2,0,1.8-1.2,1.8-3C438.1,335.3,437.5,335.8,436.3,335.8z M435,333.2c0,1,0.7,1.8,1.7,1.8
		s1.7-0.8,1.7-1.8s-0.7-1.8-1.7-1.8C435.6,331.3,435,332,435,333.2z"/>
</g>
<g class="st0">
	<path class="st1" d="M665.7,87.4v-3.7c3.6-0.3,5.9-1,7.4-1.6c1.4-0.8,2.5-2.7,3.1-5.6h3.8v38.4h-5.2V87.5h-9.2v-0.1H665.7z"/>
	<path class="st1" d="M696.3,92.1c-1.4-1.4-2.2-3.3-2.2-5.6c0-2.9,1.1-5.3,3.1-7.4c2.1-2.1,5.1-3.1,8.9-3.1c3.7,0,6.6,1,8.6,2.9
		c2.1,1.9,3.1,4.2,3.1,6.8c0,2.5-0.5,4.4-1.8,5.9c-0.7,0.8-1.8,1.6-3.1,2.5c1.6,0.7,2.9,1.6,3.8,2.5c1.8,1.8,2.6,4.1,2.6,7
		c0,3.4-1.1,6.3-3.4,8.6c-2.3,2.3-5.5,3.6-9.7,3.6c-3.7,0-7-1-9.6-3c-2.6-2.1-3.8-5.1-3.8-8.9c0-2.3,0.5-4.2,1.6-5.9
		c1.1-1.6,2.7-2.9,4.9-3.8C698.1,93.6,697,92.9,696.3,92.1z M711.9,109.6c1.5-1.2,2.2-3,2.2-5.5s-0.8-4.4-2.3-5.7
		c-1.5-1.2-3.4-1.9-5.9-1.9c-2.3,0-4.2,0.7-5.6,1.9c-1.5,1.4-2.2,3.1-2.2,5.5c0,2.1,0.7,3.7,2.1,5.2c1.4,1.5,3.4,2.2,6.2,2.2
		C708.6,111.3,710.4,110.8,711.9,109.6z M710.9,90.6c1.2-1.2,1.8-2.6,1.8-4.2c0-1.5-0.5-2.7-1.8-4c-1.1-1.2-2.9-1.8-5.2-1.8
		s-4,0.5-5.1,1.8c-1.1,1.2-1.5,2.6-1.5,4.2c0,1.8,0.7,3.3,2.1,4.2c1.4,1,2.9,1.5,4.8,1.5C708,92.3,709.8,91.7,710.9,90.6z"/>
</g>
<g class="st0">
	<path class="st2" d="M665.7,113.4v-3.7c3.6-0.3,5.9-1,7.4-1.6c1.4-0.8,2.5-2.7,3.1-5.6h3.8v38.4h-5.2v-27.3h-9.2v-0.2H665.7z"/>
	<path class="st2" d="M698.3,131.3c0.1,2.7,1.2,4.5,3.1,5.6c1,0.5,2.1,0.8,3.3,0.8c2.3,0,4.2-1,5.9-2.9c1.6-1.9,2.7-5.9,3.4-11.8
		c-1.1,1.6-2.5,2.9-4,3.6c-1.6,0.7-3.3,1.1-5.1,1.1c-3.7,0-6.7-1.1-8.7-3.4c-2.2-2.3-3.3-5.3-3.3-8.9s1.1-6.6,3.1-9.2
		c2.2-2.6,5.3-4,9.4-4c5.6,0,9.4,2.5,11.6,7.5c1.2,2.7,1.8,6.3,1.8,10.4c0,4.6-0.7,8.9-2.2,12.6c-2.3,6-6.3,9-11.9,9
		c-3.8,0-6.6-1-8.6-3c-1.9-1.9-2.9-4.5-2.9-7.4h4.9v0H698.3z M710.9,121.6c1.6-1.2,2.3-3.4,2.3-6.6c0-2.9-0.7-4.9-2.2-6.3
		c-1.4-1.4-3.3-2.1-5.5-2.1c-2.3,0-4.2,0.8-5.6,2.3c-1.4,1.6-2.1,3.7-2.1,6.3c0,2.5,0.5,4.5,1.8,6c1.2,1.5,3.1,2.2,5.9,2.2
		C707.6,123.4,709.4,122.8,710.9,121.6z"/>
</g>
<g class="st0">
	<path class="st3" d="M664.2,151.1c1.2-2.5,3.6-4.6,7-6.7l5.2-3c2.3-1.4,4-2.5,4.9-3.4c1.5-1.5,2.2-3.1,2.2-5.1c0-2.2-0.7-4-2.1-5.3
		c-1.4-1.4-3.1-1.9-5.3-1.9c-3.3,0-5.6,1.2-6.8,3.8c-0.7,1.4-1.1,3.3-1.1,5.6h-4.9c0-3.4,0.7-6.2,1.9-8.2c2.1-3.7,5.7-5.6,11.1-5.6
		c4.4,0,7.7,1.2,9.7,3.6c2.1,2.3,3,5.1,3,7.9c0,3.1-1.1,5.7-3.3,7.9c-1.2,1.2-3.6,2.9-6.7,4.6l-3.7,2.1c-1.8,1-3.1,1.9-4.1,2.7
		c-1.8,1.5-2.9,3.3-3.4,5.2h21v4.5h-26.7C662.2,156.4,662.9,153.6,664.2,151.1z"/>
	<path class="st3" d="M716.8,127.3c1.8,3.1,2.6,7.5,2.6,13c0,5.2-0.8,9.6-2.3,13c-2.3,4.9-6,7.4-11.1,7.4c-4.6,0-8.1-2.1-10.4-6
		c-1.9-3.4-2.9-7.8-2.9-13.5c0-4.4,0.5-8.1,1.6-11.2c2.1-5.9,5.9-8.7,11.5-8.7C710.9,121.2,714.5,123.2,716.8,127.3z M711.9,153
		c1.5-2.2,2.2-6.4,2.2-12.4c0-4.4-0.5-7.9-1.6-10.8c-1.1-2.9-3.1-4.2-6.3-4.2c-2.9,0-4.9,1.4-6.3,4c-1.4,2.7-1.9,6.6-1.9,11.9
		c0,4,0.4,7.1,1.2,9.4c1.2,3.7,3.6,5.5,6.6,5.5C708.3,156.3,710.4,155.2,711.9,153z"/>
</g>
<g class="st0">
	<path class="st4" d="M636.7,151.1H630v-1.5h17.2v1.5h-2.1c1.5,1,2.5,2.5,2.5,4.4c0,3-2.5,5.3-6.7,5.3s-6.7-2.5-6.7-5.3
		C634.2,153.6,635.2,152.1,636.7,151.1z M640.9,159.2c3.4,0,5.3-1.6,5.3-4.1c0-1.9-1.5-4.1-5.3-4.1s-5.3,2.2-5.3,4.1
		C635.6,157.5,637.5,159.2,640.9,159.2z"/>
	<path class="st4" d="M647.6,142.4c0,2.9-1.8,4.1-4.9,4.1h-8.1v-1.4h7.8c2.5,0,4-0.5,4-3c0-2.1-1.9-3.7-4.5-3.7h-7.2v-1.5h12.7v1.5
		h-2.1C646.4,138.9,647.6,140.2,647.6,142.4z"/>
	<path class="st4" d="M634.2,128.3c0-3.6,3-5.9,7-5.7v10.1c3.1,0,4.9-2.1,4.9-4.6c0-2.1-1-3.4-2.7-3.8v-1.5c2.6,0.7,4.1,2.7,4.1,5.5
		c0,3.7-2.7,6-6.7,6C636.8,134.2,634.2,131.7,634.2,128.3z M640,124.2c-2.2,0-4.4,1.5-4.4,4.1c0,2.3,1.5,4.1,4.4,4.4V124.2z"/>
	<path class="st4" d="M647.2,119.9h-12.7v-1.5h2.2c-1.2-0.7-2.3-1.8-2.3-4c0-2.1,1-3.3,2.6-3.7c-1.6-1-2.6-2.2-2.6-4.4
		c0-2.9,1.8-4.1,4.9-4.1h8.1v1.5h-7.7c-2.5,0-4,0.5-4,3c0,2.1,1.9,3.7,4.5,3.7h7.1v1.5h-7.7c-2.5,0-4,0.5-4,3c0,2.1,1.9,3.7,4.5,3.7
		h7.1v1.2h0V119.9z"/>
	<path class="st4" d="M632.5,97.8v1.5h-2.3v-1.5H632.5z M647.2,97.8v1.5h-12.7v-1.5H647.2z"/>
	<path class="st4" d="M647.2,94.2H630v-1.5h17.2V94.2z"/>
	<path class="st4" d="M647.6,85.9c0,2.3-1.4,4.2-3.4,4.2c-2.9,0-4-2.9-4.5-9h-0.4c-2.9,0-3.6,1.6-3.6,3.6c0,2.2,1.2,3.4,2.9,3.6v1.5
		c-2.5-0.3-4.2-2.3-4.2-5.2c0-3,1.2-4.9,5.1-4.9c1.8,0,2.9,0,4,0c1.5,0,2.7-0.1,4.1-0.1V81l-1.9,0.1
		C646.7,81.9,647.6,83.6,647.6,85.9z M641.5,81.1h-0.7c0.5,5.2,1.2,7.4,3.3,7.4c1.4,0,2.2-1.2,2.2-2.9
		C646.3,83.3,645,81.1,641.5,81.1z"/>
</g>
<g class="st0">
	<path class="st5" d="M421.6,112.9c0-1,0.6-1.5,1.6-1.5h2.7v0.5h-2.6c-0.8,0-1.3,0.2-1.3,1.1c0,0.8,0.6,1.3,1.6,1.3h2.4v0.5h-4.4
		v-0.5h0.8C421.9,114.1,421.6,113.7,421.6,112.9z"/>
	<path class="st5" d="M426.1,109.1c0,1-0.6,1.5-1.6,1.5h-2.7v-0.5h2.6c0.8,0,1.3-0.2,1.3-1c0-0.6-0.6-1.3-1.6-1.3h-2.4v-0.5h4.4v0.5
		h-0.6C425.7,107.8,426.1,108.3,426.1,109.1z"/>
	<path class="st5" d="M426,105.9h-4.4v-0.5h0.8c-0.5-0.2-0.8-0.6-0.8-1.3c0-0.6,0.3-1.1,0.8-1.3c-0.5-0.3-0.8-0.8-0.8-1.5
		c0-1,0.6-1.5,1.6-1.5h2.7v0.5h-2.6c-0.8,0-1.3,0.2-1.3,1c0,0.6,0.6,1.3,1.6,1.3h2.4v0.5h-2.6c-0.8,0-1.3,0.2-1.3,1
		c0,0.6,0.6,1.3,1.6,1.3h2.4v0.5H426z"/>
	<path class="st5" d="M421.6,97.2c0-1.3,1-1.9,2.4-1.9v3.4c1,0,1.6-0.6,1.6-1.6c0-0.6-0.3-1.1-1-1.3v-0.5c1,0.2,1.5,1,1.5,1.9
		c0,1.3-1,2.1-2.3,2.1C422.4,99.3,421.6,98.3,421.6,97.2z M423.6,95.9c-0.8,0-1.5,0.5-1.5,1.5c0,0.8,0.5,1.5,1.5,1.5V95.9z"/>
	<path class="st5" d="M422.1,92.7c0,1,0.6,1.1,1.6,1.1h2.3v0.5h-4.4V94h0.8c-0.5-0.2-0.8-0.8-0.8-1.3v-0.2h0.5
		C422.1,92.7,422.1,92.7,422.1,92.7z"/>
	<path class="st5" d="M423.9,88.3c1.6,0,2.3,1,2.3,1.9c0,1-0.6,1.9-2.3,1.9s-2.3-1-2.3-1.9S422.3,88.3,423.9,88.3z M423.9,88.8
		c-1.3,0-1.8,0.6-1.8,1.5s0.5,1.5,1.8,1.5s1.8-0.6,1.8-1.5S425,88.8,423.9,88.8z"/>
	<path class="st5" d="M420.6,84.7h1v-0.8h0.5v0.8h2.7c0.5,0,0.6,0,0.6-0.6v-0.3h0.5v0.5c0,0.8-0.2,1-1,1H422v0.6h-0.5v-0.6h-1
		L420.6,84.7L420.6,84.7z"/>
	<path class="st5" d="M421.6,81.4c0-1.3,1-1.9,2.4-1.9v3.4c1,0,1.6-0.6,1.6-1.6c0-0.6-0.3-1.1-1-1.3v-0.5c1,0.2,1.5,1,1.5,1.9
		c0,1.3-1,2.1-2.3,2.1C422.4,83.5,421.6,82.6,421.6,81.4z M423.6,80.1c-0.8,0-1.5,0.5-1.5,1.5c0,0.8,0.5,1.5,1.5,1.5V80.1z"/>
	<path class="st5" d="M421.9,77.2c0,0.5,0.2,1.1,0.6,1.1s0.6-0.3,0.8-0.8l0.2-0.6c0.2-0.6,0.3-1.5,1.1-1.5c0.8,0,1.3,0.8,1.3,1.8
		s-0.5,1.6-1.5,1.8v-0.5c0.6-0.2,1-0.6,1-1.3c0-0.5-0.2-1.1-0.8-1.1c-0.5,0-0.6,0.5-0.8,1.1l-0.2,0.6c-0.2,0.6-0.5,1.1-1.1,1.1
		s-1.1-0.6-1.1-1.6s0.6-1.6,1.3-1.6v0.5C422.3,76,421.9,76.5,421.9,77.2z"/>
	<path class="st5" d="M421.9,73c0,0.5,0.2,1.1,0.6,1.1s0.6-0.3,0.8-0.8l0.2-0.6c0.2-0.6,0.3-1.5,1.1-1.5c0.8,0,1.3,0.8,1.3,1.8
		s-0.5,1.6-1.5,1.8v-0.5c0.6-0.2,1-0.6,1-1.3c0-0.5-0.2-1.1-0.8-1.1c-0.5,0-0.6,0.5-0.8,1.1l-0.2,0.6c-0.2,0.6-0.5,1.1-1.1,1.1
		s-1.1-0.6-1.1-1.6s0.6-1.6,1.3-1.6V72C422.3,71.8,421.9,72.3,421.9,73z"/>
	<path class="st5" d="M421.6,68.4c0-1.3,1-1.9,2.4-1.9v3.4c1,0,1.6-0.6,1.6-1.6c0-0.6-0.3-1.1-1-1.3v-0.5c1,0.2,1.5,1,1.5,1.9
		c0,1.3-1,2.1-2.3,2.1C422.4,70.5,421.6,69.7,421.6,68.4z M423.6,67.1c-0.8,0-1.5,0.5-1.5,1.5c0,0.8,0.5,1.5,1.5,1.5V67.1z"/>
	<path class="st5" d="M422.1,64.1c0,1,0.6,1.1,1.6,1.1h2.3v0.5h-4.4v-0.5h0.8c-0.5-0.2-0.8-0.8-0.8-1.3v-0.2h0.5
		C422.1,63.9,422.1,63.9,422.1,64.1z"/>
	<path class="st5" d="M421,62.6v0.5h-0.8v-0.5H421z M426,62.6v0.5h-4.4v-0.5H426z"/>
	<path class="st5" d="M421.6,59.6c0-1,0.6-1.5,1.6-1.5h2.7v0.5h-2.6c-0.8,0-1.3,0.2-1.3,1.1c0,0.8,0.6,1.3,1.6,1.3h2.4v0.5h-4.4V61
		h0.8C421.9,60.7,421.6,60.4,421.6,59.6z"/>
	<path class="st5" d="M421,56.5V57h-0.8v-0.5H421z M426,56.5V57h-4.4v-0.5H426z"/>
</g>
<g class="st0">
	<path class="st5" d="M738.6,297.8h0.4v0.5h-0.4c-0.5,0-0.7,0-0.7,0.7v0.5h0.9v0.5h-0.9v4.3h-0.5V300h-0.7v-0.5h0.7V299
		C737.5,298,737.7,297.8,738.6,297.8z"/>
	<path class="st5" d="M741.2,304.3c-0.9,0-1.6-0.5-1.6-1.3c0-1.1,1.1-1.4,3.4-1.8V301c0-1.1-0.7-1.3-1.3-1.3c-0.9,0-1.3,0.5-1.4,1.1
		h-0.5c0.2-0.9,0.9-1.6,2-1.6s1.8,0.5,1.8,2c0,0.7,0,1.1,0,1.4c0,0.5,0,1.1,0,1.6H743v-0.7C742.6,304.1,742.1,304.3,741.2,304.3z
		 M743,302.1v-0.2c-2,0.2-2.9,0.5-2.9,1.3c0,0.5,0.5,0.9,1.1,0.9C742.1,303.9,743,303.4,743,302.1z"/>
	<path class="st5" d="M746.2,299.8c-0.5,0-1.3,0.2-1.3,0.7s0.4,0.7,0.9,0.9l0.7,0.2c0.7,0.2,1.6,0.4,1.6,1.3s-0.9,1.4-2,1.4
		s-1.8-0.5-2-1.6h0.5c0.2,0.7,0.7,1.1,1.4,1.1c0.5,0,1.3-0.2,1.3-0.9c0-0.5-0.5-0.7-1.3-0.9l-0.7-0.2c-0.7-0.2-1.3-0.5-1.3-1.3
		c0-0.7,0.7-1.3,1.8-1.3s1.8,0.7,1.8,1.4h-0.5C747.5,300.1,746.9,299.8,746.2,299.8z"/>
	<path class="st5" d="M752.5,301c-0.2-0.7-0.7-1.1-1.4-1.1c-0.9,0-1.6,0.7-1.6,2c0,1.4,0.7,2,1.6,2c0.9,0,1.3-0.5,1.4-1.1h0.5
		c-0.2,1.1-1.1,1.6-2.2,1.6c-1.4,0-2.2-1.1-2.2-2.5s0.7-2.5,2.2-2.5c1.1,0,1.8,0.7,2,1.6H752.5z"/>
	<path class="st5" d="M756.2,299.4c1.4,0,2.2,1.1,2.2,2.7h-3.8c0,1.1,0.7,1.8,1.8,1.8c0.7,0,1.3-0.4,1.4-1.1h0.5
		c-0.2,1.1-1.1,1.6-2.2,1.6c-1.4,0-2.3-1.1-2.3-2.5C753.8,300.3,754.7,299.4,756.2,299.4z M757.6,301.4c0-0.9-0.5-1.6-1.6-1.6
		c-0.9,0-1.6,0.5-1.6,1.6H757.6z"/>
	<path class="st5" d="M764.6,300.3v-2.5h0.5v6.5h-0.5v-0.7c-0.4,0.5-0.9,0.9-1.6,0.9c-1.1,0-2-0.9-2-2.5s0.9-2.5,2-2.5
		C763.7,299.4,764.3,299.6,764.6,300.3z M761.6,301.9c0,1.3,0.7,2,1.6,2c0.7,0,1.6-0.5,1.6-2c0-1.4-0.9-2-1.6-2
		C762.3,299.8,761.6,300.5,761.6,301.9z"/>
	<path class="st5" d="M767.2,297.8v0.9l-0.4,1.1h-0.4l0.4-1.3h-0.4v-0.9h0.7v0.2H767.2z"/>
	<path class="st5" d="M769.9,299.4c1.4,0,2.2,1.1,2.2,2.7h-3.8c0,1.1,0.7,1.8,1.8,1.8c0.7,0,1.3-0.4,1.4-1.1h0.5
		c-0.2,1.1-1.1,1.6-2.2,1.6c-1.4,0-2.3-1.1-2.3-2.5C767.5,300.3,768.6,299.4,769.9,299.4z M771.5,301.4c0-0.9-0.5-1.6-1.6-1.6
		c-0.9,0-1.6,0.5-1.6,1.6H771.5z"/>
	<path class="st5" d="M773.9,298.3v1.1h0.9v0.5h-0.9v3.1c0,0.5,0,0.7,0.7,0.7h0.4v0.5h-0.5c-0.9,0-1.1-0.2-1.1-1.1V300h-0.7v-0.5
		h0.7v-1.1h0.5V298.3z"/>
	<path class="st5" d="M776.9,304.3c-0.9,0-1.6-0.5-1.6-1.3c0-1.1,1.1-1.4,3.4-1.8V301c0-1.1-0.7-1.3-1.3-1.3c-0.9,0-1.3,0.5-1.4,1.1
		h-0.5c0.2-0.9,0.9-1.6,2-1.6s1.8,0.5,1.8,2c0,0.7,0,1.1,0,1.4c0,0.5,0,1.1,0,1.6h-0.5v-0.7C778.4,304.1,777.8,304.3,776.9,304.3z
		 M778.7,302.1v-0.2c-2,0.2-2.9,0.5-2.9,1.3c0,0.5,0.5,0.9,1.1,0.9C778,303.9,778.7,303.4,778.7,302.1z M776.9,297.8l0.7,1.1h-0.5
		l-1.1-1.1H776.9z"/>
</g>
<g class="st0">
	<path class="st5" d="M57,466.6c0-0.8,0.5-1.1,1.3-1.1h2.2v0.4h-2c-0.6,0-1,0.1-1,0.9c0,0.6,0.5,1,1.3,1h1.9v0.4h-3.4v-0.4h0.6
		C57.2,467.6,57,467.2,57,466.6z"/>
	<path class="st5" d="M60.6,463.7c0,0.8-0.5,1.1-1.3,1.1h-2.2v-0.4h2c0.6,0,1-0.1,1-0.8c0-0.5-0.5-1-1.3-1H57v-0.4h3.4v0.4h-0.5
		C60.2,462.6,60.6,463,60.6,463.7z"/>
	<path class="st5" d="M60.4,461.1H57v-0.4h0.6c-0.4-0.1-0.6-0.5-0.6-1s0.3-0.9,0.6-1c-0.4-0.3-0.6-0.6-0.6-1.1
		c0-0.8,0.5-1.1,1.3-1.1h2.2v0.4h-2c-0.6,0-1,0.1-1,0.8c0,0.5,0.5,1,1.3,1h1.9v0.4h-2c-0.6,0-1,0.1-1,0.8c0,0.5,0.5,1,1.3,1h1.9v0.4
		h-0.5V461.1z"/>
	<path class="st5" d="M57,454.2c0-1,0.8-1.5,1.9-1.5v2.7c0.8,0,1.3-0.5,1.3-1.3c0-0.5-0.3-0.9-0.8-1v-0.4c0.8,0.1,1.1,0.8,1.1,1.5
		c0,1-0.8,1.7-1.8,1.7C57.6,455.9,57,455.1,57,454.2z M58.5,453.2c-0.6,0-1.1,0.4-1.1,1.1c0,0.6,0.4,1.1,1.1,1.1V453.2z"/>
	<path class="st5" d="M57.4,450.6c0,0.8,0.5,0.9,1.3,0.9h1.8v0.4H57v-0.3h0.6c-0.4-0.1-0.6-0.6-0.6-1v-0.1h0.4
		C57.4,450.6,57.4,450.6,57.4,450.6z"/>
	<path class="st5" d="M58.8,447.2c1.3,0,1.8,0.8,1.8,1.5s-0.5,1.5-1.8,1.5s-1.8-0.8-1.8-1.5S57.5,447.2,58.8,447.2z M58.8,447.6
		c-1,0-1.4,0.5-1.4,1.1s0.4,1.1,1.4,1.1s1.4-0.5,1.4-1.1S59.7,447.6,58.8,447.6z"/>
	<path class="st5" d="M56.2,444.4H57v-0.6h0.4v0.6h2.2c0.4,0,0.5,0,0.5-0.5v-0.3h0.4v0.4c0,0.6-0.1,0.8-0.8,0.8h-2.3v0.5H57v-0.5
		h-0.8V444.4z"/>
	<path class="st5" d="M57,441.7c0-1,0.8-1.5,1.9-1.5v2.7c0.8,0,1.3-0.5,1.3-1.3c0-0.5-0.3-0.9-0.8-1v-0.4c0.8,0.1,1.1,0.8,1.1,1.5
		c0,1-0.8,1.7-1.8,1.7C57.6,443.4,57,442.7,57,441.7z M58.5,440.7c-0.6,0-1.1,0.4-1.1,1.1c0,0.6,0.4,1.1,1.1,1.1V440.7z"/>
	<path class="st5" d="M57.2,438.4c0,0.4,0.1,0.9,0.5,0.9s0.5-0.3,0.6-0.6l0.1-0.5c0.1-0.5,0.3-1.1,0.9-1.1s1,0.6,1,1.4
		s-0.4,1.3-1.1,1.4v-0.4c0.5-0.1,0.8-0.5,0.8-1c0-0.4-0.1-0.9-0.6-0.9c-0.4,0-0.5,0.4-0.6,0.9l-0.1,0.5c-0.1,0.5-0.4,0.9-0.9,0.9
		s-0.9-0.5-0.9-1.3s0.5-1.3,1-1.3v0.4C57.5,437.5,57.2,437.9,57.2,438.4z"/>
	<path class="st5" d="M57.2,435.1c0,0.4,0.1,0.9,0.5,0.9s0.5-0.3,0.6-0.6l0.1-0.5c0.1-0.5,0.3-1.1,0.9-1.1s1,0.6,1,1.4
		s-0.4,1.3-1.1,1.4v-0.4c0.5-0.1,0.8-0.5,0.8-1c0-0.4-0.1-0.9-0.6-0.9c-0.4,0-0.5,0.4-0.6,0.9l-0.1,0.5c-0.1,0.5-0.4,0.9-0.9,0.9
		s-0.9-0.5-0.9-1.3s0.5-1.3,1-1.3v0.4C57.5,434.2,57.2,434.5,57.2,435.1z"/>
	<path class="st5" d="M57,431.5c0-1,0.8-1.5,1.9-1.5v2.7c0.8,0,1.3-0.5,1.3-1.3c0-0.5-0.3-0.9-0.8-1V430c0.8,0.1,1.1,0.8,1.1,1.5
		c0,1-0.8,1.7-1.8,1.7C57.6,433.1,57,432.5,57,431.5z M58.5,430.5c-0.6,0-1.1,0.4-1.1,1.1c0,0.6,0.4,1.1,1.1,1.1V430.5z"/>
	<path class="st5" d="M57.4,428c0,0.8,0.5,0.9,1.3,0.9h1.8v0.4H57v-0.4h0.6c-0.4-0.1-0.6-0.6-0.6-1v-0.1h0.4
		C57.4,427.9,57.4,427.9,57.4,428z"/>
	<path class="st5" d="M56.5,426.9v0.4h-0.6v-0.4H56.5z M60.4,426.9v0.4H57v-0.4H60.4z"/>
	<path class="st5" d="M57,424.5c0-0.8,0.5-1.1,1.3-1.1h2.2v0.4h-2c-0.6,0-1,0.1-1,0.9c0,0.6,0.5,1,1.3,1h1.9v0.4h-3.4v-0.4h0.6
		C57.2,425.3,57,425.1,57,424.5z"/>
	<path class="st5" d="M56.5,422v0.4h-0.6V422H56.5z M60.4,422v0.4H57V422H60.4z"/>
</g>
<g class="st0">
	<path class="st5" d="M294.7,617h0.3v0.4h-0.3c-0.4,0-0.6,0-0.6,0.6v0.4h0.7v0.4h-0.7v3.4h-0.4v-3.4h-0.6v-0.4h0.6V618
		C293.8,617.2,293.9,617,294.7,617z"/>
	<path class="st5" d="M296.7,622.2c-0.7,0-1.3-0.4-1.3-1c0-0.9,0.9-1.1,2.7-1.4v-0.1c0-0.9-0.6-1-1-1c-0.7,0-1,0.4-1.1,0.9h-0.4
		c0.1-0.7,0.7-1.3,1.6-1.3s1.4,0.4,1.4,1.6c0,0.6,0,0.9,0,1.1c0,0.4,0,0.9,0,1.3h-0.4v-0.6C297.8,622,297.4,622.2,296.7,622.2z
		 M298.1,620.5L298.1,620.5c-1.6,0-2.3,0.3-2.3,0.9c0,0.4,0.4,0.7,0.9,0.7C297.4,621.9,298.1,621.5,298.1,620.5z"/>
	<path class="st5" d="M300.7,618.6c-0.4,0-1,0.1-1,0.6c0,0.4,0.3,0.6,0.7,0.7l0.6,0.1c0.6,0.1,1.3,0.3,1.3,1s-0.7,1.1-1.6,1.1
		s-1.4-0.4-1.6-1.3h0.4c0.1,0.6,0.6,0.9,1.1,0.9c0.4,0,1-0.1,1-0.7c0-0.4-0.4-0.6-1-0.7l-0.6-0.1c-0.6-0.1-1-0.4-1-1s0.6-1,1.4-1
		s1.4,0.6,1.4,1.1h-0.4C301.7,618.9,301.2,618.6,300.7,618.6z"/>
	<path class="st5" d="M305.7,619.6c-0.1-0.6-0.6-0.9-1.1-0.9c-0.7,0-1.3,0.6-1.3,1.6c0,1.1,0.6,1.6,1.3,1.6s1-0.4,1.1-0.9h0.4
		c-0.1,0.9-0.9,1.3-1.7,1.3c-1.1,0-1.7-0.9-1.7-2s0.6-2,1.7-2c0.9,0,1.4,0.6,1.6,1.3L305.7,619.6L305.7,619.6z"/>
	<path class="st5" d="M308.5,618.3c1.1,0,1.7,0.9,1.7,2.1h-3c0,0.9,0.6,1.4,1.4,1.4c0.6,0,1-0.3,1.1-0.9h0.4
		c-0.1,0.9-0.9,1.3-1.7,1.3c-1.1,0-1.9-0.9-1.9-2C306.7,619,307.4,618.3,308.5,618.3z M309.7,619.9c0-0.7-0.4-1.3-1.3-1.3
		c-0.7,0-1.3,0.4-1.3,1.3H309.7z"/>
	<path class="st5" d="M315.2,619v-2h0.4v5.1h-0.4v-0.6c-0.3,0.4-0.7,0.7-1.3,0.7c-0.9,0-1.6-0.7-1.6-2s0.7-2,1.6-2
		C314.5,618.3,314.9,618.5,315.2,619z M312.8,620.3c0,1,0.6,1.6,1.3,1.6c0.6,0,1.3-0.4,1.3-1.6c0-1.1-0.7-1.6-1.3-1.6
		C313.4,618.6,312.8,619.2,312.8,620.3z"/>
	<path class="st5" d="M317.2,617v0.7l-0.3,0.9h-0.3l0.3-1h-0.3v-0.7L317.2,617L317.2,617L317.2,617z"/>
	<path class="st5" d="M319.4,618.3c1.1,0,1.7,0.9,1.7,2.1h-3c0,0.9,0.6,1.4,1.4,1.4c0.6,0,1-0.3,1.1-0.9h0.4
		c-0.1,0.9-0.9,1.3-1.7,1.3c-1.1,0-1.9-0.9-1.9-2C317.5,619,318.4,618.3,319.4,618.3z M320.7,619.9c0-0.7-0.4-1.3-1.3-1.3
		c-0.7,0-1.3,0.4-1.3,1.3H320.7z"/>
	<path class="st5" d="M322.5,617.5v0.9h0.7v0.4h-0.7v2.4c0,0.4,0,0.6,0.6,0.6h0.3v0.4H323c-0.7,0-0.9-0.1-0.9-0.9v-2.6h-0.6v-0.4
		h0.6v-0.9L322.5,617.5L322.5,617.5z"/>
	<path class="st5" d="M324.9,622.2c-0.7,0-1.3-0.4-1.3-1c0-0.9,0.9-1.1,2.7-1.4v-0.1c0-0.9-0.6-1-1-1c-0.7,0-1,0.4-1.1,0.9h-0.4
		c0.1-0.7,0.7-1.3,1.6-1.3s1.4,0.4,1.4,1.6c0,0.6,0,0.9,0,1.1c0,0.4,0,0.9,0,1.3h-0.4v-0.6C326.1,622,325.7,622.2,324.9,622.2z
		 M326.4,620.5L326.4,620.5c-1.6,0-2.3,0.3-2.3,0.9c0,0.4,0.4,0.7,0.9,0.7C325.8,621.9,326.4,621.5,326.4,620.5z M324.9,617l0.6,0.9
		h-0.4l-0.9-0.9H324.9z"/>
</g>
<g class="st0">
	<path class="st5" d="M675.5,617h0.3v0.4h-0.3c-0.4,0-0.6,0-0.6,0.6v0.4h0.7v0.4h-0.7v3.4h-0.4v-3.4h-0.6v-0.4h0.6V618
		C674.6,617.2,674.7,617,675.5,617z"/>
	<path class="st5" d="M677.5,622.2c-0.7,0-1.3-0.4-1.3-1c0-0.9,0.9-1.1,2.7-1.4v-0.1c0-0.9-0.6-1-1-1c-0.7,0-1,0.4-1.1,0.9h-0.4
		c0.1-0.7,0.7-1.3,1.6-1.3c0.9,0,1.4,0.4,1.4,1.6c0,0.6,0,0.9,0,1.1c0,0.4,0,0.9,0,1.3H679v-0.6C678.6,622,678.2,622.2,677.5,622.2z
		 M678.9,620.5L678.9,620.5c-1.6,0-2.3,0.3-2.3,0.9c0,0.4,0.4,0.7,0.9,0.7C678.2,621.9,678.9,621.5,678.9,620.5z"/>
	<path class="st5" d="M681.5,618.6c-0.4,0-1,0.1-1,0.6c0,0.4,0.3,0.6,0.7,0.7l0.6,0.1c0.6,0.1,1.3,0.3,1.3,1s-0.7,1.1-1.6,1.1
		c-0.9,0-1.4-0.4-1.6-1.3h0.4c0.1,0.6,0.6,0.9,1.1,0.9c0.4,0,1-0.1,1-0.7c0-0.4-0.4-0.6-1-0.7l-0.6-0.1c-0.6-0.1-1-0.4-1-1
		s0.6-1,1.4-1c0.9,0,1.4,0.6,1.4,1.1h-0.4C682.5,618.9,682,618.6,681.5,618.6z"/>
	<path class="st5" d="M686.5,619.6c-0.1-0.6-0.6-0.9-1.1-0.9c-0.7,0-1.3,0.6-1.3,1.6c0,1.1,0.6,1.6,1.3,1.6s1-0.4,1.1-0.9h0.4
		c-0.1,0.9-0.9,1.3-1.7,1.3c-1.1,0-1.7-0.9-1.7-2s0.6-2,1.7-2c0.9,0,1.4,0.6,1.6,1.3L686.5,619.6L686.5,619.6z"/>
	<path class="st5" d="M689.3,618.3c1.1,0,1.7,0.9,1.7,2.1h-3c0,0.9,0.6,1.4,1.4,1.4c0.6,0,1-0.3,1.1-0.9h0.4
		c-0.1,0.9-0.9,1.3-1.7,1.3c-1.1,0-1.9-0.9-1.9-2C687.5,619,688.2,618.3,689.3,618.3z M690.5,619.9c0-0.7-0.4-1.3-1.3-1.3
		c-0.7,0-1.3,0.4-1.3,1.3H690.5z"/>
	<path class="st5" d="M696,619v-2h0.4v5.1H696v-0.6c-0.3,0.4-0.7,0.7-1.3,0.7c-0.9,0-1.6-0.7-1.6-2s0.7-2,1.6-2
		C695.3,618.3,695.7,618.5,696,619z M693.6,620.3c0,1,0.6,1.6,1.3,1.6c0.6,0,1.3-0.4,1.3-1.6c0-1.1-0.7-1.6-1.3-1.6
		C694.2,618.6,693.6,619.2,693.6,620.3z"/>
	<path class="st5" d="M698,617v0.7l-0.3,0.9h-0.3l0.3-1h-0.3v-0.7L698,617L698,617z"/>
	<path class="st5" d="M700.2,618.3c1.1,0,1.7,0.9,1.7,2.1h-3c0,0.9,0.6,1.4,1.4,1.4c0.6,0,1-0.3,1.1-0.9h0.4
		c-0.1,0.9-0.9,1.3-1.7,1.3c-1.1,0-1.9-0.9-1.9-2C698.3,619,699.2,618.3,700.2,618.3z M701.5,619.9c0-0.7-0.4-1.3-1.3-1.3
		c-0.7,0-1.3,0.4-1.3,1.3H701.5z"/>
	<path class="st5" d="M703.3,617.5v0.9h0.7v0.4h-0.7v2.4c0,0.4,0,0.6,0.6,0.6h0.3v0.4h-0.4c-0.7,0-0.9-0.1-0.9-0.9v-2.6h-0.6v-0.4
		h0.6v-0.9L703.3,617.5L703.3,617.5z"/>
	<path class="st5" d="M705.7,622.2c-0.7,0-1.3-0.4-1.3-1c0-0.9,0.9-1.1,2.7-1.4v-0.1c0-0.9-0.6-1-1-1c-0.7,0-1,0.4-1.1,0.9h-0.4
		c0.1-0.7,0.7-1.3,1.6-1.3s1.4,0.4,1.4,1.6c0,0.6,0,0.9,0,1.1c0,0.4,0,0.9,0,1.3h-0.4v-0.6C706.9,622,706.5,622.2,705.7,622.2z
		 M707.2,620.5L707.2,620.5c-1.6,0-2.3,0.3-2.3,0.9c0,0.4,0.4,0.7,0.9,0.7C706.6,621.9,707.2,621.5,707.2,620.5z M705.7,617l0.6,0.9
		h-0.4L705,617H705.7z"/>
</g>
<g class="st0">
	<path class="st5" d="M435.5,466.6c0-0.8,0.5-1.1,1.3-1.1h2.2v0.4h-2c-0.6,0-1,0.1-1,0.9c0,0.6,0.5,1,1.3,1h1.9v0.4h-3.4v-0.4h0.6
		C435.8,467.6,435.5,467.2,435.5,466.6z"/>
	<path class="st5" d="M439.1,463.7c0,0.8-0.5,1.1-1.3,1.1h-2.2v-0.4h2c0.6,0,1-0.1,1-0.8c0-0.5-0.5-1-1.3-1h-1.9v-0.4h3.4v0.4h-0.5
		C438.7,462.6,439.1,463,439.1,463.7z"/>
	<path class="st5" d="M438.9,461.1h-3.4v-0.4h0.6c-0.4-0.1-0.6-0.5-0.6-1s0.3-0.9,0.6-1c-0.4-0.3-0.6-0.6-0.6-1.1
		c0-0.8,0.5-1.1,1.3-1.1h2.2v0.4h-2c-0.6,0-1,0.1-1,0.8c0,0.5,0.5,1,1.3,1h1.9v0.4h-2c-0.6,0-1,0.1-1,0.8c0,0.5,0.5,1,1.3,1h1.9v0.4
		h-0.5V461.1z"/>
	<path class="st5" d="M435.5,454.2c0-1,0.8-1.5,1.9-1.5v2.7c0.8,0,1.3-0.5,1.3-1.3c0-0.5-0.3-0.9-0.8-1v-0.4
		c0.8,0.1,1.1,0.8,1.1,1.5c0,1-0.8,1.7-1.8,1.7C436.1,455.9,435.5,455.1,435.5,454.2z M437,453.2c-0.6,0-1.1,0.4-1.1,1.1
		c0,0.6,0.4,1.1,1.1,1.1V453.2z"/>
	<path class="st5" d="M435.9,450.6c0,0.8,0.5,0.9,1.3,0.9h1.8v0.4h-3.4v-0.3h0.6c-0.4-0.1-0.6-0.6-0.6-1v-0.1h0.4
		C435.9,450.6,435.9,450.6,435.9,450.6z"/>
	<path class="st5" d="M437.3,447.2c1.3,0,1.8,0.8,1.8,1.5s-0.5,1.5-1.8,1.5s-1.8-0.8-1.8-1.5S436,447.2,437.3,447.2z M437.3,447.6
		c-1,0-1.4,0.5-1.4,1.1s0.4,1.1,1.4,1.1s1.4-0.5,1.4-1.1C438.7,448.1,438.2,447.6,437.3,447.6z"/>
	<path class="st5" d="M434.7,444.4h0.8v-0.6h0.4v0.6h2.2c0.4,0,0.5,0,0.5-0.5v-0.3h0.4v0.4c0,0.6-0.1,0.8-0.8,0.8h-2.3v0.5h-0.4
		v-0.5h-0.8L434.7,444.4L434.7,444.4z"/>
	<path class="st5" d="M435.5,441.7c0-1,0.8-1.5,1.9-1.5v2.7c0.8,0,1.3-0.5,1.3-1.3c0-0.5-0.3-0.9-0.8-1v-0.4
		c0.8,0.1,1.1,0.8,1.1,1.5c0,1-0.8,1.7-1.8,1.7C436.1,443.4,435.5,442.7,435.5,441.7z M437,440.7c-0.6,0-1.1,0.4-1.1,1.1
		c0,0.6,0.4,1.1,1.1,1.1V440.7z"/>
	<path class="st5" d="M435.8,438.4c0,0.4,0.1,0.9,0.5,0.9s0.5-0.3,0.6-0.6l0.1-0.5c0.1-0.5,0.3-1.1,0.9-1.1s1,0.6,1,1.4
		s-0.4,1.3-1.1,1.4v-0.4c0.5-0.1,0.8-0.5,0.8-1c0-0.4-0.1-0.9-0.6-0.9c-0.4,0-0.5,0.4-0.6,0.9l-0.1,0.5c-0.1,0.5-0.4,0.9-0.9,0.9
		s-0.9-0.5-0.9-1.3s0.5-1.3,1-1.3v0.4C436,437.5,435.8,437.9,435.8,438.4z"/>
	<path class="st5" d="M435.8,435.1c0,0.4,0.1,0.9,0.5,0.9s0.5-0.3,0.6-0.6l0.1-0.5c0.1-0.5,0.3-1.1,0.9-1.1s1,0.6,1,1.4
		s-0.4,1.3-1.1,1.4v-0.4c0.5-0.1,0.8-0.5,0.8-1c0-0.4-0.1-0.9-0.6-0.9c-0.4,0-0.5,0.4-0.6,0.9l-0.1,0.5c-0.1,0.5-0.4,0.9-0.9,0.9
		s-0.9-0.5-0.9-1.3s0.5-1.3,1-1.3v0.4C436,434.2,435.8,434.5,435.8,435.1z"/>
	<path class="st5" d="M435.5,431.5c0-1,0.8-1.5,1.9-1.5v2.7c0.8,0,1.3-0.5,1.3-1.3c0-0.5-0.3-0.9-0.8-1V430c0.8,0.1,1.1,0.8,1.1,1.5
		c0,1-0.8,1.7-1.8,1.7C436.1,433.1,435.5,432.5,435.5,431.5z M437,430.5c-0.6,0-1.1,0.4-1.1,1.1c0,0.6,0.4,1.1,1.1,1.1V430.5z"/>
	<path class="st5" d="M435.9,428c0,0.8,0.5,0.9,1.3,0.9h1.8v0.4h-3.4v-0.4h0.6c-0.4-0.1-0.6-0.6-0.6-1v-0.1h0.4
		C435.9,427.9,435.9,427.9,435.9,428z"/>
	<path class="st5" d="M435,426.9v0.4h-0.6v-0.4H435z M438.9,426.9v0.4h-3.4v-0.4H438.9z"/>
	<path class="st5" d="M435.5,424.5c0-0.8,0.5-1.1,1.3-1.1h2.2v0.4h-2c-0.6,0-1,0.1-1,0.9c0,0.6,0.5,1,1.3,1h1.9v0.4h-3.4v-0.4h0.6
		C435.8,425.3,435.5,425.1,435.5,424.5z"/>
	<path class="st5" d="M435,422v0.4h-0.6V422H435z M438.9,422v0.4h-3.4V422H438.9z"/>
</g>
<g class="st0">
	<path class="st5" d="M1042.9,617h0.3v0.4h-0.3c-0.4,0-0.6,0-0.6,0.6v0.4h0.7v0.4h-0.7v3.4h-0.4v-3.4h-0.6v-0.4h0.6V618
		C1042.1,617.2,1042.2,617,1042.9,617z"/>
	<path class="st5" d="M1044.9,622.2c-0.7,0-1.3-0.4-1.3-1c0-0.9,0.9-1.1,2.7-1.4v-0.1c0-0.9-0.6-1-1-1c-0.7,0-1,0.4-1.1,0.9h-0.4
		c0.1-0.7,0.7-1.3,1.6-1.3s1.4,0.4,1.4,1.6c0,0.6,0,0.9,0,1.1c0,0.4,0,0.9,0,1.3h-0.4v-0.6C1046.1,622,1045.6,622.2,1044.9,622.2z
		 M1046.4,620.5L1046.4,620.5c-1.6,0-2.3,0.3-2.3,0.9c0,0.4,0.4,0.7,0.9,0.7C1045.6,621.9,1046.4,621.5,1046.4,620.5z"/>
	<path class="st5" d="M1048.9,618.6c-0.4,0-1,0.1-1,0.6c0,0.4,0.3,0.6,0.7,0.7l0.6,0.1c0.6,0.1,1.3,0.3,1.3,1s-0.7,1.1-1.6,1.1
		s-1.4-0.4-1.6-1.3h0.4c0.1,0.6,0.6,0.9,1.1,0.9c0.4,0,1-0.1,1-0.7c0-0.4-0.4-0.6-1-0.7l-0.6-0.1c-0.6-0.1-1-0.4-1-1s0.6-1,1.4-1
		s1.4,0.6,1.4,1.1h-0.4C1049.9,618.9,1049.5,618.6,1048.9,618.6z"/>
	<path class="st5" d="M1053.9,619.6c-0.1-0.6-0.6-0.9-1.1-0.9c-0.7,0-1.3,0.6-1.3,1.6c0,1.1,0.6,1.6,1.3,1.6s1-0.4,1.1-0.9h0.4
		c-0.1,0.9-0.9,1.3-1.7,1.3c-1.1,0-1.7-0.9-1.7-2s0.6-2,1.7-2c0.9,0,1.4,0.6,1.6,1.3L1053.9,619.6L1053.9,619.6z"/>
	<path class="st5" d="M1056.8,618.3c1.1,0,1.7,0.9,1.7,2.1h-3c0,0.9,0.6,1.4,1.4,1.4c0.6,0,1-0.3,1.1-0.9h0.4
		c-0.1,0.9-0.9,1.3-1.7,1.3c-1.1,0-1.9-0.9-1.9-2C1054.9,619,1055.6,618.3,1056.8,618.3z M1057.9,619.9c0-0.7-0.4-1.3-1.3-1.3
		c-0.7,0-1.3,0.4-1.3,1.3H1057.9z"/>
	<path class="st5" d="M1063.5,619v-2h0.4v5.1h-0.4v-0.6c-0.3,0.4-0.7,0.7-1.3,0.7c-0.9,0-1.6-0.7-1.6-2s0.7-2,1.6-2
		C1062.8,618.3,1063.2,618.5,1063.5,619z M1061.1,620.3c0,1,0.6,1.6,1.3,1.6c0.6,0,1.3-0.4,1.3-1.6c0-1.1-0.7-1.6-1.3-1.6
		C1061.6,618.6,1061.1,619.2,1061.1,620.3z"/>
	<path class="st5" d="M1065.5,617v0.7l-0.3,0.9h-0.3l0.3-1h-0.3v-0.7L1065.5,617L1065.5,617L1065.5,617z"/>
	<path class="st5" d="M1067.6,618.3c1.1,0,1.7,0.9,1.7,2.1h-3c0,0.9,0.6,1.4,1.4,1.4c0.6,0,1-0.3,1.1-0.9h0.4
		c-0.1,0.9-0.9,1.3-1.7,1.3c-1.1,0-1.9-0.9-1.9-2C1065.8,619,1066.6,618.3,1067.6,618.3z M1068.9,619.9c0-0.7-0.4-1.3-1.3-1.3
		c-0.7,0-1.3,0.4-1.3,1.3H1068.9z"/>
	<path class="st5" d="M1070.8,617.5v0.9h0.7v0.4h-0.7v2.4c0,0.4,0,0.6,0.6,0.6h0.3v0.4h-0.4c-0.7,0-0.9-0.1-0.9-0.9v-2.6h-0.6v-0.4
		h0.6v-0.9L1070.8,617.5L1070.8,617.5z"/>
	<path class="st5" d="M1073.2,622.2c-0.7,0-1.3-0.4-1.3-1c0-0.9,0.9-1.1,2.7-1.4v-0.1c0-0.9-0.6-1-1-1c-0.7,0-1,0.4-1.1,0.9h-0.4
		c0.1-0.7,0.7-1.3,1.6-1.3s1.4,0.4,1.4,1.6c0,0.6,0,0.9,0,1.1c0,0.4,0,0.9,0,1.3h-0.4v-0.6C1074.4,622,1073.9,622.2,1073.2,622.2z
		 M1074.6,620.5L1074.6,620.5c-1.6,0-2.3,0.3-2.3,0.9c0,0.4,0.4,0.7,0.9,0.7C1074.1,621.9,1074.6,621.5,1074.6,620.5z M1073.2,617
		l0.6,0.9h-0.4l-0.9-0.9H1073.2z"/>
</g>
<g class="st0">
	<path class="st5" d="M803,466.6c0-0.8,0.5-1.1,1.3-1.1h2.2v0.4h-2c-0.6,0-1,0.1-1,0.9c0,0.6,0.5,1,1.3,1h1.9v0.4h-3.4v-0.4h0.6
		C803.2,467.6,803,467.2,803,466.6z"/>
	<path class="st5" d="M806.5,463.7c0,0.8-0.5,1.1-1.3,1.1H803v-0.4h2c0.6,0,1-0.1,1-0.8c0-0.5-0.5-1-1.3-1H803v-0.4h3.4v0.4h-0.5
		C806.2,462.6,806.5,463,806.5,463.7z"/>
	<path class="st5" d="M806.4,461.1H803v-0.4h0.6c-0.4-0.1-0.6-0.5-0.6-1s0.3-0.9,0.6-1c-0.4-0.3-0.6-0.6-0.6-1.1
		c0-0.8,0.5-1.1,1.3-1.1h2.2v0.4h-2c-0.6,0-1,0.1-1,0.8c0,0.5,0.5,1,1.3,1h1.9v0.4h-2c-0.6,0-1,0.1-1,0.8c0,0.5,0.5,1,1.3,1h1.9v0.4
		h-0.5V461.1z"/>
	<path class="st5" d="M803,454.2c0-1,0.8-1.5,1.9-1.5v2.7c0.8,0,1.3-0.5,1.3-1.3c0-0.5-0.3-0.9-0.8-1v-0.4c0.8,0.1,1.1,0.8,1.1,1.5
		c0,1-0.8,1.7-1.8,1.7C803.6,455.9,803,455.1,803,454.2z M804.5,453.2c-0.6,0-1.1,0.4-1.1,1.1c0,0.6,0.4,1.1,1.1,1.1V453.2z"/>
	<path class="st5" d="M803.4,450.6c0,0.8,0.5,0.9,1.3,0.9h1.8v0.4H803v-0.3h0.6c-0.4-0.1-0.6-0.6-0.6-1v-0.1h0.4
		C803.4,450.6,803.4,450.6,803.4,450.6z"/>
	<path class="st5" d="M804.8,447.2c1.3,0,1.8,0.8,1.8,1.5s-0.5,1.5-1.8,1.5s-1.8-0.8-1.8-1.5S803.5,447.2,804.8,447.2z M804.8,447.6
		c-1,0-1.4,0.5-1.4,1.1s0.4,1.1,1.4,1.1s1.4-0.5,1.4-1.1S805.7,447.6,804.8,447.6z"/>
	<path class="st5" d="M802.2,444.4h0.8v-0.6h0.4v0.6h2.2c0.4,0,0.5,0,0.5-0.5v-0.3h0.4v0.4c0,0.6-0.1,0.8-0.8,0.8h-2.3v0.5H803v-0.5
		h-0.8V444.4z"/>
	<path class="st5" d="M803,441.7c0-1,0.8-1.5,1.9-1.5v2.7c0.8,0,1.3-0.5,1.3-1.3c0-0.5-0.3-0.9-0.8-1v-0.4c0.8,0.1,1.1,0.8,1.1,1.5
		c0,1-0.8,1.7-1.8,1.7C803.6,443.4,803,442.7,803,441.7z M804.5,440.7c-0.6,0-1.1,0.4-1.1,1.1c0,0.6,0.4,1.1,1.1,1.1V440.7z"/>
	<path class="st5" d="M803.2,438.4c0,0.4,0.1,0.9,0.5,0.9s0.5-0.3,0.6-0.6l0.1-0.5c0.1-0.5,0.3-1.1,0.9-1.1c0.6,0,1,0.6,1,1.4
		s-0.4,1.3-1.1,1.4v-0.4c0.5-0.1,0.8-0.5,0.8-1c0-0.4-0.1-0.9-0.6-0.9c-0.4,0-0.5,0.4-0.6,0.9l-0.1,0.5c-0.1,0.5-0.4,0.9-0.9,0.9
		s-0.9-0.5-0.9-1.3s0.5-1.3,1-1.3v0.4C803.5,437.5,803.2,437.9,803.2,438.4z"/>
	<path class="st5" d="M803.2,435.1c0,0.4,0.1,0.9,0.5,0.9s0.5-0.3,0.6-0.6l0.1-0.5c0.1-0.5,0.3-1.1,0.9-1.1c0.6,0,1,0.6,1,1.4
		s-0.4,1.3-1.1,1.4v-0.4c0.5-0.1,0.8-0.5,0.8-1c0-0.4-0.1-0.9-0.6-0.9c-0.4,0-0.5,0.4-0.6,0.9l-0.1,0.5c-0.1,0.5-0.4,0.9-0.9,0.9
		s-0.9-0.5-0.9-1.3s0.5-1.3,1-1.3v0.4C803.5,434.2,803.2,434.5,803.2,435.1z"/>
	<path class="st5" d="M803,431.5c0-1,0.8-1.5,1.9-1.5v2.7c0.8,0,1.3-0.5,1.3-1.3c0-0.5-0.3-0.9-0.8-1V430c0.8,0.1,1.1,0.8,1.1,1.5
		c0,1-0.8,1.7-1.8,1.7C803.6,433.1,803,432.5,803,431.5z M804.5,430.5c-0.6,0-1.1,0.4-1.1,1.1c0,0.6,0.4,1.1,1.1,1.1V430.5z"/>
	<path class="st5" d="M803.4,428c0,0.8,0.5,0.9,1.3,0.9h1.8v0.4H803v-0.4h0.6c-0.4-0.1-0.6-0.6-0.6-1v-0.1h0.4
		C803.4,427.9,803.4,427.9,803.4,428z"/>
	<path class="st5" d="M802.5,426.9v0.4h-0.6v-0.4H802.5z M806.4,426.9v0.4H803v-0.4H806.4z"/>
	<path class="st5" d="M803,424.5c0-0.8,0.5-1.1,1.3-1.1h2.2v0.4h-2c-0.6,0-1,0.1-1,0.9c0,0.6,0.5,1,1.3,1h1.9v0.4h-3.4v-0.4h0.6
		C803.2,425.3,803,425.1,803,424.5z"/>
	<path class="st5" d="M802.5,422v0.4h-0.6V422H802.5z M806.4,422v0.4H803V422H806.4z"/>
</g>
<g>
	<rect id="_x31_8_-_num_50_" x="421.4" y="268.6" class="st1" width="20.9" height="40.8"/>
	<rect id="_x31_8_-_num_49_" x="452.2" y="270.7" class="st1" width="20.9" height="38.7"/>
	<rect id="_x31_8_-_num_48_" x="483.1" y="82.2" class="st1" width="20.9" height="227.2"/>
	<rect id="_x31_8_-_num_47_" x="513.8" y="105.9" class="st1" width="20.9" height="203.5"/>
	<rect id="_x31_8_-_num_46_" x="544.6" y="199.3" class="st1" width="20.9" height="110"/>
	<rect id="_x31_8_-_num_45_" x="575.5" y="247.1" class="st1" width="20.9" height="62.3"/>
	<rect id="_x31_8_-_num_44_" x="606.3" y="274.8" class="st1" width="20.9" height="34.4"/>
	<rect id="_x31_8_-_num_43_" x="637" y="295.6" class="st1" width="20.9" height="13.7"/>
	<rect id="_x31_8_-_num_42_" x="667.9" y="304.8" class="st1" width="20.9" height="4.6"/>
	<rect id="_x31_8_-_num_41_" x="698.7" y="308.9" class="st1" width="20.9" height="0.4"/>
</g>
<g>
	<rect id="_x31_9_-_num_50_" x="428.6" y="265.7" class="st2" width="20.9" height="43.9"/>
	<rect id="_x31_9_-_num_49_" x="459.4" y="259.7" class="st2" width="20.9" height="50.1"/>
	<rect id="_x31_9_-_num_48_" x="490.3" y="156.7" class="st2" width="20.9" height="153"/>
	<rect id="_x31_9_-_num_47_" x="521.1" y="123.5" class="st2" width="20.9" height="186.3"/>
	<rect id="_x31_9_-_num_46_" x="552" y="183.2" class="st2" width="20.9" height="126.6"/>
	<rect id="_x31_9_-_num_45_" x="582.7" y="226.8" class="st2" width="20.9" height="82.8"/>
	<rect id="_x31_9_-_num_44_" x="613.6" y="262.2" class="st2" width="20.9" height="47.5"/>
	<rect id="_x31_9_-_num_43_" x="644.4" y="291.6" class="st2" width="20.9" height="18.1"/>
	<rect id="_x31_9_-_num_42_" x="675.3" y="305.4" class="st2" width="20.9" height="4.2"/>
	<rect id="_x31_9_-_num_41_" x="706" y="309.5" class="st2" width="20.9" height="0.3"/>
</g>
<g>
	<rect id="_x32_0_-_num_50_" x="433.6" y="256.5" class="st3" width="20.9" height="53.6"/>
	<rect id="_x32_0_-_num_49_" x="464.5" y="233.9" class="st3" width="20.9" height="76.3"/>
	<rect id="_x32_0_-_num_48_" x="495.3" y="94" class="st3" width="20.9" height="216.1"/>
	<rect id="_x32_0_-_num_47_" x="526.1" y="93.9" class="st3" width="20.9" height="216.3"/>
	<rect id="_x32_0_-_num_46_" x="557" y="159.4" class="st3" width="20.9" height="150.8"/>
	<rect id="_x32_0_-_num_45_" x="587.7" y="208.7" class="st3" width="20.9" height="101.4"/>
	<rect id="_x32_0_-_num_44_" x="618.5" y="259.7" class="st3" width="20.9" height="50.5"/>
	<rect id="_x32_0_-_num_43_" x="649.4" y="291" class="st3" width="20.9" height="19.2"/>
	<rect id="_x32_0_-_num_42_" x="680.1" y="305.2" class="st3" width="20.9" height="5"/>
	<rect id="_x32_0_-_num_41_" x="711" y="309.6" class="st3" width="20.9" height="0.5"/>
</g>
<path class="st6" d="M412.7,309.9h378.7"/>
<line class="st7" x1="431.8" y1="314.1" x2="431.8" y2="319.7"/>
<line class="st7" x1="462.7" y1="314.1" x2="462.7" y2="319.7"/>
<line class="st7" x1="493.5" y1="314.1" x2="493.5" y2="319.7"/>
<line class="st7" x1="524.2" y1="314.1" x2="524.2" y2="319.7"/>
<line class="st7" x1="555.1" y1="314.1" x2="555.1" y2="319.7"/>
<line class="st7" x1="585.9" y1="314.1" x2="585.9" y2="319.7"/>
<line class="st7" x1="616.6" y1="314.1" x2="616.6" y2="319.7"/>
<line class="st7" x1="647.5" y1="314.1" x2="647.5" y2="319.7"/>
<line class="st7" x1="678.3" y1="314.1" x2="678.3" y2="319.7"/>
<line class="st7" x1="709.2" y1="314.1" x2="709.2" y2="319.7"/>
<path class="st7" d="M412.7,309.9v-242"/>
<line class="st7" x1="409.4" y1="309.9" x2="403.9" y2="309.9"/>
<g>
	<text transform="matrix(1 0 0 1 391.8326 324.3774)" class="st8 st9">0</text>
</g>
<line class="st7" x1="409.4" y1="292.6" x2="403.9" y2="292.6"/>
<line class="st7" x1="409.4" y1="275.2" x2="403.9" y2="275.2"/>
<g>
	<text transform="matrix(1 0 0 1 379.7382 278.2236)" class="st8 st9">400</text>
</g>
<line class="st7" x1="409.4" y1="258" x2="403.9" y2="258"/>
<line class="st7" x1="409.4" y1="240.8" x2="403.9" y2="240.8"/>
<g>
	<text transform="matrix(1 0 0 1 379.7196 241.0844)" class="st8 st9">800</text>
</g>
<line class="st7" x1="409.4" y1="223.4" x2="403.9" y2="223.4"/>
<line class="st7" x1="409.4" y1="206.2" x2="403.9" y2="206.2"/>
<g>
	<text transform="matrix(1 0 0 1 374.1122 206.6635)" class="st8 st9">1,200</text>
</g>
<line class="st7" x1="409.4" y1="189" x2="403.9" y2="189"/>
<line class="st7" x1="409.4" y1="171.6" x2="403.9" y2="171.6"/>
<g>
	<text transform="matrix(1 0 0 1 374.3514 172.2435)" class="st8 st9">1,600</text>
</g>
<line class="st7" x1="409.4" y1="154.2" x2="403.9" y2="154.2"/>
<line class="st7" x1="409.4" y1="137" x2="403.9" y2="137"/>
<g>
	<text transform="matrix(1 0 0 1 371.8866 137.8236)" class="st8 st9">2,000</text>
</g>
<line class="st7" x1="409.4" y1="119.8" x2="403.9" y2="119.8"/>
<line class="st7" x1="409.4" y1="102.4" x2="403.9" y2="102.4"/>
<g>
	<text transform="matrix(1 0 0 1 371.954 103.4027)" class="st8 st9">2,400</text>
</g>
<line class="st7" x1="409.4" y1="85.2" x2="403.9" y2="85.2"/>
<line class="st7" x1="409.4" y1="67.9" x2="403.9" y2="67.9"/>
<g>
	<text transform="matrix(1 0 0 1 372.0302 71.1083)" class="st8 st9">2,800</text>
</g>
<g>
	<g class="st0">
		<path d="M241.1,647.1v0.7c-1.5,1.2-2.6,3.2-2.7,5.5h-0.9c0.1-2.3,1.1-4.2,2.7-5.5h-3.4v-0.7H241.1z"/>
		<path d="M241.5,650.2c0-2,0.8-3.2,2.4-3.2c1.6,0,2.4,1.2,2.4,3.2s-0.8,3.2-2.4,3.2C242.3,653.5,241.5,652.2,241.5,650.2z
			 M242.4,650.2c0,1.8,0.7,2.6,1.6,2.6c0.9,0,1.6-0.8,1.6-2.6s-0.7-2.6-1.6-2.6C243.1,647.6,242.4,648.5,242.4,650.2z"/>
	</g>
	<g class="st0">
		<path d="M241.1,657.5v0.7c-1.5,1.2-2.6,3.2-2.7,5.5h-0.9c0.1-2.3,1.1-4.2,2.7-5.5h-3.4v-0.7H241.1z"/>
		<path d="M243.5,661.7c-1.2,0-2-0.8-2-2.2c0-1.2,0.8-2.2,2.2-2.2c1.6,0,2.3,1.1,2.3,3c0,1.8-0.7,3.5-2.4,3.5
			c-1.2,0-1.8-0.8-1.9-1.6h0.8c0.1,0.5,0.5,0.9,1.2,0.9c0.9,0,1.5-0.9,1.5-2.4C244.9,661.3,244.3,661.7,243.5,661.7z M242.3,659.5
			c0,0.8,0.5,1.5,1.4,1.5c0.8,0,1.4-0.7,1.4-1.5s-0.5-1.5-1.4-1.5C242.8,658.1,242.3,658.6,242.3,659.5z"/>
	</g>
</g>
<g>
	<g class="st0">
		<path d="M264.7,650.1c0.8,0.3,1.1,0.9,1.1,1.6c0,1.2-0.9,1.9-2.3,1.9s-2.3-0.7-2.3-1.9c0-0.5,0.3-1.2,1.1-1.6
			c-0.7-0.4-0.8-0.9-0.8-1.5c0-0.9,0.8-1.6,2.2-1.6c1.2,0,2.2,0.7,2.2,1.6C265.5,649.1,265.4,649.7,264.7,650.1z M263.5,652.8
			c0.9,0,1.5-0.5,1.5-1.2s-0.5-1.2-1.5-1.2c-0.9,0-1.5,0.5-1.5,1.2C262,652.4,262.6,652.8,263.5,652.8z M262.2,648.7
			c0,0.7,0.5,1.1,1.4,1.1c0.8,0,1.4-0.4,1.4-1.1c0-0.7-0.5-1.1-1.4-1.1C262.7,647.6,262.2,648.1,262.2,648.7z"/>
		<path d="M266.6,650.2c0-2,0.8-3.2,2.4-3.2s2.4,1.2,2.4,3.2s-0.8,3.2-2.4,3.2C267.4,653.5,266.6,652.2,266.6,650.2z M267.4,650.2
			c0,1.8,0.7,2.6,1.6,2.6s1.6-0.8,1.6-2.6s-0.7-2.6-1.6-2.6C268.1,647.6,267.4,648.5,267.4,650.2z"/>
	</g>
	<g class="st0">
		<path d="M264.7,660.5c0.8,0.3,1.1,0.9,1.1,1.6c0,1.2-0.9,1.9-2.3,1.9s-2.3-0.7-2.3-1.9c0-0.5,0.3-1.2,1.1-1.6
			c-0.7-0.4-0.8-0.9-0.8-1.5c0-0.9,0.8-1.6,2.2-1.6c1.2,0,2.2,0.7,2.2,1.6C265.5,659.5,265.4,660.1,264.7,660.5z M263.5,663.2
			c0.9,0,1.5-0.5,1.5-1.2s-0.5-1.2-1.5-1.2c-0.9,0-1.5,0.5-1.5,1.2C262,662.6,262.6,663.2,263.5,663.2z M262.2,659.1
			c0,0.7,0.5,1.1,1.4,1.1c0.8,0,1.4-0.4,1.4-1.1c0-0.7-0.5-1.1-1.4-1.1C262.7,658.1,262.2,658.5,262.2,659.1z"/>
		<path d="M268.6,661.7c-1.2,0-2-0.8-2-2.2c0-1.2,0.8-2.2,2.2-2.2c1.6,0,2.3,1.1,2.3,3c0,1.8-0.7,3.5-2.4,3.5
			c-1.2,0-1.8-0.8-1.9-1.6h0.8c0.1,0.5,0.5,0.9,1.2,0.9c0.9,0,1.5-0.9,1.5-2.4C270,661.3,269.5,661.7,268.6,661.7z M267.4,659.5
			c0,0.8,0.5,1.5,1.4,1.5s1.4-0.7,1.4-1.5s-0.5-1.5-1.4-1.5S267.4,658.6,267.4,659.5z"/>
	</g>
</g>
<g>
	<g class="st0">
		<path d="M187.9,649.8c-0.7,0-1.1,0.4-1.2,0.7h-0.8l0.4-3.4h3.6v0.7h-3l-0.3,1.8c0.3-0.3,0.8-0.5,1.4-0.5c1.1,0,2,0.8,2,2.2
			c0,1.5-1.1,2.2-2.3,2.2c-1.5,0-2.2-0.9-2.3-1.9h0.8c0.1,0.8,0.5,1.2,1.5,1.2c0.8,0,1.4-0.5,1.4-1.5
			C189.4,650.2,188.7,649.8,187.9,649.8z"/>
		<path d="M191,650.2c0-2,0.8-3.2,2.4-3.2c1.6,0,2.4,1.2,2.4,3.2s-0.8,3.2-2.4,3.2C191.8,653.5,191,652.2,191,650.2z M191.8,650.2
			c0,1.8,0.7,2.6,1.6,2.6s1.6-0.8,1.6-2.6s-0.7-2.6-1.6-2.6S191.8,648.5,191.8,650.2z"/>
	</g>
	<g class="st0">
		<path d="M187.9,660.2c-0.7,0-1.1,0.4-1.2,0.7h-0.8l0.4-3.4h3.6v0.7h-3l-0.3,1.8c0.3-0.3,0.8-0.5,1.4-0.5c1.1,0,2,0.8,2,2.2
			c0,1.5-1.1,2.2-2.3,2.2c-1.5,0-2.2-0.9-2.3-1.9h0.8c0.1,0.8,0.5,1.2,1.5,1.2c0.8,0,1.4-0.5,1.4-1.5
			C189.4,660.6,188.7,660.2,187.9,660.2z"/>
		<path d="M193,661.7c-1.2,0-2-0.8-2-2.2c0-1.2,0.8-2.2,2.2-2.2c1.6,0,2.3,1.1,2.3,3c0,1.8-0.7,3.5-2.4,3.5c-1.2,0-1.8-0.8-1.9-1.6
			h0.8c0.1,0.5,0.5,0.9,1.2,0.9c0.9,0,1.5-0.9,1.5-2.4C194.4,661.3,193.8,661.7,193,661.7z M191.8,659.5c0,0.8,0.5,1.5,1.4,1.5
			c0.8,0,1.4-0.7,1.4-1.5s-0.5-1.5-1.4-1.5C192.4,658.1,191.8,658.6,191.8,659.5z"/>
	</g>
</g>
<g>
	<g class="st0">
		<path d="M213.5,649.1c1.2,0,2,0.8,2,2.2c0,1.2-0.8,2.2-2.2,2.2c-1.6,0-2.3-1.1-2.3-3c0-1.8,0.7-3.5,2.4-3.5c1.2,0,1.8,0.8,1.9,1.6
			h-0.8c-0.1-0.5-0.5-0.9-1.2-0.9c-0.9,0-1.5,0.9-1.5,2.4C212.1,649.5,212.7,649.1,213.5,649.1z M214.7,651.4c0-0.8-0.5-1.5-1.4-1.5
			s-1.4,0.7-1.4,1.5s0.5,1.5,1.4,1.5C214,652.8,214.7,652.2,214.7,651.4z"/>
		<path d="M216.3,650.2c0-2,0.8-3.2,2.4-3.2c1.6,0,2.4,1.2,2.4,3.2s-0.8,3.2-2.4,3.2C217.1,653.5,216.3,652.2,216.3,650.2z
			 M217.1,650.2c0,1.8,0.7,2.6,1.6,2.6s1.6-0.8,1.6-2.6s-0.7-2.6-1.6-2.6S217.1,648.5,217.1,650.2z"/>
	</g>
	<g class="st0">
		<path d="M213.5,659.5c1.2,0,2,0.8,2,2.2c0,1.2-0.8,2.2-2.2,2.2c-1.6,0-2.3-1.1-2.3-3c0-1.8,0.7-3.5,2.4-3.5c1.2,0,1.8,0.8,1.9,1.6
			h-0.8c-0.1-0.5-0.5-0.9-1.2-0.9c-0.9,0-1.5,0.9-1.5,2.4C212.1,659.9,212.7,659.5,213.5,659.5z M214.7,661.7c0-0.8-0.5-1.5-1.4-1.5
			s-1.4,0.7-1.4,1.5s0.5,1.5,1.4,1.5C214,663.2,214.7,662.6,214.7,661.7z"/>
		<path d="M218.3,661.7c-1.2,0-2-0.8-2-2.2c0-1.2,0.8-2.2,2.2-2.2c1.6,0,2.3,1.1,2.3,3c0,1.8-0.7,3.5-2.4,3.5
			c-1.2,0-1.8-0.8-1.9-1.6h0.8c0.1,0.5,0.5,0.9,1.2,0.9c0.9,0,1.5-0.9,1.5-2.4C219.7,661.3,219.2,661.7,218.3,661.7z M217.1,659.5
			c0,0.8,0.5,1.5,1.4,1.5c0.8,0,1.4-0.7,1.4-1.5s-0.5-1.5-1.4-1.5C217.7,658.1,217.1,658.6,217.1,659.5z"/>
	</g>
</g>
<g>
	<g class="st0">
		<path d="M137.6,650.5L137.6,650.5l-0.1-0.7h0.1c1.1,0,1.6-0.3,1.6-1.1c0-0.7-0.5-1.1-1.2-1.1c-0.8,0-1.4,0.5-1.4,1.2h-0.8
			c0.1-1.1,0.9-1.9,2.2-1.9c1.1,0,2,0.4,2,1.6c0,0.7-0.4,1.2-1.1,1.5c0.9,0.3,1.2,0.9,1.2,1.6c0,1.2-1.1,1.9-2.3,1.9
			c-1.5,0-2.2-0.9-2.3-2h0.8c0.1,0.8,0.5,1.4,1.5,1.4c0.8,0,1.5-0.4,1.5-1.2C139.5,650.8,138.7,650.5,137.6,650.5z"/>
		<path d="M141.2,650.2c0-2,0.8-3.2,2.4-3.2c1.6,0,2.4,1.2,2.4,3.2s-0.8,3.2-2.4,3.2C141.8,653.5,141.2,652.2,141.2,650.2z
			 M142,650.2c0,1.8,0.7,2.6,1.6,2.6c0.9,0,1.6-0.8,1.6-2.6s-0.7-2.6-1.6-2.6C142.6,647.6,142,648.5,142,650.2z"/>
	</g>
	<g class="st0">
		<path d="M137.6,660.8L137.6,660.8l-0.1-0.7h0.1c1.1,0,1.6-0.3,1.6-1.1c0-0.7-0.5-1.1-1.2-1.1c-0.8,0-1.4,0.5-1.4,1.2h-0.8
			c0.1-1.1,0.9-1.9,2.2-1.9c1.1,0,2,0.4,2,1.6c0,0.7-0.4,1.2-1.1,1.5c0.9,0.3,1.2,0.9,1.2,1.6c0,1.2-1.1,1.9-2.3,1.9
			c-1.5,0-2.2-0.9-2.3-2h0.8c0.1,0.8,0.5,1.4,1.5,1.4c0.8,0,1.5-0.4,1.5-1.2C139.5,661.2,138.7,660.8,137.6,660.8z"/>
		<path d="M143,661.7c-1.2,0-2-0.8-2-2.2c0-1.2,0.8-2.2,2.2-2.2c1.6,0,2.3,1.1,2.3,3c0,1.8-0.7,3.5-2.4,3.5c-1.2,0-1.8-0.8-1.9-1.6
			h0.8c0.1,0.5,0.5,0.9,1.2,0.9c0.9,0,1.5-0.9,1.5-2.4C144.4,661.3,143.9,661.7,143,661.7z M142,659.5c0,0.8,0.5,1.5,1.4,1.5
			c0.8,0,1.4-0.7,1.4-1.5s-0.5-1.5-1.4-1.5C142.5,658.1,142,658.6,142,659.5z"/>
	</g>
</g>
<g>
	<g class="st0">
		<path d="M164.4,652.6v1.5h-0.8v-1.5h-3.1v-0.8l3.1-4.1h0.8v4.1h1.2v0.8H164.4z M163.6,651.8V649l-2.3,2.8H163.6z"/>
		<path d="M166.2,651c0-2,0.8-3.2,2.4-3.2c1.6,0,2.4,1.2,2.4,3.2s-0.8,3.2-2.4,3.2C167,654.3,166.2,653.1,166.2,651z M167.2,651
			c0,1.8,0.7,2.6,1.6,2.6c0.9,0,1.6-0.8,1.6-2.6s-0.7-2.6-1.6-2.6C167.7,648.5,167.2,649.3,167.2,651z"/>
	</g>
	<g class="st0">
		<path d="M164.4,663.1v1.5h-0.8v-1.5h-3.1v-0.8l3.1-4.1h0.8v4.1h1.2v0.8H164.4z M163.6,662.2v-2.8l-2.3,2.8H163.6z"/>
		<path d="M168.2,662.5c-1.2,0-2-0.8-2-2.2c0-1.2,0.8-2.2,2.2-2.2c1.6,0,2.3,1.1,2.3,3c0,1.8-0.7,3.5-2.4,3.5
			c-1.2,0-1.8-0.8-1.9-1.6h0.8c0.1,0.5,0.5,0.9,1.2,0.9c0.9,0,1.5-0.9,1.5-2.4C169.6,662.1,169,662.5,168.2,662.5z M167,660.3
			c0,0.8,0.5,1.5,1.4,1.5s1.4-0.7,1.4-1.5s-0.5-1.5-1.4-1.5S167,659.4,167,660.3z"/>
	</g>
</g>
<g>
	<g class="st0">
		<path d="M88,648.5h-1.5V648c0.9,0,1.4-0.1,1.8-0.8h0.5v6.4H88V648.5L88,648.5z"/>
		<path d="M90,650.2c0-2,0.8-3.2,2.4-3.2s2.4,1.2,2.4,3.2s-0.8,3.2-2.4,3.2C90.8,653.5,90,652.2,90,650.2z M91,650.2
			c0,1.8,0.7,2.6,1.6,2.6s1.6-0.8,1.6-2.6s-0.7-2.6-1.6-2.6C91.5,647.6,91,648.5,91,650.2z"/>
	</g>
	<g class="st0">
		<path d="M88,658.9h-1.5v-0.5c0.9,0,1.4-0.1,1.8-0.8h0.5v6.4H88V658.9L88,658.9z"/>
		<path d="M92,661.7c-1.2,0-2-0.8-2-2.2c0-1.2,0.8-2.2,2.2-2.2c1.6,0,2.3,1.1,2.3,3c0,1.8-0.7,3.5-2.4,3.5c-1.2,0-1.8-0.8-1.9-1.6
			H91c0.1,0.5,0.5,0.9,1.2,0.9c0.9,0,1.5-0.9,1.5-2.4C93.4,661.3,92.9,661.7,92,661.7z M90.8,659.5c0,0.8,0.5,1.5,1.4,1.5
			c0.8,0,1.4-0.7,1.4-1.5s-0.5-1.5-1.4-1.5C91.4,658.1,90.8,658.6,90.8,659.5z"/>
	</g>
</g>
<g>
	<g class="st0">
		<path d="M111.8,652.6h3.5v0.7h-4.6v-0.7c2.2-1.6,3.5-2.8,3.5-3.9c0-0.7-0.4-1.1-1.2-1.1c-0.7,0-1.4,0.4-1.4,1.4h-0.8
			c0-1.2,0.8-2,2.2-2c1.2,0,2,0.5,2,1.6C115.1,650.1,113.6,651.4,111.8,652.6z"/>
		<path d="M116,650.2c0-2,0.8-3.2,2.4-3.2s2.4,1.2,2.4,3.2s-0.8,3.2-2.4,3.2C116.8,653.5,116,652.2,116,650.2z M116.8,650.2
			c0,1.8,0.7,2.6,1.6,2.6s1.6-0.8,1.6-2.6s-0.7-2.6-1.6-2.6S116.8,648.5,116.8,650.2z"/>
	</g>
	<g class="st0">
		<path d="M111.8,663.1h3.5v0.7h-4.6v-0.7c2.2-1.6,3.5-2.8,3.5-3.9c0-0.7-0.4-1.1-1.2-1.1c-0.7,0-1.4,0.4-1.4,1.4h-0.8
			c0-1.2,0.8-2,2.2-2c1.2,0,2,0.5,2,1.6C115.1,660.5,113.6,661.8,111.8,663.1z"/>
		<path d="M118,661.7c-1.2,0-2-0.8-2-2.2c0-1.2,0.8-2.2,2.2-2.2c1.6,0,2.3,1.1,2.3,3c0,1.8-0.7,3.5-2.4,3.5c-1.2,0-1.8-0.8-1.9-1.6
			h0.8c0.1,0.5,0.5,0.9,1.2,0.9c0.9,0,1.5-0.9,1.5-2.4C119.4,661.3,118.8,661.7,118,661.7z M116.8,659.5c0,0.8,0.5,1.5,1.4,1.5
			c0.8,0,1.4-0.7,1.4-1.5s-0.5-1.5-1.4-1.5C117.4,658.1,116.8,658.6,116.8,659.5z"/>
	</g>
</g>
<g class="st0">
	<path d="M283.6,653.3v-0.8l3.5-1.5l-3.5-1.5v-0.8l4.5,2v0.7L283.6,653.3z"/>
	<path d="M291.1,651.3c-1.2,0-2-0.8-2-2.2c0-1.2,0.8-2.2,2.2-2.2c1.6,0,2.3,1.1,2.3,3c0,1.8-0.7,3.5-2.4,3.5c-1.2,0-1.8-0.8-1.9-1.6
		h0.8c0.1,0.5,0.5,0.9,1.2,0.9c0.9,0,1.5-0.9,1.5-2.4C292.5,650.9,292,651.3,291.1,651.3z M289.9,649.1c0,0.8,0.5,1.5,1.4,1.5
		c0.8,0,1.4-0.7,1.4-1.5s-0.5-1.5-1.4-1.5C290.5,647.6,289.9,648.2,289.9,649.1z"/>
	<path d="M294.4,650.2c0-2,0.8-3.2,2.4-3.2s2.4,1.2,2.4,3.2s-0.8,3.2-2.4,3.2C295.2,653.5,294.4,652.2,294.4,650.2z M295.2,650.2
		c0,1.8,0.7,2.6,1.6,2.6s1.6-0.8,1.6-2.6s-0.7-2.6-1.6-2.6C295.9,647.6,295.2,648.5,295.2,650.2z"/>
</g>
<g class="st0">
	<path d="M63.6,649.5l-3.5,1.5l3.5,1.5v0.8l-4.5-1.9v-0.7l4.5-2V649.5z"/>
	<path d="M68.8,651.3c-1.2,0-2-0.8-2-2.2c0-1.2,0.8-2.2,2.2-2.2c1.6,0,2.3,1.1,2.3,3c0,1.8-0.7,3.5-2.4,3.5c-1.2,0-1.8-0.8-1.9-1.6
		h0.8c0.1,0.5,0.5,0.9,1.2,0.9c0.9,0,1.5-0.9,1.5-2.4C70.3,650.9,69.7,651.3,68.8,651.3z M67.7,649.1c0,0.8,0.5,1.5,1.4,1.5
		c0.8,0,1.4-0.7,1.4-1.5s-0.5-1.5-1.4-1.5S67.7,648.2,67.7,649.1z"/>
</g>
<g class="st0">
	<path class="st1" d="M256.1,448.4v-3c2.9-0.2,4.8-0.8,6-1.3c1.1-0.7,2-2.2,2.6-4.6h3.1v31.4h-4.2v-22.3h-7.5V448.4z"/>
	<path class="st1" d="M281.2,452.2c-1.1-1.1-1.8-2.7-1.8-4.6c0-2.3,0.9-4.4,2.6-6s4.1-2.6,7.3-2.6c3,0,5.4,0.8,7,2.3
		c1.7,1.6,2.6,3.5,2.6,5.6c0,2-0.4,3.6-1.5,4.8c-0.6,0.7-1.5,1.3-2.6,2c1.3,0.6,2.3,1.3,3.1,2c1.5,1.5,2.1,3.3,2.1,5.7
		c0,2.8-0.9,5.1-2.8,7s-4.5,2.9-7.9,2.9c-3,0-5.7-0.8-7.8-2.5c-2.1-1.7-3.1-4.1-3.1-7.3c0-1.9,0.4-3.5,1.3-4.8s2.2-2.3,4-3.1
		C282.6,453.4,281.7,452.8,281.2,452.2z M293.9,466.5c1.2-1,1.8-2.5,1.8-4.5s-0.7-3.6-1.9-4.7c-1.2-1-2.8-1.6-4.8-1.6
		c-1.9,0-3.5,0.6-4.6,1.6c-1.2,1.1-1.8,2.6-1.8,4.5c0,1.7,0.6,3,1.7,4.2s2.8,1.8,5,1.8C291.2,467.9,292.7,467.5,293.9,466.5z
		 M293.1,450.9c1-1,1.5-2.1,1.5-3.5c0-1.2-0.4-2.2-1.5-3.2c-0.9-1-2.3-1.5-4.2-1.5c-1.9,0-3.2,0.4-4.1,1.5c-0.9,1-1.2,2.1-1.2,3.5
		c0,1.5,0.6,2.7,1.7,3.5s2.3,1.2,3.9,1.2S292.2,451.8,293.1,450.9z"/>
</g>
<g class="st0">
	<path class="st4" d="M232.5,500.4H227v-1.2h14.1v1.2h-1.7c1.2,0.8,2,2,2,3.6c0,2.5-2,4.4-5.5,4.4s-5.5-2-5.5-4.4
		C230.5,502.4,231.2,501.2,232.5,500.4z M235.9,507c2.8,0,4.4-1.3,4.4-3.3c0-1.6-1.2-3.3-4.4-3.3c-3.1,0-4.4,1.8-4.4,3.3
		C231.6,505.7,233.1,507,235.9,507z"/>
	<path class="st4" d="M241.4,493.3c0,2.3-1.5,3.3-4,3.3h-6.6v-1.1h6.4c2,0,3.2-0.4,3.2-2.5c0-1.7-1.6-3-3.7-3h-5.9v-1.2h10.4v1.2
		h-1.7C240.4,490.5,241.4,491.5,241.4,493.3z"/>
	<path class="st4" d="M230.5,481.8c0-2.9,2.5-4.8,5.7-4.7v8.3c2.6,0,4-1.7,4-3.8c0-1.7-0.8-2.8-2.2-3.1v-1.2
		c2.1,0.6,3.3,2.2,3.3,4.5c0,3-2.2,4.9-5.5,4.9C232.6,486.6,230.5,484.5,230.5,481.8z M235.2,478.4c-1.8,0-3.6,1.2-3.6,3.3
		c0,1.9,1.2,3.3,3.6,3.6V478.4z"/>
	<path class="st4" d="M241.1,474.9h-10.4v-1.2h1.8c-1-0.6-1.9-1.5-1.9-3.2s0.8-2.7,2.1-3c-1.3-0.8-2.1-1.8-2.1-3.6
		c0-2.3,1.5-3.3,4-3.3h6.6v1.2h-6.3c-2,0-3.2,0.4-3.2,2.5c0,1.7,1.6,3,3.7,3h5.8v1.2h-6.3c-2,0-3.2,0.4-3.2,2.5c0,1.7,1.6,3,3.7,3
		h5.8v1h-0.1V474.9z"/>
	<path class="st4" d="M229,456.9v1.2h-1.9v-1.2H229z M241.1,456.9v1.2h-10.4v-1.2H241.1z"/>
	<path class="st4" d="M241.1,454H227v-1.2h14.1V454z"/>
	<path class="st4" d="M241.4,447.1c0,1.9-1.1,3.5-2.8,3.5c-2.3,0-3.2-2.3-3.7-7.4h-0.3c-2.3,0-2.9,1.3-2.9,2.9c0,1.8,1,2.8,2.3,2.9
		v1.2c-2-0.2-3.5-1.9-3.5-4.2c0-2.5,1-4,4.1-4c1.5,0,2.3,0,3.2,0c1.2,0,2.2-0.1,3.3-0.1v1.2l-1.6,0.1
		C240.6,443.9,241.4,445.2,241.4,447.1z M236.4,443.2h-0.6c0.4,4.2,1,6,2.7,6c1.1,0,1.8-1,1.8-2.3
		C240.3,445,239.3,443.2,236.4,443.2z"/>
</g>
<g>
	<rect id="_x31_8_-_num_10_" x="56.6" y="596.4" class="st1" width="17.1" height="33.3"/>
	<rect id="_x31_8_-_num_9_" x="81.7" y="598.1" class="st1" width="17.1" height="31.6"/>
	<rect id="_x31_8_-_num_8_" x="107" y="444.1" class="st1" width="17.1" height="185.6"/>
	<rect id="_x31_8_-_num_7_" x="132.1" y="463.4" class="st1" width="17.1" height="166.3"/>
	<rect id="_x31_8_-_num_6_" x="157.2" y="539.8" class="st1" width="17.1" height="89.9"/>
	<rect id="_x31_8_-_num_5_" x="182.5" y="578.8" class="st1" width="17.1" height="50.9"/>
	<rect id="_x31_8_-_num_4_" x="207.6" y="601.5" class="st1" width="17.1" height="28.1"/>
	<rect id="_x31_8_-_num_3_" x="232.7" y="618.4" class="st1" width="17.1" height="11.2"/>
	<rect id="_x31_8_-_num_2_" x="258" y="625.9" class="st1" width="17.1" height="3.8"/>
	<rect id="_x31_8_-_num_1_" x="283.1" y="629.3" class="st1" width="17.1" height="0.3"/>
</g>
<path class="st10" d="M49.5,630.1h260.7"/>
<line class="st11" x1="65.1" y1="633.5" x2="65.1" y2="638.1"/>
<line class="st11" x1="90.3" y1="633.5" x2="90.3" y2="638.1"/>
<line class="st11" x1="115.5" y1="633.5" x2="115.5" y2="638.1"/>
<line class="st11" x1="140.6" y1="633.5" x2="140.6" y2="638.1"/>
<line class="st11" x1="165.8" y1="633.5" x2="165.8" y2="638.1"/>
<line class="st11" x1="191" y1="633.5" x2="191" y2="638.1"/>
<line class="st11" x1="216.1" y1="633.5" x2="216.1" y2="638.1"/>
<line class="st11" x1="241.3" y1="633.5" x2="241.3" y2="638.1"/>
<line class="st11" x1="266.5" y1="633.5" x2="266.5" y2="638.1"/>
<line class="st11" x1="291.7" y1="633.5" x2="291.7" y2="638.1"/>
<path class="st11" d="M49.5,630.1V432.4"/>
<line class="st11" x1="46.8" y1="630.1" x2="42.3" y2="630.1"/>
<g>
	<text transform="matrix(1 0 0 1 32.4438 641.9531)" class="st8 st12">0</text>
</g>
<line class="st11" x1="46.8" y1="616" x2="42.3" y2="616"/>
<line class="st11" x1="46.8" y1="601.8" x2="42.3" y2="601.8"/>
<g>
	<text transform="matrix(1 0 0 1 22.564 604.249)" class="st8 st12">400</text>
</g>
<line class="st11" x1="46.8" y1="587.7" x2="42.3" y2="587.7"/>
<line class="st11" x1="46.8" y1="573.6" x2="42.3" y2="573.6"/>
<g>
	<text transform="matrix(1 0 0 1 22.5493 573.9092)" class="st8 st12">800</text>
</g>
<line class="st11" x1="46.8" y1="559.5" x2="42.3" y2="559.5"/>
<line class="st11" x1="46.8" y1="545.4" x2="42.3" y2="545.4"/>
<g>
	<text transform="matrix(1 0 0 1 17.9673 545.79)" class="st8 st12">1,200</text>
</g>
<line class="st11" x1="46.8" y1="531.3" x2="42.3" y2="531.3"/>
<line class="st11" x1="46.8" y1="517.1" x2="42.3" y2="517.1"/>
<g>
	<text transform="matrix(1 0 0 1 18.1626 517.6719)" class="st8 st12">1,600</text>
</g>
<line class="st11" x1="46.8" y1="503" x2="42.3" y2="503"/>
<line class="st11" x1="46.8" y1="488.9" x2="42.3" y2="488.9"/>
<g>
	<text transform="matrix(1 0 0 1 16.1499 489.5527)" class="st8 st12">2,000</text>
</g>
<line class="st11" x1="46.8" y1="474.8" x2="42.3" y2="474.8"/>
<line class="st11" x1="46.8" y1="460.7" x2="42.3" y2="460.7"/>
<g>
	<text transform="matrix(1 0 0 1 16.2046 461.4346)" class="st8 st12">2,400</text>
</g>
<line class="st11" x1="46.8" y1="446.6" x2="42.3" y2="446.6"/>
<line class="st11" x1="46.8" y1="432.4" x2="42.3" y2="432.4"/>
<g>
	<text transform="matrix(1 0 0 1 16.2671 435.0527)" class="st8 st12">2,800</text>
</g>
<g>
	<g class="st0">
		<path d="M621.5,647.1v0.7c-1.5,1.2-2.6,3.2-2.7,5.5h-0.9c0.1-2.3,1.1-4.2,2.7-5.5h-3.4v-0.7H621.5z"/>
		<path d="M621.9,650.2c0-2,0.8-3.2,2.4-3.2c1.6,0,2.4,1.2,2.4,3.2s-0.8,3.2-2.4,3.2C622.8,653.5,621.9,652.2,621.9,650.2z
			 M622.9,650.2c0,1.8,0.7,2.6,1.6,2.6s1.6-0.8,1.6-2.6s-0.7-2.6-1.6-2.6S622.9,648.5,622.9,650.2z"/>
	</g>
	<g class="st0">
		<path d="M621.5,657.5v0.7c-1.5,1.2-2.6,3.2-2.7,5.5h-0.9c0.1-2.3,1.1-4.2,2.7-5.5h-3.4v-0.7H621.5z"/>
		<path d="M624,661.7c-1.2,0-2-0.8-2-2.2c0-1.2,0.8-2.2,2.2-2.2c1.6,0,2.3,1.1,2.3,3c0,1.8-0.7,3.5-2.4,3.5c-1.2,0-1.8-0.8-1.9-1.6
			h0.8c0.1,0.5,0.5,0.9,1.2,0.9c0.9,0,1.5-0.9,1.5-2.4C625.3,661.3,624.8,661.7,624,661.7z M622.8,659.5c0,0.8,0.5,1.5,1.4,1.5
			s1.4-0.7,1.4-1.5s-0.5-1.5-1.4-1.5S622.8,658.6,622.8,659.5z"/>
	</g>
</g>
<g>
	<g class="st0">
		<path d="M645.2,650.1c0.8,0.3,1.1,0.9,1.1,1.6c0,1.2-0.9,1.9-2.3,1.9s-2.3-0.7-2.3-1.9c0-0.5,0.3-1.2,1.1-1.6
			c-0.7-0.4-0.8-0.9-0.8-1.5c0-0.9,0.8-1.6,2.2-1.6c1.2,0,2.2,0.7,2.2,1.6C646,649.1,645.9,649.7,645.2,650.1z M644,652.8
			c0.9,0,1.5-0.5,1.5-1.2s-0.5-1.2-1.5-1.2c-0.9,0-1.5,0.5-1.5,1.2C642.5,652.4,643,652.8,644,652.8z M642.6,648.7
			c0,0.7,0.5,1.1,1.4,1.1c0.8,0,1.4-0.4,1.4-1.1c0-0.7-0.5-1.1-1.4-1.1C643.2,647.6,642.6,648.1,642.6,648.7z"/>
		<path d="M647.1,650.2c0-2,0.8-3.2,2.4-3.2c1.6,0,2.4,1.2,2.4,3.2s-0.8,3.2-2.4,3.2C647.9,653.5,647.1,652.2,647.1,650.2z
			 M647.9,650.2c0,1.8,0.7,2.6,1.6,2.6c0.9,0,1.6-0.8,1.6-2.6s-0.7-2.6-1.6-2.6C648.6,647.6,647.9,648.5,647.9,650.2z"/>
	</g>
	<g class="st0">
		<path d="M645.2,660.5c0.8,0.3,1.1,0.9,1.1,1.6c0,1.2-0.9,1.9-2.3,1.9s-2.3-0.7-2.3-1.9c0-0.5,0.3-1.2,1.1-1.6
			c-0.7-0.4-0.8-0.9-0.8-1.5c0-0.9,0.8-1.6,2.2-1.6c1.2,0,2.2,0.7,2.2,1.6C646,659.5,645.9,660.1,645.2,660.5z M644,663.2
			c0.9,0,1.5-0.5,1.5-1.2s-0.5-1.2-1.5-1.2c-0.9,0-1.5,0.5-1.5,1.2C642.5,662.6,643,663.2,644,663.2z M642.6,659.1
			c0,0.7,0.5,1.1,1.4,1.1c0.8,0,1.4-0.4,1.4-1.1c0-0.7-0.5-1.1-1.4-1.1C643.2,658.1,642.6,658.5,642.6,659.1z"/>
		<path d="M649.1,661.7c-1.2,0-2-0.8-2-2.2c0-1.2,0.8-2.2,2.2-2.2c1.6,0,2.3,1.1,2.3,3c0,1.8-0.7,3.5-2.4,3.5
			c-1.2,0-1.8-0.8-1.9-1.6h0.8c0.1,0.5,0.5,0.9,1.2,0.9c0.9,0,1.5-0.9,1.5-2.4C650.5,661.3,649.9,661.7,649.1,661.7z M647.9,659.5
			c0,0.8,0.5,1.5,1.4,1.5c0.8,0,1.4-0.7,1.4-1.5s-0.5-1.5-1.4-1.5C648.4,658.1,647.9,658.6,647.9,659.5z"/>
	</g>
</g>
<g>
	<g class="st0">
		<path d="M568.4,649.8c-0.7,0-1.1,0.4-1.2,0.7h-0.8l0.4-3.4h3.6v0.7h-3l-0.3,1.8c0.3-0.3,0.8-0.5,1.4-0.5c1.1,0,2,0.8,2,2.2
			c0,1.5-1.1,2.2-2.3,2.2c-1.5,0-2.2-0.9-2.3-1.9h0.8c0.1,0.8,0.5,1.2,1.5,1.2c0.8,0,1.4-0.5,1.4-1.5
			C569.8,650.2,569.2,649.8,568.4,649.8z"/>
		<path d="M571.5,650.2c0-2,0.8-3.2,2.4-3.2c1.6,0,2.4,1.2,2.4,3.2s-0.8,3.2-2.4,3.2C572.3,653.5,571.5,652.2,571.5,650.2z
			 M572.3,650.2c0,1.8,0.7,2.6,1.6,2.6s1.6-0.8,1.6-2.6s-0.7-2.6-1.6-2.6S572.3,648.5,572.3,650.2z"/>
	</g>
	<g class="st0">
		<path d="M568.4,660.2c-0.7,0-1.1,0.4-1.2,0.7h-0.8l0.4-3.4h3.6v0.7h-3l-0.3,1.8c0.3-0.3,0.8-0.5,1.4-0.5c1.1,0,2,0.8,2,2.2
			c0,1.5-1.1,2.2-2.3,2.2c-1.5,0-2.2-0.9-2.3-1.9h0.8c0.1,0.8,0.5,1.2,1.5,1.2c0.8,0,1.4-0.5,1.4-1.5
			C569.8,660.6,569.2,660.2,568.4,660.2z"/>
		<path d="M573.5,661.7c-1.2,0-2-0.8-2-2.2c0-1.2,0.8-2.2,2.2-2.2c1.6,0,2.3,1.1,2.3,3c0,1.8-0.7,3.5-2.4,3.5
			c-1.2,0-1.8-0.8-1.9-1.6h0.8c0.1,0.5,0.5,0.9,1.2,0.9c0.9,0,1.5-0.9,1.5-2.4C574.8,661.3,574.3,661.7,573.5,661.7z M572.3,659.5
			c0,0.8,0.5,1.5,1.4,1.5s1.4-0.7,1.4-1.5s-0.5-1.5-1.4-1.5S572.3,658.6,572.3,659.5z"/>
	</g>
</g>
<g>
	<g class="st0">
		<path d="M593.9,649.1c1.2,0,2,0.8,2,2.2c0,1.2-0.8,2.2-2.2,2.2c-1.6,0-2.3-1.1-2.3-3c0-1.8,0.7-3.5,2.4-3.5c1.2,0,1.8,0.8,1.9,1.6
			H595c-0.1-0.5-0.5-0.9-1.2-0.9c-0.9,0-1.5,0.9-1.5,2.4C592.6,649.5,593.1,649.1,593.9,649.1z M595.2,651.4c0-0.8-0.5-1.5-1.4-1.5
			c-0.8,0-1.4,0.7-1.4,1.5s0.5,1.5,1.4,1.5C594.5,652.8,595.2,652.2,595.2,651.4z"/>
		<path d="M596.8,650.2c0-2,0.8-3.2,2.4-3.2c1.6,0,2.4,1.2,2.4,3.2s-0.8,3.2-2.4,3.2S596.8,652.2,596.8,650.2z M597.6,650.2
			c0,1.8,0.7,2.6,1.6,2.6s1.6-0.8,1.6-2.6s-0.7-2.6-1.6-2.6S597.6,648.5,597.6,650.2z"/>
	</g>
	<g class="st0">
		<path d="M593.9,659.5c1.2,0,2,0.8,2,2.2c0,1.2-0.8,2.2-2.2,2.2c-1.6,0-2.3-1.1-2.3-3c0-1.8,0.7-3.5,2.4-3.5c1.2,0,1.8,0.8,1.9,1.6
			H595c-0.1-0.5-0.5-0.9-1.2-0.9c-0.9,0-1.5,0.9-1.5,2.4C592.6,659.9,593.1,659.5,593.9,659.5z M595.2,661.7c0-0.8-0.5-1.5-1.4-1.5
			c-0.8,0-1.4,0.7-1.4,1.5s0.5,1.5,1.4,1.5C594.5,663.2,595.2,662.6,595.2,661.7z"/>
		<path d="M598.8,661.7c-1.2,0-2-0.8-2-2.2c0-1.2,0.8-2.2,2.2-2.2c1.6,0,2.3,1.1,2.3,3c0,1.8-0.7,3.5-2.4,3.5
			c-1.2,0-1.8-0.8-1.9-1.6h0.8c0.1,0.5,0.5,0.9,1.2,0.9c0.9,0,1.5-0.9,1.5-2.4C600.2,661.3,599.6,661.7,598.8,661.7z M597.6,659.5
			c0,0.8,0.5,1.5,1.4,1.5c0.8,0,1.4-0.7,1.4-1.5s-0.5-1.5-1.4-1.5C598.1,658.1,597.6,658.6,597.6,659.5z"/>
	</g>
</g>
<g>
	<g class="st0">
		<path d="M518.1,650.5L518.1,650.5l-0.1-0.7h0.1c1.1,0,1.6-0.3,1.6-1.1c0-0.7-0.5-1.1-1.2-1.1c-0.8,0-1.4,0.5-1.4,1.2h-0.8
			c0.1-1.1,0.9-1.9,2.2-1.9c1.1,0,2,0.4,2,1.6c0,0.7-0.4,1.2-1.1,1.5c0.9,0.3,1.2,0.9,1.2,1.6c0,1.2-1.1,1.9-2.3,1.9
			c-1.5,0-2.2-0.9-2.3-2h0.8c0.1,0.8,0.5,1.4,1.5,1.4c0.8,0,1.5-0.4,1.5-1.2C520,650.8,519.2,650.5,518.1,650.5z"/>
		<path d="M521.6,650.2c0-2,0.8-3.2,2.4-3.2c1.6,0,2.4,1.2,2.4,3.2s-0.8,3.2-2.4,3.2C522.3,653.5,521.6,652.2,521.6,650.2z
			 M522.4,650.2c0,1.8,0.7,2.6,1.6,2.6s1.6-0.8,1.6-2.6s-0.7-2.6-1.6-2.6S522.4,648.5,522.4,650.2z"/>
	</g>
	<g class="st0">
		<path d="M518.1,660.8L518.1,660.8l-0.1-0.7h0.1c1.1,0,1.6-0.3,1.6-1.1c0-0.7-0.5-1.1-1.2-1.1c-0.8,0-1.4,0.5-1.4,1.2h-0.8
			c0.1-1.1,0.9-1.9,2.2-1.9c1.1,0,2,0.4,2,1.6c0,0.7-0.4,1.2-1.1,1.5c0.9,0.3,1.2,0.9,1.2,1.6c0,1.2-1.1,1.9-2.3,1.9
			c-1.5,0-2.2-0.9-2.3-2h0.8c0.1,0.8,0.5,1.4,1.5,1.4c0.8,0,1.5-0.4,1.5-1.2C520,661.2,519.2,660.8,518.1,660.8z"/>
		<path d="M523.5,661.7c-1.2,0-2-0.8-2-2.2c0-1.2,0.8-2.2,2.2-2.2c1.6,0,2.3,1.1,2.3,3c0,1.8-0.7,3.5-2.4,3.5
			c-1.2,0-1.8-0.8-1.9-1.6h0.8c0.1,0.5,0.5,0.9,1.2,0.9c0.9,0,1.5-0.9,1.5-2.4C524.9,661.3,524.3,661.7,523.5,661.7z M522.4,659.5
			c0,0.8,0.5,1.5,1.4,1.5c0.8,0,1.4-0.7,1.4-1.5s-0.5-1.5-1.4-1.5C523,658.1,522.4,658.6,522.4,659.5z"/>
	</g>
</g>
<g>
	<g class="st0">
		<path d="M544.9,652.6v1.5h-0.8v-1.5H541v-0.8l3.1-4.1h0.8v4.1h1.2v0.8H544.9z M544.1,651.8V649l-2.3,2.8H544.1z"/>
		<path d="M546.7,651c0-2,0.8-3.2,2.4-3.2s2.4,1.2,2.4,3.2s-0.8,3.2-2.4,3.2S546.7,653.1,546.7,651z M547.6,651
			c0,1.8,0.7,2.6,1.6,2.6c0.9,0,1.6-0.8,1.6-2.6s-0.7-2.6-1.6-2.6C548.1,648.5,547.6,649.3,547.6,651z"/>
	</g>
	<g class="st0">
		<path d="M544.9,663.1v1.5h-0.8v-1.5H541v-0.8l3.1-4.1h0.8v4.1h1.2v0.8H544.9z M544.1,662.2v-2.8l-2.3,2.8H544.1z"/>
		<path d="M548.7,662.5c-1.2,0-2-0.8-2-2.2c0-1.2,0.8-2.2,2.2-2.2c1.6,0,2.3,1.1,2.3,3c0,1.8-0.7,3.5-2.4,3.5
			c-1.2,0-1.8-0.8-1.9-1.6h0.8c0.1,0.5,0.5,0.9,1.2,0.9c0.9,0,1.5-0.9,1.5-2.4C550,662.1,549.5,662.5,548.7,662.5z M547.5,660.3
			c0,0.8,0.5,1.5,1.4,1.5c0.8,0,1.4-0.7,1.4-1.5s-0.5-1.5-1.4-1.5C548,658.9,547.5,659.4,547.5,660.3z"/>
	</g>
</g>
<g>
	<g class="st0">
		<path d="M468.4,648.5H467V648c0.9,0,1.4-0.1,1.8-0.8h0.5v6.4h-0.8L468.4,648.5L468.4,648.5z"/>
		<path d="M470.5,650.2c0-2,0.8-3.2,2.4-3.2s2.4,1.2,2.4,3.2s-0.8,3.2-2.4,3.2S470.5,652.2,470.5,650.2z M471.4,650.2
			c0,1.8,0.7,2.6,1.6,2.6s1.6-0.8,1.6-2.6s-0.7-2.6-1.6-2.6C472,647.6,471.4,648.5,471.4,650.2z"/>
	</g>
	<g class="st0">
		<path d="M468.4,658.9H467v-0.5c0.9,0,1.4-0.1,1.8-0.8h0.5v6.4h-0.8L468.4,658.9L468.4,658.9z"/>
		<path d="M472.5,661.7c-1.2,0-2-0.8-2-2.2c0-1.2,0.8-2.2,2.2-2.2c1.6,0,2.3,1.1,2.3,3c0,1.8-0.7,3.5-2.4,3.5
			c-1.2,0-1.8-0.8-1.9-1.6h0.8c0.1,0.5,0.5,0.9,1.2,0.9c0.9,0,1.5-0.9,1.5-2.4C473.8,661.3,473.3,661.7,472.5,661.7z M471.3,659.5
			c0,0.8,0.5,1.5,1.4,1.5c0.8,0,1.4-0.7,1.4-1.5s-0.5-1.5-1.4-1.5C471.8,658.1,471.3,658.6,471.3,659.5z"/>
	</g>
</g>
<g>
	<g class="st0">
		<path d="M492.3,652.6h3.5v0.7h-4.6v-0.7c2.2-1.6,3.5-2.8,3.5-3.9c0-0.7-0.4-1.1-1.2-1.1c-0.7,0-1.4,0.4-1.4,1.4h-0.8
			c0-1.2,0.8-2,2.2-2c1.2,0,2,0.5,2,1.6C495.5,650.1,494,651.4,492.3,652.6z"/>
		<path d="M496.5,650.2c0-2,0.8-3.2,2.4-3.2s2.4,1.2,2.4,3.2s-0.8,3.2-2.4,3.2C497.3,653.5,496.5,652.2,496.5,650.2z M497.3,650.2
			c0,1.8,0.7,2.6,1.6,2.6s1.6-0.8,1.6-2.6s-0.7-2.6-1.6-2.6S497.3,648.5,497.3,650.2z"/>
	</g>
	<g class="st0">
		<path d="M492.3,663.1h3.5v0.7h-4.6v-0.7c2.2-1.6,3.5-2.8,3.5-3.9c0-0.7-0.4-1.1-1.2-1.1c-0.7,0-1.4,0.4-1.4,1.4h-0.8
			c0-1.2,0.8-2,2.2-2c1.2,0,2,0.5,2,1.6C495.5,660.5,494,661.8,492.3,663.1z"/>
		<path d="M498.5,661.7c-1.2,0-2-0.8-2-2.2c0-1.2,0.8-2.2,2.2-2.2c1.6,0,2.3,1.1,2.3,3c0,1.8-0.7,3.5-2.4,3.5
			c-1.2,0-1.8-0.8-1.9-1.6h0.8c0.1,0.5,0.5,0.9,1.2,0.9c0.9,0,1.5-0.9,1.5-2.4C499.8,661.3,499.3,661.7,498.5,661.7z M497.3,659.5
			c0,0.8,0.5,1.5,1.4,1.5c0.8,0,1.4-0.7,1.4-1.5s-0.5-1.5-1.4-1.5S497.3,658.6,497.3,659.5z"/>
	</g>
</g>
<g class="st0">
	<path d="M664,653.3v-0.8l3.5-1.5l-3.5-1.5v-0.8l4.5,2v0.7L664,653.3z"/>
	<path d="M671.6,651.3c-1.2,0-2-0.8-2-2.2c0-1.2,0.8-2.2,2.2-2.2c1.6,0,2.3,1.1,2.3,3c0,1.8-0.7,3.5-2.4,3.5c-1.2,0-1.8-0.8-1.9-1.6
		h0.8c0.1,0.5,0.5,0.9,1.2,0.9c0.9,0,1.5-0.9,1.5-2.4C672.9,650.9,672.4,651.3,671.6,651.3z M670.4,649.1c0,0.8,0.5,1.5,1.4,1.5
		s1.4-0.7,1.4-1.5s-0.5-1.5-1.4-1.5S670.4,648.2,670.4,649.1z"/>
	<path d="M674.8,650.2c0-2,0.8-3.2,2.4-3.2c1.6,0,2.4,1.2,2.4,3.2s-0.8,3.2-2.4,3.2C675.7,653.5,674.8,652.2,674.8,650.2z
		 M675.7,650.2c0,1.8,0.7,2.6,1.6,2.6c0.9,0,1.6-0.8,1.6-2.6s-0.7-2.6-1.6-2.6C676.3,647.6,675.7,648.5,675.7,650.2z"/>
</g>
<g class="st0">
	<path d="M444.1,649.5l-3.5,1.5l3.5,1.5v0.8l-4.5-1.9v-0.7l4.5-2V649.5z"/>
	<path d="M449.2,651.3c-1.2,0-2-0.8-2-2.2c0-1.2,0.8-2.2,2.2-2.2c1.6,0,2.3,1.1,2.3,3c0,1.8-0.7,3.5-2.4,3.5c-1.2,0-1.8-0.8-1.9-1.6
		h0.8c0.1,0.5,0.5,0.9,1.2,0.9c0.9,0,1.5-0.9,1.5-2.4C450.7,650.9,450.2,651.3,449.2,651.3z M448.1,649.1c0,0.8,0.5,1.5,1.4,1.5
		c0.8,0,1.4-0.7,1.4-1.5s-0.5-1.5-1.4-1.5C448.7,647.6,448.1,648.2,448.1,649.1z"/>
</g>
<g class="st0">
	<path class="st2" d="M636.6,469.6v-3c2.9-0.2,4.8-0.8,6-1.3c1.1-0.7,2-2.2,2.6-4.6h3.1V492h-4.2v-22.3h-7.5L636.6,469.6
		L636.6,469.6z"/>
	<path class="st2" d="M663.3,484.2c0.1,2.2,1,3.7,2.6,4.6c0.8,0.4,1.7,0.7,2.7,0.7c1.9,0,3.5-0.8,4.8-2.3c1.3-1.6,2.2-4.8,2.8-9.6
		c-0.9,1.3-2,2.3-3.2,2.9c-1.3,0.6-2.7,0.9-4.1,0.9c-3,0-5.5-0.9-7.1-2.8c-1.8-1.9-2.7-4.4-2.7-7.3s0.9-5.4,2.6-7.5
		c1.8-2.1,4.4-3.2,7.7-3.2c4.6,0,7.7,2,9.5,6.1c1,2.2,1.5,5.1,1.5,8.5c0,3.8-0.6,7.3-1.8,10.3c-1.9,4.9-5.1,7.4-9.7,7.4
		c-3.1,0-5.4-0.8-7-2.5c-1.6-1.6-2.3-3.7-2.3-6h4v-0.2H663.3z M673.6,476.3c1.3-1,1.9-2.8,1.9-5.4c0-2.3-0.6-4-1.8-5.1
		c-1.1-1.1-2.7-1.7-4.5-1.7c-1.9,0-3.5,0.7-4.6,1.9c-1.1,1.3-1.7,3-1.7,5.1c0,2,0.4,3.7,1.5,4.9c1,1.2,2.6,1.8,4.8,1.8
		C670.9,477.7,672.3,477.3,673.6,476.3z"/>
</g>
<g class="st0">
	<path class="st4" d="M612.9,500.4h-5.5v-1.2h14.1v1.2h-1.7c1.2,0.8,2,2,2,3.6c0,2.5-2,4.4-5.5,4.4s-5.5-2-5.5-4.4
		C610.9,502.4,611.7,501.2,612.9,500.4z M616.4,507c2.8,0,4.4-1.3,4.4-3.3c0-1.6-1.2-3.3-4.4-3.3c-3.1,0-4.4,1.8-4.4,3.3
		C612,505.7,613.6,507,616.4,507z"/>
	<path class="st4" d="M621.9,493.3c0,2.3-1.5,3.3-4,3.3h-6.6v-1.1h6.4c2,0,3.2-0.4,3.2-2.5c0-1.7-1.6-3-3.7-3h-5.9v-1.2h10.4v1.2
		H620C620.9,490.5,621.9,491.5,621.9,493.3z"/>
	<path class="st4" d="M610.9,481.8c0-2.9,2.5-4.8,5.7-4.7v8.3c2.6,0,4-1.7,4-3.8c0-1.7-0.8-2.8-2.2-3.1v-1.2
		c2.1,0.6,3.3,2.2,3.3,4.5c0,3-2.2,4.9-5.5,4.9C613,486.6,610.9,484.5,610.9,481.8z M615.6,478.4c-1.8,0-3.6,1.2-3.6,3.3
		c0,1.9,1.2,3.3,3.6,3.6V478.4z"/>
	<path class="st4" d="M621.5,474.9h-10.4v-1.2h1.8c-1-0.6-1.9-1.5-1.9-3.2s0.8-2.7,2.1-3c-1.3-0.8-2.1-1.8-2.1-3.6
		c0-2.3,1.5-3.3,4-3.3h6.6v1.2h-6.3c-2,0-3.2,0.4-3.2,2.5c0,1.7,1.6,3,3.7,3h5.8v1.2h-6.3c-2,0-3.2,0.4-3.2,2.5c0,1.7,1.6,3,3.7,3
		h5.8v1h-0.1V474.9z"/>
	<path class="st4" d="M609.5,456.9v1.2h-1.9v-1.2H609.5z M621.5,456.9v1.2h-10.4v-1.2H621.5z"/>
	<path class="st4" d="M621.5,454h-14.1v-1.2h14.1V454z"/>
	<path class="st4" d="M621.9,447.1c0,1.9-1.1,3.5-2.8,3.5c-2.3,0-3.2-2.3-3.7-7.4H615c-2.3,0-2.9,1.3-2.9,2.9c0,1.8,1,2.8,2.3,2.9
		v1.2c-2-0.2-3.5-1.9-3.5-4.2c0-2.5,1-4,4.1-4c1.5,0,2.3,0,3.2,0c1.2,0,2.2-0.1,3.3-0.1v1.2l-1.6,0.1
		C621.1,443.9,621.9,445.2,621.9,447.1z M616.8,443.2h-0.6c0.4,4.2,1,6,2.7,6c1.1,0,1.8-1,1.8-2.3
		C620.7,445,619.7,443.2,616.8,443.2z"/>
</g>
<g>
	<rect id="_x31_9_-_num_29_" x="438" y="594" class="st2" width="17.1" height="35.9"/>
	<rect id="_x31_9_-_num_28_" x="463.1" y="589.1" class="st2" width="17.1" height="40.9"/>
	<rect id="_x31_9_-_num_27_" x="488.3" y="505" class="st2" width="17.1" height="125"/>
	<rect id="_x31_9_-_num_26_" x="513.5" y="477.8" class="st2" width="17.1" height="152.2"/>
	<rect id="_x31_9_-_num_25_" x="538.7" y="526.6" class="st2" width="17.1" height="103.4"/>
	<rect id="_x31_9_-_num_24_" x="563.8" y="562.3" class="st2" width="17.1" height="67.7"/>
	<rect id="_x31_9_-_num_23_" x="589.1" y="591.1" class="st2" width="17.1" height="38.8"/>
	<rect id="_x31_9_-_num_22_" x="614.2" y="615.2" class="st2" width="17.1" height="14.8"/>
	<rect id="_x31_9_-_num_21_" x="639.5" y="626.5" class="st2" width="17.1" height="3.4"/>
	<rect id="_x31_9_-_num_20_" x="664.6" y="629.8" class="st2" width="17.1" height="0.2"/>
</g>
<path class="st10" d="M430,630.1h260.7"/>
<line class="st11" x1="445.5" y1="633.5" x2="445.5" y2="638.1"/>
<line class="st11" x1="470.8" y1="633.5" x2="470.8" y2="638.1"/>
<line class="st11" x1="495.9" y1="633.5" x2="495.9" y2="638.1"/>
<line class="st11" x1="521" y1="633.5" x2="521" y2="638.1"/>
<line class="st11" x1="546.3" y1="633.5" x2="546.3" y2="638.1"/>
<line class="st11" x1="571.4" y1="633.5" x2="571.4" y2="638.1"/>
<line class="st11" x1="596.6" y1="633.5" x2="596.6" y2="638.1"/>
<line class="st11" x1="621.8" y1="633.5" x2="621.8" y2="638.1"/>
<line class="st11" x1="646.9" y1="633.5" x2="646.9" y2="638.1"/>
<line class="st11" x1="672.2" y1="633.5" x2="672.2" y2="638.1"/>
<path class="st11" d="M430,630.1V432.4"/>
<line class="st11" x1="427.3" y1="630.1" x2="422.8" y2="630.1"/>
<g>
	<text transform="matrix(1 0 0 1 412.8975 641.9531)" class="st8 st12">0</text>
</g>
<line class="st11" x1="427.3" y1="616" x2="422.8" y2="616"/>
<line class="st11" x1="427.3" y1="601.8" x2="422.8" y2="601.8"/>
<g>
	<text transform="matrix(1 0 0 1 403.0176 604.249)" class="st8 st12">400</text>
</g>
<line class="st11" x1="427.3" y1="587.7" x2="422.8" y2="587.7"/>
<line class="st11" x1="427.3" y1="573.6" x2="422.8" y2="573.6"/>
<g>
	<text transform="matrix(1 0 0 1 403.0029 573.9092)" class="st8 st12">800</text>
</g>
<line class="st11" x1="427.3" y1="559.5" x2="422.8" y2="559.5"/>
<line class="st11" x1="427.3" y1="545.4" x2="422.8" y2="545.4"/>
<g>
	<text transform="matrix(1 0 0 1 398.4209 545.79)" class="st8 st12">1,200</text>
</g>
<line class="st11" x1="427.3" y1="531.3" x2="422.8" y2="531.3"/>
<line class="st11" x1="427.3" y1="517.1" x2="422.8" y2="517.1"/>
<g>
	<text transform="matrix(1 0 0 1 398.6162 517.6719)" class="st8 st12">1,600</text>
</g>
<line class="st11" x1="427.3" y1="503" x2="422.8" y2="503"/>
<line class="st11" x1="427.3" y1="488.9" x2="422.8" y2="488.9"/>
<g>
	<text transform="matrix(1 0 0 1 396.6035 489.5527)" class="st8 st12">2,000</text>
</g>
<line class="st11" x1="427.3" y1="474.8" x2="422.8" y2="474.8"/>
<line class="st11" x1="427.3" y1="460.7" x2="422.8" y2="460.7"/>
<g>
	<text transform="matrix(1 0 0 1 396.6582 461.4346)" class="st8 st12">2,400</text>
</g>
<line class="st11" x1="427.3" y1="446.6" x2="422.8" y2="446.6"/>
<line class="st11" x1="427.3" y1="432.4" x2="422.8" y2="432.4"/>
<g>
	<text transform="matrix(1 0 0 1 396.7207 435.0527)" class="st8 st12">2,800</text>
</g>
<g>
	<g class="st0">
		<path d="M987.1,647.1v0.7c-1.5,1.2-2.6,3.2-2.7,5.5h-0.9c0.1-2.3,1.1-4.2,2.7-5.5h-3.4v-0.7H987.1z"/>
		<path d="M987.5,650.2c0-2,0.8-3.2,2.4-3.2c1.6,0,2.4,1.2,2.4,3.2s-0.8,3.2-2.4,3.2C988.3,653.5,987.5,652.2,987.5,650.2z
			 M988.4,650.2c0,1.8,0.7,2.6,1.6,2.6s1.6-0.8,1.6-2.6s-0.7-2.6-1.6-2.6S988.4,648.5,988.4,650.2z"/>
	</g>
	<g class="st0">
		<path d="M987.1,657.5v0.7c-1.5,1.2-2.6,3.2-2.7,5.5h-0.9c0.1-2.3,1.1-4.2,2.7-5.5h-3.4v-0.7H987.1z"/>
		<path d="M989.5,661.7c-1.2,0-2-0.8-2-2.2c0-1.2,0.8-2.2,2.2-2.2c1.6,0,2.3,1.1,2.3,3c0,1.8-0.7,3.5-2.4,3.5
			c-1.2,0-1.8-0.8-1.9-1.6h0.8c0.1,0.5,0.5,0.9,1.2,0.9c0.9,0,1.5-0.9,1.5-2.4C990.8,661.3,990.3,661.7,989.5,661.7z M988.3,659.5
			c0,0.8,0.5,1.5,1.4,1.5s1.4-0.7,1.4-1.5s-0.5-1.5-1.4-1.5S988.3,658.6,988.3,659.5z"/>
	</g>
</g>
<g>
	<g class="st0">
		<path d="M1010.7,650.1c0.8,0.3,1.1,0.9,1.1,1.6c0,1.2-0.9,1.9-2.3,1.9s-2.3-0.7-2.3-1.9c0-0.5,0.3-1.2,1.1-1.6
			c-0.7-0.4-0.8-0.9-0.8-1.5c0-0.9,0.8-1.6,2.2-1.6c1.2,0,2.2,0.7,2.2,1.6C1011.5,649.1,1011.4,649.7,1010.7,650.1z M1009.5,652.8
			c0.9,0,1.5-0.5,1.5-1.2s-0.5-1.2-1.5-1.2c-0.9,0-1.5,0.5-1.5,1.2C1008,652.4,1008.5,652.8,1009.5,652.8z M1008.1,648.7
			c0,0.7,0.5,1.1,1.4,1.1c0.8,0,1.4-0.4,1.4-1.1c0-0.7-0.5-1.1-1.4-1.1C1008.7,647.6,1008.1,648.1,1008.1,648.7z"/>
		<path d="M1012.6,650.2c0-2,0.8-3.2,2.4-3.2c1.6,0,2.4,1.2,2.4,3.2s-0.8,3.2-2.4,3.2C1013.4,653.5,1012.6,652.2,1012.6,650.2z
			 M1013.4,650.2c0,1.8,0.7,2.6,1.6,2.6c0.9,0,1.6-0.8,1.6-2.6s-0.7-2.6-1.6-2.6C1014.1,647.6,1013.4,648.5,1013.4,650.2z"/>
	</g>
	<g class="st0">
		<path d="M1010.7,660.5c0.8,0.3,1.1,0.9,1.1,1.6c0,1.2-0.9,1.9-2.3,1.9s-2.3-0.7-2.3-1.9c0-0.5,0.3-1.2,1.1-1.6
			c-0.7-0.4-0.8-0.9-0.8-1.5c0-0.9,0.8-1.6,2.2-1.6c1.2,0,2.2,0.7,2.2,1.6C1011.5,659.5,1011.4,660.1,1010.7,660.5z M1009.5,663.2
			c0.9,0,1.5-0.5,1.5-1.2s-0.5-1.2-1.5-1.2c-0.9,0-1.5,0.5-1.5,1.2C1008,662.6,1008.5,663.2,1009.5,663.2z M1008.1,659.1
			c0,0.7,0.5,1.1,1.4,1.1c0.8,0,1.4-0.4,1.4-1.1c0-0.7-0.5-1.1-1.4-1.1C1008.7,658.1,1008.1,658.5,1008.1,659.1z"/>
		<path d="M1014.6,661.7c-1.2,0-2-0.8-2-2.2c0-1.2,0.8-2.2,2.2-2.2c1.6,0,2.3,1.1,2.3,3c0,1.8-0.7,3.5-2.4,3.5
			c-1.2,0-1.8-0.8-1.9-1.6h0.8c0.1,0.5,0.5,0.9,1.2,0.9c0.9,0,1.5-0.9,1.5-2.4C1016,661.3,1015.4,661.7,1014.6,661.7z M1013.4,659.5
			c0,0.8,0.5,1.5,1.4,1.5s1.4-0.7,1.4-1.5s-0.5-1.5-1.4-1.5S1013.4,658.6,1013.4,659.5z"/>
	</g>
</g>
<g>
	<g class="st0">
		<path d="M933.9,649.8c-0.7,0-1.1,0.4-1.2,0.7h-0.8l0.4-3.4h3.6v0.7h-3l-0.3,1.8c0.3-0.3,0.8-0.5,1.4-0.5c1.1,0,2,0.8,2,2.2
			c0,1.5-1.1,2.2-2.3,2.2c-1.5,0-2.2-0.9-2.3-1.9h0.8c0.1,0.8,0.5,1.2,1.5,1.2c0.8,0,1.4-0.5,1.4-1.5
			C935.4,650.2,934.7,649.8,933.9,649.8z"/>
		<path d="M937,650.2c0-2,0.8-3.2,2.4-3.2c1.6,0,2.4,1.2,2.4,3.2s-0.8,3.2-2.4,3.2C937.8,653.5,937,652.2,937,650.2z M937.8,650.2
			c0,1.8,0.7,2.6,1.6,2.6s1.6-0.8,1.6-2.6s-0.7-2.6-1.6-2.6S937.8,648.5,937.8,650.2z"/>
	</g>
	<g class="st0">
		<path d="M933.9,660.2c-0.7,0-1.1,0.4-1.2,0.7h-0.8l0.4-3.4h3.6v0.7h-3l-0.3,1.8c0.3-0.3,0.8-0.5,1.4-0.5c1.1,0,2,0.8,2,2.2
			c0,1.5-1.1,2.2-2.3,2.2c-1.5,0-2.2-0.9-2.3-1.9h0.8c0.1,0.8,0.5,1.2,1.5,1.2c0.8,0,1.4-0.5,1.4-1.5
			C935.4,660.6,934.7,660.2,933.9,660.2z"/>
		<path d="M939,661.7c-1.2,0-2-0.8-2-2.2c0-1.2,0.8-2.2,2.2-2.2c1.6,0,2.3,1.1,2.3,3c0,1.8-0.7,3.5-2.4,3.5c-1.2,0-1.8-0.8-1.9-1.6
			h0.8c0.1,0.5,0.5,0.9,1.2,0.9c0.9,0,1.5-0.9,1.5-2.4C940.4,661.3,939.8,661.7,939,661.7z M937.8,659.5c0,0.8,0.5,1.5,1.4,1.5
			s1.4-0.7,1.4-1.5s-0.5-1.5-1.4-1.5S937.8,658.6,937.8,659.5z"/>
	</g>
</g>
<g>
	<g class="st0">
		<path d="M959.5,649.1c1.2,0,2,0.8,2,2.2c0,1.2-0.8,2.2-2.2,2.2c-1.6,0-2.3-1.1-2.3-3c0-1.8,0.7-3.5,2.4-3.5c1.2,0,1.8,0.8,1.9,1.6
			h-0.8c-0.1-0.5-0.5-0.9-1.2-0.9c-0.9,0-1.5,0.9-1.5,2.4C958.1,649.5,958.6,649.1,959.5,649.1z M960.7,651.4c0-0.8-0.5-1.5-1.4-1.5
			c-0.8,0-1.4,0.7-1.4,1.5s0.5,1.5,1.4,1.5C960,652.8,960.7,652.2,960.7,651.4z"/>
		<path d="M962.3,650.2c0-2,0.8-3.2,2.4-3.2c1.6,0,2.4,1.2,2.4,3.2s-0.8,3.2-2.4,3.2S962.3,652.2,962.3,650.2z M963.1,650.2
			c0,1.8,0.7,2.6,1.6,2.6s1.6-0.8,1.6-2.6s-0.7-2.6-1.6-2.6S963.1,648.5,963.1,650.2z"/>
	</g>
	<g class="st0">
		<path d="M959.5,659.5c1.2,0,2,0.8,2,2.2c0,1.2-0.8,2.2-2.2,2.2c-1.6,0-2.3-1.1-2.3-3c0-1.8,0.7-3.5,2.4-3.5c1.2,0,1.8,0.8,1.9,1.6
			h-0.8c-0.1-0.5-0.5-0.9-1.2-0.9c-0.9,0-1.5,0.9-1.5,2.4C958.1,659.9,958.6,659.5,959.5,659.5z M960.7,661.7c0-0.8-0.5-1.5-1.4-1.5
			c-0.8,0-1.4,0.7-1.4,1.5s0.5,1.5,1.4,1.5C960,663.2,960.7,662.6,960.7,661.7z"/>
		<path d="M964.3,661.7c-1.2,0-2-0.8-2-2.2c0-1.2,0.8-2.2,2.2-2.2c1.6,0,2.3,1.1,2.3,3c0,1.8-0.7,3.5-2.4,3.5
			c-1.2,0-1.8-0.8-1.9-1.6h0.8c0.1,0.5,0.5,0.9,1.2,0.9c0.9,0,1.5-0.9,1.5-2.4C965.7,661.3,965.1,661.7,964.3,661.7z M963.1,659.5
			c0,0.8,0.5,1.5,1.4,1.5c0.8,0,1.4-0.7,1.4-1.5s-0.5-1.5-1.4-1.5C963.6,658.1,963.1,658.6,963.1,659.5z"/>
	</g>
</g>
<g>
	<g class="st0">
		<path d="M883.6,650.5L883.6,650.5l-0.1-0.7h0.1c1.1,0,1.6-0.3,1.6-1.1c0-0.7-0.5-1.1-1.2-1.1c-0.8,0-1.4,0.5-1.4,1.2h-0.8
			c0.1-1.1,0.9-1.9,2.2-1.9c1.1,0,2,0.4,2,1.6c0,0.7-0.4,1.2-1.1,1.5c0.9,0.3,1.2,0.9,1.2,1.6c0,1.2-1.1,1.9-2.3,1.9
			c-1.5,0-2.2-0.9-2.3-2h0.8c0.1,0.8,0.5,1.4,1.5,1.4c0.8,0,1.5-0.4,1.5-1.2C885.5,650.8,884.7,650.5,883.6,650.5z"/>
		<path d="M887.1,650.2c0-2,0.8-3.2,2.4-3.2s2.4,1.2,2.4,3.2s-0.8,3.2-2.4,3.2C887.8,653.5,887.1,652.2,887.1,650.2z M887.9,650.2
			c0,1.8,0.7,2.6,1.6,2.6s1.6-0.8,1.6-2.6s-0.7-2.6-1.6-2.6S887.9,648.5,887.9,650.2z"/>
	</g>
	<g class="st0">
		<path d="M883.6,660.8L883.6,660.8l-0.1-0.7h0.1c1.1,0,1.6-0.3,1.6-1.1c0-0.7-0.5-1.1-1.2-1.1c-0.8,0-1.4,0.5-1.4,1.2h-0.8
			c0.1-1.1,0.9-1.9,2.2-1.9c1.1,0,2,0.4,2,1.6c0,0.7-0.4,1.2-1.1,1.5c0.9,0.3,1.2,0.9,1.2,1.6c0,1.2-1.1,1.9-2.3,1.9
			c-1.5,0-2.2-0.9-2.3-2h0.8c0.1,0.8,0.5,1.4,1.5,1.4c0.8,0,1.5-0.4,1.5-1.2C885.5,661.2,884.7,660.8,883.6,660.8z"/>
		<path d="M889,661.7c-1.2,0-2-0.8-2-2.2c0-1.2,0.8-2.2,2.2-2.2c1.6,0,2.3,1.1,2.3,3c0,1.8-0.7,3.5-2.4,3.5c-1.2,0-1.8-0.8-1.9-1.6
			h0.8c0.1,0.5,0.5,0.9,1.2,0.9c0.9,0,1.5-0.9,1.5-2.4C890.4,661.3,889.8,661.7,889,661.7z M887.9,659.5c0,0.8,0.5,1.5,1.4,1.5
			c0.8,0,1.4-0.7,1.4-1.5s-0.5-1.5-1.4-1.5C888.5,658.1,887.9,658.6,887.9,659.5z"/>
	</g>
</g>
<g>
	<g class="st0">
		<path d="M910.4,652.6v1.5h-0.8v-1.5h-3.1v-0.8l3.1-4.1h0.8v4.1h1.2v0.8H910.4z M909.6,651.8V649l-2.3,2.8H909.6z"/>
		<path d="M912.2,651c0-2,0.8-3.2,2.4-3.2s2.4,1.2,2.4,3.2s-0.8,3.2-2.4,3.2S912.2,653.1,912.2,651z M913.1,651
			c0,1.8,0.7,2.6,1.6,2.6c0.9,0,1.6-0.8,1.6-2.6s-0.7-2.6-1.6-2.6C913.7,648.5,913.1,649.3,913.1,651z"/>
	</g>
	<g class="st0">
		<path d="M910.4,663.1v1.5h-0.8v-1.5h-3.1v-0.8l3.1-4.1h0.8v4.1h1.2v0.8H910.4z M909.6,662.2v-2.8l-2.3,2.8H909.6z"/>
		<path d="M914.2,662.5c-1.2,0-2-0.8-2-2.2c0-1.2,0.8-2.2,2.2-2.2c1.6,0,2.3,1.1,2.3,3c0,1.8-0.7,3.5-2.4,3.5
			c-1.2,0-1.8-0.8-1.9-1.6h0.8c0.1,0.5,0.5,0.9,1.2,0.9c0.9,0,1.5-0.9,1.5-2.4C915.6,662.1,915,662.5,914.2,662.5z M913,660.3
			c0,0.8,0.5,1.5,1.4,1.5c0.8,0,1.4-0.7,1.4-1.5s-0.5-1.5-1.4-1.5C913.5,658.9,913,659.4,913,660.3z"/>
	</g>
</g>
<g>
	<g class="st0">
		<path d="M834,648.5h-1.5V648c0.9,0,1.4-0.1,1.8-0.8h0.5v6.4H834V648.5L834,648.5z"/>
		<path d="M836,650.2c0-2,0.8-3.2,2.4-3.2s2.4,1.2,2.4,3.2s-0.8,3.2-2.4,3.2S836,652.2,836,650.2z M836.9,650.2
			c0,1.8,0.7,2.6,1.6,2.6s1.6-0.8,1.6-2.6s-0.7-2.6-1.6-2.6C837.5,647.6,836.9,648.5,836.9,650.2z"/>
	</g>
	<g class="st0">
		<path d="M834,658.9h-1.5v-0.5c0.9,0,1.4-0.1,1.8-0.8h0.5v6.4H834V658.9L834,658.9z"/>
		<path d="M838,661.7c-1.2,0-2-0.8-2-2.2c0-1.2,0.8-2.2,2.2-2.2c1.6,0,2.3,1.1,2.3,3c0,1.8-0.7,3.5-2.4,3.5c-1.2,0-1.8-0.8-1.9-1.6
			h0.8c0.1,0.5,0.5,0.9,1.2,0.9c0.9,0,1.5-0.9,1.5-2.4C839.4,661.3,838.8,661.7,838,661.7z M836.8,659.5c0,0.8,0.5,1.5,1.4,1.5
			c0.8,0,1.4-0.7,1.4-1.5s-0.5-1.5-1.4-1.5C837.3,658.1,836.8,658.6,836.8,659.5z"/>
	</g>
</g>
<g>
	<g class="st0">
		<path d="M857.8,652.6h3.5v0.7h-4.6v-0.7c2.2-1.6,3.5-2.8,3.5-3.9c0-0.7-0.4-1.1-1.2-1.1c-0.7,0-1.4,0.4-1.4,1.4h-0.8
			c0-1.2,0.8-2,2.2-2c1.2,0,2,0.5,2,1.6C861,650.1,859.6,651.4,857.8,652.6z"/>
		<path d="M862,650.2c0-2,0.8-3.2,2.4-3.2c1.6,0,2.4,1.2,2.4,3.2s-0.8,3.2-2.4,3.2C862.8,653.5,862,652.2,862,650.2z M862.8,650.2
			c0,1.8,0.7,2.6,1.6,2.6s1.6-0.8,1.6-2.6s-0.7-2.6-1.6-2.6S862.8,648.5,862.8,650.2z"/>
	</g>
	<g class="st0">
		<path d="M857.8,663.1h3.5v0.7h-4.6v-0.7c2.2-1.6,3.5-2.8,3.5-3.9c0-0.7-0.4-1.1-1.2-1.1c-0.7,0-1.4,0.4-1.4,1.4h-0.8
			c0-1.2,0.8-2,2.2-2c1.2,0,2,0.5,2,1.6C861,660.5,859.6,661.8,857.8,663.1z"/>
		<path d="M864,661.7c-1.2,0-2-0.8-2-2.2c0-1.2,0.8-2.2,2.2-2.2c1.6,0,2.3,1.1,2.3,3c0,1.8-0.7,3.5-2.4,3.5c-1.2,0-1.8-0.8-1.9-1.6
			h0.8c0.1,0.5,0.5,0.9,1.2,0.9c0.9,0,1.5-0.9,1.5-2.4C865.4,661.3,864.8,661.7,864,661.7z M862.8,659.5c0,0.8,0.5,1.5,1.4,1.5
			c0.8,0,1.4-0.7,1.4-1.5s-0.5-1.5-1.4-1.5C863.3,658.1,862.8,658.6,862.8,659.5z"/>
	</g>
</g>
<g class="st0">
	<path d="M1029.6,653.3v-0.8l3.5-1.5l-3.5-1.5v-0.8l4.5,2v0.7L1029.6,653.3z"/>
	<path d="M1037.1,651.3c-1.2,0-2-0.8-2-2.2c0-1.2,0.8-2.2,2.2-2.2c1.6,0,2.3,1.1,2.3,3c0,1.8-0.7,3.5-2.4,3.5
		c-1.2,0-1.8-0.8-1.9-1.6h0.8c0.1,0.5,0.5,0.9,1.2,0.9c0.9,0,1.5-0.9,1.5-2.4C1038.5,650.9,1037.9,651.3,1037.1,651.3z
		 M1035.9,649.1c0,0.8,0.5,1.5,1.4,1.5c0.8,0,1.4-0.7,1.4-1.5s-0.5-1.5-1.4-1.5S1035.9,648.2,1035.9,649.1z"/>
	<path d="M1040.4,650.2c0-2,0.8-3.2,2.4-3.2s2.4,1.2,2.4,3.2s-0.8,3.2-2.4,3.2C1041.2,653.5,1040.4,652.2,1040.4,650.2z
		 M1041.2,650.2c0,1.8,0.7,2.6,1.6,2.6s1.6-0.8,1.6-2.6s-0.7-2.6-1.6-2.6S1041.2,648.5,1041.2,650.2z"/>
</g>
<g class="st0">
	<path d="M809.6,649.5l-3.5,1.5l3.5,1.5v0.8l-4.5-1.9v-0.7l4.5-2V649.5z"/>
	<path d="M814.7,651.3c-1.2,0-2-0.8-2-2.2c0-1.2,0.8-2.2,2.2-2.2c1.6,0,2.3,1.1,2.3,3c0,1.8-0.7,3.5-2.4,3.5c-1.2,0-1.8-0.8-1.9-1.6
		h0.8c0.1,0.5,0.5,0.9,1.2,0.9c0.9,0,1.5-0.9,1.5-2.4C816.2,650.9,815.7,651.3,814.7,651.3z M813.7,649.1c0,0.8,0.5,1.5,1.4,1.5
		s1.4-0.7,1.4-1.5s-0.5-1.5-1.4-1.5S813.7,648.2,813.7,649.1z"/>
</g>
<g class="st0">
	<path class="st3" d="M1000.9,500.4c1-2,2.9-3.8,5.7-5.5l4.2-2.5c1.9-1.1,3.2-2,4-2.8c1.2-1.2,1.8-2.6,1.8-4.1
		c0-1.8-0.6-3.2-1.7-4.4c-1.1-1.1-2.6-1.6-4.4-1.6c-2.7,0-4.6,1-5.6,3.1c-0.6,1.1-0.9,2.7-0.9,4.6h-4c0-2.8,0.6-5,1.6-6.7
		c1.7-3,4.7-4.6,9-4.6c3.6,0,6.3,1,7.9,2.9c1.7,1.9,2.5,4.1,2.5,6.5c0,2.6-0.9,4.7-2.7,6.5c-1,1-2.9,2.3-5.5,3.8l-3,1.7
		c-1.5,0.8-2.6,1.6-3.3,2.2c-1.5,1.2-2.3,2.7-2.8,4.2h17.2v3.7h-21.8C999.3,504.8,999.9,502.4,1000.9,500.4z"/>
	<path class="st3" d="M1043.9,481c1.5,2.6,2.1,6.1,2.1,10.6c0,4.2-0.7,7.8-1.9,10.6c-1.9,4-4.9,6-9,6c-3.8,0-6.6-1.7-8.5-4.9
		c-1.6-2.8-2.3-6.4-2.3-11.1c0-3.6,0.4-6.6,1.3-9.2c1.7-4.8,4.8-7.1,9.4-7.1C1039.1,476,1042,477.6,1043.9,481z M1039.9,502
		c1.2-1.8,1.8-5.2,1.8-10.2c0-3.6-0.4-6.5-1.3-8.8s-2.6-3.5-5.1-3.5c-2.3,0-4,1.1-5.1,3.2c-1.1,2.2-1.6,5.4-1.6,9.7
		c0,3.2,0.3,5.8,1,7.7c1,3,2.9,4.5,5.4,4.5C1037,504.6,1038.6,503.8,1039.9,502z"/>
</g>
<g class="st0">
	<path class="st4" d="M978.4,500.4H973v-1.2h14v1.2h-1.7c1.2,0.8,2,2,2,3.6c0,2.5-2,4.4-5.5,4.4s-5.5-2-5.5-4.4
		C976.4,502.4,977.2,501.2,978.4,500.4z M981.9,507c2.8,0,4.4-1.3,4.4-3.3c0-1.6-1.2-3.3-4.4-3.3c-3.1,0-4.4,1.8-4.4,3.3
		C977.6,505.7,979.1,507,981.9,507z"/>
	<path class="st4" d="M987.4,493.3c0,2.3-1.5,3.3-4,3.3h-6.6v-1.1h6.4c2,0,3.2-0.4,3.2-2.5c0-1.7-1.6-3-3.7-3h-5.9v-1.2h10.4v1.2
		h-1.7C986.4,490.5,987.4,491.5,987.4,493.3z"/>
	<path class="st4" d="M976.4,481.8c0-2.9,2.5-4.8,5.7-4.7v8.3c2.6,0,4-1.7,4-3.8c0-1.7-0.8-2.8-2.2-3.1v-1.2
		c2.1,0.6,3.3,2.2,3.3,4.5c0,3-2.2,4.9-5.5,4.9C978.6,486.6,976.4,484.5,976.4,481.8z M981.1,478.4c-1.8,0-3.6,1.2-3.6,3.3
		c0,1.9,1.2,3.3,3.6,3.6V478.4z"/>
	<path class="st4" d="M987,474.9h-10.4v-1.2h1.8c-1-0.6-1.9-1.5-1.9-3.2s0.8-2.7,2.1-3c-1.3-0.8-2.1-1.8-2.1-3.6
		c0-2.3,1.5-3.3,4-3.3h6.6v1.2h-6.3c-2,0-3.2,0.4-3.2,2.5c0,1.7,1.6,3,3.7,3h5.8v1.2h-6.3c-2,0-3.2,0.4-3.2,2.5c0,1.7,1.6,3,3.7,3
		h5.8v1H987V474.9z"/>
	<path class="st4" d="M975,456.9v1.2h-1.9v-1.2H975z M987,456.9v1.2h-10.4v-1.2H987z"/>
	<path class="st4" d="M987,454h-14v-1.2h14V454z"/>
	<path class="st4" d="M987.4,447.1c0,1.9-1.1,3.5-2.8,3.5c-2.3,0-3.2-2.3-3.7-7.4h-0.3c-2.3,0-2.9,1.3-2.9,2.9c0,1.8,1,2.8,2.3,2.9
		v1.2c-2-0.2-3.5-1.9-3.5-4.2c0-2.5,1-4,4.1-4c1.5,0,2.3,0,3.2,0c1.2,0,2.2-0.1,3.3-0.1v1.2l-1.6,0.1
		C986.6,443.9,987.4,445.2,987.4,447.1z M982.4,443.2h-0.6c0.4,4.2,1,6,2.7,6c1.1,0,1.8-1,1.8-2.3
		C986.3,445,985.3,443.2,982.4,443.2z"/>
</g>
<g>
	<rect id="_x32_0_-_num_30_" x="800.6" y="586.5" class="st3" width="17.1" height="43.8"/>
	<rect id="_x32_0_-_num_29_" x="825.8" y="568.1" class="st3" width="17.1" height="62.3"/>
	<rect id="_x32_0_-_num_28_" x="850.9" y="453.8" class="st3" width="17.1" height="176.6"/>
	<rect id="_x32_0_-_num_27_" x="876.1" y="453.7" class="st3" width="17.1" height="176.7"/>
	<rect id="_x32_0_-_num_26_" x="901.3" y="507.2" class="st3" width="17.1" height="123.2"/>
	<rect id="_x32_0_-_num_25_" x="926.4" y="547.4" class="st3" width="17.1" height="82.8"/>
	<rect id="_x32_0_-_num_24_" x="951.6" y="589.1" class="st3" width="17.1" height="41.2"/>
	<rect id="_x32_0_-_num_23_" x="976.8" y="614.7" class="st3" width="17.1" height="15.7"/>
	<rect id="_x32_0_-_num_22_" x="1002" y="626.3" class="st3" width="17.1" height="4.1"/>
	<rect id="_x32_0_-_num_21_" x="1027.2" y="629.9" class="st3" width="17.1" height="0.4"/>
</g>
<path class="st10" d="M795.5,630.1h260.7"/>
<line class="st11" x1="811.1" y1="633.5" x2="811.1" y2="638.1"/>
<line class="st11" x1="836.3" y1="633.5" x2="836.3" y2="638.1"/>
<line class="st11" x1="861.4" y1="633.5" x2="861.4" y2="638.1"/>
<line class="st11" x1="886.6" y1="633.5" x2="886.6" y2="638.1"/>
<line class="st11" x1="911.8" y1="633.5" x2="911.8" y2="638.1"/>
<line class="st11" x1="936.9" y1="633.5" x2="936.9" y2="638.1"/>
<line class="st11" x1="962.1" y1="633.5" x2="962.1" y2="638.1"/>
<line class="st11" x1="987.3" y1="633.5" x2="987.3" y2="638.1"/>
<line class="st11" x1="1012.4" y1="633.5" x2="1012.4" y2="638.1"/>
<line class="st11" x1="1037.7" y1="633.5" x2="1037.7" y2="638.1"/>
<path class="st11" d="M795.5,630.1V432.4"/>
<line class="st11" x1="792.8" y1="630.1" x2="788.3" y2="630.1"/>
<g>
	<text transform="matrix(1 0 0 1 778.4197 641.9531)" class="st8 st12">0</text>
</g>
<line class="st11" x1="792.8" y1="616" x2="788.3" y2="616"/>
<line class="st11" x1="792.8" y1="601.8" x2="788.3" y2="601.8"/>
<g>
	<text transform="matrix(1 0 0 1 768.5398 604.249)" class="st8 st12">400</text>
</g>
<line class="st11" x1="792.8" y1="587.7" x2="788.3" y2="587.7"/>
<line class="st11" x1="792.8" y1="573.6" x2="788.3" y2="573.6"/>
<g>
	<text transform="matrix(1 0 0 1 768.5251 573.9092)" class="st8 st12">800</text>
</g>
<line class="st11" x1="792.8" y1="559.5" x2="788.3" y2="559.5"/>
<line class="st11" x1="792.8" y1="545.4" x2="788.3" y2="545.4"/>
<g>
	<text transform="matrix(1 0 0 1 763.9431 545.79)" class="st8 st12">1,200</text>
</g>
<line class="st11" x1="792.8" y1="531.3" x2="788.3" y2="531.3"/>
<line class="st11" x1="792.8" y1="517.1" x2="788.3" y2="517.1"/>
<g>
	<text transform="matrix(1 0 0 1 764.1384 517.6719)" class="st8 st12">1,600</text>
</g>
<line class="st11" x1="792.8" y1="503" x2="788.3" y2="503"/>
<line class="st11" x1="792.8" y1="488.9" x2="788.3" y2="488.9"/>
<g>
	<text transform="matrix(1 0 0 1 762.1257 489.5527)" class="st8 st12">2,000</text>
</g>
<line class="st11" x1="792.8" y1="474.8" x2="788.3" y2="474.8"/>
<line class="st11" x1="792.8" y1="460.7" x2="788.3" y2="460.7"/>
<g>
	<text transform="matrix(1 0 0 1 762.1804 461.4346)" class="st8 st12">2,400</text>
</g>
<line class="st11" x1="792.8" y1="446.6" x2="788.3" y2="446.6"/>
<line class="st11" x1="792.8" y1="432.4" x2="788.3" y2="432.4"/>
<g>
	<text transform="matrix(1 0 0 1 762.2429 435.0527)" class="st8 st12">2,800</text>
</g>
</svg>
