<svg id="Livello_1" data-name="Livello 1" xmlns="http://www.w3.org/2000/svg" viewBox="0 0 922.9 887.25"><defs><style>.cls-1{fill:#e00;}.cls-2{fill:#e75151;}.cls-3{fill:#ffb6b6;}.cls-4,.cls-6,.cls-7,.cls-8{isolation:isolate;}.cls-5{fill:#fff;}.cls-6{font-size:10.88px;}.cls-6,.cls-7,.cls-8{font-family:SuisseIntl-Light, Suisse Int'l;}.cls-7{font-size:10.45px;}.cls-8{font-size:17.16px;}</style></defs><title>treemap emilia</title><rect id="path24" class="cls-1" x="247.99" y="819.63" width="137.08" height="34.07"/><rect id="path24-2" data-name="path24" class="cls-2" x="389" y="819.63" width="137.08" height="34.07"/><rect id="path24-3" data-name="path24" class="cls-3" x="529.71" y="819.63" width="137.08" height="34.07"/><path d="M344.59,968.16v5.3h-1.25V959.15h1.25V961a4.11,4.11,0,0,1,3.65-2c2.49,0,4.52,2,4.52,5.62s-2,5.62-4.52,5.62A4.09,4.09,0,0,1,344.59,968.16Zm6.83-3.57c0-2.87-1.43-4.5-3.43-4.5-1.63,0-3.47,1.3-3.47,4.5s1.85,4.5,3.47,4.5C350,969.09,351.42,967.46,351.42,964.59Z" transform="translate(-78.97 -86.22)"/><path d="M356.16,957.38h-1.25v-2h1.25Zm0,12.57h-1.25v-10.8h1.25Z" transform="translate(-78.97 -86.22)"/><path d="M362.36,970.21c-2.47,0-3.51-1.53-3.51-4.18v-6.89h1.25v6.55c0,2,.48,3.39,2.59,3.39,1.73,0,3.15-1.57,3.15-3.86v-6.08h1.25V970h-1.25V968.2A3.69,3.69,0,0,1,362.36,970.21Zm-.14-14.82,1.81,2.33h-1.1l-2.61-2.33Z" transform="translate(-78.97 -86.22)"/><path d="M382.15,961v-5.62h1.25V970h-1.25v-1.77a4.11,4.11,0,0,1-3.65,2c-2.49,0-4.52-2-4.52-5.62s2-5.62,4.52-5.62A4.09,4.09,0,0,1,382.15,961Zm-6.83,3.57c0,2.87,1.43,4.5,3.43,4.5,1.63,0,3.47-1.3,3.47-4.5s-1.85-4.5-3.47-4.5C376.75,960.09,375.33,961.72,375.33,964.59Z" transform="translate(-78.97 -86.22)"/><path d="M387.65,957.38h-1.25v-2h1.25Zm0,12.57h-1.25v-10.8h1.25Z" transform="translate(-78.97 -86.22)"/><path d="M397.25,958.16h-3.33v-.84c2.55,0,3.21-.26,3.74-2h.84V970h-1.25Z" transform="translate(-78.97 -86.22)"/><path d="M406.36,961.34a3.73,3.73,0,0,0-3.43,1.87l-1.23-.12.94-7.69h8.23v1.21h-7.15l-.64,5a5.09,5.09,0,0,1,3.57-1.37,4.6,4.6,0,0,1,4.82,5,5.12,5.12,0,0,1-10.18.68h1.33a3.72,3.72,0,0,0,3.78,3.25,3.89,3.89,0,0,0,0-7.77Z" transform="translate(-78.97 -86.22)"/><path d="M419,955.13c3.82,0,5.58,2.91,5.58,7.53s-1.77,7.55-5.58,7.55-5.6-2.91-5.6-7.55S415.2,955.13,419,955.13Zm0,1.1c-2.63,0-4.28,2.07-4.28,6.43s1.65,6.45,4.28,6.45,4.28-2.07,4.28-6.45S421.64,956.24,419,956.24Z" transform="translate(-78.97 -86.22)"/><path d="M432.38,955.13c3.82,0,5.58,2.91,5.58,7.53s-1.77,7.55-5.58,7.55-5.6-2.91-5.6-7.55S428.54,955.13,432.38,955.13Zm0,1.1c-2.63,0-4.28,2.07-4.28,6.43s1.65,6.45,4.28,6.45,4.28-2.07,4.28-6.45S435,956.24,432.38,956.24Z" transform="translate(-78.97 -86.22)"/><path d="M483.51,958.16h-3.33v-.84c2.55,0,3.21-.26,3.73-2h.84V970h-1.24Z" transform="translate(-78.97 -86.22)"/><path d="M492.63,961.34a3.73,3.73,0,0,0-3.43,1.87l-1.23-.12.94-7.69h8.23v1.21H490l-.64,5a5.09,5.09,0,0,1,3.57-1.37,4.6,4.6,0,0,1,4.82,5,5.12,5.12,0,0,1-10.18.68h1.33a3.72,3.72,0,0,0,3.77,3.25,3.89,3.89,0,0,0,0-7.77Z" transform="translate(-78.97 -86.22)"/><path d="M505.29,955.13c3.82,0,5.58,2.91,5.58,7.53s-1.77,7.55-5.58,7.55-5.6-2.91-5.6-7.55S501.46,955.13,505.29,955.13Zm0,1.1c-2.63,0-4.28,2.07-4.28,6.43s1.65,6.45,4.28,6.45,4.28-2.07,4.28-6.45S507.9,956.24,505.29,956.24Z" transform="translate(-78.97 -86.22)"/><path d="M518.64,955.13c3.82,0,5.58,2.91,5.58,7.53s-1.77,7.55-5.58,7.55-5.6-2.91-5.6-7.55S514.81,955.13,518.64,955.13Zm0,1.1c-2.63,0-4.28,2.07-4.28,6.43s1.65,6.45,4.28,6.45,4.28-2.07,4.28-6.45S521.25,956.24,518.64,956.24Z" transform="translate(-78.97 -86.22)"/><path d="M526.17,963.75h5.62v1.41h-5.62Z" transform="translate(-78.97 -86.22)"/><path d="M535.38,958.16h-3.33v-.84c2.55,0,3.21-.26,3.74-2h.84V970h-1.25Z" transform="translate(-78.97 -86.22)"/><path d="M545.26,955.13c3.82,0,5.58,2.91,5.58,7.53s-1.77,7.55-5.58,7.55-5.6-2.91-5.6-7.55S541.43,955.13,545.26,955.13Zm0,1.1c-2.63,0-4.28,2.07-4.28,6.43s1.65,6.45,4.28,6.45,4.28-2.07,4.28-6.45S547.87,956.24,545.26,956.24Z" transform="translate(-78.97 -86.22)"/><path d="M558.61,955.13c3.82,0,5.58,2.91,5.58,7.53s-1.77,7.55-5.58,7.55-5.6-2.91-5.6-7.55S554.78,955.13,558.61,955.13Zm0,1.1c-2.63,0-4.28,2.07-4.28,6.43s1.65,6.45,4.28,6.45,4.28-2.07,4.28-6.45S561.22,956.24,558.61,956.24Z" transform="translate(-78.97 -86.22)"/><path d="M572,955.13c3.82,0,5.58,2.91,5.58,7.53s-1.77,7.55-5.58,7.55-5.6-2.91-5.6-7.55S568.13,955.13,572,955.13Zm0,1.1c-2.63,0-4.28,2.07-4.28,6.43s1.65,6.45,4.28,6.45,4.28-2.07,4.28-6.45S574.57,956.24,572,956.24Z" transform="translate(-78.97 -86.22)"/><path d="M611.43,970v-10.8h1.25V961a3.52,3.52,0,0,1,3.39-2,3,3,0,0,1,3.17,2.15,4,4,0,0,1,3.66-2.15c2.45,0,3.43,1.53,3.43,4.18V970h-1.25v-6.46c0-2-.42-3.39-2.51-3.39-1.77,0-3.07,1.57-3.07,3.86v6h-1.25v-6.46c0-2-.42-3.39-2.51-3.39-1.77,0-3.07,1.57-3.07,3.86v6Z" transform="translate(-78.97 -86.22)"/><path d="M633.23,959c3.05,0,5,2.57,4.82,5.95h-8.59c0,2.61,1.69,4.16,3.9,4.16a3.17,3.17,0,0,0,3.29-2.35h1.3a4.47,4.47,0,0,1-4.68,3.49c-3.17,0-5.1-2.27-5.1-5.62S630.34,959,633.23,959Zm3.45,4.8a3.54,3.54,0,0,0-3.47-3.68c-2,0-3.45,1.29-3.71,3.68Z" transform="translate(-78.97 -86.22)"/><path d="M645.05,959c2.55,0,3.63,1.53,3.63,4.18V970h-1.25v-6.46c0-2-.52-3.39-2.71-3.39-1.87,0-3.27,1.57-3.27,3.86v6h-1.25v-10.8h1.25V961A3.73,3.73,0,0,1,645.05,959Z" transform="translate(-78.97 -86.22)"/><path d="M660.31,964.59c0,3.94-2.31,5.62-4.9,5.62s-4.88-1.69-4.88-5.62,2.29-5.62,4.88-5.62S660.31,960.65,660.31,964.59Zm-1.33,0c0-3.09-1.51-4.48-3.57-4.48s-3.55,1.39-3.55,4.48,1.49,4.48,3.55,4.48S659,967.68,659,964.59Z" transform="translate(-78.97 -86.22)"/><path d="M674.54,961v-5.62h1.25V970h-1.25v-1.77a4.11,4.11,0,0,1-3.65,2c-2.49,0-4.52-2-4.52-5.62s2-5.62,4.52-5.62A4.09,4.09,0,0,1,674.54,961Zm-6.83,3.57c0,2.87,1.43,4.5,3.43,4.5,1.63,0,3.47-1.3,3.47-4.5s-1.85-4.5-3.47-4.5C669.14,960.09,667.72,961.72,667.72,964.59Z" transform="translate(-78.97 -86.22)"/><path d="M680,957.38H678.8v-2H680ZM680,970H678.8v-10.8H680Z" transform="translate(-78.97 -86.22)"/><path d="M689.64,958.16H686.3v-.84c2.55,0,3.21-.26,3.74-2h.84V970h-1.25Z" transform="translate(-78.97 -86.22)"/><path d="M699.52,955.13c3.82,0,5.58,2.91,5.58,7.53s-1.77,7.55-5.58,7.55-5.6-2.91-5.6-7.55S695.68,955.13,699.52,955.13Zm0,1.1c-2.63,0-4.28,2.07-4.28,6.43s1.65,6.45,4.28,6.45,4.28-2.07,4.28-6.45S702.13,956.24,699.52,956.24Z" transform="translate(-78.97 -86.22)"/><path d="M712.87,955.13c3.82,0,5.58,2.91,5.58,7.53s-1.77,7.55-5.58,7.55-5.6-2.91-5.6-7.55S709,955.13,712.87,955.13Zm0,1.1c-2.63,0-4.28,2.07-4.28,6.43s1.65,6.45,4.28,6.45,4.28-2.07,4.28-6.45S715.48,956.24,712.87,956.24Z" transform="translate(-78.97 -86.22)"/><path d="M726.21,955.13c3.82,0,5.58,2.91,5.58,7.53s-1.77,7.55-5.58,7.55-5.6-2.91-5.6-7.55S722.38,955.13,726.21,955.13Zm0,1.1c-2.63,0-4.28,2.07-4.28,6.43s1.65,6.45,4.28,6.45,4.28-2.07,4.28-6.45S728.83,956.24,726.21,956.24Z" transform="translate(-78.97 -86.22)"/><rect id="path4" class="cls-3" x="135.39" y="541.87" width="89" height="37"/><rect id="path5" class="cls-3" x="226.39" y="541.87" width="90" height="37"/><rect id="path6" class="cls-3" x="318.39" y="541.87" width="132" height="37"/><rect id="path7" class="cls-3" x="451.95" y="541.87" width="64" height="37"/><rect id="path11" class="cls-3" x="547.51" y="202.07" width="32" height="159"/><rect id="path12" class="cls-1" x="581.51" y="202.07" width="289" height="159"/><rect id="path13" class="cls-3" x="547.51" y="363.07" width="108" height="22"/><rect id="path15" class="cls-3" x="547.51" y="630.07" width="108" height="20"/><rect id="path16" class="cls-2" x="657.51" y="363.07" width="213" height="171"/><rect id="path17" class="cls-3" x="657.51" y="536.07" width="99" height="88"/><rect id="path18" class="cls-3" x="657.51" y="626.07" width="99" height="24"/><rect id="path19" class="cls-3" x="758.51" y="536.07" width="62" height="60"/><rect id="path20" class="cls-3" x="822.51" y="536.07" width="48" height="60"/><rect id="path21" class="cls-3" x="758.51" y="598.07" width="69" height="52"/><rect id="path22" class="cls-3" x="829.51" y="598.07" width="41" height="52"/><rect id="path14" class="cls-2" x="547.81" y="387.07" width="108" height="241"/><rect id="path0" class="cls-2" x="135.39" y="405.21" width="198" height="135"/><rect id="path1" class="cls-2" x="335.39" y="405.21" width="181" height="135"/><g class="cls-4"><path d="M246.59,546.52V572.2H244V544h4.2l9.32,25.21L266.8,544H271V572.2h-2.6V546.52l-9.56,25.68h-2.64Z" transform="translate(-78.97 -86.22)"/><path d="M294.49,561.83c0,7.62-4.47,10.88-9.48,10.88s-9.44-3.26-9.44-10.88S280,551,285,551,294.49,554.21,294.49,561.83Zm-2.56,0c0-6-2.91-8.66-6.92-8.66s-6.88,2.68-6.88,8.66,2.87,8.66,6.88,8.66S291.92,567.81,291.92,561.83Z" transform="translate(-78.97 -86.22)"/><path d="M298.68,572.2V544h2.41V572.2Z" transform="translate(-78.97 -86.22)"/><path d="M321.06,554.91V544h2.41V572.2h-2.41v-3.42a8,8,0,0,1-7.07,3.92c-4.82,0-8.74-3.92-8.74-10.88S309.17,551,314,551A7.9,7.9,0,0,1,321.06,554.91Zm-13.21,6.92c0,5.56,2.76,8.7,6.64,8.7,3.15,0,6.72-2.52,6.72-8.7s-3.57-8.7-6.72-8.7C310.6,553.13,307.85,556.27,307.85,561.83Z" transform="translate(-78.97 -86.22)"/><path d="M346.57,561.83c0,7.62-4.47,10.88-9.48,10.88s-9.44-3.26-9.44-10.88S332.08,551,337.1,551,346.57,554.21,346.57,561.83Zm-2.56,0c0-6-2.91-8.66-6.92-8.66s-6.88,2.68-6.88,8.66,2.87,8.66,6.88,8.66S344,567.81,344,561.83Z" transform="translate(-78.97 -86.22)"/><path d="M363.27,551.3h2.6l-7.77,20.9h-2.33l-8-20.9h2.72L357,568.86Z" transform="translate(-78.97 -86.22)"/><path d="M373.88,572.71c-3.89,0-6.92-2.25-6.92-5.71,0-4.74,4.66-6.49,14.72-7.5v-.74c0-4.74-2.8-5.79-5.83-5.79-3.54,0-5.67,2-5.87,4.7h-2.52c.54-4.12,3.88-6.84,8.55-6.84,4.86,0,8.08,2,8.08,8.24,0,2.88,0,4.78,0,6.45,0,2.37.12,4.43.23,6.68h-2.45l-.12-3.19C380.37,571.23,377.76,572.71,373.88,572.71Zm7.92-10.06v-1c-8.51.93-12.16,2.06-12.16,5.32,0,2.21,2,3.61,4.78,3.61C378.31,570.57,381.8,568.59,381.8,562.65Z" transform="translate(-78.97 -86.22)"/></g><g class="cls-4"><path d="M458.15,552.16c-1.18-4.77-5.16-6.58-9.14-6.58-5.71,0-10.12,4.37-10.12,12.25,0,7.6,4.06,12.29,9.92,12.29,4.21,0,9.53-1.65,9.53-8.55v-1.06h-8v-2.44h10.52v14.06h-2.32l0-4c-1.73,2.72-4.8,4.53-9.73,4.53-8.19,0-12.68-6.18-12.68-14.81s4.84-14.77,13-14.77c6.06,0,10.55,3.15,11.81,9.1Z" transform="translate(-78.97 -86.22)"/><path d="M475.09,550.59c6,0,9.77,5,9.45,11.66H467.68c.08,5.12,3.31,8.15,7.64,8.15,3.31,0,5.63-1.69,6.46-4.61h2.56c-1,4.37-4.53,6.85-9.18,6.85-6.22,0-10-4.45-10-11C465.16,554.76,469.42,550.59,475.09,550.59Zm6.77,9.41a6.94,6.94,0,0,0-6.81-7.21c-3.94,0-6.77,2.52-7.29,7.21Z" transform="translate(-78.97 -86.22)"/><path d="M506.52,561.62c0,7.72-4.53,11-9.61,11s-9.57-3.31-9.57-11,4.49-11,9.57-11S506.52,553.9,506.52,561.62Zm-2.6,0c0-6.06-3-8.78-7-8.78s-7,2.72-7,8.78,2.91,8.78,7,8.78S503.92,567.68,503.92,561.62Z" transform="translate(-78.97 -86.22)"/><path d="M519,553.38c-4.37,0-5.79,3.15-5.79,7.64v11.11h-2.4V550.94h2.32v3.86a6.79,6.79,0,0,1,6.26-4,4.56,4.56,0,0,1,.71,0v2.6A10.77,10.77,0,0,0,519,553.38Z" transform="translate(-78.97 -86.22)"/><path d="M530.07,571.78c-4.84,0-8.82-4-8.82-10.59s4-10.59,8.82-10.59a7.92,7.92,0,0,1,7.17,4v-3.66h2.48v20.44c0,5.67-3.94,8.15-9,8.15-4.37,0-7.8-2.4-8.19-6.22h2.56c.28,2.25,2.13,4.1,5.71,4.1,4,0,6.42-1.81,6.42-5.75V567.8A7.89,7.89,0,0,1,530.07,571.78Zm-6.18-10.59c0,5.24,2.76,8.43,6.7,8.43,3.23,0,6.85-2.56,6.85-8.43s-3.62-8.39-6.85-8.39C526.64,552.79,523.88,556,523.88,561.18Z" transform="translate(-78.97 -86.22)"/><path d="M548.07,547.48h-2.44v-3.9h2.44Zm0,24.65h-2.44V550.94h2.44Z" transform="translate(-78.97 -86.22)"/><path d="M559.33,572.64c-3.94,0-7-2.28-7-5.79,0-4.8,4.73-6.58,14.93-7.6v-.75c0-4.8-2.84-5.87-5.91-5.87-3.58,0-5.75,2-5.95,4.76h-2.56c.55-4.17,3.94-6.93,8.66-6.93,4.92,0,8.19,2,8.19,8.35,0,2.91,0,4.84,0,6.54,0,2.4.12,4.49.24,6.77H567.4l-.12-3.23C565.91,571.15,563.27,572.64,559.33,572.64Zm8-10.2v-1c-8.62.95-12.33,2.09-12.33,5.4,0,2.24,2,3.66,4.84,3.66C563.82,570.48,567.36,568.47,567.36,562.44Z" transform="translate(-78.97 -86.22)"/></g><rect id="path2" class="cls-1" x="135.39" y="7.34" width="261" height="396"/><rect id="path3" class="cls-1" x="398.39" y="7.34" width="118" height="396"/><g class="cls-4"><path class="cls-5" d="M307.31,413.09l66.38-25.27v6.68L357,400.82v31.59l16.66,6.23v6.59L307.31,420Zm44-10.07-36.44,13.73,36.44,13.55Z" transform="translate(-78.97 -86.22)"/><path class="cls-5" d="M373.69,380.95H307.31v-5.68h66.38Z" transform="translate(-78.97 -86.22)"/><path class="cls-5" d="M365.63,355.86h8.06v5.68H307.31v-5.68h25.63a18.62,18.62,0,0,1-9.34-16.66c0-11.35,9.34-20.6,25.63-20.6s25.63,9.25,25.63,20.6A18.73,18.73,0,0,1,365.63,355.86Zm-16.39-31.13c-13.09,0-20.51,6.5-20.51,15.66,0,7.42,6,15.84,20.51,15.84s20.51-8.42,20.51-15.84C369.75,331.24,362.34,324.74,349.25,324.74Z" transform="translate(-78.97 -86.22)"/><path class="cls-5" d="M374.88,296.35c0,9.16-5.31,16.3-13.46,16.3-11.17,0-15.29-11-17.67-34.7H342c-11.17,0-13.64,6.59-13.64,13.73,0,8.33,4.67,13.37,11.08,13.82v6c-9.71-1.28-16.11-9.16-16.11-20.14,0-11.44,4.76-19,19.41-19,6.78,0,11.26.09,15.2.09,5.58,0,10.44-.27,15.75-.55v5.77l-7.51.27C371.4,281.06,374.88,287.2,374.88,296.35Zm-23.71-18.68h-2.38c2.2,20.05,4.85,28.66,12.54,28.66,5.22,0,8.51-4.76,8.51-11.26C369.84,285.92,365.18,277.68,351.17,277.68Z" transform="translate(-78.97 -86.22)"/><path class="cls-5" d="M323.61,238.31c0-11.63,7-16.57,19-16.57h31v5.68H344.21c-9.25,0-15.47,2.38-15.47,12.36,0,8.51,7.14,14.92,17.58,14.92h27.37v5.68H324.43v-5.68h8.33C328.1,252.31,323.61,247.46,323.61,238.31Z" transform="translate(-78.97 -86.22)"/><path class="cls-5" d="M316.38,203.79v5.68h-9.06v-5.68Zm57.31,0v5.68H324.43v-5.68Z" transform="translate(-78.97 -86.22)"/><path class="cls-5" d="M374.88,177.6c0,9.16-5.31,16.3-13.46,16.3-11.17,0-15.29-11-17.67-34.7H342c-11.17,0-13.64,6.59-13.64,13.73,0,8.33,4.67,13.37,11.08,13.82v6c-9.71-1.28-16.11-9.16-16.11-20.14,0-11.44,4.76-19,19.41-19,6.78,0,11.26.09,15.2.09,5.58,0,10.44-.27,15.75-.55v5.77l-7.51.27C371.4,162.31,374.88,168.45,374.88,177.6Zm-23.71-18.68h-2.38c2.2,20,4.85,28.66,12.54,28.66,5.22,0,8.51-4.76,8.51-11.26C369.84,167.17,365.18,158.93,351.17,158.93Z" transform="translate(-78.97 -86.22)"/></g><g class="cls-4"><path class="cls-5" d="M535.88,182.27c-10.87,0-16,4-16,14.7,0,10.94,5.92,14.84,16.86,14.84h30.09v4.67H537.28c-14.7,0-21.87-5.15-21.87-19.5,0-13.72,5.64-19.36,21.31-19.36h30.09v4.67Z" transform="translate(-78.97 -86.22)"/><path class="cls-5" d="M541.73,252.06a11.06,11.06,0,0,0,8.71-11.28c0-6.48-5.16-12.19-15.46-12.19-10.66,0-15.6,5.71-15.6,12.26s4.11,10.45,8.78,11.49v4.6c-7.73-1.53-12.75-7.8-12.75-16.09,0-10.66,7.94-16.86,19.5-16.86s19.5,6.27,19.5,17.21a15.21,15.21,0,0,1-12.68,15.39Z" transform="translate(-78.97 -86.22)"/><path class="cls-5" d="M549.46,278.39c0-7.73-5.57-10.24-13.51-10.24H516.31V263.9h37.48V268H547c4.39,1.67,7.11,6.55,7.11,11.08a8,8,0,0,1-.07,1.25h-4.6A19,19,0,0,0,549.46,278.39Z" transform="translate(-78.97 -86.22)"/><path class="cls-5" d="M515.4,294.76c0-7,4-12.4,10.24-12.4,8.5,0,11.63,8.36,13.44,26.4h1.32c8.5,0,10.38-5,10.38-10.45,0-6.34-3.55-10.17-8.43-10.52v-4.53c7.38,1,12.26,7,12.26,15.32,0,8.71-3.62,14.49-14.77,14.49-5.15,0-8.57-.07-11.56-.07-4.25,0-7.94.21-12,.42V309l5.71-.21C518,306.39,515.4,301.72,515.4,294.76Zm18,14.21h1.81c-1.67-15.25-3.69-21.8-9.54-21.8-4,0-6.48,3.62-6.48,8.57C519.23,302.7,522.79,309,533.44,309Z" transform="translate(-78.97 -86.22)"/><path class="cls-5" d="M516.31,326.45v-4.32h37.48v4.32Zm43.6,0v-4.32h6.9v4.32Z" transform="translate(-78.97 -86.22)"/><path class="cls-5" d="M554.41,353.68c0,8.85-5.29,12.61-14.49,12.61H516.31V362h22.43c7,0,11.77-1.81,11.77-9.4,0-6.48-5.43-11.35-13.37-11.35H516.31v-4.32h37.48v4.32h-6.34C551,343,554.41,346.72,554.41,353.68Z" transform="translate(-78.97 -86.22)"/><path class="cls-5" d="M515.4,385.09c0-7,4-12.4,10.24-12.4,8.5,0,11.63,8.36,13.44,26.4h1.32c8.5,0,10.38-5,10.38-10.45,0-6.34-3.55-10.17-8.43-10.52V373.6c7.38,1,12.26,7,12.26,15.32,0,8.71-3.62,14.49-14.77,14.49-5.15,0-8.57-.07-11.56-.07-4.25,0-7.94.21-12,.42v-4.39l5.71-.21C518,396.73,515.4,392.06,515.4,385.09Zm18,14.21h1.81c-1.67-15.25-3.69-21.8-9.54-21.8-4,0-6.48,3.62-6.48,8.57C519.23,393,522.79,399.3,533.44,399.3Z" transform="translate(-78.97 -86.22)"/></g><g class="cls-4"><path d="M239,647h-2.65v5.81h-1.22V639.69H239c3.14,0,5.37.54,5.37,3.61a3.26,3.26,0,0,1-3,3.56l3.19,6h-1.36l-3.1-5.84A11,11,0,0,1,239,647Zm-2.65-1.11h2.81c2.16,0,3.94-.27,3.94-2.59s-1.78-2.54-3.94-2.54h-2.81Z" transform="translate(-78.97 -86.22)"/><path d="M249.51,653.08c-2.23,0-3.18-1.38-3.18-3.77v-6.22h1.13V649c0,1.83.44,3.07,2.34,3.07,1.56,0,2.85-1.42,2.85-3.48v-5.5h1.12v9.76h-1.12v-1.58A3.33,3.33,0,0,1,249.51,653.08Z" transform="translate(-78.97 -86.22)"/><path d="M259.66,643.9c-1.07,0-2.49.42-2.49,1.6,0,1,.76,1.47,1.83,1.67l1.38.25c1.6.29,3.37.83,3.37,2.69s-1.76,3-3.88,3-3.76-1-4-3.23H257c.22,1.54,1.45,2.23,3,2.23,1.18,0,2.65-.49,2.65-1.8,0-1.14-1.09-1.54-2.41-1.8l-1.52-.29c-1.42-.27-2.65-1.09-2.65-2.61s1.54-2.69,3.74-2.69a3.56,3.56,0,0,1,3.76,2.85h-1.18A2.5,2.5,0,0,0,259.66,643.9Z" transform="translate(-78.97 -86.22)"/><path d="M269.11,643.9c-1.07,0-2.49.42-2.49,1.6,0,1,.76,1.47,1.83,1.67l1.38.25c1.6.29,3.37.83,3.37,2.69s-1.76,3-3.88,3-3.76-1-4-3.23h1.18c.22,1.54,1.45,2.23,3,2.23,1.18,0,2.65-.49,2.65-1.8,0-1.14-1.09-1.54-2.41-1.8l-1.52-.29c-1.42-.27-2.65-1.09-2.65-2.61s1.54-2.69,3.74-2.69a3.56,3.56,0,0,1,3.76,2.85h-1.18A2.5,2.5,0,0,0,269.11,643.9Z" transform="translate(-78.97 -86.22)"/><path d="M276.53,641.48h-1.12v-1.8h1.12Zm0,11.36h-1.12v-9.76h1.12Z" transform="translate(-78.97 -86.22)"/><path d="M281.72,653.08c-1.81,0-3.23-1.05-3.23-2.67,0-2.21,2.18-3,6.88-3.5v-.34c0-2.21-1.31-2.7-2.72-2.7a2.45,2.45,0,0,0-2.74,2.2h-1.18a3.72,3.72,0,0,1,4-3.19c2.27,0,3.77.94,3.77,3.85,0,1.34,0,2.23,0,3,0,1.11.05,2.07.11,3.12h-1.14l-.05-1.49A4,4,0,0,1,281.72,653.08Zm3.7-4.7v-.47c-4,.44-5.68,1-5.68,2.49,0,1,.94,1.69,2.23,1.69C283.79,652.08,285.42,651.15,285.42,648.38Z" transform="translate(-78.97 -86.22)"/></g><path d="M325.49,694.65v5.12h-22.7v12.81h21.36v5.12H302.79v14h22.7v5.12H296.85v-42.2Z" transform="translate(-78.97 -86.22)"/><path d="M337.84,720.32c0,8.27,3,12.17,10.89,12.17,8.09,0,11.06-4.48,11.06-12.81v-25h5.94v24.57c0,12.34-4.72,18.4-17,18.4-11.7,0-16.82-4.77-16.82-17.93v-25h5.94Z" transform="translate(-78.97 -86.22)"/><path d="M388.48,719.1H381v17.75h-5.94v-42.2h13.39c10.3,0,17.58,2,17.58,12.17,0,6.69-3.2,9.9-8.38,11.29l9.78,18.74h-6.64L391.68,719C390.63,719.1,389.59,719.1,388.48,719.1Zm-7.45-5h7.92c6.17,0,11-.64,11-7.16s-4.83-7.28-11-7.28H381Z" transform="translate(-78.97 -86.22)"/><path d="M412,715.72c0-12.75,7.63-21.83,19.79-21.83s19.79,9.08,19.79,21.83-7.62,21.89-19.79,21.89S412,728.47,412,715.72Zm33.53,0c0-10.89-6.05-16.82-13.74-16.82s-13.74,5.94-13.74,16.82,6.05,16.88,13.74,16.88S445.53,726.61,445.53,715.72Z" transform="translate(-78.97 -86.22)"/><path d="M490.29,707.4c0,10.48-7.22,12.75-17.52,12.75H465.5v16.71h-5.94v-42.2h13.21C483.08,694.65,490.29,697,490.29,707.4ZM465.5,715h7.74c6.17,0,11-.64,11-7.57s-4.83-7.74-11-7.74H465.5Z" transform="translate(-78.97 -86.22)"/><path d="M510,694.65l15.89,42.2h-6.4l-3.32-9.14H496.81l-3.26,9.14H487.5l15.66-42.2Zm4.31,28-7.92-22-7.8,22Z" transform="translate(-78.97 -86.22)"/><path d="M79.36,618.57l22.1-8.32v3.35l-4.79,1.74v10.15l4.79,1.71v3.17l-22.1-8.2ZM94,616.31,82.5,620.46,94,624.54Z" transform="translate(-78.97 -86.22)"/><path d="M82.2,604.51h19.27v3.11H79.36v-5.21l18.42-5.64-18.42-5.64v-5.21h22.1V589H82.2l19.27,6.1v3.29Z" transform="translate(-78.97 -86.22)"/><path d="M79.36,565.67H82v11.89h6.71V566.37h2.68v11.19h7.35V565.67h2.68v15H79.36Z" transform="translate(-78.97 -86.22)"/><path d="M92.17,555v3.9h9.3V562H79.36v-7c0-5.4,1.07-9.21,6.37-9.21,3.51,0,5.18,1.68,5.92,4.39l9.82-5.12v3.48l-9.33,4.79C92.17,553.84,92.17,554.39,92.17,555Zm-2.62,3.9v-4.15c0-3.23-.33-5.76-3.75-5.76S82,551.49,82,554.72v4.15Z" transform="translate(-78.97 -86.22)"/><path d="M101.46,541.28H79.36v-3.11h22.1Z" transform="translate(-78.97 -86.22)"/><path d="M101.86,524c0,6.34-4.76,10-11.49,10S79,530,79,523.72a9,9,0,0,1,7.44-9.21v3a6.12,6.12,0,0,0-4.82,6.34c0,3.9,3,7,8.78,7,5.58,0,8.87-2.93,8.87-7a6.11,6.11,0,0,0-4.82-6.37v-3C99.3,515.36,101.86,519.17,101.86,524Z" transform="translate(-78.97 -86.22)"/><path d="M79.36,501.91l22.1-8.32v3.35l-4.79,1.74v10.15l4.79,1.71v3.17l-22.1-8.2ZM94,499.66,82.5,503.81,94,507.89Z" transform="translate(-78.97 -86.22)"/><path d="M90.4,465.66c8.44,0,11.07,5,11.07,12v6H79.36v-6C79.36,470.7,82,465.66,90.4,465.66Zm-8.42,15H98.84V477.8c0-4.57-.91-9-8.44-9s-8.42,4.39-8.42,9Z" transform="translate(-78.97 -86.22)"/><path d="M79.36,446.49H82v11.89h6.71V447.19h2.68v11.19h7.35V446.49h2.68v15H79.36Z" transform="translate(-78.97 -86.22)"/><path d="M98.78,428h2.68V442.8H79.36v-3.11H98.78Z" transform="translate(-78.97 -86.22)"/><path d="M85,402.7v3c-2.56.76-3.42,3.26-3.42,5.49,0,1.71.76,4.69,3.23,4.69,2,0,2.93-1.55,3.38-3.6l.58-2.56c.73-3.38,2-7.44,6.46-7.44s6.62,4,6.62,8.41c0,5.21-2.84,8.51-7.26,9.08v-3c3-.58,4.63-2.71,4.63-6.1s-1.55-5.15-3.72-5.15c-2.32,0-3.29,2-3.9,4.76L91,413c-.67,3-2.35,6.07-6,6.07-4.21,0-6-4.42-6-8C79,407.12,80.73,403.56,85,402.7Z" transform="translate(-78.97 -86.22)"/><path d="M92.81,395.84c4.33,0,6.37-1.56,6.37-5.7s-2.35-5.79-6.71-5.79H79.36v-3.11H92.23c6.46,0,9.63,2.47,9.63,8.9,0,6.13-2.5,8.81-9.39,8.81H79.36v-3.11Z" transform="translate(-78.97 -86.22)"/><path d="M90.4,358.25c8.44,0,11.07,5,11.07,12v6H79.36v-6C79.36,363.28,82,358.25,90.4,358.25Zm-8.42,15H98.84v-2.84c0-4.57-.91-9-8.44-9s-8.42,4.39-8.42,9Z" transform="translate(-78.97 -86.22)"/><path d="M97.74,196.18,115,189.67v2.62l-3.74,1.36v7.94l3.74,1.33v2.48L97.74,199Zm11.46-1.76-9,3.24,9,3.19Z" transform="translate(-78.97 -86.22)"/><path d="M100,185.19H115v2.43H97.74v-4.08l14.4-4.41-14.4-4.41v-4.08H115v2.43H100L115,177.85v2.57Z" transform="translate(-78.97 -86.22)"/><path d="M97.74,154.83h2.1v9.3h5.24v-8.75h2.1v8.75h5.74v-9.3H115v11.73H97.74Z" transform="translate(-78.97 -86.22)"/><path d="M107.75,146.47v3.05H115V152H97.74v-5.48c0-4.22.83-7.2,5-7.2,2.74,0,4.05,1.31,4.62,3.43l7.67-4v2.72l-7.29,3.74C107.75,145.59,107.75,146,107.75,146.47Zm-2,3.05v-3.24c0-2.53-.26-4.5-2.93-4.5s-3,2-3,4.5v3.24Z" transform="translate(-78.97 -86.22)"/><path d="M115,135.77H97.74v-2.43H115Z" transform="translate(-78.97 -86.22)"/><path d="M115.33,122.23c0,5-3.72,7.84-9,7.84s-8.91-3.15-8.91-8a7,7,0,0,1,5.82-7.2v2.36a4.78,4.78,0,0,0-3.77,5c0,3.05,2.38,5.43,6.86,5.43s6.94-2.29,6.94-5.51a4.78,4.78,0,0,0-3.77-5v-2.36C113.33,115.51,115.33,118.49,115.33,122.23Z" transform="translate(-78.97 -86.22)"/><path d="M97.74,105,115,98.5v2.62l-3.74,1.36v7.94l3.74,1.33v2.48l-17.28-6.41Zm11.46-1.76-9,3.24,9,3.19Z" transform="translate(-78.97 -86.22)"/><path d="M143.92,213.38c0,5-3.72,7.84-9,7.84s-8.91-3.15-8.91-8a7,7,0,0,1,5.82-7.2v2.36a4.78,4.78,0,0,0-3.77,5c0,3.05,2.38,5.43,6.86,5.43s6.94-2.29,6.94-5.51a4.78,4.78,0,0,0-3.77-5V205.9C141.92,206.66,143.92,209.64,143.92,213.38Z" transform="translate(-78.97 -86.22)"/><path d="M126.33,191.36h2.1v9.3h5.24v-8.75h2.1v8.75h5.74v-9.3h2.1v11.73H126.33Z" transform="translate(-78.97 -86.22)"/><path d="M128.86,186.05h14.75v2.43H126.33v-3.58L141,177H126.33v-2.43h17.28v3.55Z" transform="translate(-78.97 -86.22)"/><path d="M128.43,172.54h-2.1V158.86h2.1v5.63h15.18v2.43H128.43Z" transform="translate(-78.97 -86.22)"/><path d="M136.35,151.33v3.05h7.27v2.43H126.33v-5.48c0-4.22.83-7.2,5-7.2,2.74,0,4.05,1.31,4.62,3.43l7.67-4v2.72L136.32,150C136.35,150.45,136.35,150.88,136.35,151.33Zm-2,3.05v-3.24c0-2.53-.26-4.5-2.93-4.5s-3,2-3,4.5v3.24Z" transform="translate(-78.97 -86.22)"/><path d="M126.33,133.22l17.28-6.51v2.62l-3.74,1.36v7.94l3.74,1.33v2.48L126.33,136Zm11.46-1.76-9,3.24,9,3.19Z" transform="translate(-78.97 -86.22)"/><path d="M141.52,113.1h2.1v11.56H126.33v-2.43h15.18Z" transform="translate(-78.97 -86.22)"/><path d="M126.33,99.33h2.1v9.3h5.24V99.88h2.1v8.75h5.74v-9.3h2.1v11.73H126.33Z" transform="translate(-78.97 -86.22)"/><path d="M773.21,86.7l10.14,26.94h-4.09l-2.12-5.83H764.77l-2.08,5.83h-3.86l10-26.94ZM776,104.57l-5.05-14-5,14Z" transform="translate(-78.97 -86.22)"/><path d="M804.83,93.57h-3.68c-.93-3.12-4-4.16-6.69-4.16-2.08,0-5.72.93-5.72,3.94,0,2.38,1.89,3.57,4.38,4.12l3.12.71c4.12.89,9.07,2.45,9.07,7.88s-4.9,8.06-10.25,8.06c-6.35,0-10.37-3.46-11.07-8.84h3.71c.71,3.71,3.31,5.65,7.43,5.65s6.28-1.9,6.28-4.53c0-2.82-2.42-4-5.8-4.76l-3.34-.71c-3.68-.82-7.39-2.86-7.39-7.36,0-5.13,5.39-7.36,9.73-7.36C799.44,86.22,803.79,88.37,804.83,93.57Z" transform="translate(-78.97 -86.22)"/><path d="M809.8,113.64V86.7h3.79v26.94Z" transform="translate(-78.97 -86.22)"/><path d="M831.17,86.7l10.14,26.94h-4.09l-2.12-5.83H822.73l-2.08,5.83h-3.86l10-26.94Zm2.75,17.87-5.05-14-5,14Z" transform="translate(-78.97 -86.22)"/><path d="M1001.23,410.09l-35.46,13.35v-5.38l7.68-2.79V399l-7.68-2.74v-5.09l35.46,13.16Zm-23.52,3.62,18.49-6.65-18.49-6.55Z" transform="translate(-78.97 -86.22)"/><path d="M1001.23,450.68h-4.3v-18H986.17v17h-4.3v-17H965.77v-5h35.46Z" transform="translate(-78.97 -86.22)"/><path d="M980.69,466.28V460H965.77v-5h35.46v11.25c0,8.66-1.71,14.77-10.22,14.77-5.62,0-8.31-2.69-9.49-7l-15.75,8.22v-5.58l15-7.68C980.69,468.09,980.69,467.21,980.69,466.28Zm4.21-6.26v6.65c0,5.18.54,9.24,6,9.24s6.11-4.06,6.11-9.24V460Z" transform="translate(-78.97 -86.22)"/><path d="M965.77,488.24h35.46v5H965.77Z" transform="translate(-78.97 -86.22)"/><path d="M965.14,516c0-10.17,7.63-16.09,18.44-16.09,11,0,18.29,6.46,18.29,16.48,0,7.34-4.35,13.25-11.93,14.77v-4.84c4.4-1.08,7.73-4.5,7.73-10.17,0-6.26-4.89-11.15-14.08-11.15-8.95,0-14.23,4.7-14.23,11.3,0,5.62,3.18,9.1,7.73,10.22v4.84C969.25,529.81,965.14,523.7,965.14,516Z" transform="translate(-78.97 -86.22)"/><path d="M1001.23,551.38l-35.46,13.35v-5.38l7.68-2.79V540.28l-7.68-2.74v-5.09l35.46,13.16ZM977.71,555l18.49-6.65-18.49-6.55Z" transform="translate(-78.97 -86.22)"/><g class="cls-4"><path d="M325.73,636.46v7.19H325v-7.89h1.18l2.61,7.06,2.6-7.06h1.16v7.89h-.73v-7.19l-2.68,7.19h-.74Z" transform="translate(-78.97 -86.22)"/><path d="M335.78,643.79a1.73,1.73,0,0,1-1.94-1.6c0-1.33,1.31-1.82,4.12-2.1v-.21a1.43,1.43,0,0,0-1.63-1.62,1.47,1.47,0,0,0-1.64,1.32H334a2.23,2.23,0,0,1,2.39-1.91c1.36,0,2.26.57,2.26,2.31,0,.81,0,1.34,0,1.81,0,.66,0,1.24.07,1.87H338l0-.89A2.42,2.42,0,0,1,335.78,643.79ZM338,641v-.28c-2.38.26-3.41.58-3.41,1.49,0,.62.57,1,1.34,1A1.94,1.94,0,0,0,338,641Z" transform="translate(-78.97 -86.22)"/><path d="M344,639.68a1.73,1.73,0,0,0-1.76-1.36c-1,0-1.9.81-1.9,2.42s.89,2.44,1.91,2.44a1.76,1.76,0,0,0,1.8-1.37h.72a2.44,2.44,0,0,1-2.51,2c-1.66,0-2.63-1.24-2.63-3s1-3,2.69-3a2.38,2.38,0,0,1,2.4,2Z" transform="translate(-78.97 -86.22)"/><path d="M348.22,637.7c1.65,0,2.7,1.39,2.61,3.22h-4.66a2.08,2.08,0,0,0,2.11,2.25,1.72,1.72,0,0,0,1.78-1.27h.71a2.42,2.42,0,0,1-2.53,1.89,3.06,3.06,0,0,1,0-6.09Zm1.87,2.6a1.92,1.92,0,0,0-1.88-2,2,2,0,0,0-2,2Z" transform="translate(-78.97 -86.22)"/><path d="M356,638.81v-3h.67v7.89H356v-1a2.22,2.22,0,0,1-2,1.1c-1.35,0-2.45-1.1-2.45-3s1.1-3,2.45-3A2.21,2.21,0,0,1,356,638.81Zm-3.7,1.94c0,1.56.77,2.44,1.86,2.44.88,0,1.88-.71,1.88-2.44s-1-2.44-1.88-2.44C353.1,638.31,352.32,639.19,352.32,640.74Z" transform="translate(-78.97 -86.22)"/><path d="M363.17,640.74c0,2.13-1.25,3-2.65,3s-2.64-.91-2.64-3,1.24-3,2.64-3S363.17,638.61,363.17,640.74Zm-.72,0c0-1.67-.82-2.43-1.94-2.43s-1.93.75-1.93,2.43.81,2.43,1.93,2.43S362.45,642.42,362.45,640.74Z" transform="translate(-78.97 -86.22)"/><path d="M367,637.7c1.38,0,2,.83,2,2.26v3.69h-.67v-3.5c0-1.1-.28-1.84-1.47-1.84A1.88,1.88,0,0,0,365,640.4v3.25h-.67V637.8H365v1A2,2,0,0,1,367,637.7Z" transform="translate(-78.97 -86.22)"/><path d="M371.06,636.84h-.67v-1.08h.67Zm0,6.81h-.67V637.8h.67Z" transform="translate(-78.97 -86.22)"/><path d="M374.17,643.79a1.73,1.73,0,0,1-1.94-1.6c0-1.33,1.31-1.82,4.12-2.1v-.21a1.43,1.43,0,0,0-1.63-1.62,1.47,1.47,0,0,0-1.64,1.32h-.71a2.23,2.23,0,0,1,2.39-1.91c1.36,0,2.26.57,2.26,2.31,0,.81,0,1.34,0,1.81,0,.66,0,1.24.07,1.87h-.69l0-.89A2.42,2.42,0,0,1,374.17,643.79Zm2.22-2.82v-.28c-2.38.26-3.41.58-3.41,1.49,0,.62.57,1,1.34,1A1.94,1.94,0,0,0,376.39,641Z" transform="translate(-78.97 -86.22)"/></g><text class="cls-6" transform="translate(245.1 570.53)">del Nord</text><g class="cls-4"><path d="M446.48,642.15h-1.4c-.5-1.68-1.94-2.59-4.13-2.59-1.46,0-3.51.58-3.51,2.47,0,1.46,1.18,2.2,2.79,2.55l1.72.38c2.1.48,4.87,1.32,4.87,4.07s-2.53,4.23-5.35,4.23c-3.61,0-5.61-2-5.93-4.61h1.4c.5,2.29,2.12,3.33,4.47,3.33,1.58,0,4-.58,4-2.73,0-1.78-1.72-2.59-3.75-3l-1.82-.4c-1.9-.44-3.79-1.36-3.79-3.73,0-2.67,2.69-3.81,5-3.81C443.92,638.28,446,639.69,446.48,642.15Z" transform="translate(-78.97 -86.22)"/><path d="M453.36,642.09c3,0,4.95,2.55,4.79,5.91h-8.54c0,2.59,1.68,4.13,3.87,4.13a3.15,3.15,0,0,0,3.27-2.33H458a4.45,4.45,0,0,1-4.65,3.47c-3.15,0-5.07-2.26-5.07-5.59S450.48,642.09,453.36,642.09Zm3.43,4.77a3.52,3.52,0,0,0-3.45-3.65c-2,0-3.43,1.28-3.69,3.65Z" transform="translate(-78.97 -86.22)"/><path d="M464.45,643.51c-2.22,0-2.93,1.6-2.93,3.87V653H460.3V642.27h1.18v2a3.44,3.44,0,0,1,3.17-2,2.34,2.34,0,0,1,.36,0v1.32A5.54,5.54,0,0,0,464.45,643.51Z" transform="translate(-78.97 -86.22)"/><path d="M467.76,651.25V653h-1.24V638.54h1.24v5.59a4.06,4.06,0,0,1,3.63-2c2.48,0,4.49,2,4.49,5.59s-2,5.59-4.49,5.59A4.08,4.08,0,0,1,467.76,651.25Zm6.79-3.57c0-2.85-1.42-4.47-3.41-4.47-1.62,0-3.45,1.3-3.45,4.47s1.84,4.47,3.45,4.47C473.13,652.15,474.55,650.53,474.55,647.68Z" transform="translate(-78.97 -86.22)"/><path d="M479.26,640.51H478v-2h1.24Zm0,12.49H478V642.27h1.24Z" transform="translate(-78.97 -86.22)"/><path d="M485,653.27c-2,0-3.55-1.16-3.55-2.93,0-2.43,2.4-3.33,7.56-3.85v-.38c0-2.44-1.44-3-3-3-1.82,0-2.91,1-3,2.42h-1.3a4.1,4.1,0,0,1,4.39-3.51c2.49,0,4.15,1,4.15,4.23,0,1.48,0,2.46,0,3.31,0,1.22.06,2.28.12,3.43h-1.26l-.06-1.64A4.43,4.43,0,0,1,485,653.27ZM489,648.1v-.52c-4.37.48-6.25,1.06-6.25,2.73,0,1.14,1,1.86,2.46,1.86C487.24,652.17,489,651.15,489,648.1Z" transform="translate(-78.97 -86.22)"/></g><text class="cls-7" transform="translate(456.43 556.93)">Bosnia </text><g class="cls-4"><path d="M541.15,648.07v.65H537v2.68h3.91v.66H537V655h4.16v.65h-4.86v-7.58Z" transform="translate(-78.97 -86.22)"/><path d="M544.48,650.67c-1.16,0-1.54.84-1.54,2v2.95h-.64V650h.62v1a1.8,1.8,0,0,1,1.66-1.07h.19v.69Z" transform="translate(-78.97 -86.22)"/><path d="M548.57,650.59h-3.23V650h4v.56l-3.47,4.49h3.52v.56h-4.29v-.56Z" transform="translate(-78.97 -86.22)"/><path d="M552.78,649.93c1.59,0,2.59,1.34,2.51,3.09h-4.47a2,2,0,0,0,2,2.16,1.65,1.65,0,0,0,1.71-1.22h.68a2.33,2.33,0,0,1-2.43,1.82,2.94,2.94,0,0,1,0-5.85Zm1.8,2.5a1.84,1.84,0,0,0-1.81-1.91,1.9,1.9,0,0,0-1.93,1.91Z" transform="translate(-78.97 -86.22)"/><path d="M558.33,655.55c-1.29,0-2.34-1.06-2.34-2.81s1.06-2.81,2.34-2.81a2.1,2.1,0,0,1,1.9,1.07v-1h.66v5.42a2.09,2.09,0,0,1-2.38,2.16,2,2,0,0,1-2.17-1.65H557c.07.6.56,1.09,1.52,1.09s1.7-.48,1.7-1.53v-1A2.1,2.1,0,0,1,558.33,655.55Zm-1.64-2.81c0,1.39.73,2.24,1.78,2.24.86,0,1.82-.68,1.82-2.24s-1-2.23-1.82-2.23C557.42,650.51,556.68,651.36,556.68,652.74Z" transform="translate(-78.97 -86.22)"/><path d="M567.11,652.86c0,2-1.2,2.93-2.55,2.93s-2.54-.88-2.54-2.93,1.19-2.93,2.54-2.93S567.11,650.81,567.11,652.86Zm-.69,0c0-1.61-.78-2.33-1.86-2.33s-1.85.72-1.85,2.33.77,2.33,1.85,2.33S566.42,654.47,566.42,652.86Z" transform="translate(-78.97 -86.22)"/><path d="M571.6,650h.7l-2.09,5.62h-.63L567.43,650h.73l1.75,4.72Z" transform="translate(-78.97 -86.22)"/><path d="M573.73,649.1h-.65v-1h.65Zm0,6.54h-.65V650h.65Z" transform="translate(-78.97 -86.22)"/><path d="M577.82,649.93c1.33,0,1.89.79,1.89,2.17v3.54h-.65v-3.37c0-1.06-.27-1.77-1.41-1.77a1.8,1.8,0,0,0-1.7,2v3.13h-.65V650h.65v1A1.94,1.94,0,0,1,577.82,649.93Z" transform="translate(-78.97 -86.22)"/><path d="M582.53,655.78a1.66,1.66,0,0,1-1.86-1.54c0-1.28,1.25-1.75,4-2V652a1.37,1.37,0,0,0-1.57-1.56,1.41,1.41,0,0,0-1.58,1.26h-.68a2.15,2.15,0,0,1,2.3-1.84c1.31,0,2.17.54,2.17,2.22,0,.77,0,1.29,0,1.74,0,.64,0,1.19.06,1.8h-.66l0-.86A2.32,2.32,0,0,1,582.53,655.78Zm2.13-2.71v-.27c-2.29.25-3.27.55-3.27,1.43,0,.6.54,1,1.29,1A1.86,1.86,0,0,0,584.67,653.08Z" transform="translate(-78.97 -86.22)"/></g><rect id="path10" class="cls-3" x="43.37" y="569.54" width="61" height="58"/><rect id="path8" class="cls-3" x="43.37" y="452.34" width="61" height="115"/><g class="cls-4"><path d="M161.47,569.16c0,2.84-.8,5.31-4,5.31a3.69,3.69,0,0,1-3.47-2,3.54,3.54,0,0,1-3.75,2.69c-3.25,0-4.53-2.41-4.53-5.46V563.8h15.72Zm-14.4.58c0,2.56,1.15,3.84,3.19,3.84s3-1.28,3-4v-4.36h-6.22Zm7.48-.3c0,2.12.72,3.51,2.86,3.51,1.89,0,2.73-1.34,2.73-3.45v-4.25h-5.59Z" transform="translate(-78.97 -86.22)"/><path d="M156.07,582.21c0-2.41-1.74-3.19-4.21-3.19h-6.11V577.7h11.67V579h-2.12a3.74,3.74,0,0,1,2.21,3.45,2.52,2.52,0,0,1,0,.39h-1.43A5.69,5.69,0,0,0,156.07,582.21Z" transform="translate(-78.97 -86.22)"/><path d="M145.47,587.31c0-2.17,1.26-3.86,3.19-3.86,2.65,0,3.62,2.6,4.18,8.22h.41c2.65,0,3.23-1.56,3.23-3.25,0-2-1.11-3.17-2.62-3.27v-1.41c2.3.3,3.82,2.17,3.82,4.77s-1.13,4.51-4.6,4.51l-3.6,0c-1.32,0-2.47.06-3.73.13v-1.37l1.78-.06A4.81,4.81,0,0,1,145.47,587.31Zm5.62,4.42h.56c-.52-4.75-1.15-6.79-3-6.79-1.24,0-2,1.13-2,2.67C146.66,589.78,147.77,591.73,151.09,591.73Z" transform="translate(-78.97 -86.22)"/><path d="M156.44,599.61c0-1.28-.5-3-1.91-3-1.15,0-1.76.91-2,2.19l-.3,1.65c-.35,1.91-1,4-3.21,4s-3.56-2.1-3.56-4.64,1.19-4.49,3.86-4.84v1.41c-1.84.26-2.67,1.73-2.67,3.53,0,1.41.58,3.17,2.15,3.17,1.37,0,1.84-1.3,2.15-2.88l.35-1.82c.33-1.69,1.3-3.17,3.12-3.17s3.21,1.84,3.21,4.47a4.26,4.26,0,0,1-3.4,4.49v-1.41A3,3,0,0,0,156.44,599.61Z" transform="translate(-78.97 -86.22)"/><path d="M145.75,608.48v-1.34h11.67v1.34Zm13.57,0v-1.34h2.15v1.34Z" transform="translate(-78.97 -86.22)"/><path d="M145.75,611.73h15.72v1.34H145.75Z" transform="translate(-78.97 -86.22)"/><path d="M157.61,620.88c0,3.3-2.78,5.38-6.42,5.2V616.8c-2.82,0-4.49,1.82-4.49,4.21a3.42,3.42,0,0,0,2.54,3.56V626a4.83,4.83,0,0,1-3.77-5.05c0-3.43,2.45-5.51,6.07-5.51C155.31,615.42,157.61,617.76,157.61,620.88Zm-5.18,3.73a3.82,3.82,0,0,0,4-3.75c0-2.17-1.39-3.73-4-4Z" transform="translate(-78.97 -86.22)"/></g><rect id="path9" class="cls-2" x="43.37" y="179.13" width="61" height="271"/><g class="cls-4"><path d="M157.73,366.27c-8.26,0-10-5.81-10-14v-7.08H133.6V342h34.24v10.25C167.84,360.46,165.95,366.27,157.73,366.27Zm-7-21.11v7.51c0,5.62.66,10.3,7,10.3s7.23-4.68,7.23-10.3v-7.51Z" transform="translate(-78.97 -86.22)"/><path d="M159.43,380.3c0,7.18-6,11.71-14,11.33V371.42c-6.14.09-9.78,4-9.78,9.16,0,4,2,6.75,5.53,7.75v3.07c-5.24-1.23-8.22-5.43-8.22-11,0-7.46,5.34-12,13.22-12C154.43,368.4,159.43,373.5,159.43,380.3Zm-11.29,8.12c4.3,0,8.64-3.07,8.64-8.17,0-4.72-3-8.12-8.64-8.74Z" transform="translate(-78.97 -86.22)"/><path d="M156.08,406.56c0-5.24-3.78-6.94-9.16-6.94H133.6v-2.88H159v2.79h-4.63A8.14,8.14,0,0,1,159.2,407a5.36,5.36,0,0,1,0,.85H156A12.93,12.93,0,0,0,156.08,406.56Z" transform="translate(-78.97 -86.22)"/><path d="M133,419c0-5.81,3.59-8.26,9.82-8.26H159v2.93h-15.4c-4.77,0-8,1.13-8,6.09,0,4.06,3.68,7.41,9.07,7.41H159v2.93H133.6v-2.93h4.11A8.68,8.68,0,0,1,133,419Zm34.85-.33-5.48,4.25v-2.6l5.48-6.14Z" transform="translate(-78.97 -86.22)"/></g><g class="cls-4"><path d="M133.58,690c-2.34,0-3.62-1.77-3.62-4.23s1.33-4.22,3.65-4.22a3.28,3.28,0,0,1,3.39,2.77h-.79a2.57,2.57,0,0,0-2.62-2c-1.61,0-2.83,1.25-2.83,3.5s1.16,3.51,2.83,3.51a2.56,2.56,0,0,0,2.65-2H137A3.31,3.31,0,0,1,133.58,690Z" transform="translate(-78.97 -86.22)"/><path d="M143.22,686.88c0,2.2-1.29,3.15-2.74,3.15s-2.73-.95-2.73-3.15,1.28-3.15,2.73-3.15S143.22,684.67,143.22,686.88Zm-.74,0c0-1.73-.84-2.51-2-2.51s-2,.78-2,2.51.83,2.51,2,2.51S142.48,688.61,142.48,686.88Z" transform="translate(-78.97 -86.22)"/><path d="M144.44,689.88v-8.15h.7v8.15Z" transform="translate(-78.97 -86.22)"/><path d="M151.83,686.88c0,2.2-1.29,3.15-2.74,3.15s-2.73-.95-2.73-3.15,1.28-3.15,2.73-3.15S151.83,684.67,151.83,686.88Zm-.74,0c0-1.73-.84-2.51-2-2.51s-2,.78-2,2.51.83,2.51,2,2.51S151.09,688.61,151.09,686.88Z" transform="translate(-78.97 -86.22)"/><path d="M153,689.88v-6h.7v1a2,2,0,0,1,1.9-1.12,1.66,1.66,0,0,1,1.78,1.2,2.21,2.21,0,0,1,2-1.2c1.37,0,1.92.85,1.92,2.34v3.81h-.7v-3.62c0-1.14-.24-1.9-1.41-1.9-1,0-1.72.88-1.72,2.16v3.36h-.7v-3.62c0-1.14-.24-1.9-1.41-1.9-1,0-1.72.88-1.72,2.16v3.36Z" transform="translate(-78.97 -86.22)"/><path d="M163.6,688.89v1h-.7v-8.15h.7v3.15a2.29,2.29,0,0,1,2-1.15c1.39,0,2.53,1.15,2.53,3.15S167,690,165.65,690A2.3,2.3,0,0,1,163.6,688.89Zm3.82-2c0-1.61-.8-2.52-1.92-2.52-.91,0-1.95.73-1.95,2.52s1,2.52,1.95,2.52C166.63,689.4,167.43,688.49,167.43,686.88Z" transform="translate(-78.97 -86.22)"/><path d="M170.08,682.84h-.7v-1.11h.7Zm0,7h-.7v-6h.7Z" transform="translate(-78.97 -86.22)"/><path d="M173.3,690a1.78,1.78,0,0,1-2-1.65c0-1.37,1.35-1.88,4.26-2.17V686a1.47,1.47,0,0,0-1.69-1.68,1.52,1.52,0,0,0-1.7,1.36h-.73a2.31,2.31,0,0,1,2.47-2c1.41,0,2.34.58,2.34,2.38,0,.83,0,1.38,0,1.87,0,.69,0,1.28.07,1.93h-.71l0-.92A2.5,2.5,0,0,1,173.3,690Zm2.29-2.91v-.29c-2.46.27-3.52.6-3.52,1.54,0,.64.58,1,1.38,1A2,2,0,0,0,175.6,687.11Z" transform="translate(-78.97 -86.22)"/></g><g class="cls-4"><path d="M657.82,717.84l5.11,13.43h-1.35l-1.28-3.37h-6.39l-1.26,3.37h-1.33l5.09-13.43Zm2,8.91-2.78-7.37-2.74,7.37Z" transform="translate(-78.97 -86.22)"/><path d="M664.32,731.27V717.84h1.15v13.43Z" transform="translate(-78.97 -86.22)"/><path d="M671.54,731.11c-2.28,0-4.15-1.87-4.15-5s1.87-5,4.15-5a3.73,3.73,0,0,1,3.37,1.89v-1.72h1.17v9.61c0,2.67-1.85,3.83-4.22,3.83-2.06,0-3.67-1.13-3.85-2.93h1.2c.13,1.06,1,1.93,2.69,1.93,1.87,0,3-.85,3-2.71v-1.82A3.71,3.71,0,0,1,671.54,731.11Zm-2.91-5c0,2.46,1.3,4,3.15,4,1.52,0,3.22-1.2,3.22-4s-1.7-3.95-3.22-3.95C669.93,722.18,668.64,723.68,668.64,726.12Z" transform="translate(-78.97 -86.22)"/><path d="M682.75,721.14c2.82,0,4.59,2.37,4.45,5.48h-7.93a3.54,3.54,0,0,0,3.59,3.83,2.92,2.92,0,0,0,3-2.17h1.2a4.13,4.13,0,0,1-4.32,3.22c-2.93,0-4.71-2.09-4.71-5.19S680.08,721.14,682.75,721.14Zm3.19,4.43a3.27,3.27,0,0,0-3.2-3.39c-1.85,0-3.19,1.19-3.43,3.39Z" transform="translate(-78.97 -86.22)"/><path d="M693.05,722.45c-2.06,0-2.72,1.48-2.72,3.59v5.22H689.2v-10h1.09v1.82a3.19,3.19,0,0,1,2.95-1.89,2.13,2.13,0,0,1,.33,0v1.22A5,5,0,0,0,693.05,722.45Z" transform="translate(-78.97 -86.22)"/><path d="M696.13,719.68H695v-1.83h1.15Zm0,11.6H695v-10h1.15Z" transform="translate(-78.97 -86.22)"/><path d="M701.42,731.51c-1.85,0-3.3-1.08-3.3-2.72,0-2.26,2.22-3.09,7-3.58v-.35c0-2.26-1.33-2.76-2.78-2.76a2.5,2.5,0,0,0-2.8,2.24h-1.2a3.8,3.8,0,0,1,4.08-3.26c2.32,0,3.85,1,3.85,3.93,0,1.37,0,2.28,0,3.07,0,1.13.06,2.11.11,3.19h-1.17l-.06-1.52A4.11,4.11,0,0,1,701.42,731.51Zm3.78-4.8v-.48c-4.06.45-5.8,1-5.8,2.54,0,1.06,1,1.72,2.28,1.72C703.54,730.49,705.2,729.55,705.2,726.72Z" transform="translate(-78.97 -86.22)"/></g><g class="cls-4"><path d="M649.28,416.28c0,3.42-2.58,5.3-6.18,5.3s-6.17-1.94-6.17-5.35a4.79,4.79,0,0,1,4-5v1.15a3.76,3.76,0,0,0-3,3.83c0,2.35,1.83,4.15,5.12,4.15s5.13-1.69,5.13-4.15a3.74,3.74,0,0,0-3-3.88v-1.15A4.84,4.84,0,0,1,649.28,416.28Z" transform="translate(-78.97 -86.22)"/><path d="M644.67,402.18c3.22,0,4.61,1.89,4.61,4s-1.38,4-4.61,4-4.61-1.87-4.61-4S641.45,402.18,644.67,402.18Zm0,1.09c-2.53,0-3.67,1.23-3.67,2.93s1.13,2.91,3.67,2.91,3.67-1.22,3.67-2.91S647.21,403.27,644.67,403.27Z" transform="translate(-78.97 -86.22)"/><path d="M641,397.54c0,1,.38,2.25,1.45,2.25.87,0,1.33-.69,1.51-1.66l.23-1.25c.26-1.45.76-3.06,2.43-3.06s2.7,1.6,2.7,3.52a3.35,3.35,0,0,1-2.93,3.67v-1.07a2.41,2.41,0,0,0,2-2.68c0-1.07-.44-2.4-1.63-2.4s-1.4,1-1.63,2.19l-.26,1.38c-.25,1.28-1,2.4-2.37,2.4s-2.43-1.4-2.43-3.39a3.23,3.23,0,0,1,2.58-3.41v1.07A2.27,2.27,0,0,0,641,397.54Z" transform="translate(-78.97 -86.22)"/><path d="M638.23,390.39h2v-1.74h.89v1.74h5.66c1.15,0,1.38,0,1.38-1.22v-.53h.92v.84c0,1.58-.36,1.94-2.11,1.94H641.1v1.46h-.89v-1.46h-2Z" transform="translate(-78.97 -86.22)"/><path d="M649.28,384.65c0,1.65-1,2.93-2.42,2.93-2,0-2.75-2-3.17-6.23h-.31a2.16,2.16,0,0,0-2.45,2.47,2.22,2.22,0,0,0,2,2.48v1.07a3.38,3.38,0,0,1-2.89-3.62c0-2.06.86-3.42,3.49-3.42l2.73,0c1,0,1.88,0,2.83-.1v1l-1.35,0A3.65,3.65,0,0,1,649.28,384.65ZM645,381.29h-.43c.4,3.6.87,5.15,2.25,5.15.94,0,1.53-.86,1.53-2C648.37,382.77,647.54,381.29,645,381.29Z" transform="translate(-78.97 -86.22)"/><path d="M641.75,368.3h-4.61v-1h11.93v1h-1.45a3.36,3.36,0,0,1,1.66,3c0,2-1.66,3.7-4.61,3.7s-4.61-1.66-4.61-3.7A3.35,3.35,0,0,1,641.75,368.3Zm2.93,5.59c2.35,0,3.68-1.17,3.68-2.81,0-1.33-1.07-2.85-3.68-2.85s-3.68,1.51-3.68,2.85C641,372.72,642.32,373.89,644.67,373.89Z" transform="translate(-78.97 -86.22)"/><path d="M641.09,364.5V365l-3.95.33v-1.18Z" transform="translate(-78.97 -86.22)"/><path d="M637.14,358.69l11.93-4.54v1.2l-3,1.14v5.67l3,1.12v1.18l-11.93-4.52Zm7.91-1.81-6.55,2.47,6.55,2.43Z" transform="translate(-78.97 -86.22)"/><path d="M640.22,348.09V347l8.85,3.29v1l-8.85,3.39V353.5l7.43-2.75Z" transform="translate(-78.97 -86.22)"/><path d="M644.67,338.43c3.22,0,4.61,1.89,4.61,4s-1.38,4-4.61,4-4.61-1.87-4.61-4S641.45,338.43,644.67,338.43Zm0,1.09c-2.53,0-3.67,1.23-3.67,2.93s1.13,2.91,3.67,2.91,3.67-1.22,3.67-2.91S647.21,339.52,644.67,339.52Z" transform="translate(-78.97 -86.22)"/><path d="M641.24,333.23c0,1.83,1.32,2.42,3.19,2.42h4.64v1h-8.85v-1h1.61a2.84,2.84,0,0,1-1.68-2.62,1.87,1.87,0,0,1,0-.3h1.08A4.42,4.42,0,0,0,641.24,333.23Z" transform="translate(-78.97 -86.22)"/><path d="M638.77,330.5v1h-1.63v-1Zm10.3,0v1h-8.85v-1Z" transform="translate(-78.97 -86.22)"/><path d="M644.67,320.72c3.22,0,4.61,1.89,4.61,4s-1.38,4-4.61,4-4.61-1.87-4.61-4S641.45,320.72,644.67,320.72Zm0,1.09c-2.53,0-3.67,1.23-3.67,2.93s1.13,2.91,3.67,2.91,3.67-1.22,3.67-2.91S647.21,321.8,644.67,321.8Z" transform="translate(-78.97 -86.22)"/></g><g class="cls-4"><path class="cls-5" d="M708.71,348v43.17h-4.43V343.23h6.41l26.25,43.24V343.23h4.43v47.93H735Z" transform="translate(-78.97 -86.22)"/><path class="cls-5" d="M756.12,349.78H752v-6.55h4.1Zm0,41.39H752V355.6h4.1Z" transform="translate(-78.97 -86.22)"/><path class="cls-5" d="M777.8,390.57c-8.13,0-14.81-6.68-14.81-17.79S769.67,355,777.8,355a13.3,13.3,0,0,1,12,6.74V355.6H794v34.31c0,9.52-6.61,13.69-15.07,13.69-7.34,0-13.09-4-13.75-10.45h4.3c.46,3.77,3.57,6.88,9.59,6.88,6.68,0,10.78-3,10.78-9.65v-6.48A13.25,13.25,0,0,1,777.8,390.57Zm-10.38-17.79c0,8.79,4.63,14.15,11.24,14.15,5.42,0,11.5-4.3,11.5-14.15s-6.08-14.08-11.5-14.08C772.05,358.7,767.42,364.06,767.42,372.79Z" transform="translate(-78.97 -86.22)"/><path class="cls-5" d="M817.8,355c10,0,16.4,8.46,15.87,19.57h-28.3c.13,8.59,5.55,13.69,12.83,13.69,5.55,0,9.45-2.84,10.84-7.74h4.3c-1.72,7.34-7.6,11.5-15.41,11.5-10.45,0-16.79-7.47-16.79-18.51C801.14,362,808.28,355,817.8,355Zm11.37,15.8c0-6-4.3-12.1-11.44-12.1-6.61,0-11.37,4.23-12.23,12.1Z" transform="translate(-78.97 -86.22)"/><path class="cls-5" d="M854.57,359.69c-7.34,0-9.72,5.29-9.72,12.83v18.64h-4V355.6h3.9v6.48c1.59-4.17,6.21-6.74,10.51-6.74a7.55,7.55,0,0,1,1.19.07v4.36A17.86,17.86,0,0,0,854.57,359.69Z" transform="translate(-78.97 -86.22)"/><path class="cls-5" d="M865.54,349.78h-4.1v-6.55h4.1Zm0,41.39h-4.1V355.6h4.1Z" transform="translate(-78.97 -86.22)"/><path class="cls-5" d="M884.45,392c-6.61,0-11.77-3.83-11.77-9.72,0-8.07,7.93-11,25.06-12.76v-1.26c0-8.07-4.76-9.85-9.92-9.85-6,0-9.65,3.37-10,8h-4.3c.93-7,6.61-11.64,14.55-11.64,8.26,0,13.75,3.44,13.75,14,0,4.89-.07,8.13-.07,11,0,4,.2,7.54.4,11.37H898l-.2-5.42C895.49,389.51,891.06,392,884.45,392Zm13.49-17.12v-1.72c-14.48,1.59-20.7,3.5-20.7,9.06,0,3.77,3.44,6.15,8.13,6.15C892,388.39,897.94,385,897.94,374.9Z" transform="translate(-78.97 -86.22)"/></g><g class="cls-4"><path d="M646.27,465.33c-3.68,0-5.69-2.78-5.69-6.65s2.09-6.63,5.75-6.63a5.16,5.16,0,0,1,5.32,4.35h-1.24a4,4,0,0,0-4.12-3.22c-2.53,0-4.46,2-4.46,5.5s1.82,5.52,4.46,5.52a4,4,0,0,0,4.17-3.22h1.24A5.21,5.21,0,0,1,646.27,465.33Z" transform="translate(-78.97 -86.22)"/><path d="M656,465.33c-1.77,0-3.15-1-3.15-2.6,0-2.16,2.12-3,6.7-3.41V459c0-2.16-1.27-2.63-2.65-2.63a2.38,2.38,0,0,0-2.67,2.14H653a3.63,3.63,0,0,1,3.89-3.11c2.21,0,3.68.92,3.68,3.75,0,1.31,0,2.17,0,2.94,0,1.08.05,2,.11,3h-1.11l-.05-1.45A3.93,3.93,0,0,1,656,465.33Zm3.61-4.58v-.46c-3.87.42-5.54.94-5.54,2.42,0,1,.92,1.64,2.18,1.64C658,464.36,659.57,463.46,659.57,460.75Z" transform="translate(-78.97 -86.22)"/><path d="M662.92,465.1v-9.51H664v1.61a3.1,3.1,0,0,1,3-1.77,2.61,2.61,0,0,1,2.79,1.89,3.48,3.48,0,0,1,3.22-1.89c2.16,0,3,1.34,3,3.68v6h-1.1v-5.69c0-1.79-.37-3-2.21-3-1.56,0-2.71,1.38-2.71,3.4v5.29h-1.1v-5.69c0-1.79-.37-3-2.21-3-1.56,0-2.71,1.38-2.71,3.4v5.29Z" transform="translate(-78.97 -86.22)"/><path d="M682.13,455.43c2.69,0,4.39,2.26,4.24,5.24H678.8a3.38,3.38,0,0,0,3.43,3.66,2.79,2.79,0,0,0,2.9-2.07h1.15a3.94,3.94,0,0,1-4.12,3.08c-2.79,0-4.49-2-4.49-5S679.58,455.43,682.13,455.43Zm3,4.23a3.12,3.12,0,0,0-3.06-3.24c-1.77,0-3,1.13-3.27,3.24Z" transform="translate(-78.97 -86.22)"/><path d="M692,456.68c-2,0-2.6,1.42-2.6,3.43v5h-1.08v-9.51h1v1.73a3,3,0,0,1,2.81-1.8,2,2,0,0,1,.32,0v1.17A4.83,4.83,0,0,0,692,456.68Z" transform="translate(-78.97 -86.22)"/><path d="M696.61,465.33c-2.17,0-3.09-1.34-3.09-3.68v-6.07h1.1v5.77c0,1.79.42,3,2.28,3,1.52,0,2.78-1.38,2.78-3.4v-5.36h1.1v9.51h-1.1v-1.54A3.25,3.25,0,0,1,696.61,465.33Z" transform="translate(-78.97 -86.22)"/><path d="M707.69,455.43c2.25,0,3.2,1.34,3.2,3.68v6h-1.1v-5.69c0-1.79-.46-3-2.39-3-1.64,0-2.88,1.38-2.88,3.4v5.29h-1.1v-9.51h1.1v1.61A3.29,3.29,0,0,1,707.69,455.43Z" transform="translate(-78.97 -86.22)"/></g><g class="cls-4"><path d="M762.35,521.24V550h-2.91V518.46h4.7l10.43,28.21L785,518.46h4.65V550H786.7V521.24L776,550h-3Z" transform="translate(-78.97 -86.22)"/><path d="M802.52,550.54c-4.35,0-7.74-2.52-7.74-6.39,0-5.3,5.22-7.26,16.48-8.39v-.83c0-5.3-3.13-6.48-6.52-6.48-4,0-6.35,2.22-6.56,5.26h-2.83c.61-4.61,4.35-7.65,9.56-7.65,5.43,0,9,2.26,9,9.22,0,3.22,0,5.35,0,7.22,0,2.65.13,5,.26,7.48h-2.74l-.13-3.56C809.78,548.89,806.87,550.54,802.52,550.54Zm8.87-11.26v-1.13c-9.52,1-13.61,2.3-13.61,6,0,2.48,2.26,4,5.35,4C807.48,548.15,811.39,545.93,811.39,539.28Z" transform="translate(-78.97 -86.22)"/><path d="M828.65,529.28c-4.83,0-6.39,3.48-6.39,8.43V550H819.6V526.59h2.57v4.26a7.49,7.49,0,0,1,6.91-4.43,5,5,0,0,1,.78,0v2.87A11.94,11.94,0,0,0,828.65,529.28Z" transform="translate(-78.97 -86.22)"/><path d="M852.51,538.37c0,8.52-5,12.17-10.61,12.17s-10.56-3.65-10.56-12.17,5-12.17,10.56-12.17S852.51,529.85,852.51,538.37Zm-2.87,0c0-6.69-3.26-9.69-7.74-9.69s-7.69,3-7.69,9.69,3.22,9.69,7.69,9.69S849.64,545.06,849.64,538.37Z" transform="translate(-78.97 -86.22)"/><path d="M873.24,534.11a6.9,6.9,0,0,0-7-5.43c-4,0-7.61,3.22-7.61,9.65,0,6.65,3.57,9.74,7.65,9.74a7,7,0,0,0,7.17-5.48h2.87c-1,4.83-4.87,8-10,8-6.65,0-10.52-5-10.52-12.17s3.91-12.17,10.74-12.17a9.49,9.49,0,0,1,9.61,7.91Z" transform="translate(-78.97 -86.22)"/><path d="M896.76,534.11a6.9,6.9,0,0,0-7-5.43c-4,0-7.61,3.22-7.61,9.65,0,6.65,3.57,9.74,7.65,9.74a7,7,0,0,0,7.17-5.48h2.87c-1,4.83-4.87,8-10,8-6.65,0-10.52-5-10.52-12.17S883.16,526.2,890,526.2a9.49,9.49,0,0,1,9.61,7.91Z" transform="translate(-78.97 -86.22)"/><path d="M923.93,538.37c0,8.52-5,12.17-10.61,12.17s-10.56-3.65-10.56-12.17,5-12.17,10.56-12.17S923.93,529.85,923.93,538.37Zm-2.87,0c0-6.69-3.26-9.69-7.74-9.69s-7.69,3-7.69,9.69,3.22,9.69,7.69,9.69S921.06,545.06,921.06,538.37Z" transform="translate(-78.97 -86.22)"/></g><g class="cls-4"><path d="M759.83,659.47h-1.49c-.53-1.79-2.07-2.77-4.42-2.77-1.56,0-3.76.62-3.76,2.65,0,1.56,1.26,2.35,3,2.73l1.84.41c2.24.51,5.21,1.41,5.21,4.35s-2.71,4.53-5.72,4.53c-3.86,0-6-2.16-6.34-4.93h1.49c.53,2.45,2.26,3.56,4.78,3.56,1.69,0,4.29-.62,4.29-2.92,0-1.9-1.84-2.77-4-3.24l-1.94-.43c-2-.47-4.06-1.45-4.06-4,0-2.86,2.88-4.08,5.38-4.08C757.1,655.33,759.28,656.84,759.83,659.47Z" transform="translate(-78.97 -86.22)"/><path d="M767.2,659.4c3.25,0,5.29,2.73,5.12,6.32h-9.14c0,2.78,1.79,4.42,4.14,4.42a3.37,3.37,0,0,0,3.5-2.5h1.39a4.75,4.75,0,0,1-5,3.71c-3.37,0-5.42-2.41-5.42-6C761.82,661.67,764.12,659.4,767.2,659.4Zm3.67,5.1a3.76,3.76,0,0,0-3.69-3.91c-2.13,0-3.67,1.37-3.95,3.91Z" transform="translate(-78.97 -86.22)"/><path d="M779.77,659.4c2.71,0,3.86,1.62,3.86,4.44v7.24h-1.32v-6.87c0-2.16-.55-3.61-2.88-3.61-2,0-3.48,1.67-3.48,4.1v6.38h-1.32V659.6h1.32v1.94A4,4,0,0,1,779.77,659.4Z" transform="translate(-78.97 -86.22)"/><path d="M791,659.4c3.24,0,5.29,2.73,5.12,6.32H787c0,2.78,1.79,4.42,4.14,4.42a3.37,3.37,0,0,0,3.5-2.5H796a4.76,4.76,0,0,1-5,3.71c-3.37,0-5.42-2.41-5.42-6C785.59,661.67,787.9,659.4,791,659.4Zm3.67,5.1A3.76,3.76,0,0,0,791,660.6c-2.13,0-3.67,1.37-3.95,3.91Z" transform="translate(-78.97 -86.22)"/><path d="M802.31,670.89c-2.63,0-4.78-2.16-4.78-5.74s2.16-5.74,4.78-5.74a4.3,4.3,0,0,1,3.89,2.18v-2h1.34v11.08c0,3.07-2.13,4.42-4.87,4.42-2.37,0-4.23-1.3-4.44-3.37h1.39c.15,1.22,1.15,2.22,3.1,2.22,2.16,0,3.48-1,3.48-3.12v-2.09A4.28,4.28,0,0,1,802.31,670.89ZM799,665.15c0,2.84,1.49,4.57,3.63,4.57,1.75,0,3.71-1.39,3.71-4.57s-2-4.55-3.71-4.55C800.45,660.6,799,662.33,799,665.15Z" transform="translate(-78.97 -86.22)"/><path d="M813.64,671.36c-2.13,0-3.8-1.24-3.8-3.14,0-2.6,2.56-3.57,8.09-4.12v-.41c0-2.6-1.54-3.18-3.2-3.18-1.94,0-3.12,1.09-3.22,2.58h-1.39a4.38,4.38,0,0,1,4.7-3.76c2.67,0,4.44,1.11,4.44,4.53,0,1.58,0,2.63,0,3.54,0,1.3.06,2.43.13,3.67H818l-.06-1.75A4.74,4.74,0,0,1,813.64,671.36Zm4.35-5.53v-.56c-4.67.51-6.68,1.13-6.68,2.92,0,1.22,1.11,2,2.63,2C816.07,670.18,818,669.09,818,665.83Z" transform="translate(-78.97 -86.22)"/><path d="M822,671.08V655.6h1.32v15.48Z" transform="translate(-78.97 -86.22)"/></g><g class="cls-4"><path d="M761.14,720.39a4.31,4.31,0,0,0-4.53-3.26c-2.83,0-5,2.17-5,6.07s2,6.09,4.92,6.09c2.09,0,4.72-.82,4.72-4.24v-.53h-4v-1.21h5.21v7h-1.15l0-2c-.86,1.35-2.38,2.24-4.82,2.24-4.06,0-6.28-3.06-6.28-7.34s2.4-7.32,6.44-7.32c3,0,5.23,1.56,5.85,4.51Z" transform="translate(-78.97 -86.22)"/><path d="M768.09,730.54c-2,0-3.47-1.13-3.47-2.87,0-2.38,2.34-3.26,7.4-3.77v-.37c0-2.38-1.41-2.91-2.93-2.91-1.78,0-2.85,1-2.95,2.36h-1.27a4,4,0,0,1,4.29-3.43c2.44,0,4.06,1,4.06,4.14,0,1.44,0,2.4,0,3.24,0,1.19.06,2.22.12,3.36h-1.23l-.06-1.6A4.33,4.33,0,0,1,768.09,730.54Zm4-5.05V725c-4.27.47-6.11,1-6.11,2.67,0,1.11,1,1.82,2.4,1.82C770.31,729.47,772.07,728.47,772.07,725.48Z" transform="translate(-78.97 -86.22)"/><path d="M775.76,730.28v-10.5H777v1.78a3.42,3.42,0,0,1,3.3-2,2.88,2.88,0,0,1,3.08,2.09,3.84,3.84,0,0,1,3.55-2.09c2.38,0,3.34,1.48,3.34,4.06v6.62H789V724c0-2-.41-3.3-2.44-3.3-1.72,0-3,1.52-3,3.75v5.83h-1.21V724c0-2-.41-3.3-2.44-3.3-1.72,0-3,1.52-3,3.75v5.83Z" transform="translate(-78.97 -86.22)"/><path d="M794.07,728.57v1.72h-1.21V716.14h1.21v5.46a4,4,0,0,1,3.55-2c2.42,0,4.39,2,4.39,5.46s-2,5.46-4.39,5.46A4,4,0,0,1,794.07,728.57Zm6.64-3.49c0-2.79-1.39-4.37-3.34-4.37-1.58,0-3.38,1.27-3.38,4.37s1.8,4.37,3.38,4.37C799.32,729.45,800.7,727.87,800.7,725.07Z" transform="translate(-78.97 -86.22)"/><path d="M805.31,718.07H804.1v-1.93h1.21Zm0,12.22H804.1v-10.5h1.21Z" transform="translate(-78.97 -86.22)"/><path d="M810.89,730.54c-2,0-3.47-1.13-3.47-2.87,0-2.38,2.34-3.26,7.4-3.77v-.37c0-2.38-1.41-2.91-2.93-2.91-1.78,0-2.85,1-2.95,2.36h-1.27a4,4,0,0,1,4.29-3.43c2.44,0,4.06,1,4.06,4.14,0,1.44,0,2.4,0,3.24,0,1.19.06,2.22.12,3.36h-1.23l-.06-1.6A4.33,4.33,0,0,1,810.89,730.54Zm4-5.05V725c-4.27.47-6.11,1-6.11,2.67,0,1.11,1,1.82,2.4,1.82C813.11,729.47,814.87,728.47,814.87,725.48Z" transform="translate(-78.97 -86.22)"/></g><g class="cls-4"><path d="M854.68,645.22v1.19h-7.61v4.89h7.15v1.2h-7.15v5.39h7.61v1.19h-8.89V645.22Z" transform="translate(-78.97 -86.22)"/><path d="M860.19,658.91c-2.35,0-4.28-1.93-4.28-5.14s1.93-5.14,4.28-5.14a3.85,3.85,0,0,1,3.48,2v-1.78h1.2v9.92c0,2.75-1.91,4-4.36,4-2.12,0-3.79-1.17-4-3h1.24c.13,1.09,1,2,2.77,2,1.93,0,3.12-.88,3.12-2.79V657A3.83,3.83,0,0,1,860.19,658.91Zm-3-5.14c0,2.54,1.34,4.09,3.25,4.09,1.57,0,3.33-1.24,3.33-4.09s-1.76-4.07-3.33-4.07C858.53,649.69,857.19,651.24,857.19,653.76Z" transform="translate(-78.97 -86.22)"/><path d="M868.93,647.11h-1.18v-1.89h1.18Zm0,12h-1.18V648.79h1.18Z" transform="translate(-78.97 -86.22)"/><path d="M873.48,646.48v2.31h2v1h-2v6.58c0,1.34,0,1.61,1.42,1.61h.61v1.07h-1c-1.84,0-2.26-.42-2.26-2.45v-6.81h-1.7v-1h1.7v-2.31Z" transform="translate(-78.97 -86.22)"/><path d="M879.24,646.48v2.31h2v1h-2v6.58c0,1.34,0,1.61,1.42,1.61h.61v1.07h-1c-1.83,0-2.26-.42-2.26-2.45v-6.81h-1.7v-1H878v-2.31Z" transform="translate(-78.97 -86.22)"/><path d="M891.82,654c0,3.75-2.2,5.35-4.67,5.35s-4.65-1.61-4.65-5.35,2.18-5.35,4.65-5.35S891.82,650.23,891.82,654Zm-1.26,0c0-2.94-1.43-4.26-3.4-4.26s-3.38,1.32-3.38,4.26,1.42,4.26,3.38,4.26S890.55,656.92,890.55,654Z" transform="translate(-78.97 -86.22)"/></g><g class="cls-4"><path d="M928.47,634.89V634a2.51,2.51,0,0,0,1.7-2.7c0-1-.38-2.3-1.62-2.3-1,0-1.44.77-1.67,1.83l-.25,1.12c-.31,1.37-.86,3.19-2.66,3.19s-2.77-1.66-2.77-3.5c0-2.36,1.32-3.67,3-3.88v.91a2.66,2.66,0,0,0-2.18,2.93c0,1,.38,2.63,1.79,2.63,1.16,0,1.7-1.12,2-2.46l.26-1.19c.29-1.24.89-2.48,2.44-2.48,1.75,0,2.5,1.76,2.5,3.29A3.28,3.28,0,0,1,928.47,634.89Z" transform="translate(-78.97 -86.22)"/><path d="M924.85,642.46c-2.56,0-3.66-1.5-3.66-3.19s1.1-3.17,3.66-3.17,3.66,1.49,3.66,3.17S927.41,642.46,924.85,642.46Zm0-.86c2,0,2.91-1,2.91-2.32s-.9-2.31-2.91-2.31-2.91,1-2.91,2.31S922.84,641.6,924.85,641.6Z" transform="translate(-78.97 -86.22)"/><path d="M921.36,643.87h7v.81H927.2a2.29,2.29,0,0,1,1.31,2.21,1.93,1.93,0,0,1-1.4,2.06,2.57,2.57,0,0,1,1.4,2.38c0,1.59-1,2.23-2.72,2.23h-4.43v-.81h4.21c1.32,0,2.21-.27,2.21-1.63,0-1.15-1-2-2.51-2h-3.91v-.81h4.21c1.32,0,2.21-.27,2.21-1.63,0-1.15-1-2-2.51-2h-3.91Z" transform="translate(-78.97 -86.22)"/><path d="M921.19,657.08a2.07,2.07,0,0,1,1.92-2.32c1.59,0,2.18,1.57,2.52,5h.25a1.71,1.71,0,0,0,1.95-2,1.76,1.76,0,0,0-1.58-2v-.85a2.68,2.68,0,0,1,2.3,2.87c0,1.63-.68,2.72-2.77,2.72h-2.17c-.8,0-1.49,0-2.25.08v-.82l1.07,0A2.9,2.9,0,0,1,921.19,657.08Zm3.38,2.67h.34c-.31-2.86-.69-4.09-1.79-4.09-.75,0-1.21.68-1.21,1.61C921.91,658.57,922.58,659.75,924.57,659.75Z" transform="translate(-78.97 -86.22)"/><path d="M921.36,662.21h9.47V663h-9.47Z" transform="translate(-78.97 -86.22)"/><path d="M921.36,665.79V665h7v.81Zm8.18,0V665h1.29v.81Z" transform="translate(-78.97 -86.22)"/><path d="M921.19,669.52a2.07,2.07,0,0,1,1.92-2.32c1.59,0,2.18,1.57,2.52,5h.25a1.71,1.71,0,0,0,1.95-2,1.76,1.76,0,0,0-1.58-2v-.85a2.68,2.68,0,0,1,2.3,2.87c0,1.63-.68,2.72-2.77,2.72h-2.17c-.8,0-1.49,0-2.25.08v-.82l1.07,0A2.9,2.9,0,0,1,921.19,669.52Zm3.38,2.67h.34c-.31-2.86-.69-4.09-1.79-4.09-.75,0-1.21.68-1.21,1.61C921.91,671,922.58,672.19,924.57,672.19Z" transform="translate(-78.97 -86.22)"/></g><g class="cls-4"><path d="M856.64,708.2a3.82,3.82,0,0,0-4-2.88c-2.5,0-4.44,1.92-4.44,5.37s1.78,5.39,4.35,5.39c1.85,0,4.18-.73,4.18-3.75v-.47h-3.51v-1.07h4.61V717h-1l0-1.76a4.67,4.67,0,0,1-4.27,2c-3.59,0-5.56-2.71-5.56-6.5s2.13-6.48,5.7-6.48a4.88,4.88,0,0,1,5.18,4Z" transform="translate(-78.97 -86.22)"/><path d="M864.6,707.51c2.19,0,3.13,1.31,3.13,3.59V717h-1.07v-5.56c0-1.75-.45-2.92-2.33-2.92-1.61,0-2.82,1.35-2.82,3.32V717h-1.07V704.43h1.07v4.8A3.21,3.21,0,0,1,864.6,707.51Z" transform="translate(-78.97 -86.22)"/><path d="M872.39,717.18c-1.73,0-3.07-1-3.07-2.54,0-2.11,2.07-2.88,6.55-3.33V711a2.26,2.26,0,0,0-2.59-2.57,2.33,2.33,0,0,0-2.61,2.09h-1.12a3.55,3.55,0,0,1,3.8-3c2.16,0,3.59.9,3.59,3.66,0,1.28,0,2.12,0,2.87,0,1.05.05,2,.1,3h-1.09l-.05-1.42A3.83,3.83,0,0,1,872.39,717.18Zm3.52-4.47v-.45c-3.78.42-5.41.92-5.41,2.37,0,1,.9,1.61,2.13,1.61C874.36,716.23,875.91,715.35,875.91,712.71Z" transform="translate(-78.97 -86.22)"/><path d="M883.34,707.51c2.19,0,3.13,1.31,3.13,3.59V717H885.4v-5.56c0-1.75-.45-2.92-2.33-2.92-1.61,0-2.82,1.35-2.82,3.32V717h-1.07v-9.29h1.07v1.57A3.21,3.21,0,0,1,883.34,707.51Z" transform="translate(-78.97 -86.22)"/><path d="M891.13,717.18c-1.73,0-3.08-1-3.08-2.54,0-2.11,2.07-2.88,6.55-3.33V711a2.26,2.26,0,0,0-2.59-2.57,2.33,2.33,0,0,0-2.61,2.09h-1.12a3.55,3.55,0,0,1,3.8-3c2.16,0,3.59.9,3.59,3.66,0,1.28,0,2.12,0,2.87,0,1.05.05,2,.1,3h-1.09l-.05-1.42A3.83,3.83,0,0,1,891.13,717.18Zm3.52-4.47v-.45c-3.78.42-5.41.92-5.41,2.37,0,1,.9,1.61,2.12,1.61C893.1,716.23,894.66,715.35,894.66,712.71Z" transform="translate(-78.97 -86.22)"/></g><g class="cls-4"><path d="M934.66,699.65h-.81v-5.2h-3.34v4.88h-.82v-4.88H926v5.2h-.81v-6.07h9.47Z" transform="translate(-78.97 -86.22)"/><path d="M931.41,703.81c0-1.45-1-1.92-2.53-1.92h-3.68v-.8h7v.77h-1.28a2.25,2.25,0,0,1,1.33,2.08,1.54,1.54,0,0,1,0,.24h-.86A3.65,3.65,0,0,0,931.41,703.81Z" transform="translate(-78.97 -86.22)"/><path d="M925.19,706v-.81h7V706Zm8.18,0v-.81h1.29V706Z" transform="translate(-78.97 -86.22)"/><path d="M933.8,709.09h-1.58v1.38h-.71v-1.38H927c-.91,0-1.1,0-1.1,1v.42h-.73v-.67c0-1.25.29-1.54,1.67-1.54h4.65V707.1h.71v1.16h1.58Z" transform="translate(-78.97 -86.22)"/><path d="M931.41,714.52c0-1.45-1-1.92-2.53-1.92h-3.68v-.8h7v.77h-1.28a2.25,2.25,0,0,1,1.33,2.08,1.54,1.54,0,0,1,0,.24h-.86A3.65,3.65,0,0,0,931.41,714.52Z" transform="translate(-78.97 -86.22)"/><path d="M932.34,718.62c0,2-1.67,3.24-3.87,3.13v-5.59a2.5,2.5,0,0,0-2.7,2.53,2.06,2.06,0,0,0,1.53,2.14v.85a2.91,2.91,0,0,1-2.27-3c0-2.06,1.48-3.32,3.66-3.32S932.34,716.74,932.34,718.62Zm-3.12,2.25a2.3,2.3,0,0,0,2.39-2.26,2.37,2.37,0,0,0-2.39-2.42Z" transform="translate(-78.97 -86.22)"/><path d="M925,724.95a2.07,2.07,0,0,1,1.92-2.32c1.59,0,2.18,1.57,2.52,5h.25a1.71,1.71,0,0,0,1.95-2,1.76,1.76,0,0,0-1.58-2v-.85a2.68,2.68,0,0,1,2.3,2.87c0,1.63-.68,2.72-2.77,2.72h-2.17c-.8,0-1.49,0-2.25.08v-.82l1.07,0A2.9,2.9,0,0,1,925,724.95Zm3.38,2.67h.34c-.31-2.86-.69-4.09-1.79-4.09-.75,0-1.21.68-1.21,1.61C925.74,726.44,926.41,727.61,928.41,727.61Z" transform="translate(-78.97 -86.22)"/></g><rect id="path23" class="cls-2" x="547.81" y="42.34" width="114" height="118"/><rect id="path24-4" data-name="path24" class="cls-2" x="663.81" y="42.34" width="149" height="118"/><rect id="path25" class="cls-3" x="814.81" y="42.34" width="22" height="98"/><rect id="path26" class="cls-3" x="838.81" y="42.34" width="80" height="98"/><rect id="path27" class="cls-3" x="814.81" y="142.34" width="104" height="18"/><g class="cls-4"><path d="M654,201c-8.67,0-13.42-6.54-13.42-15.67s4.92-15.63,13.55-15.63c6.84,0,11.26,4.13,12.55,10.25h-2.92a9.52,9.52,0,0,0-9.71-7.59c-6,0-10.5,4.63-10.5,13,0,8,4.29,13,10.5,13,5.79,0,9-3.67,9.84-7.59h2.92C665.52,196.78,661.14,201,654,201Z" transform="translate(-78.97 -86.22)"/><path d="M673.77,174.35h-2.58v-4.13h2.58Zm0,26.1h-2.58V178h2.58Z" transform="translate(-78.97 -86.22)"/><path d="M690.07,177.65c5.29,0,7.54,3.17,7.54,8.67v14.13H695V187c0-4.21-1.08-7-5.63-7-3.88,0-6.79,3.25-6.79,8v12.46H680V178h2.58v3.79C683.69,179.69,685.9,177.65,690.07,177.65Z" transform="translate(-78.97 -86.22)"/><path d="M708.87,201c-4.17,0-7.42-2.42-7.42-6.13,0-5.09,5-7,15.8-8V186c0-5.09-3-6.21-6.25-6.21-3.79,0-6.09,2.13-6.29,5H702c.58-4.42,4.17-7.34,9.17-7.34,5.21,0,8.67,2.17,8.67,8.84,0,3.08,0,5.13,0,6.92,0,2.54.13,4.75.25,7.17h-2.63l-.12-3.42C715.83,199.41,713,201,708.87,201Zm8.5-10.8v-1.08c-9.13,1-13,2.21-13,5.71,0,2.38,2.17,3.88,5.13,3.88C713.62,198.7,717.37,196.57,717.37,190.19Z" transform="translate(-78.97 -86.22)"/></g><g class="cls-4"><path d="M776.31,182.42c0,5.1-3.58,6.15-8.65,6.15h-4.37v8.74h-2V176.19h6.32C772.72,176.19,776.31,177.35,776.31,182.42Zm-13,4.34h4.63c3.47,0,6.35-.41,6.35-4.34s-2.88-4.46-6.35-4.46h-4.63Z" transform="translate(-78.97 -86.22)"/><path d="M782.51,197.69c-2.91,0-5.18-1.69-5.18-4.28,0-3.55,3.5-4.86,11-5.62v-.55c0-3.55-2.1-4.34-4.37-4.34-2.65,0-4.25,1.49-4.4,3.52h-1.89c.41-3.09,2.91-5.13,6.41-5.13s6.06,1.51,6.06,6.17c0,2.16,0,3.58,0,4.84,0,1.78.09,3.32.17,5h-1.83l-.09-2.39C787.38,196.58,785.43,197.69,782.51,197.69Zm5.94-7.54v-.76c-6.38.7-9.12,1.54-9.12,4,0,1.66,1.51,2.71,3.58,2.71C785.83,196.08,788.46,194.6,788.46,190.14Z" transform="translate(-78.97 -86.22)"/><path d="M795.77,189.47l7.17-7.84h2.21l-5.8,6.29,6.32,9.38h-2.1l-5.39-8.1-2.42,2.62v5.48H794V176.19h1.81Z" transform="translate(-78.97 -86.22)"/><path d="M809.7,179.07h-1.81v-2.88h1.81Zm0,18.23h-1.81V181.63h1.81Z" transform="translate(-78.97 -86.22)"/><path d="M819.14,182.95c-1.72,0-4,.67-4,2.56,0,1.54,1.22,2.36,2.94,2.68l2.21.41c2.56.47,5.42,1.34,5.42,4.31s-2.83,4.78-6.23,4.78c-3.23,0-6-1.6-6.5-5.19h1.89c.35,2.48,2.33,3.58,4.75,3.58,1.89,0,4.25-.79,4.25-2.88,0-1.83-1.75-2.48-3.87-2.88l-2.45-.47c-2.27-.44-4.25-1.75-4.25-4.19s2.48-4.31,6-4.31c3.35,0,5.65,2.07,6,4.57h-1.89C823.07,184.05,821.35,182.95,819.14,182.95Z" transform="translate(-78.97 -86.22)"/><path d="M831.81,178.11v3.52h3.09v1.57h-3.09v10c0,2,.06,2.45,2.16,2.45h.93v1.63h-1.49c-2.8,0-3.44-.64-3.44-3.73V183.21h-2.59v-1.57H830v-3.52Z" transform="translate(-78.97 -86.22)"/><path d="M842,197.69c-2.91,0-5.18-1.69-5.18-4.28,0-3.55,3.5-4.86,11-5.62v-.55c0-3.55-2.1-4.34-4.37-4.34-2.65,0-4.25,1.49-4.4,3.52h-1.89c.41-3.09,2.91-5.13,6.41-5.13s6.06,1.51,6.06,6.17c0,2.16,0,3.58,0,4.84,0,1.78.09,3.32.17,5H848l-.09-2.39C846.84,196.58,844.89,197.69,842,197.69Zm5.94-7.54v-.76c-6.38.7-9.12,1.54-9.12,4,0,1.66,1.51,2.71,3.58,2.71C845.3,196.08,847.92,194.6,847.92,190.14Z" transform="translate(-78.97 -86.22)"/><path d="M860.45,181.37c3.7,0,5.27,2.21,5.27,6.06v9.88h-1.81v-9.38c0-2.94-.76-4.92-3.93-4.92-2.71,0-4.75,2.27-4.75,5.59v8.71h-1.81V181.63h1.81v2.65A5.42,5.42,0,0,1,860.45,181.37Z" transform="translate(-78.97 -86.22)"/></g><g class="cls-4"><path d="M912,200.62H897.71V199.3H912Z" transform="translate(-78.97 -86.22)"/><path d="M901.23,191.35c0-2.51,1.5-3.58,4.11-3.58H912V189h-6.37c-2,0-3.34.51-3.34,2.67,0,1.84,1.54,3.22,3.8,3.22H912v1.23H901.41v-1.23h1.8A3.68,3.68,0,0,1,901.23,191.35Z" transform="translate(-78.97 -86.22)"/><path d="M903.25,177.92h-5.54V176.7H912v1.23h-1.74a4,4,0,0,1,2,3.6c0,2.45-2,4.45-5.54,4.45s-5.54-2-5.54-4.45A4,4,0,0,1,903.25,177.92Zm3.52,6.72c2.83,0,4.43-1.4,4.43-3.38,0-1.6-1.29-3.42-4.43-3.42s-4.43,1.82-4.43,3.42C902.34,183.24,903.94,184.65,906.77,184.65Z" transform="translate(-78.97 -86.22)"/><path d="M899.67,172.51v1.23h-2v-1.23Zm12.38,0v1.23H901.41v-1.23Z" transform="translate(-78.97 -86.22)"/><path d="M912.31,166.85c0,2-1.15,3.52-2.91,3.52-2.41,0-3.3-2.37-3.82-7.5h-.37c-2.41,0-2.95,1.42-2.95,3,0,1.8,1,2.89,2.39,3v1.29a4.06,4.06,0,0,1-3.48-4.35c0-2.47,1-4.11,4.19-4.11l3.28,0c1.21,0,2.25-.06,3.4-.12v1.25l-1.62.06A4.39,4.39,0,0,1,912.31,166.85Zm-5.12-4h-.51c.47,4.33,1,6.19,2.71,6.19,1.13,0,1.84-1,1.84-2.43C911.22,164.6,910.21,162.82,907.18,162.82Z" transform="translate(-78.97 -86.22)"/></g><g class="cls-4"><path d="M926.65,171.73c1.66,0,3.1.47,3.1,2.31a2.15,2.15,0,0,1-1.19,2,2.06,2.06,0,0,1,1.57,2.19c0,1.9-1.4,2.64-3.18,2.64h-3.41v-9.16Zm.17,4c1.24,0,2-.42,2-1.67,0-1.1-.78-1.59-2-1.59h-2.48v3.26Zm.18,4.36c1.49,0,2.24-.67,2.24-1.86s-.75-1.77-2.31-1.77h-2.54v3.63Z" transform="translate(-78.97 -86.22)"/><path d="M933.35,181.06a2,2,0,0,1-2.25-1.86c0-1.54,1.52-2.11,4.79-2.44v-.24a1.66,1.66,0,0,0-1.89-1.88,1.7,1.7,0,0,0-1.91,1.53h-.82a2.59,2.59,0,0,1,2.78-2.22c1.58,0,2.63.66,2.63,2.68,0,.93,0,1.55,0,2.1,0,.77,0,1.44.08,2.17h-.8l0-1A2.8,2.8,0,0,1,933.35,181.06Zm2.58-3.27v-.33c-2.77.3-4,.67-4,1.73,0,.72.66,1.18,1.55,1.18A2.25,2.25,0,0,0,935.92,177.78Z" transform="translate(-78.97 -86.22)"/><path d="M941.36,174c1.6,0,2.29,1,2.29,2.63v4.28h-.78v-4.07c0-1.28-.33-2.13-1.71-2.13a2.18,2.18,0,0,0-2.06,2.43v3.78h-.78v-6.8h.78v1.15A2.35,2.35,0,0,1,941.36,174Z" transform="translate(-78.97 -86.22)"/><path d="M947.58,180.78c-1.55,0-2.83-1.28-2.83-3.4s1.28-3.4,2.83-3.4a2.54,2.54,0,0,1,2.3,1.29V174.1h.8v6.56c0,1.82-1.26,2.62-2.88,2.62a2.4,2.4,0,0,1-2.63-2H946c.09.72.68,1.31,1.83,1.31s2.06-.58,2.06-1.84V179.5A2.53,2.53,0,0,1,947.58,180.78Zm-2-3.4c0,1.68.88,2.7,2.15,2.7,1,0,2.2-.82,2.2-2.7s-1.16-2.69-2.2-2.69C946.49,174.69,945.6,175.71,945.6,177.38Z" transform="translate(-78.97 -86.22)"/><path d="M952.58,180.89v-9.16h.78v9.16Z" transform="translate(-78.97 -86.22)"/><path d="M957,181.06a2,2,0,0,1-2.25-1.86c0-1.54,1.52-2.11,4.79-2.44v-.24a1.66,1.66,0,0,0-1.89-1.88,1.7,1.7,0,0,0-1.91,1.53h-.82a2.59,2.59,0,0,1,2.78-2.22c1.58,0,2.63.66,2.63,2.68,0,.93,0,1.55,0,2.1,0,.77,0,1.44.08,2.17h-.8l0-1A2.8,2.8,0,0,1,957,181.06Zm2.58-3.27v-.33c-2.77.3-4,.67-4,1.73,0,.72.66,1.18,1.55,1.18A2.25,2.25,0,0,0,959.55,177.78Z" transform="translate(-78.97 -86.22)"/><path d="M966.53,175.27v-3.54h.78v9.16h-.78v-1.11a2.58,2.58,0,0,1-2.3,1.28c-1.57,0-2.84-1.28-2.84-3.54s1.28-3.54,2.84-3.54A2.57,2.57,0,0,1,966.53,175.27Zm-4.29,2.25c0,1.81.9,2.83,2.16,2.83,1,0,2.19-.82,2.19-2.83s-1.16-2.83-2.19-2.83C963.14,174.69,962.24,175.71,962.24,177.52Z" transform="translate(-78.97 -86.22)"/><path d="M971.87,174c1.92,0,3.13,1.62,3,3.74h-5.41a2.41,2.41,0,0,0,2.45,2.62,2,2,0,0,0,2.07-1.48h.82a2.81,2.81,0,0,1-2.94,2.2c-2,0-3.21-1.43-3.21-3.54S970,174,971.87,174Zm2.17,3a2.23,2.23,0,0,0-2.19-2.31,2.3,2.3,0,0,0-2.34,2.31Z" transform="translate(-78.97 -86.22)"/><path d="M978.49,174.66c-.75,0-1.73.29-1.73,1.11,0,.67.53,1,1.28,1.16l1,.18c1.11.2,2.35.58,2.35,1.87s-1.23,2.07-2.7,2.07a2.57,2.57,0,0,1-2.82-2.25h.82a1.85,1.85,0,0,0,2.06,1.55c.82,0,1.84-.34,1.84-1.25s-.76-1.07-1.68-1.25l-1.06-.2c-1-.19-1.84-.76-1.84-1.82S977,174,978.56,174a2.48,2.48,0,0,1,2.62,2h-.82A1.74,1.74,0,0,0,978.49,174.66Z" transform="translate(-78.97 -86.22)"/><path d="M985.91,174c1.61,0,2.29,1,2.29,2.63v4.28h-.78v-4.07c0-1.28-.33-2.13-1.71-2.13a2.18,2.18,0,0,0-2.06,2.43v3.78h-.78v-9.16h.78v3.51A2.35,2.35,0,0,1,985.91,174Z" transform="translate(-78.97 -86.22)"/></g><g class="cls-4"><path d="M927.9,231.5v.8h-4.83v3.29h4.54v.81h-4.54v4.42h-.86V231.5Z" transform="translate(-78.97 -86.22)"/><path d="M929.66,232.78h-.8V231.5h.8Zm0,8h-.8v-6.91h.8Z" transform="translate(-78.97 -86.22)"/><path d="M931.59,240.82V231.5h.8v9.31Z" transform="translate(-78.97 -86.22)"/><path d="M935.11,232.78h-.8V231.5h.8Zm0,8h-.8v-6.91h.8Z" transform="translate(-78.97 -86.22)"/><path d="M937.83,239.68v3.39H937v-9.16h.8v1.18a2.63,2.63,0,0,1,2.34-1.3c1.59,0,2.89,1.3,2.89,3.6s-1.3,3.6-2.89,3.6A2.61,2.61,0,0,1,937.83,239.68Zm4.37-2.29c0-1.84-.91-2.88-2.2-2.88-1,0-2.22.83-2.22,2.88s1.18,2.88,2.22,2.88C941.29,240.27,942.2,239.23,942.2,237.39Z" transform="translate(-78.97 -86.22)"/><path d="M945.23,239.68v3.39h-.8v-9.16h.8v1.18a2.63,2.63,0,0,1,2.34-1.3c1.59,0,2.89,1.3,2.89,3.6s-1.3,3.6-2.89,3.6A2.61,2.61,0,0,1,945.23,239.68Zm4.37-2.29c0-1.84-.91-2.88-2.2-2.88-1,0-2.22.83-2.22,2.88s1.18,2.88,2.22,2.88C948.69,240.27,949.6,239.23,949.6,237.39Z" transform="translate(-78.97 -86.22)"/><path d="M952.64,232.78h-.8V231.5h.8Zm0,8h-.8v-6.91h.8Z" transform="translate(-78.97 -86.22)"/><path d="M957.66,233.79c1.63,0,2.33,1,2.33,2.67v4.36h-.8v-4.14c0-1.3-.33-2.17-1.73-2.17a2.22,2.22,0,0,0-2.09,2.47v3.84h-.8v-6.91h.8v1.17A2.39,2.39,0,0,1,957.66,233.79Z" transform="translate(-78.97 -86.22)"/><path d="M964.41,233.79c2,0,3.19,1.64,3.08,3.8H962a2.45,2.45,0,0,0,2.49,2.66,2,2,0,0,0,2.11-1.5h.83a2.86,2.86,0,0,1-3,2.24c-2,0-3.26-1.45-3.26-3.6S962.56,233.79,964.41,233.79Zm2.21,3.07a2.27,2.27,0,0,0-2.22-2.35,2.33,2.33,0,0,0-2.38,2.35Z" transform="translate(-78.97 -86.22)"/></g><rect id="path28" class="cls-3" x="89.24" y="7.34" width="13" height="118"/><text class="cls-8" transform="translate(102.24 87.73) rotate(-90)">Cuba</text><g class="cls-4"><path d="M662.15,686.74h-3.6V654.54h3.6V668.7h38.47v3.89H662.15Z" transform="translate(-78.97 -86.22)"/><path d="M701.38,644.15c0,7.14-4.41,10.16-12.07,10.16h-19.9v-3.6h18.92c5.86,0,9.81-1.39,9.81-7.49,0-5-4.53-9.11-11.14-9.11H669.41v-3.6h31.22v3.6h-5C698.54,635.62,701.38,638.75,701.38,644.15Z" transform="translate(-78.97 -86.22)"/><path d="M668.88,607.82c0-7.37,4.41-10.5,12.07-10.5h19.67v3.6H681.94c-5.86,0-9.81,1.51-9.81,7.83,0,5.4,4.53,9.46,11.14,9.46h17.35v3.6H669.41v-3.6h5.28C671.73,616.7,668.88,613.62,668.88,607.82Z" transform="translate(-78.97 -86.22)"/><path d="M664.3,585.94v3.6h-5.75v-3.6Zm36.33,0v3.6H669.41v-3.6Z" transform="translate(-78.97 -86.22)"/><path d="M672,567.14c0,3.42,1.33,8,5.11,8,3.08,0,4.7-2.44,5.34-5.86l.81-4.41c.93-5.11,2.67-10.79,8.59-10.79,6.21,0,9.52,5.63,9.52,12.42,0,6.44-3.19,12-10.33,12.94v-3.77c4.93-.7,7.14-4.64,7.14-9.46,0-3.77-1.57-8.47-5.74-8.47-3.66,0-4.93,3.48-5.75,7.72l-.93,4.87c-.87,4.53-3.48,8.47-8.36,8.47s-8.59-4.93-8.59-12c0-6.67,4.12-11.26,9.11-12v3.77C674.22,559.3,672,562.73,672,567.14Z" transform="translate(-78.97 -86.22)"/><path d="M664.3,543.4V547h-5.75v-3.6Zm36.33,0V547H669.41v-3.6Z" transform="translate(-78.97 -86.22)"/><path d="M701.38,526.8c0,5.8-3.37,10.33-8.53,10.33-7.08,0-9.69-7-11.2-22h-1.1c-7.08,0-8.65,4.18-8.65,8.7,0,5.28,3,8.47,7,8.76v3.77c-6.15-.81-10.21-5.8-10.21-12.77,0-7.25,3-12.07,12.3-12.07,4.29,0,7.14.06,9.63.06,3.54,0,6.62-.17,10-.35v3.66l-4.76.17C699.18,517.11,701.38,521,701.38,526.8Zm-15-11.84h-1.51c1.39,12.71,3.08,18.16,8,18.16,3.31,0,5.4-3,5.4-7.14C698.19,520.19,695.23,515,686.35,515Z" transform="translate(-78.97 -86.22)"/></g></svg>