<svg id="Livello_1" data-name="Livello 1" xmlns="http://www.w3.org/2000/svg" viewBox="0 0 871.53 883.43"><defs><style>.cls-1{fill:#e00;}.cls-2{fill:#e75151;}.cls-3{fill:#ffb6b6;}.cls-4{fill:none;}.cls-5{isolation:isolate;}.cls-6{fill:#ff7f0e;}.cls-7{fill:#fff;}.cls-8{fill:#d62728;}.cls-9{fill:#2ca02c;}</style></defs><title>treemap lazio</title><rect id="path24" class="cls-1" x="217.52" y="815.81" width="137.08" height="34.07"/><rect id="path24-2" data-name="path24" class="cls-2" x="358.53" y="815.81" width="137.08" height="34.07"/><rect id="path24-3" data-name="path24" class="cls-3" x="499.24" y="815.81" width="137.08" height="34.07"/><rect id="path6" class="cls-2" x="828.91" y="558.01" width="137" height="198" transform="translate(-99.86 -87.45) rotate(-0.21)"/><rect id="path7" class="cls-3" x="828.47" y="518.01" width="137" height="38" transform="translate(-99.42 -87.46) rotate(-0.21)"/><rect id="path8" class="cls-3" x="828.33" y="482.01" width="137" height="34" transform="translate(-99.28 -87.46) rotate(-0.21)"/><rect id="path9" class="cls-3" x="713.18" y="706.48" width="114" height="50" transform="translate(-100.14 -87.92) rotate(-0.21)"/><rect id="path10" class="cls-2" x="712.77" y="534.48" width="114" height="170" transform="translate(-99.72 -87.93) rotate(-0.21)"/><rect id="path11" class="cls-3" x="712.36" y="482.48" width="114" height="50" transform="translate(-99.31 -87.93) rotate(-0.21)"/><rect class="cls-4" x="829.91" y="559" width="137" height="198" transform="translate(-99.87 -87.45) rotate(-0.21)"/><g class="cls-5"><path d="M908.84,591.9,878.9,592v-3.07l33.24-.12,0,4.45-29.92,18.31,30-.11v3.07l-33.24.12,0-4.45Z" transform="translate(-97.45 -90.77)"/><path d="M879,624.88V622l24.67-.09v2.84Zm28.7-.11v-2.84l4.54,0v2.84Z" transform="translate(-97.45 -90.77)"/><path d="M879.49,639.91c0-5.64,4.59-10.29,12.3-10.32s12.35,4.59,12.37,10.23a9.23,9.23,0,0,1-4.65,8.36l4.26,0v2.89l-23.8.09c-6.6,0-9.51-4.55-9.53-10.42,0-5.09,2.76-9.09,7.21-9.56v3c-2.61.33-4.76,2.49-4.74,6.67,0,4.63,2.14,7.47,6.72,7.45l4.49,0A9.19,9.19,0,0,1,879.49,639.91Zm12.31-7.24c-6.1,0-9.8,3.25-9.78,7.83,0,3.76,3,8,9.84,7.94s9.75-4.25,9.74-8C901.57,635.84,897.85,632.65,891.79,632.67Z" transform="translate(-97.45 -90.77)"/><path d="M904.26,667.56c0,7-5.83,11.39-13.53,11.05L890.65,659c-6,.11-9.48,3.89-9.46,8.93,0,3.85,2,6.55,5.39,7.5v3c-5.09-1.17-8-5.24-8-10.65,0-7.24,5.14-11.67,12.79-11.69C899.35,656,904.23,661,904.26,667.56Zm-10.93,7.93c4.17,0,8.38-3,8.36-8,0-4.58-3-7.88-8.42-8.45Z" transform="translate(-97.45 -90.77)"/><path d="M901.09,693.06c0-5.09-3.69-6.73-8.92-6.71l-12.93,0v-2.8l24.67-.09v2.71l-4.49,0a7.91,7.91,0,0,1,4.71,7.27,5.24,5.24,0,0,1,0,.83h-3A12.38,12.38,0,0,0,901.09,693.06Z" transform="translate(-97.45 -90.77)"/><path d="M879.3,700.75v-2.84l24.67-.09v2.84Zm28.7-.11v-2.84l4.54,0v2.84Z" transform="translate(-97.45 -90.77)"/><path d="M878.75,713.87c0-4.58,2.63-8.17,6.71-8.19,5.59,0,7.68,5.47,8.91,17.35h.87c5.59,0,6.82-3.33,6.81-6.9,0-4.17-2.36-6.69-5.57-6.9v-3c4.86.62,8.09,4.56,8.11,10.06,0,5.73-2.35,9.55-9.69,9.57-3.39,0-5.64,0-7.61,0-2.8,0-5.23.16-7.89.3v-2.89l3.76-.15C880.52,721.52,878.77,718.45,878.75,713.87Zm11.91,9.31h1.19c-1.14-10-2.48-14.34-6.33-14.33-2.61,0-4.26,2.4-4.24,5.66C881.29,719.09,883.64,723.2,890.66,723.18Z" transform="translate(-97.45 -90.77)"/></g><rect class="cls-4" x="829.47" y="519.01" width="137" height="38" transform="translate(-99.42 -87.45) rotate(-0.21)"/><g class="cls-5"><path d="M876,534.39a4.55,4.55,0,0,0-4.79-3.43c-3,0-5.29,2.31-5.27,6.43s2.15,6.42,5.22,6.41c2.21,0,5-.88,5-4.49v-.56h-4.18V537.5l5.5,0,0,7.36h-1.22l0-2.1c-.9,1.43-2.51,2.38-5.08,2.39-4.29,0-6.65-3.21-6.67-7.73s2.51-7.74,6.77-7.76c3.17,0,5.53,1.63,6.2,4.74Z" transform="translate(-97.45 -90.77)"/><path d="M883.36,545.08c-2.06,0-3.67-1.18-3.68-3,0-2.51,2.46-3.45,7.8-4v-.39c0-2.51-1.5-3.07-3.1-3.06-1.88,0-3,1.06-3.1,2.51h-1.34a4.23,4.23,0,0,1,4.52-3.65c2.58,0,4.29,1.06,4.3,4.35,0,1.53,0,2.54,0,3.42,0,1.26.07,2.35.14,3.55h-1.3l-.07-1.69A4.57,4.57,0,0,1,883.36,545.08Zm4.19-5.35v-.54c-4.51.51-6.45,1.12-6.44,2.85,0,1.17,1.08,1.91,2.54,1.91C885.71,543.94,887.56,542.88,887.55,539.73Z" transform="translate(-97.45 -90.77)"/><path d="M891.46,544.78l0-11.09h1.28v1.88a3.61,3.61,0,0,1,3.48-2.07,3,3,0,0,1,3.26,2.19,4.05,4.05,0,0,1,3.74-2.22c2.52,0,3.53,1.55,3.54,4.28l0,7h-1.28l0-6.64c0-2.08-.45-3.48-2.59-3.47-1.81,0-3.15,1.62-3.14,4l0,6.16h-1.28l0-6.64c0-2.08-.45-3.48-2.59-3.47-1.81,0-3.15,1.62-3.14,4l0,6.16Z" transform="translate(-97.45 -90.77)"/><path d="M910.79,542.9v1.81h-1.28l-.05-14.94h1.28l0,5.77a4.19,4.19,0,0,1,3.75-2.12c2.56,0,4.65,2.09,4.66,5.76s-2.06,5.78-4.62,5.79A4.22,4.22,0,0,1,910.79,542.9Zm7-3.71c0-2.95-1.48-4.61-3.54-4.61-1.67,0-3.56,1.35-3.55,4.63s1.91,4.61,3.58,4.6C916.34,543.81,917.8,542.13,917.79,539.18Z" transform="translate(-97.45 -90.77)"/><path d="M922.63,531.76h-1.28v-2h1.28Zm0,12.9H921.4l0-11.09h1.28Z" transform="translate(-97.45 -90.77)"/><path d="M928.57,544.91c-2.06,0-3.67-1.18-3.68-3,0-2.51,2.46-3.45,7.8-4v-.39c0-2.51-1.5-3.07-3.1-3.06-1.88,0-3,1.06-3.1,2.51h-1.34a4.23,4.23,0,0,1,4.52-3.65c2.58,0,4.29,1.06,4.3,4.35,0,1.53,0,2.54,0,3.42,0,1.26.07,2.35.14,3.54h-1.3l-.07-1.69A4.58,4.58,0,0,1,928.57,544.91Zm4.19-5.35V539c-4.51.51-6.45,1.12-6.44,2.85,0,1.17,1.08,1.91,2.54,1.91C930.92,543.77,932.77,542.71,932.76,539.56Z" transform="translate(-97.45 -90.77)"/></g><rect class="cls-4" x="829.33" y="483.01" width="137" height="34" transform="translate(-99.28 -87.45) rotate(-0.21)"/><g class="cls-5"><path d="M849.69,502.74c-3.57,0-5.54-2.67-5.55-6.43s2-6.44,5.55-6.46a5,5,0,0,1,5.18,4.2h-1.2a3.92,3.92,0,0,0-4-3.11c-2.46,0-4.32,1.92-4.31,5.35s1.79,5.35,4.35,5.34a3.91,3.91,0,0,0,4-3.14h1.2A5.06,5.06,0,0,1,849.69,502.74Z" transform="translate(-97.45 -90.77)"/><path d="M864.38,497.88c0,3.36-2,4.81-4.17,4.82s-4.18-1.43-4.19-4.79,1.94-4.81,4.15-4.82S864.36,494.51,864.38,497.88Zm-1.13,0c0-2.64-1.3-3.82-3.07-3.82s-3,1.2-3,3.84,1.28,3.82,3.05,3.82S863.25,500.52,863.24,497.88Z" transform="translate(-97.45 -90.77)"/><path d="M869.2,494c-1,0-2.35.4-2.35,1.52,0,.91.73,1.39,1.74,1.57l1.31.24c1.51.27,3.2.78,3.2,2.53s-1.66,2.82-3.66,2.83-3.56-.93-3.84-3h1.12a2.51,2.51,0,0,0,2.81,2.1c1.12,0,2.5-.47,2.5-1.71,0-1.08-1-1.46-2.29-1.69l-1.44-.27c-1.34-.25-2.51-1-2.51-2.46s1.45-2.55,3.53-2.55a3.37,3.37,0,0,1,3.56,2.68h-1.12A2.37,2.37,0,0,0,869.2,494Z" transform="translate(-97.45 -90.77)"/><path d="M876.65,491.1v2.08h1.82v.93h-1.82l0,5.91c0,1.2,0,1.44,1.28,1.44h.55v1h-.88c-1.65,0-2-.37-2-2.19l0-6.11h-1.53v-.93h1.53v-2.08Z" transform="translate(-97.45 -90.77)"/><path d="M882.69,502.62c-1.72,0-3.06-1-3.06-2.51,0-2.09,2-2.87,6.49-3.34v-.33a2.25,2.25,0,0,0-2.58-2.55,2.31,2.31,0,0,0-2.58,2.09h-1.12a3.52,3.52,0,0,1,3.76-3c2.15,0,3.57.88,3.58,3.63,0,1.27,0,2.11,0,2.85,0,1,.06,2,.11,3H886.2l-.06-1.41A3.81,3.81,0,0,1,882.69,502.62Zm3.49-4.46v-.45c-3.76.43-5.37.93-5.36,2.37,0,1,.9,1.59,2.12,1.59C884.64,501.66,886.18,500.78,886.17,498.16Z" transform="translate(-97.45 -90.77)"/><path d="M903.43,496.08c0,4.79-2.76,6.24-6.72,6.26h-3l0-12.44h3C900.63,489.88,903.41,491.31,903.43,496.08Zm-8.64-5.14,0,10.35h1.84c2.83,0,5.56-.6,5.54-5.21s-2.75-5.16-5.58-5.15Z" transform="translate(-97.45 -90.77)"/><path d="M905.72,494h-.55l-.36-4.12H906Z" transform="translate(-97.45 -90.77)"/><path d="M910.44,502.51c-1.72,0-3.06-1-3.06-2.51,0-2.09,2-2.87,6.49-3.34v-.33a2.25,2.25,0,0,0-2.58-2.55,2.31,2.31,0,0,0-2.58,2.09h-1.12a3.52,3.52,0,0,1,3.77-3c2.15,0,3.57.88,3.58,3.63,0,1.27,0,2.11,0,2.85,0,1,.06,2,.11,3H914l-.06-1.41A3.81,3.81,0,0,1,910.44,502.51Zm3.49-4.46v-.45c-3.76.43-5.37.93-5.36,2.37,0,1,.9,1.59,2.12,1.59C912.39,501.56,913.93,500.68,913.92,498.05Z" transform="translate(-97.45 -90.77)"/><path d="M922.66,493h1.15l-3.4,9.25h-1L915.81,493H917l2.9,7.75Z" transform="translate(-97.45 -90.77)"/><path d="M932.75,497.62c0,3.36-2,4.81-4.17,4.82s-4.18-1.43-4.19-4.79,1.94-4.81,4.15-4.82S932.74,494.26,932.75,497.62Zm-1.13,0c0-2.64-1.3-3.82-3.07-3.82s-3,1.2-3,3.84,1.29,3.82,3.05,3.82S931.62,500.27,931.61,497.63Z" transform="translate(-97.45 -90.77)"/><path d="M938.16,494c-1.91,0-2.52,1.38-2.51,3.34l0,4.84h-1l0-9.24h1v1.68a3,3,0,0,1,2.72-1.76,2,2,0,0,1,.31,0V494A4.8,4.8,0,0,0,938.16,494Z" transform="translate(-97.45 -90.77)"/><path d="M941,491.43h-1.06v-1.7H941Zm0,10.75H940l0-9.24H941Z" transform="translate(-97.45 -90.77)"/><path d="M951.23,497.56c0,3.36-2,4.81-4.17,4.82s-4.18-1.43-4.19-4.79,1.94-4.81,4.15-4.82S951.22,494.19,951.23,497.56Zm-1.13,0c0-2.64-1.3-3.82-3.07-3.82s-3,1.2-3,3.84,1.29,3.82,3.05,3.82S950.11,500.2,950.1,497.56Z" transform="translate(-97.45 -90.77)"/></g><rect class="cls-4" x="714.19" y="707.47" width="114" height="50" transform="translate(-100.14 -87.92) rotate(-0.21)"/><g class="cls-5"><path d="M758.06,737.32v1.61l-11.73,0-.07-18.86H748l.06,17.25Z" transform="translate(-97.45 -90.77)"/><path d="M761.57,722.64H760v-2.58h1.61Zm.06,16.29H760l-.05-14h1.61Z" transform="translate(-97.45 -90.77)"/><path d="M767.14,736.61v2.29h-1.61L765.46,720h1.61l0,7.28a5.29,5.29,0,0,1,4.72-2.67c3.23,0,5.86,2.63,5.88,7.26s-2.6,7.29-5.83,7.31A5.32,5.32,0,0,1,767.14,736.61Zm8.83-4.69c0-3.72-1.87-5.82-4.47-5.81-2.11,0-4.49,1.71-4.48,5.84s2.42,5.82,4.52,5.81C774.14,737.75,776,735.64,776,731.92Z" transform="translate(-97.45 -90.77)"/><path d="M782.07,722.56h-1.61V720h1.61Zm.06,16.29h-1.61l-.05-14h1.61Z" transform="translate(-97.45 -90.77)"/><path d="M789.57,739.16c-2.6,0-4.64-1.49-4.64-3.81,0-3.17,3.11-4.36,9.84-5.06v-.5c0-3.17-1.89-3.87-3.92-3.86-2.37,0-3.79,1.34-3.92,3.16h-1.69c.35-2.76,2.58-4.59,5.71-4.6s5.42,1.33,5.43,5.49c0,1.93,0,3.2,0,4.32,0,1.59.09,3,.17,4.47h-1.64l-.09-2.13C793.91,738.15,792.17,739.15,789.57,739.16Zm5.28-6.76v-.68c-5.7.65-8.14,1.41-8.13,3.59,0,1.48,1.36,2.41,3.21,2.41C792.53,737.71,794.87,736.38,794.86,732.4Z" transform="translate(-97.45 -90.77)"/></g><rect class="cls-4" x="713.77" y="535.47" width="114" height="170" transform="translate(-99.73 -87.92) rotate(-0.21)"/><g class="cls-5"><path d="M760.14,679.77l21.55-.08v2.19l-23.64.09v-3.52l21.13-7.9L758,662.82v-3.49l23.64-.09v2.18l-21.55.08,21.58,7.94v2.22Z" transform="translate(-97.45 -90.77)"/><path d="M782,649.55c0,3.26-1.87,5.81-4.77,5.82-4,0-5.46-3.89-6.34-12.33h-.62c-4,0-4.85,2.37-4.84,4.91,0,3,1.68,4.75,4,4.91V655c-3.46-.44-5.75-3.24-5.77-7.15,0-4.08,1.67-6.79,6.89-6.81,2.41,0,4,0,5.41,0,2,0,3.72-.11,5.61-.22v2.05l-2.67.11C780.75,644.12,782,646.29,782,649.55Zm-8.47-6.62h-.85c.81,7.14,1.77,10.2,4.5,10.19,1.86,0,3-1.71,3-4C780.2,645.84,778.53,642.92,773.54,642.93Z" transform="translate(-97.45 -90.77)"/><path d="M766,630c0,3.62,2.63,4.78,6.34,4.77l9.2,0v2L764,636.8v-1.92h3.2a5.62,5.62,0,0,1-3.35-5.17,3.8,3.8,0,0,1,0-.59H766A8.94,8.94,0,0,0,766,630Z" transform="translate(-97.45 -90.77)"/><path d="M772.74,612.08c6.39,0,9.14,3.72,9.16,7.92s-2.71,7.93-9.1,8-9.14-3.68-9.16-7.89S766.35,612.11,772.74,612.08Zm0,2.15c-5,0-7.26,2.47-7.25,5.83s2.27,5.76,7.29,5.75,7.26-2.44,7.25-5.8S777.77,614.22,772.75,614.24Z" transform="translate(-97.45 -90.77)"/><path d="M769.48,596.54a5.18,5.18,0,0,0-4.05,5.3c0,3,2.43,5.7,7.26,5.68,5,0,7.29-2.7,7.28-5.77a5.28,5.28,0,0,0-4.13-5.37v-2.15a7.31,7.31,0,0,1,6,7.51c0,5-3.69,7.91-9.1,7.93s-9.14-2.9-9.16-8a7.12,7.12,0,0,1,5.91-7.23Z" transform="translate(-97.45 -90.77)"/><path d="M769.42,578.89a5.18,5.18,0,0,0-4.05,5.3c0,3,2.43,5.7,7.26,5.68,5,0,7.29-2.7,7.28-5.77a5.28,5.28,0,0,0-4.13-5.37v-2.15a7.31,7.31,0,0,1,6,7.51c0,5-3.69,7.91-9.1,7.92s-9.14-2.9-9.16-8a7.12,7.12,0,0,1,5.91-7.23Z" transform="translate(-97.45 -90.77)"/><path d="M772.54,558.5c6.39,0,9.14,3.72,9.16,7.92s-2.71,7.93-9.1,8-9.14-3.68-9.16-7.89S766.15,558.52,772.54,558.5Zm0,2.15c-5,0-7.26,2.47-7.25,5.83s2.27,5.76,7.29,5.75,7.26-2.44,7.25-5.8S777.57,560.63,772.55,560.65Z" transform="translate(-97.45 -90.77)"/></g><rect class="cls-4" x="713.36" y="483.47" width="114" height="50" transform="translate(-99.32 -87.92) rotate(-0.21)"/><g class="cls-5"><path d="M743.44,503H742c-.52-1.71-2-2.64-4.22-2.63-1.49,0-3.58.6-3.57,2.54,0,1.49,1.21,2.23,2.86,2.59l1.75.38c2.14.48,5,1.33,5,4.13s-2.57,4.32-5.44,4.33c-3.68,0-5.73-2-6.06-4.68h1.42c.52,2.34,2.17,3.39,4.57,3.38,1.61,0,4.09-.61,4.08-2.8,0-1.81-1.76-2.64-3.84-3.08l-1.85-.4c-1.94-.44-3.87-1.37-3.88-3.79,0-2.73,2.73-3.9,5.11-3.91C740.82,499.09,742.9,500.53,743.44,503Z" transform="translate(-97.45 -90.77)"/><path d="M755.27,508.63c0,4-2.32,5.71-4.95,5.72s-5-1.69-5-5.68,2.3-5.71,4.92-5.72S755.26,504.64,755.27,508.63Zm-1.34,0c0-3.13-1.54-4.53-3.64-4.53s-3.6,1.42-3.59,4.55,1.52,4.53,3.62,4.53S753.94,511.76,753.93,508.63Z" transform="translate(-97.45 -90.77)"/><path d="M757.49,514.05l0-11h1.26v1.85a3.57,3.57,0,0,1,3.43-2,3,3,0,0,1,3.22,2.17,4,4,0,0,1,3.7-2.19c2.48,0,3.49,1.54,3.5,4.22l0,6.9h-1.26l0-6.55c0-2.06-.44-3.44-2.56-3.43-1.79,0-3.11,1.6-3.1,3.92l0,6.09h-1.26l0-6.55c0-2.06-.44-3.44-2.56-3.43-1.79,0-3.11,1.6-3.1,3.92l0,6.09Z" transform="translate(-97.45 -90.77)"/><path d="M778.09,514.24c-2,0-3.63-1.17-3.63-3,0-2.48,2.43-3.41,7.7-4v-.39c0-2.48-1.48-3-3.06-3-1.85,0-3,1-3.07,2.47h-1.32a4.18,4.18,0,0,1,4.46-3.6c2.54,0,4.24,1,4.25,4.3,0,1.51,0,2.5,0,3.38,0,1.24.07,2.32.14,3.5h-1.28l-.07-1.67A4.52,4.52,0,0,1,778.09,514.24Zm4.13-5.29v-.53c-4.46.51-6.37,1.1-6.36,2.81,0,1.16,1.07,1.89,2.51,1.88C780.41,513.11,782.24,512.07,782.23,509Z" transform="translate(-97.45 -90.77)"/><path d="M786.1,513.95,786,499.19h1.26l.05,14.76Z" transform="translate(-97.45 -90.77)"/><path d="M791.63,501.18h-1.26v-2h1.26Zm0,12.74h-1.26l0-11h1.26Z" transform="translate(-97.45 -90.77)"/><path d="M797.5,514.17c-2,0-3.63-1.17-3.63-3,0-2.48,2.43-3.41,7.7-4v-.39c0-2.48-1.48-3-3.06-3-1.85,0-3,1-3.06,2.47h-1.32a4.18,4.18,0,0,1,4.46-3.6c2.54,0,4.24,1,4.25,4.3,0,1.51,0,2.5,0,3.38,0,1.24.07,2.32.13,3.5h-1.28l-.07-1.67A4.52,4.52,0,0,1,797.5,514.17Zm4.13-5.29v-.53c-4.46.51-6.37,1.1-6.36,2.81,0,1.16,1.07,1.89,2.51,1.88C799.81,513,801.64,512,801.63,508.88Z" transform="translate(-97.45 -90.77)"/></g><rect id="path17" class="cls-3" x="471.46" y="483.51" width="38" height="103" transform="translate(-99.41 -88.95) rotate(-0.21)"/><rect class="cls-4" x="472.46" y="484.5" width="38" height="103" transform="translate(-99.42 -88.95) rotate(-0.21)"/><rect id="path12" class="cls-2" x="619.96" y="587.86" width="91" height="169" transform="translate(-99.92 -88.31) rotate(-0.21)"/><rect id="path13" class="cls-3" x="572.96" y="588.12" width="45" height="169" transform="translate(-99.92 -88.57) rotate(-0.21)"/><rect id="path14" class="cls-2" x="471.96" y="588.39" width="99" height="169" transform="translate(-99.92 -88.84) rotate(-0.21)"/><rect id="path15" class="cls-2" x="567.46" y="482.96" width="143" height="103" transform="translate(-99.41 -88.41) rotate(-0.21)"/><rect id="path16" class="cls-3" x="511.46" y="483.33" width="54" height="103" transform="translate(-99.41 -88.78) rotate(-0.21)"/><rect class="cls-4" x="620.97" y="588.86" width="91" height="169" transform="translate(-99.92 -88.31) rotate(-0.21)"/><g class="cls-5"><path d="M679.5,640.35H677L677,624.62l-10.12,0,.05,14.79h-2.49l-.05-14.79-11.15,0,.06,15.74h-2.45l-.07-18.39,28.67-.11Z" transform="translate(-97.45 -90.77)"/><path d="M651.22,651.84c0-4.87,4-8.87,10.61-8.9s10.65,4,10.67,8.82a8,8,0,0,1-4,7.21h3.68v2.49l-20.53.08c-5.7,0-8.2-3.92-8.22-9,0-4.39,2.38-7.84,6.22-8.25v2.57c-2.25.29-4.11,2.15-4.09,5.75,0,4,1.84,6.44,5.8,6.43h3.88A7.92,7.92,0,0,1,651.22,651.84Zm10.62-6.25c-5.26,0-8.45,2.8-8.44,6.75,0,3.24,2.6,6.87,8.49,6.85s8.41-3.67,8.4-6.91C670.27,648.33,667.06,645.58,661.84,645.59Z" transform="translate(-97.45 -90.77)"/><path d="M650.93,669.92v-2.45l21.28-.08v2.45Zm24.76-.09v-2.45h3.92v2.45Z" transform="translate(-97.45 -90.77)"/><path d="M677,679.24l-4.79,0,0,4.19h-2.14l0-4.19-13.6,0c-2.77,0-3.32.09-3.31,2.94v1.27H651v-2c0-3.8.85-4.67,5-4.69l14.08-.05v-3.52h2.14v3.52l4.79,0Z" transform="translate(-97.45 -90.77)"/><path d="M677.07,691.14l-4.79,0,0,4.19h-2.14l0-4.19-13.6.05c-2.77,0-3.32.09-3.31,2.94v1.27H651v-2c0-3.8.85-4.67,5-4.69l14.08-.05v-3.52h2.14v3.52l4.79,0Z" transform="translate(-97.45 -90.77)"/><path d="M661.67,717.22c-7.75,0-11.09-4.51-11.11-9.61s3.29-9.62,11-9.65,11.09,4.47,11.11,9.57S669.42,717.2,661.67,717.22Zm0-2.61c6.09,0,8.81-3,8.79-7.07s-2.76-7-8.84-7-8.81,3-8.79,7S655.56,714.64,661.66,714.61Z" transform="translate(-97.45 -90.77)"/></g><rect class="cls-4" x="573.97" y="589.12" width="45" height="169" transform="translate(-99.92 -88.56) rotate(-0.21)"/><g class="cls-5"><path d="M591.65,703v1.58c-1.9.57-2.93,2.2-2.92,4.69,0,1.65.67,4,2.82,4,1.65,0,2.48-1.34,2.88-3.18l.42-1.94c.53-2.37,1.47-5.52,4.59-5.53s4.8,2.85,4.81,6c0,4.09-2.26,6.36-5.2,6.73v-1.58c2.6-.57,3.77-2.41,3.76-5.08,0-1.79-.67-4.54-3.11-4.53-2,0-2.93,2-3.42,4.26l-.44,2.06c-.49,2.15-1.52,4.3-4.21,4.31-3,0-4.33-3-4.34-5.68C587.27,705.9,588.87,703.59,591.65,703Z" transform="translate(-97.45 -90.77)"/><path d="M591.55,695.2c0-3.43,2.87-5.62,6.67-5.45l0,9.67c2.94-.06,4.67-1.92,4.66-4.4a3.56,3.56,0,0,0-2.66-3.7v-1.47a5,5,0,0,1,4,5.25c0,3.57-2.53,5.75-6.31,5.76C594,700.89,591.56,698.45,591.55,695.2Zm5.39-3.91a4,4,0,0,0-4.12,3.92c0,2.26,1.46,3.88,4.15,4.17Z" transform="translate(-97.45 -90.77)"/><path d="M591.5,681.89c0-2.87,1.7-4.1,4.68-4.11l7.66,0v1.4l-7.28,0c-2.28,0-3.82.6-3.81,3.06,0,2.1,1.78,3.68,4.35,3.67l6.76,0v1.4l-12.16,0v-1.4h2.06A4.2,4.2,0,0,1,591.5,681.89Z" transform="translate(-97.45 -90.77)"/><path d="M591.46,670c0-3.44,2.87-5.62,6.67-5.45l0,9.67c2.94-.06,4.67-1.92,4.66-4.4a3.56,3.56,0,0,0-2.66-3.7v-1.47a5,5,0,0,1,4,5.25c0,3.57-2.53,5.75-6.31,5.76C593.87,675.71,591.47,673.28,591.46,670Zm5.39-3.91a4,4,0,0,0-4.12,3.92c0,2.26,1.46,3.88,4.15,4.17Z" transform="translate(-97.45 -90.77)"/><path d="M603.57,658c0,2.78-2.26,5.07-6.06,5.08s-6.09-2.26-6.1-5a4.54,4.54,0,0,1,2.29-4.12h-2.1v-1.42l11.73,0c3.25,0,4.69,2.24,4.7,5.13,0,2.51-1.36,4.48-3.55,4.71v-1.47c1.29-.16,2.35-1.23,2.34-3.29,0-2.28-1.05-3.68-3.31-3.67h-2.21A4.53,4.53,0,0,1,603.57,658Zm-6.07,3.57c3,0,4.83-1.6,4.82-3.86,0-1.85-1.48-3.93-4.85-3.91s-4.81,2.1-4.8,4C592.68,660,594.52,661.57,597.5,661.56Z" transform="translate(-97.45 -90.77)"/><path d="M604,646c0,2.26-1.3,4-3.31,4-2.76,0-3.78-2.7-4.39-8.55h-.43c-2.76,0-3.36,1.64-3.35,3.4,0,2.06,1.17,3.29,2.75,3.4v1.47c-2.4-.31-4-2.25-4-5s1.16-4.71,4.77-4.72c1.67,0,2.78,0,3.75,0,1.38,0,2.58-.08,3.89-.15v1.42l-1.85.07A5,5,0,0,1,604,646Zm-5.87-4.59h-.59c.56,4.95,1.22,7.07,3.12,7.06,1.29,0,2.1-1.18,2.09-2.79C602.77,643.41,601.61,641.38,598.15,641.4Z" transform="translate(-97.45 -90.77)"/><path d="M603.7,637.11l-16.38.06v-1.4l16.38-.06Z" transform="translate(-97.45 -90.77)"/></g><rect class="cls-4" x="472.97" y="589.39" width="99" height="169" transform="translate(-99.93 -88.84) rotate(-0.21)"/><g class="cls-5"><path d="M510.4,737h-2.49l-.08-22.29h2.49l0,9.8,26.63-.1v2.69l-26.63.1Z" transform="translate(-97.45 -90.77)"/><path d="M537.44,707.4c0,4.94-3,7-8.33,7.06l-13.77.05V712l13.09,0c4.06,0,6.78-1,6.77-5.21,0-3.45-3.16-6.29-7.73-6.28l-12.17,0V698l21.61-.08v2.49H533.4A7.38,7.38,0,0,1,537.44,707.4Z" transform="translate(-97.45 -90.77)"/><path d="M514.86,682.34c0-5.1,3-7.28,8.33-7.3L536.8,675v2.49l-12.93,0c-4.06,0-6.78,1.07-6.77,5.45,0,3.74,3.16,6.54,7.73,6.52l12,0v2.49l-21.61.08v-2.49h3.65C516.85,688.47,514.88,686.35,514.86,682.34Z" transform="translate(-97.45 -90.77)"/><path d="M511.63,667.2v2.49h-4v-2.49Zm25.14-.09v2.49l-21.61.08v-2.49Z" transform="translate(-97.45 -90.77)"/><path d="M516.93,654.17c0,2.37.94,5.5,3.55,5.49,2.13,0,3.25-1.7,3.68-4.07l.55-3.05c.63-3.54,1.82-7.48,5.92-7.49,4.3,0,6.6,3.87,6.62,8.57,0,4.46-2.18,8.32-7.12,9V660c3.41-.49,4.93-3.23,4.92-6.56,0-2.61-1.11-5.86-4-5.85-2.53,0-3.4,2.42-4,5.36l-.63,3.38c-.59,3.13-2.39,5.87-5.76,5.89s-6-3.39-6-8.25c0-4.62,2.82-7.8,6.27-8.34v2.61C518.43,648.74,516.91,651.12,516.93,654.17Z" transform="translate(-97.45 -90.77)"/><path d="M511.52,637.76v2.49h-4v-2.49Zm25.14-.09v2.49l-21.61.08v-2.49Z" transform="translate(-97.45 -90.77)"/><path d="M537.14,626.18c0,4-2.3,7.16-5.88,7.17-4.9,0-6.72-4.79-7.81-15.19h-.76c-4.9,0-6,2.91-6,6,0,3.65,2.07,5.86,4.88,6v2.61c-4.26-.55-7.08-4-7.1-8.81,0-5,2.06-8.36,8.48-8.38,3,0,4.94,0,6.67,0,2.45,0,4.58-.14,6.91-.27V618l-3.29.13C535.59,619.48,537.13,622.17,537.14,626.18ZM526.71,618h-1c1,8.79,2.17,12.56,5.55,12.55,2.29,0,3.73-2.1,3.72-5C534.92,621.61,532.86,618,526.71,618Z" transform="translate(-97.45 -90.77)"/></g><rect class="cls-4" x="568.46" y="483.96" width="143" height="103" transform="translate(-99.42 -88.4) rotate(-0.21)"/><g class="cls-5"><path d="M670.21,545.14v-2.27l14.55-.05,0-9.36-13.67.05v-2.3l13.67-.05,0-10.31-14.55.05v-2.27l17-.06.1,26.5Z" transform="translate(-97.45 -90.77)"/><path d="M658.55,536.08c4.06,0,5.36-2.94,5.35-7.11l0-10.31h2.23l.07,19.67H664v-3.58a6.3,6.3,0,0,1-5.8,3.75,4.22,4.22,0,0,1-.66,0v-2.41A10,10,0,0,0,658.55,536.08Z" transform="translate(-97.45 -90.77)"/><path d="M652.42,518.7h2.27l.07,19.67h-2.27Zm.08,22.89h2.27v3.62h-2.27Z" transform="translate(-97.45 -90.77)"/><path d="M643.8,542.83l0-4.42h-3.87v-2h3.88l0-12.58c0-2.56-.08-3.07-2.72-3.06h-1.17v-2h1.86c3.51,0,4.32.79,4.33,4.66l0,13h3.25v2h-3.25l0,4.42Z" transform="translate(-97.45 -90.77)"/><path d="M628.57,536.19c4.06,0,5.36-2.94,5.35-7.11l0-10.31h2.23l.07,19.67H634v-3.58a6.3,6.3,0,0,1-5.8,3.75,4.22,4.22,0,0,1-.66,0v-2.41A10,10,0,0,0,628.57,536.19Z" transform="translate(-97.45 -90.77)"/><path d="M617.1,538.83c-5.56,0-9.08-4.65-8.81-10.79l15.65-.06c-.09-4.75-3.1-7.56-7.12-7.54a5.77,5.77,0,0,0-6,4.3h-2.38c.94-4.06,4.18-6.38,8.5-6.39,5.78,0,9.3,4.1,9.32,10.2C626.3,534.92,622.36,538.81,617.1,538.83Zm-6.32-8.71a6.44,6.44,0,0,0,6.35,6.67c3.66,0,6.28-2.36,6.74-6.71Z" transform="translate(-97.45 -90.77)"/><path d="M599.33,518.42c3.66,0,6.51,2.1,6.53,5.35,0,4.46-4.36,6.12-13.83,7.11v.69c0,4.46,2.65,5.44,5.5,5.43,3.33,0,5.33-1.88,5.5-4.44h2.38c-.5,3.88-3.63,6.45-8,6.46-4.57,0-7.61-1.87-7.63-7.72,0-2.7,0-4.5,0-6.07,0-2.23-.12-4.17-.24-6.29h2.3l.12,3C593.22,519.84,595.67,518.44,599.33,518.42Zm-7.42,9.5v1c8-.91,11.44-2,11.42-5.05,0-2.08-1.91-3.39-4.51-3.38C595.17,520.45,591.88,522.33,591.9,527.92Z" transform="translate(-97.45 -90.77)"/></g><rect class="cls-4" x="512.46" y="484.33" width="54" height="103" transform="translate(-99.42 -88.77) rotate(-0.21)"/><g class="cls-5"><path d="M527.47,564.2l17.17-6.61v1.73L540.33,561l0,8.18,4.32,1.6v1.71L527.47,566Zm11.39-2.65-9.42,3.59,9.45,3.47Z" transform="translate(-97.45 -90.77)"/><path d="M544.63,555.81l-17.19.06v-1.47l17.19-.06Z" transform="translate(-97.45 -90.77)"/><path d="M544.38,546.57c0,2.92-2.37,5.32-6.36,5.33s-6.39-2.37-6.4-5.29a4.77,4.77,0,0,1,2.4-4.33h-2.2V540.8l12.31,0c3.41,0,4.92,2.35,4.93,5.39,0,2.63-1.43,4.7-3.73,4.95v-1.54c1.35-.17,2.46-1.29,2.45-3.45,0-2.4-1.1-3.86-3.48-3.85H542A4.75,4.75,0,0,1,544.38,546.57ZM538,550.31c3.15,0,5.07-1.68,5.06-4.05,0-1.94-1.56-4.12-5.09-4.11s-5,2.2-5,4.14C533,548.67,534.88,550.32,538,550.31Z" transform="translate(-97.45 -90.77)"/><path d="M531.57,532.27c0-3.6,3-5.89,7-5.72l0,10.15c3.08-.06,4.9-2,4.89-4.62a3.74,3.74,0,0,0-2.79-3.88v-1.54a5.28,5.28,0,0,1,4.15,5.51c0,3.75-2.66,6-6.62,6C534.1,538.23,531.58,535.68,531.57,532.27Zm5.65-4.1a4.18,4.18,0,0,0-4.32,4.12c0,2.37,1.53,4.07,4.35,4.37Z" transform="translate(-97.45 -90.77)"/><path d="M533.2,519.07c0,2.63,1.91,3.48,4.61,3.47l6.69,0V524l-12.76,0v-1.4h2.32a4.09,4.09,0,0,1-2.43-3.76,2.74,2.74,0,0,1,0-.43h1.56A6.51,6.51,0,0,0,533.2,519.07Z" transform="translate(-97.45 -90.77)"/><path d="M529.63,515.15v1.47h-2.35v-1.47Zm14.84-.05v1.47l-12.76,0v-1.47Z" transform="translate(-97.45 -90.77)"/><path d="M544.76,508.31c0,2.37-1.36,4.23-3.47,4.23-2.89,0-4-2.83-4.61-9h-.45c-2.89,0-3.53,1.72-3.52,3.57,0,2.16,1.22,3.46,2.88,3.57v1.54c-2.52-.32-4.18-2.36-4.19-5.2s1.21-4.94,5-5c1.75,0,2.92,0,3.94,0,1.45,0,2.7-.08,4.08-.16v1.49l-1.94.08C543.84,504.36,544.75,505.94,544.76,508.31Zm-6.16-4.81H538c.59,5.19,1.28,7.42,3.28,7.41,1.35,0,2.2-1.24,2.19-2.93C543.45,505.61,542.23,503.48,538.6,503.5Z" transform="translate(-97.45 -90.77)"/></g><g class="cls-5"><path d="M483.08,555l15.87-.06v1.61l-17.41.06V554l15.56-5.82-15.61-5.68V540l17.41-.06v1.61l-15.87.06,15.9,5.85V549Z" transform="translate(-97.45 -90.77)"/><path d="M499.18,532.76c0,2.4-1.38,4.28-3.52,4.29-2.93,0-4-2.87-4.67-9.09h-.46c-2.93,0-3.57,1.74-3.57,3.62,0,2.19,1.24,3.5,2.92,3.62v1.56c-2.55-.33-4.24-2.38-4.25-5.27s1.23-5,5.07-5c1.78,0,3,0,4,0,1.46,0,2.74-.08,4.13-.16v1.51l-2,.08C498.25,528.75,499.17,530.36,499.18,532.76Zm-6.24-4.88h-.62c.6,5.26,1.3,7.51,3.32,7.51,1.37,0,2.23-1.26,2.22-3C497.85,530,496.62,527.87,492.94,527.88Z" transform="translate(-97.45 -90.77)"/><path d="M498.83,523.32l-17.41.06V521.9l17.41-.06Z" transform="translate(-97.45 -90.77)"/><path d="M483.78,516.8v1.49H481.4v-1.49Zm15-.06v1.49l-12.92,0v-1.49Z" transform="translate(-97.45 -90.77)"/></g><rect id="path18" class="cls-6" x="156.27" y="501.41" width="232" height="40" transform="translate(-99.37 -89.76) rotate(-0.21)"/><rect class="cls-2" x="156.27" y="501.41" width="232" height="40" transform="translate(-99.37 -89.76) rotate(-0.21)"/><rect id="path19" class="cls-1" x="156.75" y="543.41" width="232" height="216" transform="translate(-99.85 -89.76) rotate(-0.21)"/><rect id="path20" class="cls-2" x="390.67" y="500.9" width="43" height="258" transform="translate(-99.76 -89.24) rotate(-0.21)"/><g class="cls-5"><path d="M231.11,529.39c-4.74,0-7.34-3.55-7.36-8.53s2.66-8.55,7.37-8.56a6.64,6.64,0,0,1,6.87,5.57h-1.59a5.2,5.2,0,0,0-5.32-4.12c-3.26,0-5.73,2.55-5.71,7.1,0,4.39,2.37,7.09,5.76,7.08a5.18,5.18,0,0,0,5.36-4.16h1.59A6.7,6.7,0,0,1,231.11,529.39Z" transform="translate(-97.45 -90.77)"/><path d="M250.6,522.94c0,4.46-2.59,6.38-5.53,6.39s-5.54-1.89-5.56-6.35,2.57-6.38,5.51-6.39S250.58,518.48,250.6,522.94Zm-1.5,0c0-3.51-1.73-5.07-4.07-5.06s-4,1.58-4,5.09,1.7,5.07,4,5.06S249.11,526.45,249.09,522.94Z" transform="translate(-97.45 -90.77)"/><path d="M253.08,529,253,512.5h1.41l.06,16.5Z" transform="translate(-97.45 -90.77)"/><path d="M268,522.87c0,4.46-2.59,6.38-5.53,6.39s-5.54-1.89-5.55-6.35,2.57-6.38,5.51-6.39S268,518.41,268,522.87Zm-1.5,0c0-3.51-1.73-5.07-4.07-5.06s-4,1.59-4,5.09,1.7,5.07,4,5.06S266.52,526.39,266.51,522.88Z" transform="translate(-97.45 -90.77)"/><path d="M270.49,528.94l0-12.25h1.41v2.07a4,4,0,0,1,3.84-2.29,3.36,3.36,0,0,1,3.61,2.42,4.48,4.48,0,0,1,4.13-2.45c2.78,0,3.9,1.71,3.91,4.72l0,7.72H286l0-7.33c0-2.3-.49-3.84-2.86-3.84-2,0-3.48,1.79-3.47,4.38l0,6.81h-1.41l0-7.33c0-2.3-.49-3.84-2.86-3.84-2,0-3.48,1.79-3.47,4.38l0,6.81Z" transform="translate(-97.45 -90.77)"/><path d="M291.84,526.86v2h-1.41l-.06-16.5h1.41l0,6.37a4.63,4.63,0,0,1,4.13-2.34c2.82,0,5.13,2.3,5.15,6.36s-2.28,6.38-5.1,6.39A4.66,4.66,0,0,1,291.84,526.86Zm7.73-4.1c0-3.26-1.64-5.09-3.91-5.09-1.84,0-3.93,1.49-3.92,5.11s2.11,5.09,4,5.08C298,527.86,299.57,526,299.56,522.76Z" transform="translate(-97.45 -90.77)"/><path d="M304.9,514.57h-1.41v-2.25h1.41Zm.05,14.25h-1.41l0-12.25h1.41Z" transform="translate(-97.45 -90.77)"/><path d="M311.47,529.09c-2.28,0-4.06-1.31-4.06-3.33,0-2.78,2.72-3.81,8.61-4.43v-.43c0-2.78-1.65-3.39-3.43-3.38-2.07,0-3.32,1.17-3.43,2.77h-1.48c.31-2.41,2.26-4,5-4s4.74,1.17,4.75,4.81c0,1.69,0,2.8,0,3.78,0,1.39.08,2.6.15,3.92h-1.43l-.08-1.87A5.05,5.05,0,0,1,311.47,529.09Zm4.62-5.91v-.59c-5,.56-7.12,1.23-7.11,3.15,0,1.3,1.19,2.11,2.81,2.11C314.06,527.83,316.1,526.66,316.09,523.18Z" transform="translate(-97.45 -90.77)"/></g><g class="cls-5"><path class="cls-7" d="M243.61,629.37c0,12-8.41,14.55-20.38,14.59l-10.32,0,.08,20.63-4.61,0-.18-49.87,14.93-.05C235.09,614.68,243.56,617.4,243.61,629.37ZM212.9,639.73l10.94,0c8.19,0,15-1,15-10.31s-6.85-10.5-15-10.47l-10.94,0Z" transform="translate(-97.45 -90.77)"/><path class="cls-7" d="M264,626.82c10.46,0,17.09,8.74,16.58,20.3l-29.44.11c.17,8.94,5.83,14.22,13.4,14.19,5.78,0,9.83-3,11.25-8.09l4.47,0c-1.76,7.64-7.87,12-16,12-10.87,0-17.5-7.71-17.54-19.2C246.73,634.17,254.13,626.86,264,626.82Zm11.89,16.4c0-6.26-4.52-12.57-11.95-12.54-6.88,0-11.81,4.45-12.68,12.63Z" transform="translate(-97.45 -90.77)"/><path class="cls-7" d="M302.3,631.56c-7.64,0-10.09,5.54-10.06,13.38l.07,19.4-4.2,0-.14-37H292l0,6.74c1.64-4.34,6.44-7,10.91-7.06a7.92,7.92,0,0,1,1.24.06l0,4.54A18.71,18.71,0,0,0,302.3,631.56Z" transform="translate(-97.45 -90.77)"/><path class="cls-7" d="M320.52,665.13c-8.46,0-12.06-5.18-12.09-14.26l-.09-23.59,4.26,0,.08,22.42c0,6.95,1.69,11.62,8.92,11.59,5.92,0,10.78-5.41,10.75-13.25l-.08-20.84,4.26,0,.14,37-4.26,0,0-6C330.62,661.72,326.91,665.11,320.52,665.13Zm-.67-50.76,6.22,8h-3.78l-9-7.95Z" transform="translate(-97.45 -90.77)"/></g><rect class="cls-4" x="389.67" y="499.9" width="43" height="258" transform="translate(-99.76 -89.25) rotate(-0.21)"/><g class="cls-5"><path d="M424.8,597.08c0,4.11-1.13,7.68-5.71,7.7a5.34,5.34,0,0,1-5-2.93c-.77,2.7-2.71,3.9-5.41,3.91-4.7,0-6.56-3.46-6.58-7.87l0-8.46,22.72-.08ZM404,598c0,3.7,1.68,5.54,4.63,5.53s4.38-1.87,4.37-5.75l0-6.3-9,0Zm10.81-.48c0,3.07,1.05,5.07,4.16,5.06,2.73,0,3.94-2,3.93-5l0-6.14-8.09,0Z" transform="translate(-97.45 -90.77)"/><path d="M417.06,616c0-3.48-2.53-4.6-6.1-4.58l-8.84,0v-1.91l16.86-.06v1.85h-3.07a5.4,5.4,0,0,1,3.22,5,3.59,3.59,0,0,1,0,.56H417A8.51,8.51,0,0,0,417.06,616Z" transform="translate(-97.45 -90.77)"/><path d="M401.76,623.4c0-3.13,1.8-5.58,4.59-5.6,3.82,0,5.25,3.74,6.09,11.86H413c3.82,0,4.66-2.27,4.65-4.72,0-2.85-1.62-4.57-3.81-4.72v-2c3.32.43,5.53,3.11,5.54,6.88,0,3.92-1.61,6.52-6.62,6.54-2.32,0-3.86,0-5.2,0-1.91,0-3.57.11-5.39.21v-2l2.57-.1C403,628.63,401.77,626.53,401.76,623.4Zm8.14,6.36h.82c-.78-6.86-1.7-9.8-4.33-9.79-1.79,0-2.91,1.64-2.9,3.87C403.5,627,405.11,629.78,409.9,629.76Z" transform="translate(-97.45 -90.77)"/><path d="M417.69,641.1c0-1.85-.74-4.29-2.77-4.28-1.66,0-2.53,1.33-2.87,3.18l-.43,2.38c-.49,2.76-1.42,5.83-4.62,5.85-3.35,0-5.15-3-5.16-6.69,0-3.48,1.7-6.49,5.55-7v2c-2.66.39-3.84,2.52-3.83,5.12,0,2,.86,4.57,3.12,4.56,2,0,2.66-1.89,3.09-4.18l.49-2.63c.46-2.45,1.86-4.58,4.5-4.59s4.65,2.65,4.66,6.44c0,3.6-2.2,6.09-4.9,6.51v-2C416.51,645.34,417.69,643.49,417.69,641.1Z" transform="translate(-97.45 -90.77)"/><path d="M402.28,654V652l16.86-.06v1.94Zm19.62-.07V652H425v1.94Z" transform="translate(-97.45 -90.77)"/><path d="M402.3,658.68l22.72-.08v1.94l-22.72.08Z" transform="translate(-97.45 -90.77)"/><path d="M419.49,671.84c0,4.76-4,7.79-9.25,7.56l0-13.41c-4.08.08-6.48,2.66-6.47,6.1a4.94,4.94,0,0,0,3.69,5.13v2c-3.48-.8-5.47-3.58-5.48-7.28,0-5,3.51-8,8.75-8C416.14,664,419.47,667.32,419.49,671.84ZM412,677.25a5.52,5.52,0,0,0,5.71-5.44c0-3.13-2-5.38-5.76-5.78Z" transform="translate(-97.45 -90.77)"/></g><rect id="path21" class="cls-2" x="691.23" y="183.87" width="146" height="116" transform="translate(-98.33 -87.95) rotate(-0.21)"/><rect class="cls-4" x="691.23" y="183.87" width="146" height="116" transform="translate(-98.33 -87.95) rotate(-0.21)"/><rect id="path22" class="cls-2" x="691.72" y="301.87" width="146" height="143" transform="translate(-98.82 -87.95) rotate(-0.21)"/><rect class="cls-4" x="691.72" y="301.87" width="146" height="143" transform="translate(-98.82 -87.95) rotate(-0.21)"/><rect id="path23" class="cls-3" x="839.36" y="183.53" width="32" height="182" transform="translate(-98.45 -87.61) rotate(-0.21)"/><rect id="path24-4" data-name="path24" class="cls-2" x="873.36" y="183.29" width="95" height="182" transform="translate(-98.45 -87.37) rotate(-0.21)"/><rect id="path25" class="cls-3" x="839.84" y="367.44" width="80" height="77" transform="translate(-98.94 -87.52) rotate(-0.21)"/><rect id="path26" class="cls-8" x="921.84" y="367.2" width="47" height="77" transform="translate(-98.94 -87.28) rotate(-0.21)"/><rect class="cls-3" x="921.84" y="367.2" width="47" height="77" transform="translate(-98.94 -87.28) rotate(-0.21)"/><g class="cls-5"><path d="M726.21,240.1c0,5.24-3.66,6.33-8.87,6.35l-4.49,0,0,9h-2l-.08-21.71,6.5,0C722.5,233.71,726.19,234.89,726.21,240.1Zm-13.37,4.51,4.76,0c3.56,0,6.53-.44,6.51-4.49s-3-4.57-6.55-4.56l-4.76,0Z" transform="translate(-97.45 -90.77)"/><path d="M732.65,255.78c-3,0-5.34-1.72-5.35-4.38,0-3.65,3.58-5,11.33-5.82V245c0-3.65-2.17-4.46-4.51-4.45-2.73,0-4.37,1.54-4.51,3.64h-1.95c.41-3.17,3-5.28,6.57-5.29,3.74,0,6.24,1.53,6.25,6.33,0,2.22,0,3.68,0,5,0,1.83.1,3.42.2,5.15h-1.89l-.1-2.46C737.64,254.62,735.64,255.76,732.65,255.78Zm6.08-7.78v-.78c-6.56.74-9.37,1.62-9.36,4.14,0,1.71,1.57,2.78,3.69,2.77C736.06,254.12,738.75,252.58,738.73,248Z" transform="translate(-97.45 -90.77)"/><path d="M746.24,247.28l7.34-8.08h2.28l-5.94,6.49,6.54,9.62H754.3L748.73,247l-2.48,2.71,0,5.63h-1.86l-.08-21.71h1.86Z" transform="translate(-97.45 -90.77)"/><path d="M760.52,236.53h-1.86v-3h1.86Zm.07,18.75h-1.86l-.06-16.11h1.86Z" transform="translate(-97.45 -90.77)"/><path d="M770.24,240.48c-1.77,0-4.1.7-4.09,2.65,0,1.59,1.27,2.42,3,2.75l2.28.41c2.64.47,5.58,1.36,5.59,4.41s-2.89,4.92-6.39,4.94c-3.32,0-6.21-1.62-6.7-5.31h1.95c.37,2.54,2.41,3.68,4.9,3.67,1.95,0,4.37-.82,4.36-3,0-1.89-1.81-2.54-4-3l-2.52-.47c-2.34-.44-4.38-1.78-4.39-4.3s2.53-4.44,6.15-4.46c3.44,0,5.82,2.11,6.22,4.68h-1.95C774.29,241.6,772.52,240.47,770.24,240.48Z" transform="translate(-97.45 -90.77)"/><path d="M783.25,235.46v3.63h3.17v1.62h-3.17l0,10.3c0,2.1.07,2.52,2.23,2.51h1v1.68H785c-2.88,0-3.54-.65-3.55-3.82l0-10.66h-2.67V239.1h2.67v-3.62Z" transform="translate(-97.45 -90.77)"/><path d="M793.78,255.55c-3,0-5.34-1.72-5.35-4.38,0-3.65,3.58-5,11.33-5.82v-.57c0-3.65-2.17-4.46-4.51-4.45-2.73,0-4.37,1.54-4.51,3.64h-1.95c.41-3.17,3-5.28,6.57-5.3,3.74,0,6.24,1.54,6.25,6.33,0,2.22,0,3.68,0,5,0,1.83.1,3.42.2,5.15h-1.89l-.1-2.46C798.78,254.39,796.77,255.54,793.78,255.55Zm6.08-7.78V247c-6.56.74-9.37,1.62-9.36,4.14,0,1.71,1.57,2.78,3.69,2.77C797.19,253.89,799.88,252.35,799.86,247.77Z" transform="translate(-97.45 -90.77)"/><path d="M812.7,238.71c3.8,0,5.43,2.26,5.44,6.21l0,10.15h-1.86l0-9.64c0-3-.8-5.06-4.06-5-2.79,0-4.87,2.35-4.86,5.77l0,9h-1.86L805.49,239h1.86v2.73A5.56,5.56,0,0,1,812.7,238.71Z" transform="translate(-97.45 -90.77)"/></g><g class="cls-5"><path d="M712.64,387.74l-.14-38.2H716l.14,38.2Z" transform="translate(-97.45 -90.77)"/><path d="M737.25,358.82c6.69,0,9.55,4,9.58,10.92l.07,17.86h-3.27l-.06-17c0-5.32-1.4-8.9-7.15-8.88-4.9,0-8.57,4.14-8.55,10.15l.06,15.75h-3.27l-.1-28.35h3.27l0,4.79C729.19,361.44,732,358.84,737.25,358.82Z" transform="translate(-97.45 -90.77)"/><path d="M773,364.07,773,349.31h3.27l.14,38.2h-3.27l0-4.64a10.78,10.78,0,0,1-9.57,5.36c-6.53,0-11.87-5.28-11.91-14.71s5.27-14.77,11.8-14.8A10.72,10.72,0,0,1,773,364.07Zm-17.88,9.44c0,7.53,3.78,11.79,9.05,11.77,4.27,0,9.1-3.46,9.07-11.83s-4.89-11.79-9.16-11.77C758.86,361.7,755.13,366,755.16,373.51Z" transform="translate(-97.45 -90.77)"/><path d="M787.44,354.48h-3.27l0-5.22h3.27Zm.12,33H784.3l-.1-28.35h3.27Z" transform="translate(-97.45 -90.77)"/><path d="M802.64,388.09c-5.27,0-9.39-3-9.41-7.71,0-6.43,6.29-8.82,19.93-10.24v-1c0-6.43-3.82-7.84-7.93-7.82-4.79,0-7.68,2.72-7.93,6.41h-3.42c.72-5.59,5.23-9.29,11.56-9.32,6.59,0,11,2.7,11,11.13,0,3.9,0,6.48,0,8.75,0,3.21.18,6,.35,9.06h-3.32l-.17-4.32C811.43,386.05,807.9,388.07,802.64,388.09Zm10.7-13.68V373c-11.53,1.31-16.48,2.85-16.47,7.28,0,3,2.76,4.89,6.5,4.88C808.63,385.17,813.36,382.46,813.33,374.4Z" transform="translate(-97.45 -90.77)"/></g><rect class="cls-4" x="838.35" y="182.54" width="32" height="182" transform="translate(-98.45 -87.62) rotate(-0.21)"/><g class="cls-5"><path d="M847,305.79h1.39l0,8.44,5.75,0,0-7.92h1.41l0,7.92,7.72,0v1.5l-16.27.06Z" transform="translate(-97.45 -90.77)"/><path d="M849.19,302.71v1.39H847v-1.39Zm14-.05V304l-12.08,0V302.7Z" transform="translate(-97.45 -90.77)"/><path d="M863.22,299.29l-16.27.06V298l16.27-.06Z" transform="translate(-97.45 -90.77)"/><path d="M849.15,293.19v1.39h-2.22V293.2Zm14-.05v1.39l-12.08,0v-1.39Z" transform="translate(-97.45 -90.77)"/><path d="M861.19,288.39l5.93,0v1.39l-16,.06v-1.39h2.07a4.59,4.59,0,0,1-2.28-4.08c0-2.78,2.25-5.06,6.26-5.07s6.29,2.24,6.3,5A4.57,4.57,0,0,1,861.19,288.39Zm-4-7.62c-3.21,0-5,1.61-5,3.86,0,1.82,1.47,3.88,5,3.86s5-2.08,5-3.9C862.2,282.35,860.37,280.76,857.16,280.77Z" transform="translate(-97.45 -90.77)"/><path d="M861.14,275.46l5.93,0v1.39l-16,.06v-1.39h2.07a4.59,4.59,0,0,1-2.28-4.08c0-2.78,2.25-5.06,6.26-5.07s6.29,2.24,6.3,5A4.56,4.56,0,0,1,861.14,275.46Zm-4-7.62c-3.21,0-5,1.61-5,3.86,0,1.82,1.47,3.88,5,3.86s5-2.08,5-3.9C862.15,269.42,860.33,267.83,857.12,267.84Z" transform="translate(-97.45 -90.77)"/><path d="M849,262.57V264h-2.22v-1.39Zm14-.05v1.39L851,264v-1.39Z" transform="translate(-97.45 -90.77)"/><path d="M850.78,253.79c0-2.85,1.69-4.07,4.65-4.08l7.61,0v1.39l-7.23,0c-2.27,0-3.79.6-3.78,3,0,2.09,1.76,3.65,4.32,3.64l6.71,0v1.39l-12.08,0v-1.39h2A4.17,4.17,0,0,1,850.78,253.79Z" transform="translate(-97.45 -90.77)"/><path d="M850.74,242c0-3.41,2.85-5.58,6.62-5.41l0,9.61c2.92-.06,4.64-1.9,4.63-4.37a3.54,3.54,0,0,0-2.64-3.67V236.7a5,5,0,0,1,3.92,5.22c0,3.55-2.51,5.71-6.26,5.72C853.14,247.65,850.75,245.24,850.74,242Zm5.35-3.88A4,4,0,0,0,852,242c0,2.24,1.45,3.86,4.12,4.14Z" transform="translate(-97.45 -90.77)"/></g><rect class="cls-4" x="872.35" y="182.3" width="95" height="182" transform="translate(-98.45 -87.37) rotate(-0.21)"/><g class="cls-5"><path d="M930.44,215.7c0,3.21-.88,6-4.46,6a4.18,4.18,0,0,1-3.93-2.29,4,4,0,0,1-4.23,3.06c-3.68,0-5.14-2.7-5.15-6.16l0-6.62,17.78-.07Zm-16.28.72c0,2.89,1.31,4.33,3.62,4.33s3.43-1.46,3.42-4.5l0-4.93-7,0Zm8.46-.37c0,2.4.82,4,3.25,4,2.13,0,3.08-1.53,3.08-3.91l0-4.81-6.33,0Z" transform="translate(-97.45 -90.77)"/><path d="M912.39,228.76c0-2.45,1.41-4.37,3.59-4.38,3,0,4.11,2.93,4.77,9.28h.47c3,0,3.65-1.78,3.64-3.69,0-2.23-1.26-3.58-3-3.69v-1.59c2.6.33,4.32,2.44,4.33,5.38s-1.26,5.11-5.18,5.12c-1.81,0-3,0-4.07,0-1.5,0-2.79.08-4.22.16v-1.54l2-.08C913.34,232.85,912.4,231.21,912.39,228.76Zm6.37,5h.64c-.61-5.37-1.33-7.67-3.39-7.66-1.4,0-2.28,1.28-2.27,3C913.75,231.55,915,233.75,918.76,233.74Z" transform="translate(-97.45 -90.77)"/><path d="M926.18,244.25c0,3.11-1.85,4.45-5.08,4.46l-8.31,0v-1.52l7.9,0c2.48,0,4.14-.65,4.13-3.32,0-2.28-1.93-4-4.72-4l-7.33,0v-1.52l13.19,0v1.52h-2.23A4.56,4.56,0,0,1,926.18,244.25Z" transform="translate(-97.45 -90.77)"/><path d="M913,256.39c0-3,2.46-5.5,6.58-5.52s6.6,2.45,6.62,5.47a4.93,4.93,0,0,1-2.48,4.47H926v1.54l-12.73,0c-3.53,0-5.08-2.43-5.1-5.57,0-2.72,1.48-4.86,3.86-5.11v1.59c-1.4.18-2.55,1.33-2.54,3.56,0,2.48,1.14,4,3.59,4h2.4A4.91,4.91,0,0,1,913,256.39Zm6.58-3.87c-3.26,0-5.24,1.74-5.23,4.19,0,2,1.61,4.26,5.26,4.25s5.21-2.27,5.21-4.29C924.84,254.21,922.85,252.5,919.62,252.51Z" transform="translate(-97.45 -90.77)"/><path d="M912.85,266.07l17.78-.07v1.52l-17.78.07Z" transform="translate(-97.45 -90.77)"/><path d="M912.56,274.61c0-2.45,1.41-4.37,3.59-4.38,3,0,4.11,2.93,4.77,9.28h.47c3,0,3.65-1.78,3.64-3.69,0-2.23-1.26-3.58-3-3.69v-1.59c2.6.33,4.32,2.44,4.33,5.38s-1.26,5.11-5.18,5.12c-1.81,0-3,0-4.07,0-1.5,0-2.8.08-4.22.16v-1.54l2-.08C913.51,278.7,912.57,277.06,912.56,274.61Zm6.37,5h.64c-.61-5.37-1.33-7.67-3.39-7.66-1.4,0-2.28,1.28-2.27,3C913.92,277.4,915.18,279.6,918.93,279.59Z" transform="translate(-97.45 -90.77)"/><path d="M923.86,293.13l6.86,0v1.52l-17.78.07v-1.52h2.16a5,5,0,0,1-2.49-4.45c0-3,2.46-5.53,6.84-5.54s6.88,2.45,6.89,5.49A5,5,0,0,1,923.86,293.13Zm-4.4-8.32c-3.51,0-5.49,1.76-5.48,4.21,0,2,1.61,4.24,5.51,4.22S925,291,925,289C925,286.53,923,284.79,919.46,284.81Z" transform="translate(-97.45 -90.77)"/><path d="M926.4,303.46c0,3.73-3.12,6.09-7.24,5.91l0-10.5c-3.19.06-5.07,2.08-5.06,4.78a3.87,3.87,0,0,0,2.88,4v1.59a5.46,5.46,0,0,1-4.29-5.7c0-3.87,2.75-6.24,6.84-6.25C923.78,297.29,926.39,299.93,926.4,303.46Zm-5.84,4.24a4.32,4.32,0,0,0,4.47-4.26c0-2.45-1.58-4.21-4.5-4.52Z" transform="translate(-97.45 -90.77)"/><path d="M925.12,316.32c0-1.45-.58-3.36-2.17-3.35-1.3,0-2,1-2.25,2.48l-.34,1.86c-.38,2.16-1.11,4.57-3.61,4.57s-4-2.36-4-5.23,1.33-5.08,4.34-5.48v1.59c-2.08.3-3,2-3,4,0,1.59.67,3.58,2.44,3.57,1.54,0,2.08-1.48,2.42-3.27l.38-2.06c.36-1.91,1.46-3.59,3.52-3.59s3.64,2.07,3.65,5-1.72,4.76-3.83,5.09V320C924.2,319.63,925.13,318.18,925.12,316.32Z" transform="translate(-97.45 -90.77)"/><path d="M926.5,330.73c0,3.11-1.85,4.45-5.08,4.46l-8.31,0V333.7l7.9,0c2.48,0,4.14-.65,4.13-3.33,0-2.28-1.93-4-4.72-4l-7.33,0v-1.52l17.78-.07v1.52l-6.82,0A4.56,4.56,0,0,1,926.5,330.73Z" transform="translate(-97.45 -90.77)"/></g><rect class="cls-4" x="838.84" y="366.45" width="80" height="77" transform="translate(-98.93 -87.53) rotate(-0.21)"/><g class="cls-5"><path d="M862,416.26c-5.9,0-9.15-4.42-9.17-10.63S856.14,395,862,395a8.27,8.27,0,0,1,8.56,6.95h-2a6.48,6.48,0,0,0-6.63-5.14c-4.06,0-7.14,3.18-7.12,8.85,0,5.47,3,8.84,7.18,8.82a6.46,6.46,0,0,0,6.68-5.19h2A8.35,8.35,0,0,1,862,416.26Z" transform="translate(-97.45 -90.77)"/><path d="M875.38,398.09h-1.76v-2.81h1.76Zm.07,17.76h-1.76l-.06-15.26h1.76Z" transform="translate(-97.45 -90.77)"/><path d="M886.47,400.29c3.6,0,5.14,2.14,5.16,5.88l0,9.62h-1.76l0-9.13c0-2.87-.76-4.79-3.85-4.78-2.64,0-4.62,2.23-4.6,5.46l0,8.48h-1.76l-.06-15.26h1.76v2.58A5.27,5.27,0,0,1,886.47,400.29Z" transform="translate(-97.45 -90.77)"/><path d="M899.32,416.13c-2.84,0-5.06-1.63-5.06-4.15,0-3.46,3.39-4.75,10.73-5.51v-.54c0-3.46-2.06-4.22-4.27-4.21-2.58,0-4.14,1.46-4.27,3.45H894.6c.39-3,2.82-5,6.22-5s5.91,1.45,5.92,6c0,2.1,0,3.49,0,4.71,0,1.73.1,3.23.19,4.88h-1.79l-.09-2.33C904.05,415,902.16,416.12,899.32,416.13Zm5.76-7.37V408c-6.21.7-8.87,1.54-8.86,3.92,0,1.62,1.48,2.63,3.5,2.63C902.55,414.55,905.1,413.1,905.08,408.76Z" transform="translate(-97.45 -90.77)"/></g><g class="cls-5"><path d="M951.89,393.12V391c2.54-.77,3.92-2.95,3.91-6.27,0-2.21-.9-5.32-3.77-5.31-2.21,0-3.32,1.8-3.85,4.25l-.56,2.6c-.71,3.18-2,7.38-6.14,7.4S935,389.86,935,385.6c0-5.47,3-8.5,7-9v2.12c-3.47.77-5,3.22-5,6.79,0,2.39.9,6.07,4.16,6.06,2.69,0,3.92-2.61,4.57-5.7l.59-2.75c.65-2.87,2-5.75,5.63-5.76,4.05,0,5.79,4.06,5.8,7.6C957.74,389.23,955.6,392.32,951.89,393.12Z" transform="translate(-97.45 -90.77)"/><path d="M935.46,398.53v-1.87l16.26-.06v1.87Zm18.92-.07v-1.87h3v1.87Z" transform="translate(-97.45 -90.77)"/><path d="M949.89,409.3c0-3.35-2.43-4.43-5.88-4.42l-8.52,0v-1.84l16.26-.06v1.78h-3a5.21,5.21,0,0,1,3.1,4.8,3.34,3.34,0,0,1,0,.54h-2A8.16,8.16,0,0,0,949.89,409.3Z" transform="translate(-97.45 -90.77)"/><path d="M935.52,414.37V412.5l16.26-.06v1.87Zm18.92-.07v-1.87h3v1.87Z" transform="translate(-97.45 -90.77)"/><path d="M935.16,423c0-3,1.73-5.39,4.42-5.4,3.69,0,5.06,3.61,5.88,11.43H946c3.69,0,4.5-2.19,4.49-4.55,0-2.75-1.56-4.41-3.67-4.55v-2c3.21.41,5.33,3,5.34,6.63,0,3.78-1.55,6.29-6.38,6.31-2.24,0-3.72,0-5,0-1.84,0-3.45.1-5.2.2v-1.9l2.48-.1C936.33,428.06,935.17,426,935.16,423Zm7.85,6.14h.79c-.75-6.62-1.64-9.46-4.18-9.45-1.72,0-2.81,1.58-2.8,3.73C936.84,426.46,938.39,429.17,943,429.16Z" transform="translate(-97.45 -90.77)"/></g><rect id="path27" class="cls-9" x="99.2" y="296.7" width="41" height="144" transform="translate(-98.8 -90.32) rotate(-0.21)"/><rect class="cls-3" x="99.2" y="296.7" width="41" height="144" transform="translate(-98.8 -90.32) rotate(-0.21)"/><rect id="path28" class="cls-3" x="98.69" y="163.7" width="41" height="131" transform="translate(-98.29 -90.32) rotate(-0.21)"/><g class="cls-5"><path d="M111.78,408.16h1.3l0,8.34,5.37,0,0-7.84h1.32l0,7.84,5.91,0,0-8.34H127l0,9.75-15.2.06Z" transform="translate(-97.45 -90.77)"/><path d="M127,405.8l-15.2.06v-1.3l15.2-.06Z" transform="translate(-97.45 -90.77)"/><path d="M115.49,386.1v1.47c-1.76.53-2.72,2-2.71,4.35,0,1.53.62,3.69,2.61,3.68,1.53,0,2.3-1.25,2.67-2.94l.39-1.8c.5-2.2,1.37-5.12,4.26-5.13s4.45,2.65,4.46,5.6c0,3.79-2.1,5.9-4.82,6.24V396.1c2.41-.53,3.49-2.24,3.48-4.71,0-1.66-.62-4.21-2.89-4.2-1.87,0-2.72,1.81-3.17,4l-.41,1.91c-.45,2-1.41,4-3.91,4-2.81,0-4-2.82-4-5.27C111.44,388.8,112.92,386.65,115.49,386.1Z" transform="translate(-97.45 -90.77)"/><path d="M127.15,380.59c0,2.1-1.2,3.74-3.07,3.74-2.56,0-3.51-2.5-4.08-7.93h-.4c-2.56,0-3.12,1.52-3.11,3.16,0,1.91,1.08,3.06,2.55,3.16v1.36a4.3,4.3,0,0,1-3.71-4.6c0-2.62,1.08-4.36,4.43-4.38h3.48c1.28,0,2.39-.07,3.61-.14v1.32l-1.72.07A4.66,4.66,0,0,1,127.15,380.59Zm-5.45-4.26h-.55c.52,4.59,1.14,6.56,2.9,6.55,1.19,0,1.95-1.1,1.94-2.59C126,378.2,124.91,376.32,121.71,376.33Z" transform="translate(-97.45 -90.77)"/><path d="M126.85,372.35l-15.2.06v-1.3l15.2-.06Z" transform="translate(-97.45 -90.77)"/><path d="M115.53,361.16v-1.4l11.29,4.15v1.26l-11.26,4.36v-1.47l9.46-3.54Z" transform="translate(-97.45 -90.77)"/><path d="M127.06,355.39c0,2.1-1.2,3.74-3.07,3.74-2.56,0-3.51-2.5-4.07-7.93h-.4c-2.56,0-3.12,1.52-3.11,3.16,0,1.91,1.08,3.06,2.55,3.16v1.36a4.3,4.3,0,0,1-3.71-4.6c0-2.62,1.08-4.36,4.43-4.38h3.48c1.28,0,2.39-.07,3.61-.14v1.32l-1.72.07A4.65,4.65,0,0,1,127.06,355.39Zm-5.45-4.26h-.55c.52,4.59,1.14,6.56,2.9,6.55,1.19,0,1.95-1.1,1.94-2.59C125.9,353,124.82,351.12,121.61,351.14Z" transform="translate(-97.45 -90.77)"/><path d="M117.4,339.56l-5.87,0v-1.3l15.2-.06v1.3h-1.84a4.29,4.29,0,0,1,2.13,3.81c0,2.6-2.1,4.73-5.85,4.74s-5.88-2.1-5.89-4.7A4.27,4.27,0,0,1,117.4,339.56Zm3.76,7.11c3,0,4.69-1.51,4.68-3.6,0-1.7-1.38-3.62-4.71-3.61s-4.69,1.95-4.68,3.64C116.45,345.2,118.16,346.68,121.16,346.67Z" transform="translate(-97.45 -90.77)"/><path d="M121.08,325.78c4.11,0,5.88,2.39,5.89,5.09s-1.74,5.1-5.85,5.12-5.88-2.37-5.89-5.07S117,325.79,121.08,325.78Zm0,1.38c-3.23,0-4.67,1.59-4.66,3.75s1.46,3.71,4.69,3.69,4.67-1.57,4.66-3.73S124.31,327.15,121.08,327.16Z" transform="translate(-97.45 -90.77)"/><path d="M116.67,319.17c0,2.33,1.69,3.08,4.08,3.07l5.91,0v1.28l-11.28,0V322.3h2.05a3.61,3.61,0,0,1-2.15-3.33,2.46,2.46,0,0,1,0-.38h1.38A5.53,5.53,0,0,0,116.67,319.17Z" transform="translate(-97.45 -90.77)"/></g><rect class="cls-4" x="97.69" y="164.7" width="41" height="131" transform="translate(-98.29 -90.33) rotate(-0.21)"/><g class="cls-5"><path d="M126.08,261.87v1.44l-7.37,0,0,9.15,7.37,0v1.44l-15.53.06v-1.44l6.81,0,0-9.15-6.81,0v-1.44Z" transform="translate(-97.45 -90.77)"/><path d="M120.31,248.91c4.2,0,6,2.44,6,5.2s-1.78,5.21-6,5.23-6-2.42-6-5.18S116.11,248.93,120.31,248.91Zm0,1.41c-3.3,0-4.77,1.62-4.76,3.83s1.49,3.79,4.79,3.77,4.77-1.6,4.76-3.81S123.61,250.31,120.31,250.33Z" transform="translate(-97.45 -90.77)"/><path d="M114.28,241.46c0-2.72,1.61-3.88,4.44-3.89l7.26,0v1.33l-6.9,0c-2.16,0-3.62.57-3.61,2.91,0,2,1.68,3.49,4.13,3.48l6.41,0v1.33l-11.53,0V245.3h1.95A4,4,0,0,1,114.28,241.46Z" transform="translate(-97.45 -90.77)"/><path d="M116.41,226.91l-6,0v-1.33l15.53-.06v1.33h-1.88a4.38,4.38,0,0,1,2.18,3.89c0,2.66-2.15,4.83-6,4.84s-6-2.14-6-4.8A4.36,4.36,0,0,1,116.41,226.91Zm3.84,7.27c3.06,0,4.79-1.54,4.79-3.68,0-1.74-1.41-3.7-4.81-3.69s-4.79,2-4.79,3.72C115.45,232.68,117.19,234.19,120.25,234.18Z" transform="translate(-97.45 -90.77)"/><path d="M126.2,218.93c0,2.64-1.61,3.76-4.44,3.77l-7.35,0V221.4l7,0c2.16,0,3.62-.53,3.61-2.78,0-1.84-1.68-3.36-4.12-3.35l-6.49,0v-1.33l11.53,0v1.33H124A3.94,3.94,0,0,1,126.2,218.93Z" transform="translate(-97.45 -90.77)"/><path d="M115.67,206.27c0,2.38,1.73,3.14,4.17,3.13l6,0v1.31l-11.53,0v-1.26h2.1a3.69,3.69,0,0,1-2.2-3.4,2.56,2.56,0,0,1,0-.39h1.41A5.76,5.76,0,0,0,115.67,206.27Z" transform="translate(-97.45 -90.77)"/><path d="M126.13,201.2c0,2.14-1.23,3.82-3.14,3.83-2.61,0-3.59-2.56-4.16-8.1h-.41c-2.61,0-3.19,1.55-3.18,3.23,0,1.95,1.1,3.12,2.6,3.23v1.39a4.4,4.4,0,0,1-3.79-4.7c0-2.68,1.1-4.46,4.53-4.47h3.56c1.31,0,2.44-.07,3.68-.14v1.35l-1.76.07A4.75,4.75,0,0,1,126.13,201.2Zm-5.57-4.35H120c.53,4.69,1.16,6.7,3,6.69,1.22,0,2-1.12,2-2.64C124.94,198.76,123.84,196.84,120.57,196.85Z" transform="translate(-97.45 -90.77)"/><path d="M115.25,189.1c0,1.26.5,2.93,1.9,2.93,1.14,0,1.73-.91,2-2.17l.29-1.63c.34-1.89,1-4,3.16-4s3.52,2.06,3.53,4.57-1.16,4.44-3.8,4.79V192.2c1.82-.26,2.63-1.72,2.62-3.5,0-1.39-.59-3.13-2.13-3.12-1.35,0-1.82,1.29-2.11,2.86l-.34,1.8c-.31,1.67-1.27,3.13-3.07,3.14s-3.18-1.81-3.19-4.4a4.2,4.2,0,0,1,3.35-4.45v1.39A3,3,0,0,0,115.25,189.1Z" transform="translate(-97.45 -90.77)"/></g><path d="M357.22,91.52v5.12h-22.7v12.81h21.36v5.12H334.52v14h22.7v5.12H328.58V91.52Z" transform="translate(-97.45 -90.77)"/><path d="M369.56,117.19c0,8.27,3,12.17,10.89,12.17,8.09,0,11.06-4.48,11.06-12.81v-25h5.94v24.57c0,12.34-4.72,18.4-17,18.4-11.7,0-16.82-4.77-16.82-17.93v-25h5.94Z" transform="translate(-97.45 -90.77)"/><path d="M420.2,116h-7.45v17.75h-5.94V91.52H420.2c10.3,0,17.58,2,17.58,12.17,0,6.69-3.2,9.9-8.38,11.29l9.78,18.74h-6.64l-9.14-17.81C422.36,116,421.31,116,420.2,116Zm-7.45-5h7.92c6.17,0,11-.64,11-7.16s-4.83-7.28-11-7.28h-7.92Z" transform="translate(-97.45 -90.77)"/><path d="M443.72,112.6c0-12.75,7.63-21.83,19.79-21.83s19.79,9.08,19.79,21.83-7.62,21.89-19.79,21.89S443.72,125.34,443.72,112.6Zm33.53,0c0-10.89-6.05-16.82-13.74-16.82s-13.74,5.94-13.74,16.82,6.05,16.88,13.74,16.88S477.25,123.48,477.25,112.6Z" transform="translate(-97.45 -90.77)"/><path d="M522,104.27C522,114.75,514.8,117,504.5,117h-7.28v16.71h-5.94V91.52H504.5C514.8,91.52,522,93.85,522,104.27Zm-24.8,7.57H505c6.17,0,11-.64,11-7.57s-4.83-7.74-11-7.74h-7.74Z" transform="translate(-97.45 -90.77)"/><path d="M541.75,91.52l15.89,42.2h-6.4l-3.32-9.14H528.54l-3.26,9.14h-6.05l15.66-42.2Zm4.31,28-7.92-22-7.8,22Z" transform="translate(-97.45 -90.77)"/><path d="M108.36,755.09l22.1-8.32v3.35l-4.79,1.74V762l4.79,1.71v3.17l-22.1-8.2ZM123,752.83,111.5,757,123,761.06Z" transform="translate(-97.45 -90.77)"/><path d="M111.2,741h19.27v3.11h-22.1v-5.21l18.42-5.64-18.42-5.64v-5.21h22.1v3.11H111.2l19.27,6.1v3.29Z" transform="translate(-97.45 -90.77)"/><path d="M108.36,702.19H111v11.89h6.71V702.89h2.68v11.19h7.35V702.19h2.68v15h-22.1Z" transform="translate(-97.45 -90.77)"/><path d="M121.17,691.49v3.9h9.3v3.11h-22.1v-7c0-5.4,1.07-9.21,6.37-9.21,3.51,0,5.18,1.68,5.92,4.39l9.82-5.12V685l-9.33,4.79C121.17,690.36,121.17,690.91,121.17,691.49Zm-2.62,3.9v-4.15c0-3.23-.33-5.76-3.75-5.76S111,688,111,691.24v4.15Z" transform="translate(-97.45 -90.77)"/><path d="M130.46,677.8h-22.1v-3.11h22.1Z" transform="translate(-97.45 -90.77)"/><path d="M130.86,660.48c0,6.34-4.76,10-11.49,10s-11.4-4-11.4-10.27A9,9,0,0,1,115.4,651v3a6.12,6.12,0,0,0-4.82,6.34c0,3.9,3,7,8.78,7,5.58,0,8.87-2.93,8.87-7a6.11,6.11,0,0,0-4.82-6.37v-3C128.3,651.88,130.86,655.69,130.86,660.48Z" transform="translate(-97.45 -90.77)"/><path d="M108.36,638.44l22.1-8.32v3.35l-4.79,1.74v10.15l4.79,1.71v3.17l-22.1-8.2ZM123,636.18l-11.52,4.15L123,644.41Z" transform="translate(-97.45 -90.77)"/><path d="M119.4,602.18c8.44,0,11.07,5,11.07,12v6h-22.1v-6C108.36,607.22,111,602.18,119.4,602.18Zm-8.42,15h16.86v-2.83c0-4.57-.91-9-8.44-9s-8.42,4.39-8.42,9Z" transform="translate(-97.45 -90.77)"/><path d="M108.36,583H111V594.9h6.71V583.71h2.68V594.9h7.35V583h2.68v15h-22.1Z" transform="translate(-97.45 -90.77)"/><path d="M127.78,564.53h2.68v14.79h-22.1v-3.11h19.42Z" transform="translate(-97.45 -90.77)"/><path d="M114,539.22v3c-2.56.76-3.42,3.26-3.42,5.49,0,1.71.76,4.69,3.23,4.69,2,0,2.93-1.55,3.38-3.6l.58-2.56c.73-3.38,2-7.44,6.46-7.44s6.62,4,6.62,8.41c0,5.21-2.84,8.51-7.26,9.08v-3c3-.58,4.63-2.71,4.63-6.1s-1.55-5.15-3.72-5.15c-2.32,0-3.29,2-3.9,4.76l-.58,2.74c-.67,3-2.35,6.07-6,6.07-4.21,0-6-4.42-6-8C108,543.64,109.73,540.08,114,539.22Z" transform="translate(-97.45 -90.77)"/><path d="M121.81,532.36c4.33,0,6.37-1.56,6.37-5.7s-2.35-5.79-6.71-5.79H108.36v-3.11h12.87c6.46,0,9.63,2.47,9.63,8.9,0,6.13-2.5,8.81-9.39,8.81H108.36v-3.11Z" transform="translate(-97.45 -90.77)"/><path d="M119.4,494.77c8.44,0,11.07,5,11.07,12v6h-22.1v-6C108.36,499.8,111,494.77,119.4,494.77Zm-8.42,15h16.86V506.9c0-4.57-.91-9-8.44-9s-8.42,4.39-8.42,9Z" transform="translate(-97.45 -90.77)"/><path d="M106.67,91.29l6.51,17.28h-2.62l-1.36-3.74h-7.94l-1.33,3.74H97.45l6.41-17.28Zm1.76,11.46-3.24-9-3.19,9Z" transform="translate(-97.45 -90.77)"/><path d="M117.66,93.51v15.06h-2.43V91.29h4.08l4.41,14.4,4.41-14.4h4.08v17.28h-2.43V93.51L125,108.57h-2.57Z" transform="translate(-97.45 -90.77)"/><path d="M148,91.29v2.1h-9.3v5.24h8.75v2.1h-8.75v5.74H148v2.1H136.29V91.29Z" transform="translate(-97.45 -90.77)"/><path d="M156.38,101.3h-3.05v7.27H150.9V91.29h5.48c4.22,0,7.2.83,7.2,5,0,2.74-1.31,4.05-3.43,4.62l4,7.67h-2.72l-3.74-7.29C157.26,101.3,156.83,101.3,156.38,101.3Zm-3.05-2h3.24c2.53,0,4.5-.26,4.5-2.93s-2-3-4.5-3h-3.24Z" transform="translate(-97.45 -90.77)"/><path d="M167.08,108.57V91.29h2.43v17.28Z" transform="translate(-97.45 -90.77)"/><path d="M180.61,108.88c-5,0-7.84-3.72-7.84-9s3.15-8.91,8-8.91A7,7,0,0,1,188,96.8h-2.36a4.78,4.78,0,0,0-5-3.77c-3.05,0-5.43,2.38-5.43,6.86s2.29,6.94,5.51,6.94a4.78,4.78,0,0,0,5-3.77h2.36C187.34,106.88,184.36,108.88,180.61,108.88Z" transform="translate(-97.45 -90.77)"/><path d="M197.84,91.29l6.51,17.28h-2.62l-1.36-3.74h-7.94l-1.33,3.74h-2.48L195,91.29Zm1.76,11.46-3.24-9-3.19,9Z" transform="translate(-97.45 -90.77)"/><path d="M106.5,137.48c-5,0-7.84-3.72-7.84-9s3.15-8.91,8-8.91a7,7,0,0,1,7.2,5.82h-2.36a4.78,4.78,0,0,0-5-3.77c-3.05,0-5.43,2.38-5.43,6.86s2.29,6.94,5.51,6.94a4.78,4.78,0,0,0,5-3.77H114C113.23,135.48,110.25,137.48,106.5,137.48Z" transform="translate(-97.45 -90.77)"/><path d="M128.52,119.89V122h-9.3v5.24H128v2.1h-8.75v5.74h9.3v2.1H116.8V119.89Z" transform="translate(-97.45 -90.77)"/><path d="M133.84,122.41v14.75h-2.43V119.89H135l7.89,14.71V119.89h2.43v17.28h-3.55Z" transform="translate(-97.45 -90.77)"/><path d="M147.35,122v-2.1H161V122H155.4v15.18H153V122Z" transform="translate(-97.45 -90.77)"/><path d="M168.56,129.9h-3.05v7.27h-2.43V119.89h5.48c4.22,0,7.2.83,7.2,5,0,2.74-1.31,4.05-3.43,4.62l4,7.67h-2.72l-3.74-7.29C169.44,129.9,169,129.9,168.56,129.9Zm-3.05-2h3.24c2.53,0,4.5-.26,4.5-2.93s-2-3-4.5-3h-3.24Z" transform="translate(-97.45 -90.77)"/><path d="M186.67,119.89l6.51,17.28h-2.62l-1.36-3.74h-7.94l-1.33,3.74h-2.48l6.41-17.28Zm1.76,11.46-3.24-9-3.19,9Z" transform="translate(-97.45 -90.77)"/><path d="M206.78,135.07v2.1H195.22V119.89h2.43v15.18Z" transform="translate(-97.45 -90.77)"/><path d="M220.56,119.89V122h-9.3v5.24H220v2.1h-8.75v5.74h9.3v2.1H208.83V119.89Z" transform="translate(-97.45 -90.77)"/><path d="M337.66,968.89v5.3h-1.25V959.87h1.25v1.85a4.11,4.11,0,0,1,3.65-2c2.49,0,4.52,2,4.52,5.62s-2,5.62-4.52,5.62A4.09,4.09,0,0,1,337.66,968.89Zm6.83-3.57c0-2.87-1.43-4.5-3.43-4.5-1.63,0-3.47,1.3-3.47,4.5s1.85,4.5,3.47,4.5C343.06,969.81,344.49,968.19,344.49,965.32Z" transform="translate(-97.45 -90.77)"/><path d="M349.22,958.11H348v-2h1.25Zm0,12.57H348v-10.8h1.25Z" transform="translate(-97.45 -90.77)"/><path d="M355.43,970.94c-2.47,0-3.51-1.53-3.51-4.18v-6.89h1.25v6.55c0,2,.48,3.39,2.59,3.39,1.73,0,3.15-1.57,3.15-3.86v-6.08h1.25v10.8H358.9v-1.75A3.69,3.69,0,0,1,355.43,970.94Zm-.14-14.82,1.81,2.33H356l-2.61-2.33Z" transform="translate(-97.45 -90.77)"/><path d="M375.22,961.74v-5.62h1.25v14.56h-1.25v-1.77a4.11,4.11,0,0,1-3.65,2c-2.49,0-4.52-2-4.52-5.62s2-5.62,4.52-5.62A4.08,4.08,0,0,1,375.22,961.74Zm-6.83,3.57c0,2.87,1.43,4.5,3.43,4.5,1.63,0,3.47-1.31,3.47-4.5s-1.85-4.5-3.47-4.5C369.82,960.82,368.39,962.44,368.39,965.32Z" transform="translate(-97.45 -90.77)"/><path d="M380.72,958.11h-1.25v-2h1.25Zm0,12.57h-1.25v-10.8h1.25Z" transform="translate(-97.45 -90.77)"/><path d="M390.32,958.89H387V958c2.55,0,3.21-.26,3.74-2h.84v14.68h-1.25Z" transform="translate(-97.45 -90.77)"/><path d="M399.43,962.06a3.73,3.73,0,0,0-3.43,1.87l-1.23-.12.94-7.69h8.23v1.21H396.8l-.64,5a5.09,5.09,0,0,1,3.57-1.37,4.6,4.6,0,0,1,4.82,5,5.12,5.12,0,0,1-10.18.68h1.33a3.72,3.72,0,0,0,3.78,3.25,3.89,3.89,0,0,0,0-7.77Z" transform="translate(-97.45 -90.77)"/><path d="M412.1,955.86c3.82,0,5.58,2.91,5.58,7.53s-1.77,7.55-5.58,7.55-5.6-2.91-5.6-7.55S408.26,955.86,412.1,955.86Zm0,1.1c-2.63,0-4.28,2.07-4.28,6.43s1.65,6.45,4.28,6.45,4.28-2.07,4.28-6.45S414.71,957,412.1,957Z" transform="translate(-97.45 -90.77)"/><path d="M425.45,955.86c3.82,0,5.58,2.91,5.58,7.53s-1.77,7.55-5.58,7.55-5.6-2.91-5.6-7.55S421.61,955.86,425.45,955.86Zm0,1.1c-2.63,0-4.28,2.07-4.28,6.43s1.65,6.45,4.28,6.45,4.28-2.07,4.28-6.45S428.06,957,425.45,957Z" transform="translate(-97.45 -90.77)"/><path d="M476.58,958.89h-3.33V958c2.55,0,3.21-.26,3.73-2h.84v14.68h-1.24Z" transform="translate(-97.45 -90.77)"/><path d="M485.69,962.06a3.73,3.73,0,0,0-3.43,1.87l-1.23-.12.94-7.69h8.23v1.21h-7.15l-.64,5a5.09,5.09,0,0,1,3.57-1.37,4.6,4.6,0,0,1,4.82,5,5.12,5.12,0,0,1-10.18.68H482a3.72,3.72,0,0,0,3.77,3.25,3.89,3.89,0,0,0,0-7.77Z" transform="translate(-97.45 -90.77)"/><path d="M498.36,955.86c3.82,0,5.58,2.91,5.58,7.53s-1.77,7.55-5.58,7.55-5.6-2.91-5.6-7.55S494.53,955.86,498.36,955.86Zm0,1.1c-2.63,0-4.28,2.07-4.28,6.43s1.65,6.45,4.28,6.45,4.28-2.07,4.28-6.45S501,957,498.36,957Z" transform="translate(-97.45 -90.77)"/><path d="M511.71,955.86c3.82,0,5.58,2.91,5.58,7.53s-1.77,7.55-5.58,7.55-5.6-2.91-5.6-7.55S507.88,955.86,511.71,955.86Zm0,1.1c-2.63,0-4.28,2.07-4.28,6.43s1.65,6.45,4.28,6.45,4.28-2.07,4.28-6.45S514.32,957,511.71,957Z" transform="translate(-97.45 -90.77)"/><path d="M519.24,964.47h5.62v1.41h-5.62Z" transform="translate(-97.45 -90.77)"/><path d="M528.45,958.89h-3.33V958c2.55,0,3.21-.26,3.74-2h.84v14.68h-1.25Z" transform="translate(-97.45 -90.77)"/><path d="M538.33,955.86c3.82,0,5.58,2.91,5.58,7.53s-1.77,7.55-5.58,7.55-5.6-2.91-5.6-7.55S534.49,955.86,538.33,955.86Zm0,1.1c-2.63,0-4.28,2.07-4.28,6.43s1.65,6.45,4.28,6.45,4.28-2.07,4.28-6.45S540.94,957,538.33,957Z" transform="translate(-97.45 -90.77)"/><path d="M551.68,955.86c3.82,0,5.58,2.91,5.58,7.53s-1.77,7.55-5.58,7.55-5.6-2.91-5.6-7.55S547.84,955.86,551.68,955.86Zm0,1.1c-2.63,0-4.28,2.07-4.28,6.43s1.65,6.45,4.28,6.45,4.28-2.07,4.28-6.45S554.29,957,551.68,957Z" transform="translate(-97.45 -90.77)"/><path d="M565,955.86c3.82,0,5.58,2.91,5.58,7.53s-1.77,7.55-5.58,7.55-5.6-2.91-5.6-7.55S561.19,955.86,565,955.86Zm0,1.1c-2.63,0-4.28,2.07-4.28,6.43s1.65,6.45,4.28,6.45,4.28-2.07,4.28-6.45S567.64,957,565,957Z" transform="translate(-97.45 -90.77)"/><path d="M604.49,970.68v-10.8h1.25v1.83a3.52,3.52,0,0,1,3.39-2,3,3,0,0,1,3.17,2.15,4,4,0,0,1,3.66-2.15c2.45,0,3.43,1.53,3.43,4.18v6.81h-1.25v-6.47c0-2-.42-3.39-2.51-3.39-1.77,0-3.07,1.57-3.07,3.86v6h-1.25v-6.47c0-2-.42-3.39-2.51-3.39-1.77,0-3.07,1.57-3.07,3.86v6Z" transform="translate(-97.45 -90.77)"/><path d="M626.3,959.69c3.05,0,5,2.57,4.82,5.94h-8.59c0,2.61,1.69,4.16,3.9,4.16a3.17,3.17,0,0,0,3.29-2.35H631a4.47,4.47,0,0,1-4.68,3.49c-3.17,0-5.1-2.27-5.1-5.62S623.41,959.69,626.3,959.69Zm3.45,4.8a3.54,3.54,0,0,0-3.47-3.67c-2,0-3.45,1.29-3.71,3.67Z" transform="translate(-97.45 -90.77)"/><path d="M638.12,959.69c2.55,0,3.63,1.53,3.63,4.18v6.81h-1.25v-6.47c0-2-.52-3.39-2.71-3.39-1.87,0-3.27,1.57-3.27,3.86v6h-1.25v-10.8h1.25v1.83A3.73,3.73,0,0,1,638.12,959.69Z" transform="translate(-97.45 -90.77)"/><path d="M653.38,965.32c0,3.94-2.31,5.62-4.9,5.62s-4.88-1.69-4.88-5.62,2.29-5.62,4.88-5.62S653.38,961.38,653.38,965.32Zm-1.33,0c0-3.09-1.51-4.48-3.57-4.48s-3.55,1.39-3.55,4.48,1.49,4.48,3.55,4.48S652.05,968.41,652.05,965.32Z" transform="translate(-97.45 -90.77)"/><path d="M667.61,961.74v-5.62h1.25v14.56h-1.25v-1.77a4.11,4.11,0,0,1-3.65,2c-2.49,0-4.52-2-4.52-5.62s2-5.62,4.52-5.62A4.08,4.08,0,0,1,667.61,961.74Zm-6.83,3.57c0,2.87,1.43,4.5,3.43,4.5,1.63,0,3.47-1.31,3.47-4.5s-1.85-4.5-3.47-4.5C662.21,960.82,660.78,962.44,660.78,965.32Z" transform="translate(-97.45 -90.77)"/><path d="M673.11,958.11h-1.25v-2h1.25Zm0,12.57h-1.25v-10.8h1.25Z" transform="translate(-97.45 -90.77)"/><path d="M682.7,958.89h-3.33V958c2.55,0,3.21-.26,3.74-2H684v14.68H682.7Z" transform="translate(-97.45 -90.77)"/><path d="M692.58,955.86c3.82,0,5.58,2.91,5.58,7.53s-1.77,7.55-5.58,7.55S687,968,687,963.39,688.75,955.86,692.58,955.86Zm0,1.1c-2.63,0-4.28,2.07-4.28,6.43s1.65,6.45,4.28,6.45,4.28-2.07,4.28-6.45S695.19,957,692.58,957Z" transform="translate(-97.45 -90.77)"/><path d="M705.93,955.86c3.82,0,5.58,2.91,5.58,7.53s-1.77,7.55-5.58,7.55-5.6-2.91-5.6-7.55S702.1,955.86,705.93,955.86Zm0,1.1c-2.63,0-4.28,2.07-4.28,6.43s1.65,6.45,4.28,6.45,4.28-2.07,4.28-6.45S708.54,957,705.93,957Z" transform="translate(-97.45 -90.77)"/><path d="M719.28,955.86c3.82,0,5.58,2.91,5.58,7.53s-1.77,7.55-5.58,7.55-5.6-2.91-5.6-7.55S715.45,955.86,719.28,955.86Zm0,1.1c-2.63,0-4.28,2.07-4.28,6.43s1.65,6.45,4.28,6.45,4.28-2.07,4.28-6.45S721.89,957,719.28,957Z" transform="translate(-97.45 -90.77)"/><path d="M797.14,132.77l10.14,26.94H803.2l-2.12-5.83H788.7l-2.08,5.83h-3.86l10-26.94Zm2.75,17.87-5.05-14-5,14Z" transform="translate(-97.45 -90.77)"/><path d="M828.76,139.64h-3.68c-.93-3.12-4-4.16-6.69-4.16-2.08,0-5.72.93-5.72,3.94,0,2.38,1.89,3.57,4.38,4.12l3.12.71c4.12.89,9.07,2.45,9.07,7.88s-4.9,8.06-10.25,8.06c-6.35,0-10.37-3.46-11.07-8.84h3.71c.71,3.72,3.31,5.65,7.43,5.65s6.28-1.9,6.28-4.53c0-2.82-2.42-4-5.8-4.76L816.2,147c-3.68-.82-7.39-2.86-7.39-7.36,0-5.13,5.39-7.36,9.73-7.36C823.37,132.29,827.72,134.44,828.76,139.64Z" transform="translate(-97.45 -90.77)"/><path d="M833.73,159.71V132.77h3.79v26.94Z" transform="translate(-97.45 -90.77)"/><path d="M855.1,132.77l10.14,26.94h-4.09L859,153.87H846.66l-2.08,5.83h-3.86l10-26.94Zm2.75,17.87-5.05-14-5,14Z" transform="translate(-97.45 -90.77)"/><path d="M642.78,774.37l13.35,35.46h-5.38L648,802.14H631.68l-2.74,7.68h-5.09L637,774.37Zm3.62,23.52-6.65-18.49-6.55,18.49Z" transform="translate(-97.45 -90.77)"/><path d="M683.37,774.37v4.3h-18v10.76h17v4.3h-17v16.09h-5V774.37Z" transform="translate(-97.45 -90.77)"/><path d="M699,794.91h-6.26v14.92h-5V774.37H699c8.66,0,14.77,1.71,14.77,10.22,0,5.62-2.69,8.31-7,9.49l8.22,15.75h-5.58l-7.68-15C700.78,794.91,699.9,794.91,699,794.91Zm-6.26-4.21h6.65c5.18,0,9.24-.54,9.24-6s-4.06-6.11-9.24-6.11h-6.65Z" transform="translate(-97.45 -90.77)"/><path d="M720.93,809.82V774.37h5v35.46Z" transform="translate(-97.45 -90.77)"/><path d="M748.71,810.46c-10.17,0-16.09-7.63-16.09-18.44,0-11,6.46-18.29,16.48-18.29,7.34,0,13.25,4.35,14.77,11.93H759c-1.08-4.4-4.5-7.73-10.17-7.73-6.26,0-11.15,4.89-11.15,14.08,0,9,4.7,14.23,11.3,14.23,5.62,0,9.1-3.18,10.22-7.73h4.84C762.5,806.35,756.39,810.46,748.71,810.46Z" transform="translate(-97.45 -90.77)"/><path d="M784.07,774.37l13.35,35.46H792l-2.79-7.68H773l-2.74,7.68h-5.09l13.16-35.46Zm3.62,23.52L781,779.4l-6.55,18.49Z" transform="translate(-97.45 -90.77)"/><rect id="path0" class="cls-2" x="167.63" y="157.14" width="254" height="55" transform="translate(-98.13 -89.68) rotate(-0.21)"/><rect class="cls-4" x="167.63" y="157.14" width="254" height="55" transform="translate(-98.13 -89.68) rotate(-0.21)"/><rect id="path1" class="cls-1" x="168.17" y="214.14" width="254" height="235" transform="translate(-98.67 -89.68) rotate(-0.21)"/><rect class="cls-4" x="168.17" y="214.14" width="254" height="235" transform="translate(-98.67 -89.68) rotate(-0.21)"/><rect id="path2" class="cls-1" x="423.86" y="156.36" width="162" height="182" transform="translate(-98.35 -88.9) rotate(-0.21)"/><rect id="path3" class="cls-2" x="587.86" y="155.92" width="74" height="182" transform="translate(-98.35 -88.46) rotate(-0.21)"/><rect id="path4" class="cls-2" x="424.4" y="340.32" width="185" height="108" transform="translate(-98.9 -88.86) rotate(-0.21)"/><rect id="path5" class="cls-3" x="611.4" y="339.88" width="51" height="108" transform="translate(-98.89 -88.42) rotate(-0.21)"/><g class="cls-5"><path d="M216.68,176c2.68,0,5,.74,5,3.72A3.49,3.49,0,0,1,219.8,183a3.34,3.34,0,0,1,2.55,3.53c0,3.07-2.26,4.28-5.14,4.29l-5.52,0L211.63,176Zm.29,6.53c2,0,3.31-.69,3.3-2.71,0-1.78-1.28-2.57-3.26-2.56h-4l0,5.28Zm.31,7.06c2.41,0,3.62-1.1,3.61-3s-1.22-2.86-3.75-2.85l-4.11,0,0,5.87Z" transform="translate(-97.45 -90.77)"/><path d="M233.89,185.31c0,4-2.33,5.74-5,5.75s-5-1.7-5-5.71,2.31-5.74,5-5.75S233.87,181.3,233.89,185.31Zm-1.35,0c0-3.15-1.55-4.56-3.66-4.55s-3.62,1.43-3.6,4.58,1.53,4.56,3.64,4.55S232.55,188.46,232.53,185.31Z" transform="translate(-97.45 -90.77)"/><path d="M239.64,180.66c-1.21,0-2.8.48-2.8,1.81,0,1.08.87,1.65,2.07,1.88l1.56.28c1.8.32,3.81.93,3.82,3s-2,3.36-4.37,3.37-4.24-1.11-4.58-3.62h1.33c.25,1.74,1.65,2.51,3.34,2.5,1.33,0,3-.56,3-2,0-1.29-1.23-1.73-2.73-2l-1.72-.32c-1.6-.3-3-1.22-3-2.94s1.73-3,4.2-3a4,4,0,0,1,4.25,3.2h-1.33A2.82,2.82,0,0,0,239.64,180.66Z" transform="translate(-97.45 -90.77)"/><path d="M251.67,179.51c2.6,0,3.71,1.54,3.72,4.24l0,6.94h-1.27l0-6.59c0-2.07-.54-3.46-2.77-3.45-1.9,0-3.33,1.61-3.32,3.94l0,6.12h-1.27l0-11H248v1.86A3.8,3.8,0,0,1,251.67,179.51Z" transform="translate(-97.45 -90.77)"/><path d="M259.38,177.87h-1.27v-2h1.27Zm0,12.81h-1.27l0-11h1.27Z" transform="translate(-97.45 -90.77)"/><path d="M265.28,190.92c-2,0-3.65-1.17-3.65-3,0-2.5,2.44-3.43,7.74-4v-.39c0-2.5-1.48-3-3.08-3-1.86,0-3,1.05-3.08,2.49h-1.33a4.2,4.2,0,0,1,4.49-3.62c2.56,0,4.26,1,4.27,4.32,0,1.51,0,2.52,0,3.4,0,1.25.07,2.33.14,3.52h-1.29l-.07-1.68A4.54,4.54,0,0,1,265.28,190.92Zm4.15-5.31v-.53c-4.48.51-6.4,1.11-6.39,2.83,0,1.17,1.07,1.9,2.52,1.89C267.61,189.79,269.45,188.73,269.44,185.6Z" transform="translate(-97.45 -90.77)"/><path d="M272.65,184.3l5.73,0v1.43l-5.73,0Z" transform="translate(-97.45 -90.77)"/><path d="M290.5,175.73V177l-8.14,0,0,5.24,7.65,0v1.29l-7.65,0,0,5.77,8.14,0v1.27l-9.51,0L281,175.76Z" transform="translate(-97.45 -90.77)"/><path d="M297,180.8c-2.27,0-3,1.65-3,4l0,5.77h-1.25l0-11H294v2a3.53,3.53,0,0,1,3.25-2.1,2.46,2.46,0,0,1,.37,0v1.35C297.4,180.8,297.21,180.8,297,180.8Z" transform="translate(-97.45 -90.77)"/><path d="M305,180.6l-6.32,0v-1.11l7.84,0v1.11l-6.76,8.82,6.9,0v1.1l-8.39,0v-1.1Z" transform="translate(-97.45 -90.77)"/><path d="M313.27,179.28c3.11,0,5.08,2.6,4.93,6l-8.76,0c.05,2.66,1.73,4.23,4,4.22a3.23,3.23,0,0,0,3.35-2.41h1.33a4.56,4.56,0,0,1-4.75,3.58c-3.23,0-5.21-2.29-5.22-5.71S310.33,179.3,313.27,179.28Zm3.54,4.88a3.61,3.61,0,0,0-3.55-3.73c-2,0-3.51,1.32-3.77,3.76Z" transform="translate(-97.45 -90.77)"/><path d="M324.18,190.25c-2.52,0-4.59-2-4.6-5.49s2-5.51,4.56-5.52a4.12,4.12,0,0,1,3.73,2.07v-1.9h1.29l0,10.62c0,2.95-2,4.24-4.65,4.25-2.27,0-4.06-1.23-4.27-3.22h1.33c.15,1.17,1.11,2.12,3,2.12,2.07,0,3.33-1,3.32-3v-2A4.1,4.1,0,0,1,324.18,190.25Zm-3.23-5.49c0,2.72,1.45,4.37,3.49,4.37,1.68,0,3.56-1.34,3.54-4.39s-1.9-4.35-3.58-4.35C322.36,180.4,320.94,182.06,320.95,184.76Z" transform="translate(-97.45 -90.77)"/><path d="M341.35,184.91c0,4-2.33,5.74-5,5.75s-5-1.7-5-5.71,2.31-5.74,5-5.75S341.34,180.9,341.35,184.91Zm-1.35,0c0-3.15-1.55-4.56-3.66-4.55s-3.62,1.43-3.6,4.58,1.53,4.56,3.64,4.55S340,188.07,340,184.92Z" transform="translate(-97.45 -90.77)"/><path d="M350.13,179.33h1.37l-4.05,11h-1.23l-4.26-11h1.43l3.45,9.24Z" transform="translate(-97.45 -90.77)"/><path d="M354.3,177.52H353v-2h1.27Zm0,12.81h-1.27l0-11h1.27Z" transform="translate(-97.45 -90.77)"/><path d="M362.31,179.1c2.6,0,3.71,1.54,3.72,4.24l0,6.94h-1.27l0-6.59c0-2.07-.54-3.46-2.77-3.45-1.9,0-3.33,1.61-3.32,3.94l0,6.12h-1.27l0-11h1.27v1.86A3.8,3.8,0,0,1,362.31,179.1Z" transform="translate(-97.45 -90.77)"/><path d="M371.58,190.53c-2,0-3.65-1.17-3.65-3,0-2.5,2.44-3.43,7.74-4v-.39c0-2.5-1.48-3-3.08-3-1.86,0-3,1.05-3.08,2.49h-1.33a4.2,4.2,0,0,1,4.49-3.62c2.56,0,4.26,1,4.27,4.32,0,1.51,0,2.52,0,3.4,0,1.25.07,2.33.14,3.52h-1.29l-.07-1.68A4.54,4.54,0,0,1,371.58,190.53Zm4.15-5.31v-.53c-4.48.51-6.4,1.11-6.39,2.83,0,1.17,1.07,1.9,2.52,1.89C373.91,189.39,375.74,188.34,375.73,185.21Z" transform="translate(-97.45 -90.77)"/></g><g class="cls-5"><path class="cls-7" d="M213.58,301l17.31,45-4.53,0L222,334.7l-21.43.08-4.18,11.32-4.47,0L208.86,301Zm6.94,29.85-9.41-24.68L202,330.92Z" transform="translate(-97.45 -90.77)"/><path class="cls-7" d="M235.54,346l-.17-45h3.85l.17,45Z" transform="translate(-97.45 -90.77)"/><path class="cls-7" d="M252.53,340.42l0,5.46H248.7l-.17-45h3.85l.06,17.39a12.63,12.63,0,0,1,11.28-6.38c7.7,0,14,6.28,14,17.34s-6.21,17.41-13.91,17.44A12.71,12.71,0,0,1,252.53,340.42Zm21.07-11.19c0-8.88-4.46-13.9-10.67-13.87-5,0-10.73,4.08-10.69,14S258,343.2,263,343.18C269.25,343.16,273.64,338.11,273.61,329.23Z" transform="translate(-97.45 -90.77)"/><path class="cls-7" d="M292.92,346.55c-6.21,0-11.07-3.56-11.09-9.09,0-7.58,7.41-10.4,23.49-12.07v-1.18c0-7.58-4.51-9.24-9.35-9.22-5.65,0-9.06,3.2-9.35,7.55h-4c.85-6.59,6.17-11,13.62-11,7.76,0,12.93,3.18,13,13.12,0,4.6,0,7.64,0,10.31,0,3.79.21,7.08.41,10.68h-3.91l-.21-5.09C303.28,344.15,299.13,346.53,292.92,346.55Zm12.61-16.13V328.8c-13.6,1.54-19.43,3.36-19.41,8.58,0,3.54,3.25,5.76,7.66,5.75C300,343.11,305.57,339.92,305.53,330.42Z" transform="translate(-97.45 -90.77)"/><path class="cls-7" d="M332.16,311.63c7.89,0,11.26,4.68,11.29,12.88l.08,21.05h-3.85l-.07-20c0-6.27-1.65-10.49-8.42-10.47-5.77,0-10.1,4.88-10.08,12l.07,18.57h-3.85l-.12-33.41h3.85l0,5.65C322.67,314.7,326,311.65,332.16,311.63Z" transform="translate(-97.45 -90.77)"/><path class="cls-7" d="M355.56,306.63h-3.85l0-6.15h3.85Zm.14,38.88h-3.85l-.12-33.41h3.85Z" transform="translate(-97.45 -90.77)"/><path class="cls-7" d="M373.47,346.25c-6.21,0-11.07-3.56-11.09-9.09,0-7.58,7.41-10.4,23.49-12.07v-1.18c0-7.58-4.51-9.24-9.35-9.22-5.65,0-9.05,3.2-9.35,7.55h-4c.85-6.59,6.17-11,13.62-11,7.76,0,12.93,3.18,13,13.12,0,4.6,0,7.64,0,10.31,0,3.79.21,7.08.41,10.68h-3.91l-.21-5.09C383.83,343.85,379.68,346.23,373.47,346.25Zm12.61-16.13v-1.62c-13.59,1.54-19.43,3.36-19.41,8.58,0,3.54,3.25,5.76,7.66,5.75C380.53,342.81,386.11,339.62,386.07,330.12Z" transform="translate(-97.45 -90.77)"/></g><rect class="cls-4" x="422.86" y="155.37" width="162" height="182" transform="translate(-98.35 -88.91) rotate(-0.21)"/><g class="cls-5"><path class="cls-7" d="M512.22,308c6.35,0,9.35-2.35,9.33-8.62s-3.49-8.65-9.88-8.63l-17.57.06V288l17.25-.06c8.58,0,12.78,3,12.82,11.34,0,8-3.25,11.32-12.41,11.35l-17.57.06V308Z" transform="translate(-97.45 -90.77)"/><path class="cls-7" d="M508.65,267.21a6.46,6.46,0,0,0-5.06,6.61c0,3.78,3,7.11,9.06,7.09,6.22,0,9.1-3.37,9.09-7.19a6.58,6.58,0,0,0-5.15-6.69v-2.69a9.12,9.12,0,0,1,7.48,9.37c0,6.22-4.6,9.86-11.35,9.89s-11.4-3.62-11.43-10a8.88,8.88,0,0,1,7.37-9Z" transform="translate(-97.45 -90.77)"/><path class="cls-7" d="M504.08,251.85c0,4.52,3.28,6,7.91,6l11.47,0v2.48l-21.88.08v-2.4h4a7,7,0,0,1-4.17-6.45,4.62,4.62,0,0,1,0-.73h2.68C504.08,251.12,504.08,251.48,504.08,251.85Z" transform="translate(-97.45 -90.77)"/><path class="cls-7" d="M523.94,242.22c0,4.07-2.33,7.25-6,7.26-5,0-6.81-4.86-7.91-15.39h-.77c-5,0-6,3-6,6.12,0,3.7,2.1,5.93,4.95,6.12V249c-4.32-.55-7.18-4-7.19-8.92,0-5.08,2.08-8.47,8.59-8.49,3,0,5,0,6.75,0,2.48,0,4.64-.14,7-.27v2.56L520,234C522.37,235.43,523.92,238.15,523.94,242.22ZM513.37,234h-1.06c1,8.91,2.2,12.73,5.62,12.71,2.32,0,3.78-2.13,3.76-5C521.68,237.59,519.59,233.94,513.37,234Z" transform="translate(-97.45 -90.77)"/><path class="cls-7" d="M497.88,223.81v2.52l-4,0v-2.52Zm25.46-.09v2.52l-21.88.08v-2.52Z" transform="translate(-97.45 -90.77)"/><path class="cls-7" d="M501,207.89c0-5.17,3.06-7.37,8.43-7.39l13.79-.05V203l-13.1,0c-4.11,0-6.87,1.08-6.85,5.52,0,3.78,3.2,6.62,7.83,6.6l12.16,0v2.52l-21.88.08v-2.52h3.7C503,214.11,501,212,501,207.89Z" transform="translate(-97.45 -90.77)"/><path class="cls-7" d="M523.74,189.46c0,4.07-2.33,7.25-6,7.26-5,0-6.81-4.86-7.91-15.39h-.77c-5,0-6.05,3-6,6.12,0,3.7,2.1,5.93,4.95,6.12v2.64c-4.31-.55-7.18-4-7.19-8.92,0-5.08,2.08-8.47,8.59-8.49,3,0,5,0,6.75,0,2.48,0,4.64-.14,7-.27v2.56l-3.33.13C522.17,182.68,523.73,185.39,523.74,189.46Zm-10.57-8.26h-1.06c1,8.91,2.2,12.73,5.62,12.71,2.32,0,3.78-2.13,3.76-5C521.49,184.83,519.4,181.18,513.18,181.2Z" transform="translate(-97.45 -90.77)"/></g><rect class="cls-4" x="586.86" y="154.93" width="74" height="182" transform="translate(-98.35 -88.47) rotate(-0.21)"/><g class="cls-5"><path d="M634,191l-19.49.07v-2l21.37-.08v3.18l-19.11,7.15,19.16,7v3.15l-21.37.08v-2l19.49-.07-19.51-7.18v-2Z" transform="translate(-97.45 -90.77)"/><path d="M622.51,227.41c-5.78,0-8.27-3.36-8.28-7.16s2.45-7.17,8.23-7.19,8.27,3.33,8.28,7.13S628.29,227.39,622.51,227.41Zm0-1.95c4.54,0,6.57-2.23,6.55-5.27S627,215,622.47,215s-6.57,2.21-6.56,5.24S618,225.48,622.51,225.47Z" transform="translate(-97.45 -90.77)"/><path d="M614.65,230.62l21.37-.08v1.83l-21.37.08Z" transform="translate(-97.45 -90.77)"/><path d="M627.83,247.55l8.25,0v1.83l-21.37.08V247.6h2.59a6,6,0,0,1-3-5.35c0-3.66,3-6.64,8.23-6.66s8.26,2.95,8.28,6.6A6,6,0,0,1,627.83,247.55Zm-5.28-10c-4.22,0-6.6,2.12-6.58,5.07,0,2.39,1.93,5.09,6.62,5.08s6.59-2.74,6.58-5.12C629.16,239.62,626.77,237.53,622.55,237.55Z" transform="translate(-97.45 -90.77)"/><path d="M614.37,257.86c0-2.95,1.69-5.25,4.31-5.26,3.6,0,4.94,3.52,5.73,11.15H625c3.6,0,4.38-2.14,4.38-4.44,0-2.68-1.52-4.3-3.58-4.44v-1.92c3.13.4,5.2,2.93,5.21,6.47s-1.51,6.14-6.23,6.15c-2.18,0-3.63,0-4.89,0-1.8,0-3.36.1-5.07.2V263.9l2.42-.1C615.51,262.78,614.38,260.8,614.37,257.86Zm7.66,6h.77c-.73-6.45-1.6-9.22-4.07-9.21-1.68,0-2.74,1.54-2.73,3.64C616,261.21,617.52,263.86,622,263.84Z" transform="translate(-97.45 -90.77)"/><path d="M630.69,278.84v2L614.82,275v-1.77l15.84-6.13v2.06l-13.31,5Z" transform="translate(-97.45 -90.77)"/><path d="M614.85,284.91v-1.83l15.86-.06v1.83Zm18.45-.07V283h2.92v1.83Z" transform="translate(-97.45 -90.77)"/><path d="M614.5,293.34c0-2.95,1.69-5.25,4.31-5.26,3.6,0,4.94,3.52,5.73,11.15h.56c3.6,0,4.38-2.14,4.38-4.44,0-2.68-1.52-4.3-3.58-4.44v-1.92c3.13.4,5.2,2.93,5.21,6.47s-1.51,6.14-6.23,6.15c-2.18,0-3.63,0-4.89,0-1.8,0-3.36.1-5.07.2v-1.86l2.42-.1C615.64,298.26,614.51,296.29,614.5,293.34Zm7.66,6h.77c-.73-6.45-1.6-9.22-4.07-9.21-1.68,0-2.74,1.54-2.73,3.64C616.14,296.7,617.65,299.34,622.16,299.33Z" transform="translate(-97.45 -90.77)"/></g><rect class="cls-4" x="423.4" y="339.32" width="185" height="108" transform="translate(-98.89 -88.86) rotate(-0.21)"/><g class="cls-5"><path d="M470.76,386.13c-1.19-4.72-5.14-6.51-9.09-6.49-5.67,0-10,4.38-10,12.19,0,7.54,4.07,12.18,9.89,12.16,4.18,0,9.45-1.67,9.43-8.51v-1.06l-7.93,0V392l10.43,0,.05,14h-2.31l-.05-4c-1.71,2.7-4.75,4.51-9.64,4.53-8.13,0-12.61-6.09-12.64-14.65s4.75-14.67,12.84-14.7c6,0,10.48,3.09,11.76,9Z" transform="translate(-97.45 -90.77)"/><path d="M487.56,384.5c5.94,0,9.71,5,9.42,11.53l-16.72.06c.1,5.08,3.31,8.08,7.61,8.06,3.28,0,5.58-1.7,6.39-4.6h2.54c-1,4.34-4.47,6.82-9.08,6.83-6.17,0-9.94-4.38-10-10.91C477.72,388.68,481.93,384.52,487.56,384.5Zm6.76,9.31a6.89,6.89,0,0,0-6.79-7.13c-3.91,0-6.71,2.53-7.2,7.18Z" transform="translate(-97.45 -90.77)"/><path d="M518.78,395.33c0,7.66-4.45,11-9.49,11s-9.51-3.25-9.54-10.91,4.41-11,9.46-11S518.75,387.67,518.78,395.33Zm-2.58,0c0-6-3-8.7-7-8.69s-6.91,2.72-6.88,8.74,2.92,8.7,6.95,8.69S516.22,401.36,516.2,395.34Z" transform="translate(-97.45 -90.77)"/><path d="M531.1,387.12c-4.34,0-5.73,3.15-5.72,7.6l0,11H523l-.08-21h2.31v3.83a6.73,6.73,0,0,1,6.2-4,4.6,4.6,0,0,1,.7,0v2.58A10.59,10.59,0,0,0,531.1,387.12Z" transform="translate(-97.45 -90.77)"/><path d="M542.18,405.32c-4.81,0-8.77-3.92-8.79-10.48s3.91-10.53,8.71-10.54a7.86,7.86,0,0,1,7.13,4v-3.63h2.46l.07,20.28c0,5.63-3.88,8.1-8.88,8.12-4.34,0-7.75-2.36-8.15-6.14h2.54c.28,2.23,2.13,4.06,5.68,4,3.95,0,6.36-1.82,6.35-5.73v-3.83A7.83,7.83,0,0,1,542.18,405.32ZM536,394.84c0,5.2,2.77,8.35,6.67,8.34,3.2,0,6.79-2.56,6.77-8.39s-3.63-8.31-6.83-8.3C538.71,386.5,536,389.68,536,394.84Z" transform="translate(-97.45 -90.77)"/><path d="M560,381.15h-2.42v-3.87h2.42Zm.09,24.46h-2.42l-.08-21H560Z" transform="translate(-97.45 -90.77)"/><path d="M571.22,406.08c-3.91,0-7-2.24-7-5.72,0-4.77,4.67-6.54,14.78-7.6V392c0-4.77-2.83-5.81-5.88-5.8-3.56,0-5.7,2-5.88,4.75h-2.54c.53-4.14,3.88-6.89,8.57-6.91,4.88,0,8.13,2,8.16,8.25,0,2.89,0,4.81,0,6.49,0,2.38.13,4.46.26,6.72h-2.46l-.13-3.2C577.74,404.57,575.13,406.06,571.22,406.08Zm7.93-10.15v-1c-8.55,1-12.22,2.12-12.21,5.4,0,2.23,2,3.63,4.82,3.62C575.66,403.91,579.17,401.91,579.15,395.93Z" transform="translate(-97.45 -90.77)"/></g><rect class="cls-4" x="610.4" y="338.88" width="51" height="108" transform="translate(-98.89 -88.42) rotate(-0.21)"/><g class="cls-5"><path d="M643.21,370.9v-1.78c2.14-.64,3.3-2.48,3.29-5.28,0-1.86-.76-4.48-3.17-4.47-1.86,0-2.79,1.51-3.25,3.58l-.48,2.19c-.6,2.68-1.66,6.22-5.17,6.23s-5.41-3.21-5.42-6.8c0-4.61,2.55-7.17,5.85-7.59v1.78c-2.93.65-4.24,2.72-4.23,5.72,0,2,.76,5.12,3.51,5.11,2.27,0,3.3-2.2,3.85-4.8l.5-2.32c.55-2.42,1.71-4.85,4.74-4.86,3.41,0,4.88,3.42,4.89,6.4C648.14,367.63,646.34,370.23,643.21,370.9Z" transform="translate(-97.45 -90.77)"/><path d="M643.32,379.69c0,3.87-3.24,6.33-7.51,6.14l0-10.9c-3.31.06-5.26,2.16-5.25,5a4,4,0,0,0,3,4.17v1.66a5.67,5.67,0,0,1-4.45-5.92c0-4,2.85-6.48,7.11-6.5C640.6,373.28,643.31,376,643.32,379.69Zm-6.07,4.4a4.49,4.49,0,0,0,4.64-4.42c0-2.55-1.65-4.37-4.68-4.69Z" transform="translate(-97.45 -90.77)"/><path d="M641.57,393.85c0-2.83-2.05-3.74-5-3.73l-7.18,0V388.6l13.7-.05V390h-2.5a4.39,4.39,0,0,1,2.61,4,2.92,2.92,0,0,1,0,.46h-1.68A6.91,6.91,0,0,0,641.57,393.85Z" transform="translate(-97.45 -90.77)"/><path d="M631.7,398.11h-2.24v-1.58l18.46-.07v1.58l-7.13,0a5.18,5.18,0,0,1,2.61,4.63c0,3.16-2.58,5.74-7.11,5.76s-7.14-2.55-7.15-5.7A5.21,5.21,0,0,1,631.7,398.11Zm4.59,8.64c3.64,0,5.7-1.83,5.69-4.38,0-2.06-1.67-4.4-5.72-4.38s-5.7,2.36-5.69,4.43C630.58,405,632.65,406.77,636.29,406.75Z" transform="translate(-97.45 -90.77)"/><path d="M629.51,412.78v-1.58l13.7-.05v1.58Zm15.94-.06v-1.58H648v1.58Z" transform="translate(-97.45 -90.77)"/><path d="M629.21,420.07c0-2.55,1.46-4.54,3.73-4.55,3.11,0,4.26,3,5,9.63h.48c3.11,0,3.79-1.85,3.78-3.83,0-2.32-1.31-3.71-3.1-3.83v-1.66c2.7.35,4.49,2.53,4.5,5.59s-1.3,5.3-5.38,5.32c-1.88,0-3.13,0-4.23,0-1.55,0-2.9.09-4.38.17v-1.6l2.09-.08C630.19,424.32,629.22,422.61,629.21,420.07Zm6.62,5.17h.66c-.63-5.57-1.38-8-3.52-8-1.45,0-2.37,1.33-2.36,3.14C630.62,423,631.93,425.25,635.83,425.24Z" transform="translate(-97.45 -90.77)"/></g></svg>